<svg width="258" height="296" viewBox="0 0 258 296" fill="none" xmlns="http://www.w3.org/2000/svg">
<path d="M19.2529 53.4598C19.2529 34.5678 34.5678 19.2529 53.4598 19.2529H190.287C209.179 19.2529 224.494 34.5678 224.494 53.4598V242.073C224.494 260.965 209.179 276.28 190.287 276.28H53.4598C34.5678 276.28 19.2529 260.965 19.2529 242.073V53.4598Z" fill="#000E22"/>
<path fill-rule="evenodd" clip-rule="evenodd" d="M53.4598 5H190.287C217.051 5 238.747 26.6962 238.747 53.4598V242.073C238.747 268.836 217.051 290.533 190.287 290.533H53.4598C26.6962 290.533 5 268.836 5 242.073V53.4598C5 26.6962 26.6962 5 53.4598 5ZM53.4598 19.2529C34.5678 19.2529 19.2529 34.5678 19.2529 53.4598V242.073C19.2529 260.965 34.5678 276.28 53.4598 276.28H190.287C209.179 276.28 224.494 260.965 224.494 242.073V53.4598C224.494 34.5678 209.179 19.2529 190.287 19.2529H53.4598Z" fill="#000E22"/>
<path d="M33.5057 53.4598C33.5057 34.5678 48.8207 19.2529 67.7126 19.2529H204.54C223.432 19.2529 238.747 34.5678 238.747 53.4598V242.073C238.747 260.965 223.432 276.28 204.54 276.28H67.7126C48.8207 276.28 33.5057 260.965 33.5057 242.073V53.4598Z" fill="#000E22"/>
<path fill-rule="evenodd" clip-rule="evenodd" d="M67.7126 5H204.54C231.304 5 253 26.6962 253 53.4598V242.073C253 268.836 231.304 290.533 204.54 290.533H67.7126C40.9491 290.533 19.2529 268.836 19.2529 242.073V53.4598C19.2529 26.6962 40.9491 5 67.7126 5ZM67.7126 19.2529C48.8207 19.2529 33.5057 34.5678 33.5057 53.4598V242.073C33.5057 260.965 48.8207 276.28 67.7126 276.28H204.54C223.432 276.28 238.747 260.965 238.747 242.073V53.4598C238.747 34.5678 223.432 19.2529 204.54 19.2529H67.7126Z" fill="#000E22"/>
<path d="M19.2529 242.073V53.4598M19.2529 242.073C19.2529 260.965 34.5678 276.28 53.4598 276.28H190.287C209.179 276.28 224.494 260.965 224.494 242.073V53.4598C224.494 34.5678 209.179 19.2529 190.287 19.2529H53.4598C34.5678 19.2529 19.2529 34.5678 19.2529 53.4598M19.2529 242.073C19.2529 268.836 40.9491 290.533 67.7126 290.533H204.54C231.304 290.533 253 268.836 253 242.073V53.4598C253 26.6962 231.304 5 204.54 5H67.7126C40.9491 5 19.2529 26.6962 19.2529 53.4598M238.747 53.4598C238.747 26.6962 217.051 5 190.287 5H53.4598C26.6962 5 5 26.6962 5 53.4598V242.073C5 268.836 26.6962 290.533 53.4598 290.533H190.287C217.051 290.533 238.747 268.836 238.747 242.073M238.747 53.4598V242.073M238.747 53.4598C238.747 34.5678 223.432 19.2529 204.54 19.2529H67.7126C48.8207 19.2529 33.5057 34.5678 33.5057 53.4598V242.073C33.5057 260.965 48.8207 276.28 67.7126 276.28H204.54C223.432 276.28 238.747 260.965 238.747 242.073" stroke="white" stroke-width="10"/>
<path d="M19.2529 53.4598C19.2529 34.5678 34.5678 19.2529 53.4598 19.2529H190.287C209.179 19.2529 224.494 34.5678 224.494 53.4598V242.073C224.494 260.965 209.179 276.28 190.287 276.28H53.4598C34.5678 276.28 19.2529 260.965 19.2529 242.073V53.4598Z" fill="#FFFDE7"/>
<path fill-rule="evenodd" clip-rule="evenodd" d="M53.4598 5H190.287C217.051 5 238.747 26.6962 238.747 53.4598V242.073C238.747 268.836 217.051 290.533 190.287 290.533H53.4598C26.6962 290.533 5 268.836 5 242.073V53.4598C5 26.6962 26.6962 5 53.4598 5ZM53.4598 19.2529C34.5678 19.2529 19.2529 34.5678 19.2529 53.4598V242.073C19.2529 260.965 34.5678 276.28 53.4598 276.28H190.287C209.179 276.28 224.494 260.965 224.494 242.073V53.4598C224.494 34.5678 209.179 19.2529 190.287 19.2529H53.4598Z" fill="#000E22"/>
<path d="M33.5057 53.4598C33.5057 34.5678 48.8207 19.2529 67.7126 19.2529H204.54C223.432 19.2529 238.747 34.5678 238.747 53.4598V242.073C238.747 260.965 223.432 276.28 204.54 276.28H67.7126C48.8207 276.28 33.5057 260.965 33.5057 242.073V53.4598Z" fill="#FFFDE7"/>
<path fill-rule="evenodd" clip-rule="evenodd" d="M67.7126 5H204.54C231.304 5 253 26.6962 253 53.4598V242.073C253 268.836 231.304 290.533 204.54 290.533H67.7126C40.9491 290.533 19.2529 268.836 19.2529 242.073V53.4598C19.2529 26.6962 40.9491 5 67.7126 5ZM67.7126 19.2529C48.8207 19.2529 33.5057 34.5678 33.5057 53.4598V242.073C33.5057 260.965 48.8207 276.28 67.7126 276.28H204.54C223.432 276.28 238.747 260.965 238.747 242.073V53.4598C238.747 34.5678 223.432 19.2529 204.54 19.2529H67.7126Z" fill="#000E22"/>
<path d="M19.2529 57.2605C19.2529 48.6017 26.2722 41.5824 34.931 41.5824H208.816C217.475 41.5824 224.494 48.6017 224.494 57.2605V253.475C224.494 262.134 217.475 269.153 208.816 269.153H34.931C26.2722 269.153 19.2529 262.134 19.2529 253.475V57.2605Z" fill="#EEC06E"/>
<path fill-rule="evenodd" clip-rule="evenodd" d="M34.931 33.0307H208.816C222.198 33.0307 233.046 43.8787 233.046 57.2605V253.475C233.046 266.857 222.198 277.705 208.816 277.705H34.931C21.5492 277.705 10.7011 266.857 10.7011 253.475V57.2605C10.7011 43.8788 21.5492 33.0307 34.931 33.0307ZM34.931 41.5824C26.2722 41.5824 19.2529 48.6017 19.2529 57.2605V253.475C19.2529 262.134 26.2722 269.153 34.931 269.153H208.816C217.475 269.153 224.494 262.134 224.494 253.475V57.2605C224.494 48.6017 217.475 41.5824 208.816 41.5824H34.931Z" fill="#000E22"/>
<path d="M34.931 41.5824H208.816V269.153H34.931V41.5824Z" fill="#FFFDE7"/>
<path d="M52.5096 66.2874H191.238V249.674H52.5096V66.2874Z" fill="#174E77"/>
<path fill-rule="evenodd" clip-rule="evenodd" d="M38.7318 52.5096H205.015V263.452H38.7318V52.5096ZM52.5096 66.2874V249.674H191.238V66.2874H52.5096Z" fill="#000E22"/>
<path d="M52.5096 66.2874H191.238V69.613H52.5096V66.2874Z" fill="white"/>
<path d="M52.5096 66.2874H57.2605V249.674H52.5096V66.2874Z" fill="#AED5D6"/>
<path fill-rule="evenodd" clip-rule="evenodd" d="M84.3047 61.2019C84.3812 60.6577 84.4517 60.1559 84.52 59.7034L74.185 58.1434C74.1015 58.6963 74.0199 59.2629 73.9366 59.8407C73.334 64.022 72.6478 68.7834 70.5937 73.1073C68.4368 77.6476 64.8555 81.4911 57.7653 82.7599L59.6064 93.0485C70.5698 91.0867 76.6883 84.6364 80.0347 77.5923C82.8268 71.7147 83.7323 65.2737 84.3047 61.2019ZM88.357 95.6082C93.0674 89.0092 95.4187 81.717 96.1599 76.8068L85.8248 75.2468C85.2991 78.73 83.4932 84.4316 79.8499 89.5358C76.2688 94.5527 71.0863 98.7798 63.704 100.101L59.3985 100.871V152.042H69.8506V109.342C78.2361 106.731 84.2551 101.355 88.357 95.6082Z" fill="#AED5D6"/>
<path fill-rule="evenodd" clip-rule="evenodd" d="M155.642 61.2019C155.565 60.6577 155.495 60.1559 155.426 59.7034L165.761 58.1434C165.845 58.6963 165.927 59.2629 166.01 59.8407C166.612 64.022 167.299 68.7834 169.353 73.1073C171.51 77.6476 175.091 81.4911 182.181 82.7599L180.34 93.0485C169.377 91.0867 163.258 84.6364 159.912 77.5923C157.12 71.7147 156.214 65.2737 155.642 61.2019ZM151.589 95.6082C146.879 89.0092 144.528 81.717 143.786 76.8068L154.122 75.2468C154.647 78.73 156.453 84.4316 160.097 89.5358C163.678 94.5527 168.86 98.7798 176.242 100.101L180.548 100.871V152.042H170.096V109.342C161.71 106.731 155.691 101.355 151.589 95.6082Z" fill="#AED5D6"/>
<path fill-rule="evenodd" clip-rule="evenodd" d="M84.3047 248.821C84.3812 249.365 84.4517 249.867 84.52 250.32L74.185 251.88C74.1015 251.327 74.0199 250.76 73.9366 250.182C73.334 246.001 72.6478 241.24 70.5937 236.916C68.4368 232.375 64.8555 228.532 57.7653 227.263L59.6064 216.974C70.5698 218.936 76.6883 225.387 80.0347 232.431C82.8268 238.308 83.7323 244.749 84.3047 248.821ZM88.357 214.415C93.0674 221.014 95.4187 228.306 96.1599 233.216L85.8248 234.776C85.2991 231.293 83.4932 225.591 79.8499 220.487C76.2688 215.47 71.0863 211.243 63.704 209.922L59.3985 209.152V157.981H69.8506V200.681C78.2361 203.292 84.2551 208.668 88.357 214.415Z" fill="#AED5D6"/>
<path fill-rule="evenodd" clip-rule="evenodd" d="M155.642 248.821C155.565 249.365 155.495 249.867 155.426 250.32L165.761 251.88C165.845 251.327 165.927 250.76 166.01 250.182C166.612 246.001 167.299 241.24 169.353 236.916C171.51 232.375 175.091 228.532 182.181 227.263L180.34 216.974C169.377 218.936 163.258 225.387 159.912 232.431C157.12 238.308 156.214 244.749 155.642 248.821ZM151.589 214.415C146.879 221.014 144.528 228.306 143.786 233.216L154.122 234.776C154.647 231.293 156.453 225.591 160.097 220.487C163.678 215.47 168.86 211.243 176.242 209.922L180.548 209.152V157.981H170.096V200.681C161.71 203.292 155.691 208.668 151.589 214.415Z" fill="#AED5D6"/>
<path fill-rule="evenodd" clip-rule="evenodd" d="M86.2051 61.2019C86.2815 60.6577 86.3521 60.1559 86.4204 59.7034L76.0854 58.1434C76.0019 58.6963 75.9202 59.2629 75.837 59.8407C75.2344 64.022 74.5482 68.7834 72.4941 73.1073C70.3372 77.6476 66.7559 81.4911 59.6656 82.7599L61.5068 93.0485C72.4702 91.0867 78.5887 84.6364 81.935 77.5923C84.7272 71.7147 85.6327 65.2737 86.2051 61.2019ZM90.2574 95.6082C94.9678 89.0092 97.3191 81.717 98.0602 76.8068L87.7252 75.2468C87.1994 78.73 85.3936 84.4316 81.7503 89.5358C78.1692 94.5527 72.9867 98.7798 65.6043 100.101L61.2989 100.871V152.042H71.751V109.342C80.1365 106.731 86.1555 101.355 90.2574 95.6082Z" fill="#000E22"/>
<path fill-rule="evenodd" clip-rule="evenodd" d="M157.542 61.2019C157.466 60.6577 157.395 60.1559 157.327 59.7034L167.662 58.1434C167.745 58.6963 167.827 59.2629 167.91 59.8407C168.513 64.022 169.199 68.7834 171.253 73.1073C173.41 77.6476 176.991 81.4911 184.081 82.7599L182.24 93.0485C171.277 91.0867 165.158 84.6364 161.812 77.5923C159.02 71.7147 158.115 65.2737 157.542 61.2019ZM153.49 95.6082C148.779 89.0092 146.428 81.717 145.687 76.8068L156.022 75.2468C156.548 78.73 158.354 84.4316 161.997 89.5358C165.578 94.5527 170.76 98.7798 178.143 100.101L182.448 100.871V152.042H171.996V109.342C163.611 106.731 157.592 101.355 153.49 95.6082Z" fill="#000E22"/>
<path fill-rule="evenodd" clip-rule="evenodd" d="M86.2051 248.821C86.2815 249.365 86.3521 249.867 86.4204 250.32L76.0854 251.88C76.0019 251.327 75.9202 250.76 75.837 250.182C75.2344 246.001 74.5482 241.24 72.4941 236.916C70.3372 232.375 66.7559 228.532 59.6656 227.263L61.5068 216.974C72.4702 218.936 78.5887 225.387 81.935 232.431C84.7272 238.308 85.6327 244.749 86.2051 248.821ZM90.2574 214.415C94.9678 221.014 97.3191 228.306 98.0602 233.216L87.7252 234.776C87.1994 231.293 85.3936 225.591 81.7503 220.487C78.1692 215.47 72.9867 211.243 65.6043 209.922L61.2989 209.152V157.981H71.751V200.681C80.1365 203.292 86.1555 208.668 90.2574 214.415Z" fill="#000E22"/>
<path fill-rule="evenodd" clip-rule="evenodd" d="M157.542 248.821C157.466 249.365 157.395 249.867 157.327 250.32L167.662 251.88C167.745 251.327 167.827 250.76 167.91 250.182C168.513 246.001 169.199 241.24 171.253 236.916C173.41 232.375 176.991 228.532 184.081 227.263L182.24 216.974C171.277 218.936 165.158 225.387 161.812 232.431C159.02 238.308 158.115 244.749 157.542 248.821ZM153.49 214.415C148.779 221.014 146.428 228.306 145.687 233.216L156.022 234.776C156.548 231.293 158.354 225.591 161.997 220.487C165.578 215.47 170.76 211.243 178.143 209.922L182.448 209.152V157.981H171.996V200.681C163.611 203.292 157.592 208.668 153.49 214.415Z" fill="#000E22"/>
<path d="M121.874 78.1648L170.013 161.544H73.7346L121.874 78.1648Z" fill="#EEC06E"/>
<path fill-rule="evenodd" clip-rule="evenodd" d="M121.874 56.3103L188.939 172.471H54.8081L121.874 56.3103ZM121.874 78.1648L73.7346 161.544H170.013L121.874 78.1648Z" fill="#000E22"/>
<path d="M121.874 233.996L73.7345 150.617H170.013L121.874 233.996Z" fill="#EEC06E"/>
<path fill-rule="evenodd" clip-rule="evenodd" d="M121.874 255.851L54.808 139.69L188.939 139.69L121.874 255.851ZM121.874 233.996L170.013 150.617H73.7345L121.874 233.996Z" fill="#000E22"/>
<path d="M122.824 131.851C97.5487 131.851 81.5696 148.004 76.7395 156.08C83.8659 165.266 103.06 183.684 122.824 183.874C142.588 184.064 160.515 165.424 167.008 156.08C162.811 148.004 148.099 131.851 122.824 131.851Z" fill="#FFFDE7"/>
<path fill-rule="evenodd" clip-rule="evenodd" d="M40.5549 158.27L51.0516 140.718C59.7747 126.132 84.3756 101.92 122.824 101.92C161.729 101.92 185.464 126.684 193.567 142.28L201.901 158.318L191.587 173.161C186.715 180.172 178.431 189.588 167.814 197.525C157.494 205.24 141.693 213.987 122.536 213.803C103.911 213.624 88.1668 205.155 77.7488 197.78C66.9457 190.132 58.2743 181.108 53.0914 174.428L40.5549 158.27ZM167.008 156.08C160.515 165.424 142.588 184.064 122.824 183.874C103.06 183.684 83.8659 165.266 76.7395 156.08C81.5696 148.004 97.5487 131.851 122.824 131.851C148.099 131.851 162.811 148.004 167.008 156.08Z" fill="#000E22"/>
<path d="M122.824 131.851C97.5487 131.851 81.5696 148.004 76.7395 156.08C83.8659 165.266 103.06 183.684 122.824 183.874C142.588 184.064 160.515 165.424 167.008 156.08C162.811 148.004 148.099 131.851 122.824 131.851Z" fill="#FFFDE7"/>
<path fill-rule="evenodd" clip-rule="evenodd" d="M57.7857 157.227L63.2839 148.034C70.1532 136.547 90.6485 116.172 122.824 116.172C155.239 116.172 174.677 136.836 180.92 148.852L185.285 157.253L179.882 165.027C175.784 170.924 168.538 179.188 159.28 186.109C150.177 192.914 137.413 199.693 122.673 199.551C108.211 199.412 95.3266 192.76 85.9839 186.147C76.4395 179.39 68.764 171.377 64.3524 165.691L57.7857 157.227ZM76.7395 156.08C81.5696 148.004 97.5487 131.851 122.824 131.851C148.099 131.851 162.811 148.004 167.008 156.08C160.515 165.424 142.588 184.064 122.824 183.874C103.06 183.684 83.8659 165.266 76.7395 156.08Z" fill="#FFFDE7"/>
<path d="M122.824 131.851C97.5487 131.851 81.5696 148.004 76.7395 156.08C83.8659 165.266 103.06 183.684 122.824 183.874C142.588 184.064 160.515 165.424 167.008 156.08C162.811 148.004 148.099 131.851 122.824 131.851Z" fill="#FFFDE7"/>
<path fill-rule="evenodd" clip-rule="evenodd" d="M65.8267 156.741L68.9923 151.447C74.9965 141.408 93.5758 122.824 122.824 122.824C152.21 122.824 169.643 141.574 175.018 151.918L177.531 156.755L174.42 161.232C170.684 166.609 163.921 174.335 155.297 180.782C146.763 187.162 135.416 193.022 122.737 192.9C110.218 192.78 98.6678 186.976 89.827 180.718C80.87 174.377 73.6592 166.836 69.6075 161.614L65.8267 156.741ZM76.7395 156.08C81.5696 148.004 97.5487 131.851 122.824 131.851C148.099 131.851 162.811 148.004 167.008 156.08C160.515 165.424 142.588 184.064 122.824 183.874C103.06 183.684 83.8659 165.266 76.7395 156.08Z" fill="#000E22"/>
<path d="M167.008 156.08C162.811 148.004 148.099 131.851 122.824 131.851V183.874C142.588 184.064 160.515 165.424 167.008 156.08Z" fill="#F0BB6B"/>
<path d="M122.824 183.874C142.588 184.064 160.515 165.424 167.008 156.08C165.918 153.984 162.019 148.241 158.931 145.628C134.464 166.533 112.773 177.935 85.7663 165.82C95.0913 174.339 109.095 183.742 122.824 183.874Z" fill="#F1B75D"/>
<path d="M123.046 183.874C142.81 184.064 160.737 165.424 167.23 156.08C166.14 153.984 162.241 148.241 159.153 145.628C140.761 161.342 123.937 171.687 105.245 170.709C108.074 175.448 113.292 181.076 121.232 183.803C121.837 183.844 122.441 183.868 123.046 183.874Z" fill="#AD6201"/>
<path d="M146.579 154.18C146.579 167.824 135.518 178.885 121.874 178.885C108.229 178.885 97.1686 167.824 97.1686 154.18C97.1686 140.536 108.229 129.475 121.874 129.475C135.518 129.475 146.579 140.536 146.579 154.18Z" fill="#000E22"/>
<path d="M138.027 153.23C138.027 162.151 130.795 169.383 121.874 169.383C112.952 169.383 105.72 162.151 105.72 153.23C105.72 144.309 112.952 137.077 121.874 137.077C130.795 137.077 138.027 144.309 138.027 153.23Z" fill="#184F78"/>
<path d="M126.625 148.716C126.625 153.833 122.477 157.981 117.36 157.981C112.244 157.981 108.096 153.833 108.096 148.716C108.096 143.6 112.244 139.452 117.36 139.452C122.477 139.452 126.625 143.6 126.625 148.716Z" fill="white"/>
<path fill-rule="evenodd" clip-rule="evenodd" d="M38.7318 57.9732C39.7612 60.5862 43.5303 66.0023 50.3717 66.7625C45.8107 61.0613 44.9872 55.5185 45.1456 53.4598H54.6475C54.7267 57.7356 58.3057 67.4751 71.9885 72.2261C78.007 63.5097 77.8609 59.1447 77.7279 55.1712C77.7086 54.5965 77.6897 54.0301 77.6897 53.4598H121.874V46.3333H38.7318V57.9732ZM60.3487 53.4598H71.9885C72.8595 56.152 73.6038 62.059 69.613 64.1494C64.6245 66.7625 60.3487 58.6858 60.3487 53.4598Z" fill="#EEC06E"/>
<path fill-rule="evenodd" clip-rule="evenodd" d="M205.015 57.9732C203.986 60.5862 200.217 66.0023 193.375 66.7625C197.936 61.0613 198.76 55.5185 198.602 53.4598H189.1C189.02 57.7356 185.441 67.4751 171.759 72.2261C165.74 63.5097 165.886 59.1447 166.019 55.1712C166.039 54.5965 166.057 54.0301 166.057 53.4598H121.874V46.3333H205.015V57.9732ZM183.398 53.4598H171.759C170.888 56.152 170.143 62.059 174.134 64.1494C179.123 66.7625 183.398 58.6858 183.398 53.4598Z" fill="#EEC06E"/>
<path fill-rule="evenodd" clip-rule="evenodd" d="M38.7318 252.525C39.7612 249.912 43.5303 244.496 50.3717 243.736C45.8107 249.437 44.9872 254.98 45.1456 257.038H54.6475C54.7267 252.762 58.3057 243.023 71.9885 238.272C78.007 246.988 77.8609 251.353 77.7279 255.327C77.7086 255.902 77.6897 256.468 77.6897 257.038H121.874V264.165H38.7318V252.525ZM60.3487 257.038H71.9885C72.8595 254.346 73.6038 248.439 69.613 246.349C64.6245 243.736 60.3487 251.812 60.3487 257.038Z" fill="#EEC06E"/>
<path fill-rule="evenodd" clip-rule="evenodd" d="M205.015 252.525C203.986 249.912 200.217 244.496 193.375 243.736C197.936 249.437 198.76 254.98 198.602 257.038H189.1C189.02 252.762 185.441 243.023 171.759 238.272C165.74 246.988 165.886 251.353 166.019 255.327C166.039 255.902 166.057 256.468 166.057 257.038H121.874V264.165H205.015V252.525ZM183.398 257.038H171.759C170.888 254.346 170.143 248.439 174.134 246.349C179.123 243.736 183.398 251.812 183.398 257.038Z" fill="#EEC06E"/>
<path fill-rule="evenodd" clip-rule="evenodd" d="M180.073 29.705H121.161V24.0038H180.073V29.705Z" fill="#000F22"/>
</svg>
