<svg width="1512" height="581" viewBox="0 0 1512 581" fill="none" xmlns="http://www.w3.org/2000/svg">
<rect width="1518" height="323" transform="matrix(-1 0 0 1 1512 0)" fill="url(#paint0_linear_422_14460)"/>
<rect x="1512" y="524" width="1524" height="201" transform="rotate(180 1512 524)" fill="url(#paint1_linear_422_14460)"/>
<path d="M108.716 359.23C107.141 368.528 70.259 385.644 52.0149 393.039C-3.33538 402.756 -39.7008 373.312 -50.9647 357.376C-61.6639 341.012 -80.1439 308.757 -68.4701 310.647C-62.3503 311.638 -57.1302 314.966 -53.6901 317.878C-60.6392 306.274 -66.6765 273.589 -57.3421 279.296C-49.2638 284.236 -42.0553 296.76 -39.4609 302.404C-46.6567 283.764 -57.6455 248.165 -44.0344 254.894C-27.0205 263.305 -30.6822 281.225 -30.028 267.321C-29.3737 253.418 -18.898 246 -14.5405 249.866C-11.9919 252.128 -12.0226 258.056 -12.6554 262.874C-11.2452 261.184 -8.23395 259.982 -2.40159 260.637C6.08377 261.59 7.43278 273.031 6.75998 282.384C8.23013 273.852 11.0839 264.803 15.4767 268.701C22.6355 275.053 16.5849 277.483 18.1778 289.481C20.8374 274.571 26.6828 283.658 33.2181 284.442C27.3043 279.195 24.1869 251.36 35.8758 259.503C40.7487 262.898 43.88 265.917 45.8041 268.279C43.5847 263.863 41.0939 257.454 40.3692 250.677C39.0529 238.368 47.6639 244.337 53.5777 249.584C47.0481 242.899 52.9282 228.581 56.6844 222.258C62.6085 221.015 73.9315 220.626 71.8308 229.012C80.5713 225.18 81.1453 236.905 80.3397 243.247C81.3647 238.957 85.6693 231.598 94.6882 236.48C102.359 240.633 101.186 249.915 98.9839 255.905C100.829 253.601 104.794 253.043 112.051 260.799C121.873 271.297 97.3629 300.133 83.8801 313.239C88.3864 311.295 97.2609 309.067 96.709 315.708C96.157 322.349 88.1821 327.826 84.2637 329.734C93.9797 327.771 113.295 326.859 112.827 338.922C112.545 346.173 105.946 350.474 98.7876 352.847C104.72 352.581 109.609 353.957 108.716 359.23Z" fill="#021219"/>
<path d="M79.1797 365.879C82.6321 376.51 61.3968 387.381 50.3476 391.489C51.3425 380.352 62.6636 368.845 68.1998 364.483C70.4213 360.519 75.7274 355.248 79.1797 365.879Z" fill="#0A413E"/>
<path d="M56.2534 356.666C61.1697 368.15 47.2749 384.311 39.713 390.956C33.2467 395.185 30.919 393.233 30.3783 390.174C30.1492 393.66 28.031 395.058 21.6548 389.4C7.98221 377.269 11.3322 359.097 14.5781 354.187C17.824 349.277 27.0774 351.366 26.6974 354.924C26.3935 357.77 27.9972 373.698 28.837 381.306C29.4615 383.251 30.0383 385.557 30.2801 387.619C30.3301 386.926 30.4318 386.244 30.5633 385.619C37.0782 371.183 51.3371 345.181 56.2534 356.666Z" fill="#0A413E"/>
<path d="M-4.96429 342.411C4.92388 358.307 8.91445 378.096 9.67371 386.003C5.3806 388.129 -10.7808 386.773 -41.0817 364.339C-7.69504 411.212 -91.182 363.844 -83.2746 353.054C-76.9486 344.422 -66.6664 349.985 -62.316 353.845C-70.1765 343.717 -83.3008 322.538 -72.9146 318.845C-62.5284 315.151 -55.3746 324.948 -53.096 330.309C-54.258 320.56 -55.27 301.337 -50.0217 302.433C-44.7735 303.528 -39.342 323.779 -37.2822 333.768C-36.2002 328.793 -32.6963 319.586 -27.3376 322.56C-21.979 325.534 -18.407 337.532 -17.2909 343.159C-17.3021 336.287 -14.8525 326.515 -4.96429 342.411Z" fill="#0A413E"/>
<path d="M-8.41631 323.768C-21.5367 316.022 -47.9291 294.941 -48.5358 272.591C-49.2942 244.653 -33.7917 262.859 -27.3359 282.498C-28.7163 264.024 -20.9467 245.878 -15.1461 249.356C-10.9945 251.845 -14.1249 269.755 -16.8418 281.147C-14.2969 271.806 -9.18521 258.539 -3.33793 259.833C3.34666 261.313 0.505094 285.129 -1.75126 296.853C1.27616 286.555 8.81564 267.167 14.7543 271.991C20.1106 276.342 15.7194 298.57 12.0449 312.277C13.0835 311.179 14.8907 310.357 17.8947 310.389C26.1469 310.477 29.4951 332.367 24.7991 337.66C20.103 342.952 6.22319 332.306 3.70298 324.506C1.18276 316.705 -0.37384 329.101 -8.41631 323.768Z" fill="#0A413E"/>
<path d="M47.7946 343.04C41.0503 338.539 28.6874 326.643 33.1904 315.058C38.8191 300.577 67.371 365.417 47.7946 343.04Z" fill="#0A413E"/>
<path d="M61.952 323.328C56.3011 317.387 48.4731 303.467 62.3675 295.319C76.262 287.17 67.8799 310.596 61.952 323.328Z" fill="#0A413E"/>
<path d="M75.9718 291.253C69.3079 289.792 57.2165 282.847 62.1616 266.758C67.1067 250.669 73.4289 276.384 75.9718 291.253Z" fill="#0A413E"/>
<path d="M52.9414 295.301C49.3966 291.785 43.9024 283.832 50.2834 280.145C56.6643 276.459 54.7141 288.713 52.9414 295.301Z" fill="#0A413E"/>
<path d="M37.2314 288.596C30.4756 282.231 19.5056 266.636 29.6712 255.179C39.8367 243.722 38.947 272.683 37.2314 288.596Z" fill="#0A413E"/>
<path d="M57.019 219.35C40.4176 225.541 49.1798 249.675 55.6361 260.968C69.5138 252.838 72.5604 236.677 72.349 229.613C74.1563 223.612 73.6204 213.158 57.019 219.35Z" fill="#0A413E"/>
<path d="M83.0856 266.961C77.2965 265.349 68.6741 256.288 80.4975 232.948C92.321 209.608 87.1494 245.898 83.0856 266.961Z" fill="#0A413E"/>
<path d="M79.7679 335.797C75.3601 330.959 70.0663 319.065 84.1541 310.198C98.242 301.331 87.0999 323.57 79.7679 335.797Z" fill="#0A413E"/>
<path d="M92.7153 350.624C88.3881 343.817 83.3523 328.628 97.8267 322.33C112.301 316.031 100.45 338.568 92.7153 350.624Z" fill="#0A413E"/>
<path d="M68.1997 364.484C70.4212 360.52 75.7273 355.249 79.1796 365.88C80.3536 369.495 78.6727 373.138 75.5083 376.533C69.9073 375.458 57.6036 375.114 53.197 382.333C57.1565 374.54 64.1931 367.641 68.1997 364.484Z" fill="#129580"/>
<path d="M14.5779 354.187C17.8238 349.277 27.0773 351.367 26.6973 354.925C26.5756 356.064 26.7596 359.3 27.078 363.259C23.7992 359.86 16.1705 356.524 11.8865 370.365C11.0969 363.158 12.8521 356.798 14.5779 354.187Z" fill="#129580"/>
<path d="M-17.7719 284.864C-17.5181 283.742 -17.2064 282.485 -16.8419 281.147C-16.5493 279.92 -16.2519 278.618 -15.9593 277.267C-17.3685 283.329 -21.3181 290.852 -27.4971 278.299C-27.546 261.39 -20.5056 246.144 -15.1462 249.357C-11.5435 251.516 -13.4245 265.29 -15.7604 276.338C-15.8198 276.642 -15.8861 276.952 -15.9593 277.267C-16.2519 278.618 -16.5493 279.92 -16.8419 281.147C-14.297 271.806 -9.1853 258.539 -3.33803 259.834C1.71345 260.952 1.32485 274.826 -0.140279 286.598C-0.930722 294.057 -5.56368 304.154 -17.7719 284.864Z" fill="#129580"/>
<path d="M14.7542 271.992C8.81556 267.168 1.27604 286.556 -1.75138 296.853C3.49571 321.986 10.1661 315.553 12.8454 309.195C16.3009 295.463 19.725 276.03 14.7542 271.992Z" fill="#129580"/>
<path d="M61.9519 323.329C56.301 317.387 48.473 303.468 62.3675 295.319C76.262 287.171 67.8798 310.597 61.9519 323.329Z" fill="#129580"/>
<path d="M75.9717 291.254C69.3079 289.792 57.2164 282.848 62.1616 266.759C67.1067 250.669 73.4288 276.385 75.9717 291.254Z" fill="#129580"/>
<path d="M52.9413 295.302C49.3965 291.786 43.9023 283.832 50.2833 280.146C56.6643 276.459 54.714 288.714 52.9413 295.302Z" fill="#129580"/>
<path d="M57.019 219.35C40.4176 225.542 49.1798 249.676 55.636 260.968C69.5137 252.839 72.5604 236.678 72.349 229.614C74.1563 223.613 73.6204 213.158 57.019 219.35Z" fill="#129580"/>
<path d="M83.0856 266.962C77.2965 265.349 68.674 256.289 80.4975 232.949C92.321 209.608 87.1494 245.899 83.0856 266.962Z" fill="#129580"/>
<path d="M79.7678 335.798C75.36 330.959 70.0662 319.066 84.1541 310.199C98.2419 301.332 87.0999 323.57 79.7678 335.798Z" fill="#129580"/>
<path d="M92.7152 350.625C88.388 343.817 83.3522 328.629 97.8267 322.33C112.301 316.032 100.45 338.569 92.7152 350.625Z" fill="#129580"/>
<path d="M56.2533 356.666C58.1403 361.074 57.2561 366.171 55.0224 371.154C50.9497 373.105 42.0016 375.515 38.7904 369.55C45.3657 358.234 52.9362 348.917 56.2533 356.666Z" fill="#129580"/>
<path d="M-29.6491 276.389C-36.8789 259.535 -49.2144 247.598 -48.5359 272.592C-48.4545 275.591 -47.9086 278.568 -46.9926 281.493C-40.3444 296.534 -32.6601 284.358 -29.6491 276.389Z" fill="#129580"/>
<path d="M79.1794 365.88C75.7271 355.249 70.421 360.52 68.1995 364.484C57.2439 378.821 70.9546 371.388 79.1794 365.88Z" fill="#65BD96"/>
<path d="M56.2531 356.666C57.2902 359.089 57.4902 361.72 57.0892 364.425C51.8267 370.051 41.5201 377.79 42.3943 363.741C47.9445 355.441 53.531 350.307 56.2531 356.666Z" fill="#65BD96"/>
<path d="M68.537 306.072C71.0296 297.133 70.8465 290.347 62.3673 295.319C58.4132 297.638 56.2183 300.425 55.2318 303.361C61.0862 320.054 66.5413 312.124 68.537 306.072Z" fill="#65BD96"/>
<path d="M90.4636 313.487C91.7419 308.552 90.5406 306.179 84.1539 310.199C80.2111 312.681 77.7864 315.399 76.4356 318.134C76.273 331.665 85.7199 320.674 90.4636 313.487Z" fill="#65BD96"/>
<path d="M70.3411 268.363C67.7323 261.386 64.7571 258.313 62.1614 266.759C61.4358 269.119 61.077 271.283 61.014 273.261C65.3166 283.096 69.0248 274.093 70.3411 268.363Z" fill="#65BD96"/>
<path d="M70.1919 218.614C67.8265 217.065 63.7388 216.844 57.0188 219.35C47.8857 222.757 46.429 231.593 48.0417 240.735C52.1604 260.128 64.5246 234.069 70.1919 218.614Z" fill="#65BD96"/>
<path d="M87.7801 232.172C87.9168 224.259 86.1478 221.794 80.4973 232.949C78.3782 237.132 76.9159 240.857 75.9763 244.162C77.9353 250.392 84.6617 238.765 87.7801 232.172Z" fill="#65BD96"/>
<path d="M16.7714 275.977C16.379 274.164 15.7275 272.783 14.754 271.992C11.4581 269.314 7.66918 274.095 4.43209 280.64C2.72029 284.924 0.465501 294.192 5.14074 296.993C9.81597 299.793 14.8425 284.149 16.7714 275.977Z" fill="#65BD96"/>
<path d="M0.46161 266.824C-0.0684382 262.991 -1.2292 260.301 -3.33822 259.834C-6.28525 259.182 -9.04544 262.228 -11.3843 266.606C-11.7389 269.63 -11.6313 276.402 -8.36356 279.301C-5.09586 282.201 -1.11857 272.191 0.46161 266.824Z" fill="#65BD96"/>
<path d="M-13.1949 254.706C-13.3756 252.014 -13.9673 250.064 -15.1464 249.357C-19.4553 246.773 -24.8508 256.122 -26.775 268.674C-23.1548 276.454 -16.2132 262.604 -13.1949 254.706Z" fill="#65BD96"/>
<path d="M306.226 333.475C381.598 333.475 607.717 333.475 532.344 333.475C489.87 333.475 447.641 331.669 405.899 340.887C382.229 346.114 358.195 351.096 334.207 354.65C332.883 354.846 323.275 356.617 324.224 356.617C359.592 356.617 394.49 358.869 429.797 360.398C447.788 361.177 465.681 362.491 483.641 363.725C490.804 364.217 499.121 363.718 506.026 365.843C507.733 366.368 494.427 366.145 492.565 366.145C475.672 366.145 458.615 365.477 441.745 366.448C429.787 367.136 417.396 366.77 405.597 368.868C402.644 369.393 392.334 368.669 390.094 370.91C389.205 371.798 394.29 371.59 394.782 371.59C402.073 371.59 409.296 371.572 416.562 372.271C432.41 373.795 447.747 375.479 463.374 378.321C465.829 378.767 466.302 380.75 463.223 381.043C455.7 381.76 448.305 382.142 440.762 383.085C430.394 384.381 420.497 384.888 410.285 387.245C406.272 388.171 398.053 388.603 394.782 391.328C390.802 394.645 404.985 393.37 406.504 393.37C426.444 393.37 446.384 393.37 466.323 393.37C469.374 393.37 472.424 393.37 475.474 393.37C479.709 393.37 467.004 393.37 462.769 393.37C453.886 393.37 443.939 391.933 435.544 394.731" stroke="url(#paint2_linear_422_14460)" stroke-width="10" stroke-linecap="round"/>
<g filter="url(#filter0_i_422_14460)">
<path d="M401.36 363.147C382.146 354.875 340.029 347.005 321.372 344.104C257.963 334.987 154.122 351.836 110.127 361.399L170.223 391.454C204.022 394.551 278.412 400.238 305.581 398.214C339.542 395.684 425.378 373.487 401.36 363.147Z" fill="url(#paint3_linear_422_14460)"/>
</g>
<path fill-rule="evenodd" clip-rule="evenodd" d="M190.665 110.68C190.665 100.436 198.97 92.1318 209.214 92.1318C211.669 92.1318 214.013 92.6089 216.158 93.4753C213.349 84.5074 204.975 78.0005 195.082 78.0005C182.886 78.0005 173 87.8867 173 100.082C173 112.131 182.65 121.926 194.643 122.159C192.152 119.001 190.665 115.014 190.665 110.68Z" fill="white"/>
<path fill-rule="evenodd" clip-rule="evenodd" d="M93.8763 466.094C94.1105 443.682 94.9135 419.06 95.5826 403.225L100.924 403.45C100.257 419.247 99.4557 443.81 99.2222 466.15C99.1054 477.322 99.1308 487.916 99.3841 496.571C99.6402 505.322 100.126 511.833 100.858 515.006L95.6487 516.209C94.7773 512.432 94.2936 505.388 94.0402 496.728C93.7839 487.971 93.7592 477.298 93.8763 466.094Z" fill="url(#paint4_linear_422_14460)"/>
<circle cx="98.253" cy="383.29" r="22.7213" fill="#64E6C6"/>
<circle cx="103.6" cy="380.617" r="12.0289" fill="#84F3E9"/>
<circle cx="98.2531" cy="383.29" r="12.0289" fill="#F2FDFE"/>
<circle cx="120.975" cy="406.011" r="2.6731" fill="#5FDAEB"/>
<circle cx="74.1952" cy="407.348" r="4.00964" fill="#5FDAEB"/>
<path d="M138.157 521.01C152.118 514.806 153.023 475.121 151.73 456.055L138.157 458.963L128.462 520.041C125.877 522.949 124.197 527.215 138.157 521.01Z" fill="#07668F" stroke="#07668F" stroke-width="2"/>
<path d="M147.852 455.084C148.628 464.391 145.59 474.474 143.974 478.352L143.005 457.023C144.298 452.499 147.076 445.777 147.852 455.084Z" fill="#33C2E2"/>
<path d="M140.097 457.993C140.872 467.3 137.188 487.724 135.249 496.772C136.025 487.465 134.926 467.688 134.28 458.962C135.896 454.761 139.321 448.686 140.097 457.993Z" fill="#33C2E2"/>
<path d="M171.033 414.608C161.213 402.922 152.807 400.749 147.6 400C137.558 401.124 133.095 404.495 125.284 411.237C117.473 417.979 86.2299 432.587 86.2299 443.824C86.2299 455.062 124.168 457.309 144.253 459.556C164.338 461.804 204.507 457.309 204.507 443.824C204.507 430.34 183.307 429.216 171.033 414.608Z" fill="url(#paint5_linear_422_14460)"/>
<path d="M167.667 416.481C159.136 406.399 151.832 404.524 147.308 403.878C138.583 404.847 134.705 407.756 127.918 413.573C121.132 419.39 93.9863 431.993 93.9863 441.688C93.9863 451.383 126.949 453.322 144.4 455.261C161.85 457.2 196.752 453.322 196.752 441.688C196.752 430.054 178.332 429.085 167.667 416.481Z" fill="#14F2F4"/>
<path d="M177.167 431.392C177.726 430.554 177.797 429.987 177.921 428.997C176.899 427.086 175.849 425.57 173.704 424.91C173.227 425.07 173.013 425.205 172.586 425.239C170.041 429.331 171.047 430.856 177.167 431.392Z" fill="#B6F6F7"/>
<path d="M149.298 424.201C149.495 423.875 149.729 423.349 149.868 423.095C150.336 420.584 152.085 419.715 154.095 418.592C154.826 417.286 156.331 417.716 156.639 416.227C155.599 415.109 154.69 414.362 153.437 413.524C152.541 412.889 151.816 412.901 150.871 412.577C150.594 409.096 147.552 407.674 146.097 408.997C142.389 412.369 137.571 409.94 133.502 412.2C133.068 412.065 133.082 412.114 133.083 412.14C132.862 412.478 132.599 412.8 132.551 413.166C132.195 415.884 129.486 418.645 131.772 421.273C134.156 424.013 136.606 420.25 139.509 420.744C140.093 420.98 140.321 421.089 140.899 421.336C141.983 421.625 142.702 421.815 143.657 422.423C144.464 423.043 144.948 423.481 145.717 424.085C146.958 425.203 147.922 426.081 149.298 424.201Z" fill="#D2F6FC"/>
<path d="M156.977 415.883C155.86 416.459 155.212 417.063 154.438 417.98C155.94 417.946 157.206 418.588 158.563 419.469C159.568 420.121 160.855 422.575 162.14 420.128C163.21 418.091 162.191 416.403 159.737 416.013C158.987 415.893 158.21 415.939 156.977 415.883Z" fill="#ADF7F9"/>
<path d="M162.527 427.237C162.455 428.51 162.703 429.515 163.264 430.763C165.287 430.655 166.323 429.671 165.9 427.876C165.466 426.038 164.157 426.304 162.527 427.237Z" fill="#ADF7F9"/>
<path d="M154.146 424.642C154.808 424.994 155.291 425.026 156.135 425.03C157.504 423.399 158.288 421.384 155.784 420.941C153.524 420.541 152.806 422.22 154.146 424.642Z" fill="#8AF5F7"/>
<path d="M168.296 420.401C167.176 420.617 165.479 419.931 165.254 421.9C165.209 422.291 165.772 423.051 166.167 423.14C167.753 423.495 167.901 422.17 168.293 420.735C168.353 420.353 168.247 420.453 168.296 420.401Z" fill="#68F5F4"/>
<path d="M117.777 431.944C118.507 432.213 119.035 432.22 119.957 432.18C120.775 432.087 121.09 431.882 121.426 431.229C122.053 430.926 122.532 430.886 123.37 430.841C123.949 430.698 124.168 430.56 124.74 430.259C125.295 430.053 125.496 430.009 125.995 429.879C126.853 429.309 126.936 428.647 127.099 427.655C128.365 426.438 129.509 425.534 130.815 424.294C130.658 423.38 130.338 422.802 129.901 421.916C127.405 421.929 125.571 423.149 124.509 425.259C123.328 427.605 121.208 427.548 118.681 427.762C118.242 427.803 118.161 427.768 118.125 427.743C117.489 428.016 116.817 428.036 115.906 428.382C115.262 428.691 114.977 428.923 114.663 429.512C114.552 429.769 115.025 429.932 115.263 430.011C116.365 430.395 116.943 431.075 117.777 431.944Z" fill="#8AF5F7"/>
<path d="M125.605 444.883C126.128 443.506 127.511 442.445 126.569 440.677C124.425 440.688 122.283 444.604 119.765 441.141C119.018 440.114 116.951 439.582 116.283 440.937C115.324 442.887 117.638 443.234 119.07 444.34C121.285 444.722 123.208 444.847 125.605 444.883Z" fill="#8AF5F7"/>
<path d="M138.92 445.673C139.988 445.929 140.756 445.916 141.899 445.82C142.677 444.957 143.081 444.178 143.474 443.067C140.215 442.309 139.698 437.33 135.351 438.183C133.825 441.855 135.636 443.93 138.92 445.673Z" fill="#B6F6F7"/>
<path d="M143.866 429.075C139.793 428.364 139.179 433.009 135.89 433.541C135.246 433.646 135.804 435.262 136.586 435.934C137.435 436.663 138.331 436.657 139.178 435.928C140.763 434.565 142.328 433.179 144.067 431.423C144.476 430.477 144.466 429.915 143.866 429.075Z" fill="#ADF7F9"/>
<path d="M153.154 445.758C154.475 446.131 155.663 446.192 157.294 446.165C157.535 444.052 158.527 442.528 159.924 440.745C159.434 440.001 158.838 439.639 157.951 439.08C157.149 438.642 156.613 438.576 155.743 438.932C155.346 440.81 155.335 442.464 152.787 442.838C152.618 443.789 152.82 444.617 153.154 445.758Z" fill="#ADF7F9"/>
<path d="M155.03 429.086C154.315 430.32 154.404 431.297 155.253 431.89C156.502 432.763 155.013 435.356 157.354 435.303C158.898 435.267 159.114 434.013 158.54 432.853C157.769 431.298 159.699 427.487 155.03 429.086Z" fill="#8AF5F7"/>
<path d="M120.792 433.08C121.757 436.497 122.988 439.837 127.363 436.173C125.94 435.713 125.146 434.753 124.214 433.34C123.023 432.66 122.097 432.673 120.792 433.08Z" fill="#8AF5F7"/>
<path d="M145.904 430.515C148.888 430.888 151.166 430.574 149.774 426.653C148.392 425.231 147.473 425.85 146.306 427.042C145.988 427.576 145.943 427.772 145.806 428.257C145.471 429.087 145.44 429.645 145.904 430.515Z" fill="#ADF7F9"/>
<path d="M134.433 431.776C135.852 430.793 137.205 430.118 136.181 428.435C135.65 427.562 134.746 427.803 134.257 428.399C133.357 429.497 130.956 429.43 131.434 431.481C131.788 433.001 133.041 432.763 134.433 431.776Z" fill="#8AF5F7"/>
<path d="M141.41 420.453C139.64 420.945 137.551 420.942 136.695 423.585C136.873 424.299 137.138 424.615 137.654 425.11C138.397 425.578 138.927 425.685 139.857 425.439C140.659 424.678 141.097 424.117 141.659 423.216C142.047 422.311 142.095 421.727 141.659 420.762C141.391 420.4 141.384 420.453 141.41 420.453Z" fill="#ADF7F9"/>
<path d="M162.491 438.637C163.787 439.129 165.069 439.3 166.395 438.076C166.62 436.119 165.584 435.51 164.058 435.699C162.62 435.876 162.375 436.977 162.491 438.637Z" fill="#ADF7F9"/>
<path d="M166.541 445.642C166.524 446.042 166.554 446.205 166.589 446.278C168.477 447.742 170.462 448.432 171.927 446.08C172.687 444.86 171.979 443.317 170.584 442.834C168.495 442.112 166.819 442.635 166.541 445.642Z" fill="#D2F6FC"/>
<path d="M72.5618 547.975C62.9875 541.619 62.3669 500.968 63.2534 481.437L72.5618 484.416L79.2106 546.982C80.9836 549.961 82.136 554.331 72.5618 547.975Z" fill="#07668F" stroke="#07668F" stroke-width="2"/>
<path d="M66.2222 481.753C65.7263 487.704 67.6684 494.15 68.7015 496.629L69.321 482.993C68.4947 480.1 66.718 475.803 66.2222 481.753Z" fill="#33C2E2"/>
<path d="M71.1805 483.613C70.6847 489.563 73.04 502.621 74.2797 508.406C73.7838 502.456 74.4863 489.811 74.8995 484.233C73.8665 481.547 71.6764 477.662 71.1805 483.613Z" fill="#33C2E2"/>
<path d="M51.4018 455.875C57.6797 448.403 63.0539 447.014 66.3831 446.535C72.8036 447.254 75.6572 449.409 80.6509 453.719C85.6447 458.03 105.62 467.37 105.62 474.554C105.62 481.738 81.3643 483.175 68.5232 484.612C55.6822 486.049 30 483.175 30 474.554C30 465.933 43.5545 465.214 51.4018 455.875Z" fill="url(#paint6_linear_422_14460)"/>
<path d="M53.554 457.072C59.0085 450.626 63.6779 449.428 66.5705 449.015C72.149 449.634 74.6283 451.494 78.9672 455.213C83.306 458.932 100.661 466.99 100.661 473.188C100.661 479.386 79.587 480.626 68.43 481.866C57.273 483.105 34.959 480.626 34.959 473.188C34.959 465.75 46.7358 465.13 53.554 457.072Z" fill="#14F2F4"/>
<path d="M47.4791 466.607C47.122 466.071 47.0766 465.709 46.9971 465.076C47.6508 463.854 48.322 462.885 49.6935 462.463C49.9981 462.565 50.1354 462.651 50.4079 462.673C52.0355 465.289 51.3921 466.264 47.4791 466.607Z" fill="#B6F6F7"/>
<path d="M65.297 462.008C65.1709 461.8 65.0214 461.463 64.9329 461.301C64.6335 459.696 63.5156 459.14 62.2303 458.422C61.7629 457.587 60.8005 457.862 60.604 456.91C61.2687 456.195 61.8501 455.718 62.6507 455.182C63.224 454.776 63.6871 454.783 64.2917 454.576C64.4684 452.351 66.4137 451.442 67.3435 452.288C69.7147 454.444 72.795 452.891 75.3964 454.336C75.6734 454.249 75.6648 454.281 75.6638 454.297C75.8057 454.513 75.9733 454.719 76.0039 454.953C76.2319 456.691 77.9639 458.456 76.5022 460.136C74.9778 461.888 73.412 459.482 71.556 459.798C71.1823 459.949 71.0368 460.019 70.6671 460.177C69.974 460.362 69.5143 460.483 68.9039 460.871C68.388 461.268 68.0781 461.548 67.5867 461.934C66.793 462.649 66.1768 463.21 65.297 462.008Z" fill="#D2F6FC"/>
<path d="M60.389 456.691C61.1028 457.06 61.5173 457.446 62.012 458.032C61.0519 458.01 60.2423 458.421 59.3749 458.984C58.7327 459.401 57.9098 460.97 57.0882 459.405C56.4042 458.103 57.0552 457.024 58.6242 456.775C59.1041 456.698 59.6008 456.728 60.389 456.691Z" fill="#ADF7F9"/>
<path d="M56.8393 463.949C56.8853 464.762 56.7265 465.405 56.3682 466.203C55.0748 466.134 54.4122 465.505 54.6829 464.357C54.9599 463.182 55.797 463.352 56.8393 463.949Z" fill="#ADF7F9"/>
<path d="M62.1983 462.29C61.7752 462.515 61.4666 462.535 60.9267 462.538C60.0514 461.495 59.55 460.207 61.1513 459.923C62.596 459.668 63.0551 460.741 62.1983 462.29Z" fill="#8AF5F7"/>
<path d="M53.1507 459.578C53.8672 459.716 54.9516 459.277 55.096 460.536C55.1246 460.786 54.7646 461.272 54.512 461.329C53.4981 461.556 53.4036 460.709 53.1531 459.791C53.1141 459.547 53.1819 459.611 53.1507 459.578Z" fill="#68F5F4"/>
<path d="M85.4495 466.959C84.9833 467.131 84.6456 467.136 84.0562 467.11C83.533 467.051 83.3319 466.92 83.1168 466.502C82.7158 466.308 82.4099 466.283 81.8739 466.254C81.5037 466.163 81.3637 466.074 80.998 465.882C80.6434 465.75 80.5145 465.722 80.1956 465.639C79.6468 465.275 79.594 464.851 79.4901 464.217C78.6805 463.439 77.9491 462.861 77.1138 462.068C77.2145 461.484 77.4192 461.114 77.6986 460.548C79.2942 460.556 80.4667 461.336 81.1458 462.685C81.901 464.185 83.2563 464.148 84.8717 464.286C85.1522 464.312 85.204 464.289 85.2272 464.273C85.6341 464.448 86.0635 464.461 86.6461 464.682C87.058 464.88 87.24 465.028 87.4405 465.405C87.5116 465.569 87.209 465.673 87.057 465.723C86.3525 465.969 85.9831 466.403 85.4495 466.959Z" fill="#8AF5F7"/>
<path d="M80.4458 475.232C80.1114 474.351 79.2272 473.673 79.8294 472.542C81.2 472.549 82.5696 475.053 84.1795 472.839C84.6573 472.182 85.979 471.842 86.4055 472.709C87.0191 473.956 85.5397 474.177 84.6237 474.884C83.2075 475.129 81.9781 475.208 80.4458 475.232Z" fill="#8AF5F7"/>
<path d="M71.9318 475.737C71.2493 475.901 70.7578 475.893 70.0273 475.831C69.53 475.28 69.2717 474.781 69.0205 474.071C71.1039 473.586 71.4344 470.403 74.2136 470.948C75.1895 473.296 74.0315 474.623 71.9318 475.737Z" fill="#B6F6F7"/>
<path d="M68.7699 465.125C71.3739 464.671 71.7666 467.64 73.8694 467.981C74.281 468.048 73.9243 469.081 73.424 469.511C72.8817 469.977 72.3083 469.973 71.7672 469.507C70.754 468.635 69.7529 467.749 68.6414 466.627C68.3797 466.022 68.3862 465.662 68.7699 465.125Z" fill="#ADF7F9"/>
<path d="M62.832 475.791C61.9876 476.029 61.2279 476.068 60.1852 476.051C60.031 474.7 59.3968 473.725 58.5039 472.586C58.8168 472.11 59.1983 471.879 59.7651 471.521C60.2778 471.241 60.6208 471.199 61.1772 471.426C61.4307 472.628 61.4379 473.685 63.0669 473.924C63.1746 474.532 63.0457 475.061 62.832 475.791Z" fill="#ADF7F9"/>
<path d="M61.6325 465.132C62.0898 465.921 62.0331 466.545 61.4903 466.925C60.6918 467.483 61.6435 469.141 60.1468 469.107C59.1599 469.084 59.0215 468.282 59.3887 467.541C59.8814 466.547 58.6479 464.11 61.6325 465.132Z" fill="#8AF5F7"/>
<path d="M83.522 467.685C82.9048 469.869 82.1179 472.005 79.3208 469.662C80.2304 469.368 80.7384 468.755 81.3338 467.851C82.0956 467.416 82.6877 467.424 83.522 467.685Z" fill="#8AF5F7"/>
<path d="M67.4661 466.045C65.5582 466.284 64.1021 466.083 64.9919 463.575C65.8753 462.667 66.463 463.062 67.2088 463.825C67.4124 464.165 67.4413 464.291 67.5286 464.601C67.7431 465.132 67.7628 465.488 67.4661 466.045Z" fill="#ADF7F9"/>
<path d="M74.8014 466.851C73.8945 466.222 73.029 465.791 73.6839 464.715C74.0233 464.157 74.6016 464.311 74.9139 464.692C75.4896 465.394 77.0241 465.352 76.7188 466.663C76.4925 467.634 75.6916 467.482 74.8014 466.851Z" fill="#8AF5F7"/>
<path d="M70.3391 459.612C71.4712 459.927 72.8064 459.925 73.354 461.614C73.2402 462.071 73.0708 462.273 72.7405 462.589C72.2659 462.889 71.9268 462.957 71.3323 462.8C70.8192 462.313 70.5398 461.954 70.1802 461.379C69.9321 460.8 69.9015 460.426 70.1799 459.81C70.3515 459.578 70.3561 459.612 70.3391 459.612Z" fill="#ADF7F9"/>
<path d="M56.862 471.236C56.0339 471.551 55.2141 471.66 54.3663 470.878C54.2225 469.627 54.8846 469.237 55.8607 469.358C56.7796 469.471 56.9362 470.175 56.862 471.236Z" fill="#ADF7F9"/>
<path d="M54.2733 475.716C54.2839 475.972 54.2646 476.076 54.2423 476.123C53.0354 477.059 51.7663 477.5 50.8296 475.996C50.344 475.217 50.7963 474.23 51.6884 473.921C53.0239 473.459 54.0953 473.794 54.2733 475.716Z" fill="#D2F6FC"/>
<path d="M82.6805 554.149C87.5279 554.149 96.4472 547.751 93.3449 522.156C79.7725 526.034 73.9546 537.668 82.6805 554.149Z" fill="#1F4891"/>
<path d="M93.3449 522.156C94.6238 532.707 93.8598 539.996 92.1802 544.919C91.4893 544.118 90.1074 541.158 90.1074 535.729C90.1074 528.943 90.1074 539.607 85.26 542.515C81.382 544.842 79.6475 545.424 79.265 545.424C76.404 533.585 82.3127 525.308 93.3449 522.156Z" fill="#3A70BB"/>
<path d="M84.9514 555.415C88.0005 557.175 95.9344 556.39 103.278 539.164C93.3324 536.674 85.4481 541.879 84.9514 555.415Z" fill="#1F4891"/>
<path d="M103.278 539.164C100.251 546.265 97.1231 550.572 94.2788 553.059C94.1351 552.304 94.3408 549.94 96.3124 546.526C98.7769 542.257 94.9041 548.965 90.7988 549.034C87.5146 549.089 86.2123 548.825 85.9717 548.686C88.4715 540.2 95.1938 537.14 103.278 539.164Z" fill="#3A70BB"/>
<path d="M127.216 539.361C131.842 536.69 136.828 525.67 119.766 502.953C108.95 514.132 109.808 528.44 127.216 539.361Z" fill="#1F4891"/>
<path d="M119.766 502.953C126.8 512.318 130.086 519.695 131.196 525.318C130.095 524.934 127.146 522.871 124.154 517.69C120.415 511.214 126.291 521.391 123.268 526.837C120.849 531.195 119.514 532.705 119.149 532.916C109.896 523.194 110.974 512.04 119.766 502.953Z" fill="#3A70BB"/>
<path d="M130.081 539.318C133.961 539.318 141.099 534.197 138.616 513.712C127.753 516.816 123.097 526.127 130.081 539.318Z" fill="#1F4891"/>
<path d="M138.616 513.712C139.64 522.156 139.028 527.99 137.684 531.931C137.131 531.289 136.025 528.92 136.025 524.575C136.025 519.144 136.025 527.679 132.145 530.007C129.042 531.869 127.653 532.335 127.347 532.335C125.057 522.859 129.786 516.235 138.616 513.712Z" fill="#3A70BB"/>
<path d="M153.115 526.307C155.553 527.92 158.098 525.124 160.305 523.785C169.522 518.189 173.61 507.322 170.533 498.933C164.436 497.714 145.527 521.286 153.115 526.307Z" fill="#15356C"/>
<path d="M152.113 519.293C155.021 519.293 155.83 516.098 157.051 514.364C160.903 508.897 164.928 503.624 170.533 499.221C163.726 497.106 156.757 507.352 156.672 507.257C154.041 509.882 153.082 515.415 152.113 519.293Z" fill="#0F6085"/>
<path d="M158.738 506.515C161.435 505.684 163.2 503.661 164.716 500.873C161.824 501.337 159.908 503.397 158.738 506.515Z" fill="#1993B8"/>
<path d="M153.401 527.97C156.319 528.148 157.125 524.454 158.366 522.191C163.551 512.736 161.658 501.281 154.799 495.554C148.909 497.547 144.319 527.415 153.401 527.97Z" fill="#15356C"/>
<path d="M149.026 522.396C151.545 520.942 150.648 517.771 150.838 515.659C151.44 508.999 152.29 502.42 154.943 495.804C147.99 497.376 147.078 509.733 146.956 509.694C145.991 513.283 147.927 518.553 149.026 522.396Z" fill="#0F6085"/>
<path d="M148.375 508.017C150.296 505.95 150.813 503.315 150.731 500.143C148.459 501.99 147.83 504.732 148.375 508.017Z" fill="#1993B8"/>
<path d="M154.776 537.083C152.106 532.457 153.298 520.42 179.432 509.278C183.21 524.367 175.313 536.33 154.776 537.083Z" fill="#1F4891"/>
<path d="M179.432 509.278C168.659 513.871 162.124 518.616 158.351 522.932C159.496 523.149 163.082 522.838 168.263 519.846C174.74 516.107 164.563 521.983 164.458 528.211C164.374 533.194 164.774 535.17 164.985 535.535C177.86 531.742 182.503 521.543 179.432 509.278Z" fill="#3A70BB"/>
<path d="M152.318 535.614C148.958 533.674 145.336 525.669 157.729 509.17C165.585 517.29 164.962 527.682 152.318 535.614Z" fill="#1F4891"/>
<path d="M157.729 509.17C152.62 515.972 150.233 521.33 149.427 525.414C150.227 525.135 152.369 523.637 154.541 519.874C157.257 515.17 152.99 522.562 155.186 526.518C156.942 529.682 157.912 530.78 158.177 530.933C164.898 523.872 164.114 515.77 157.729 509.17Z" fill="#3A70BB"/>
<path d="M233.64 403.733C240.177 400.824 240.601 382.219 239.995 373.28L233.64 374.644L229.101 403.279C227.891 404.642 227.104 406.642 233.64 403.733Z" fill="#07668F" stroke="#07668F" stroke-width="2"/>
<path d="M238.18 372.826C238.543 377.189 237.12 381.916 236.364 383.734L235.91 373.735C236.515 371.614 237.816 368.462 238.18 372.826Z" fill="#33C2E2"/>
<path d="M234.548 374.189C234.911 378.553 233.187 388.128 232.279 392.37C232.642 388.007 232.127 378.735 231.825 374.644C232.581 372.674 234.185 369.826 234.548 374.189Z" fill="#33C2E2"/>
<path d="M249.033 353.849C244.435 348.37 240.5 347.351 238.062 347C233.36 347.527 231.27 349.107 227.613 352.268C223.956 355.429 209.328 362.278 209.328 367.546C209.328 372.814 227.09 373.868 236.494 374.922C245.898 375.975 264.706 373.868 264.706 367.546C264.706 361.224 254.78 360.697 249.033 353.849Z" fill="url(#paint7_linear_422_14460)"/>
<path d="M247.457 354.727C243.463 350 240.043 349.121 237.925 348.818C233.839 349.273 232.024 350.636 228.846 353.364C225.669 356.091 212.959 362 212.959 366.545C212.959 371.09 228.392 371.999 236.563 372.908C244.734 373.817 261.075 371.999 261.075 366.545C261.075 361.09 252.45 360.636 247.457 354.727Z" fill="#14F2F4"/>
<path d="M251.905 361.719C252.166 361.326 252.2 361.06 252.258 360.596C251.779 359.7 251.288 358.989 250.283 358.68C250.06 358.755 249.96 358.818 249.76 358.834C248.568 360.752 249.039 361.467 251.905 361.719Z" fill="#B6F6F7"/>
<path d="M238.856 358.347C238.948 358.194 239.058 357.948 239.123 357.829C239.342 356.651 240.161 356.244 241.102 355.718C241.444 355.105 242.149 355.307 242.293 354.609C241.806 354.085 241.38 353.734 240.794 353.342C240.374 353.044 240.035 353.049 239.592 352.897C239.463 351.266 238.038 350.599 237.357 351.219C235.621 352.8 233.365 351.661 231.46 352.721C231.257 352.657 231.264 352.681 231.264 352.692C231.16 352.851 231.038 353.002 231.015 353.174C230.848 354.448 229.58 355.742 230.65 356.974C231.767 358.259 232.913 356.495 234.273 356.726C234.546 356.837 234.653 356.888 234.924 357.004C235.431 357.14 235.768 357.229 236.215 357.513C236.593 357.804 236.819 358.01 237.179 358.293C237.761 358.817 238.212 359.229 238.856 358.347Z" fill="#D2F6FC"/>
<path d="M242.451 354.448C241.928 354.719 241.625 355.001 241.263 355.431C241.966 355.415 242.559 355.717 243.194 356.13C243.664 356.435 244.267 357.586 244.868 356.438C245.369 355.483 244.893 354.692 243.744 354.509C243.392 354.453 243.028 354.475 242.451 354.448Z" fill="#ADF7F9"/>
<path d="M245.05 359.77C245.017 360.367 245.133 360.838 245.395 361.423C246.342 361.373 246.828 360.911 246.63 360.07C246.427 359.208 245.814 359.333 245.05 359.77Z" fill="#ADF7F9"/>
<path d="M241.127 358.554C241.436 358.719 241.662 358.734 242.058 358.736C242.699 357.971 243.066 357.026 241.893 356.819C240.835 356.631 240.499 357.418 241.127 358.554Z" fill="#8AF5F7"/>
<path d="M247.751 356.565C247.226 356.667 246.432 356.345 246.326 357.268C246.305 357.451 246.569 357.808 246.754 357.849C247.497 358.016 247.566 357.395 247.749 356.722C247.778 356.543 247.728 356.59 247.751 356.565Z" fill="#68F5F4"/>
<path d="M224.098 361.978C224.44 362.104 224.687 362.107 225.118 362.089C225.502 362.045 225.649 361.949 225.806 361.643C226.1 361.5 226.324 361.482 226.717 361.461C226.988 361.394 227.09 361.329 227.358 361.188C227.618 361.091 227.712 361.071 227.946 361.01C228.348 360.743 228.386 360.432 228.462 359.967C229.055 359.396 229.591 358.973 230.203 358.391C230.129 357.963 229.979 357.692 229.774 357.276C228.606 357.282 227.747 357.854 227.25 358.844C226.697 359.944 225.704 359.917 224.521 360.017C224.316 360.036 224.278 360.02 224.261 360.008C223.963 360.136 223.648 360.146 223.222 360.308C222.92 360.453 222.787 360.562 222.64 360.838C222.588 360.958 222.81 361.035 222.921 361.071C223.437 361.252 223.707 361.57 224.098 361.978Z" fill="#8AF5F7"/>
<path d="M227.763 368.043C228.008 367.398 228.656 366.9 228.215 366.071C227.211 366.076 226.208 367.912 225.029 366.289C224.679 365.807 223.711 365.558 223.399 366.193C222.949 367.108 224.033 367.27 224.704 367.789C225.741 367.968 226.641 368.026 227.763 368.043Z" fill="#8AF5F7"/>
<path d="M233.997 368.415C234.497 368.535 234.857 368.529 235.392 368.484C235.756 368.079 235.945 367.714 236.129 367.193C234.604 366.838 234.362 364.504 232.326 364.903C231.612 366.625 232.46 367.598 233.997 368.415Z" fill="#B6F6F7"/>
<path d="M236.313 360.632C234.406 360.299 234.118 362.477 232.578 362.726C232.277 362.775 232.538 363.533 232.904 363.848C233.302 364.19 233.722 364.187 234.118 363.845C234.86 363.206 235.593 362.556 236.407 361.733C236.599 361.29 236.594 361.026 236.313 360.632Z" fill="#ADF7F9"/>
<path d="M240.661 368.454C241.28 368.629 241.836 368.657 242.6 368.645C242.713 367.654 243.177 366.939 243.831 366.104C243.602 365.755 243.323 365.585 242.907 365.323C242.532 365.118 242.281 365.087 241.873 365.254C241.688 366.134 241.682 366.91 240.489 367.085C240.411 367.531 240.505 367.919 240.661 368.454Z" fill="#ADF7F9"/>
<path d="M241.54 360.638C241.205 361.217 241.247 361.674 241.645 361.953C242.229 362.362 241.532 363.577 242.628 363.552C243.351 363.536 243.453 362.948 243.184 362.404C242.823 361.675 243.726 359.888 241.54 360.638Z" fill="#8AF5F7"/>
<path d="M225.51 362.509C225.962 364.11 226.538 365.677 228.586 363.959C227.92 363.743 227.548 363.293 227.112 362.63C226.554 362.312 226.121 362.318 225.51 362.509Z" fill="#8AF5F7"/>
<path d="M237.267 361.308C238.665 361.483 239.731 361.335 239.079 359.497C238.432 358.831 238.002 359.121 237.456 359.68C237.307 359.93 237.286 360.022 237.222 360.249C237.065 360.638 237.05 360.9 237.267 361.308Z" fill="#ADF7F9"/>
<path d="M231.897 361.899C232.561 361.438 233.194 361.121 232.715 360.332C232.466 359.923 232.043 360.036 231.814 360.315C231.392 360.831 230.269 360.799 230.492 361.761C230.658 362.473 231.245 362.361 231.897 361.899Z" fill="#8AF5F7"/>
<path d="M235.164 356.59C234.335 356.821 233.357 356.819 232.956 358.058C233.039 358.393 233.163 358.541 233.405 358.773C233.753 358.993 234.001 359.043 234.436 358.928C234.812 358.571 235.017 358.308 235.28 357.886C235.462 357.461 235.484 357.187 235.28 356.735C235.155 356.565 235.151 356.59 235.164 356.59Z" fill="#ADF7F9"/>
<path d="M245.033 365.115C245.64 365.345 246.24 365.425 246.861 364.851C246.966 363.934 246.482 363.648 245.767 363.737C245.094 363.82 244.979 364.336 245.033 365.115Z" fill="#ADF7F9"/>
<path d="M246.929 368.398C246.921 368.586 246.935 368.662 246.952 368.696C247.836 369.383 248.765 369.706 249.451 368.604C249.807 368.032 249.475 367.308 248.822 367.082C247.844 366.743 247.059 366.988 246.929 368.398Z" fill="#D2F6FC"/>
<path d="M202.928 416.376C198.445 413.396 198.155 394.337 198.57 385.181L202.928 386.577L206.041 415.91C206.871 417.307 207.411 419.356 202.928 416.376Z" fill="#07668F" stroke="#07668F" stroke-width="2"/>
<path d="M199.96 385.328C199.727 388.118 200.637 391.14 201.12 392.302L201.411 385.909C201.024 384.553 200.192 382.538 199.96 385.328Z" fill="#33C2E2"/>
<path d="M202.281 386.2C202.049 388.989 203.152 395.111 203.732 397.824C203.5 395.034 203.829 389.106 204.022 386.49C203.539 385.231 202.513 383.41 202.281 386.2Z" fill="#33C2E2"/>
<path d="M193.02 373.196C195.96 369.693 198.476 369.042 200.035 368.817C203.041 369.154 204.377 370.165 206.715 372.186C209.053 374.207 218.406 378.585 218.406 381.953C218.406 385.322 207.049 385.995 201.037 386.669C195.025 387.343 183 385.995 183 381.953C183 377.912 189.346 377.575 193.02 373.196Z" fill="url(#paint8_linear_422_14460)"/>
<path d="M194.028 373.758C196.582 370.736 198.768 370.174 200.123 369.98C202.734 370.271 203.895 371.143 205.927 372.886C207.958 374.63 216.084 378.408 216.084 381.314C216.084 384.22 206.217 384.801 200.993 385.382C195.769 385.963 185.322 384.801 185.322 381.314C185.322 377.827 190.836 377.536 194.028 373.758Z" fill="#14F2F4"/>
<path d="M191.184 378.227C191.017 377.976 190.996 377.806 190.958 377.509C191.265 376.936 191.579 376.482 192.221 376.284C192.364 376.332 192.428 376.373 192.555 376.383C193.318 377.609 193.016 378.066 191.184 378.227Z" fill="#B6F6F7"/>
<path d="M199.526 376.072C199.467 375.974 199.397 375.816 199.356 375.74C199.216 374.988 198.692 374.727 198.091 374.391C197.872 373.999 197.421 374.128 197.329 373.682C197.64 373.347 197.913 373.123 198.287 372.872C198.556 372.681 198.773 372.685 199.056 372.588C199.138 371.544 200.049 371.118 200.485 371.514C201.595 372.525 203.037 371.797 204.255 372.475C204.385 372.434 204.381 372.449 204.38 372.456C204.447 372.558 204.525 372.655 204.539 372.764C204.646 373.579 205.457 374.406 204.773 375.194C204.059 376.015 203.326 374.888 202.457 375.036C202.282 375.106 202.214 375.139 202.041 375.213C201.716 375.3 201.501 375.357 201.215 375.539C200.974 375.725 200.829 375.856 200.598 376.037C200.227 376.372 199.938 376.635 199.526 376.072Z" fill="#D2F6FC"/>
<path d="M197.228 373.578C197.562 373.751 197.756 373.932 197.988 374.207C197.538 374.196 197.159 374.389 196.753 374.653C196.452 374.849 196.067 375.584 195.682 374.851C195.362 374.24 195.667 373.734 196.401 373.617C196.626 373.581 196.859 373.595 197.228 373.578Z" fill="#ADF7F9"/>
<path d="M195.566 376.982C195.588 377.363 195.513 377.664 195.345 378.039C194.74 378.006 194.43 377.711 194.556 377.173C194.686 376.622 195.078 376.702 195.566 376.982Z" fill="#ADF7F9"/>
<path d="M198.075 376.203C197.877 376.309 197.733 376.318 197.48 376.319C197.07 375.831 196.835 375.227 197.585 375.094C198.261 374.974 198.476 375.477 198.075 376.203Z" fill="#8AF5F7"/>
<path d="M193.839 374.933C194.175 374.997 194.682 374.792 194.75 375.382C194.763 375.499 194.595 375.727 194.477 375.753C194.002 375.86 193.958 375.463 193.84 375.033C193.822 374.918 193.854 374.948 193.839 374.933Z" fill="#68F5F4"/>
<path d="M208.962 378.392C208.744 378.472 208.586 378.474 208.31 378.462C208.065 378.435 207.97 378.373 207.87 378.177C207.682 378.086 207.539 378.074 207.288 378.061C207.114 378.018 207.049 377.977 206.878 377.886C206.712 377.825 206.651 377.812 206.502 377.773C206.245 377.602 206.22 377.403 206.172 377.106C205.793 376.741 205.45 376.47 205.059 376.099C205.106 375.825 205.202 375.651 205.333 375.386C206.08 375.39 206.629 375.755 206.947 376.388C207.3 377.091 207.935 377.074 208.691 377.138C208.823 377.15 208.847 377.14 208.858 377.132C209.048 377.214 209.249 377.22 209.522 377.324C209.715 377.417 209.8 377.486 209.894 377.663C209.927 377.74 209.786 377.789 209.715 377.812C209.385 377.927 209.212 378.131 208.962 378.392Z" fill="#8AF5F7"/>
<path d="M206.618 382.271C206.462 381.858 206.048 381.54 206.33 381.01C206.972 381.013 207.613 382.187 208.367 381.149C208.59 380.841 209.209 380.682 209.409 381.088C209.696 381.673 209.003 381.777 208.575 382.108C207.911 382.223 207.336 382.26 206.618 382.271Z" fill="#8AF5F7"/>
<path d="M202.633 382.508C202.313 382.584 202.083 382.581 201.741 382.552C201.508 382.293 201.387 382.06 201.27 381.727C202.245 381.499 202.4 380.007 203.701 380.263C204.158 381.363 203.616 381.985 202.633 382.508Z" fill="#B6F6F7"/>
<path d="M201.152 377.532C202.371 377.319 202.555 378.711 203.54 378.871C203.732 378.902 203.565 379.386 203.331 379.588C203.077 379.806 202.809 379.805 202.555 379.586C202.081 379.177 201.612 378.762 201.092 378.236C200.969 377.952 200.972 377.784 201.152 377.532Z" fill="#ADF7F9"/>
<path d="M198.372 382.534C197.976 382.645 197.621 382.664 197.132 382.656C197.06 382.022 196.763 381.565 196.345 381.031C196.492 380.808 196.67 380.699 196.936 380.532C197.176 380.401 197.336 380.381 197.597 380.487C197.716 381.051 197.719 381.546 198.482 381.658C198.532 381.943 198.472 382.192 198.372 382.534Z" fill="#ADF7F9"/>
<path d="M197.811 377.536C198.025 377.906 197.999 378.199 197.744 378.376C197.371 378.638 197.816 379.415 197.115 379.399C196.653 379.389 196.589 379.013 196.76 378.665C196.991 378.199 196.414 377.057 197.811 377.536Z" fill="#8AF5F7"/>
<path d="M208.059 378.733C207.77 379.757 207.401 380.759 206.092 379.66C206.518 379.522 206.756 379.235 207.034 378.811C207.391 378.607 207.668 378.611 208.059 378.733Z" fill="#8AF5F7"/>
<path d="M200.542 377.964C199.648 378.076 198.967 377.982 199.383 376.807C199.797 376.38 200.072 376.566 200.421 376.923C200.516 377.083 200.53 377.142 200.571 377.287C200.671 377.536 200.681 377.703 200.542 377.964Z" fill="#ADF7F9"/>
<path d="M203.976 378.343C203.552 378.048 203.146 377.846 203.453 377.341C203.612 377.08 203.883 377.152 204.029 377.33C204.299 377.66 205.017 377.64 204.874 378.254C204.768 378.71 204.393 378.638 203.976 378.343Z" fill="#8AF5F7"/>
<path d="M201.887 374.948C202.417 375.096 203.042 375.095 203.299 375.887C203.246 376.101 203.166 376.196 203.012 376.344C202.789 376.484 202.631 376.516 202.352 376.443C202.112 376.214 201.981 376.046 201.813 375.776C201.697 375.505 201.682 375.33 201.813 375.041C201.893 374.932 201.895 374.948 201.887 374.948Z" fill="#ADF7F9"/>
<path d="M195.577 380.398C195.189 380.546 194.806 380.597 194.409 380.23C194.341 379.644 194.651 379.461 195.108 379.518C195.539 379.571 195.612 379.901 195.577 380.398Z" fill="#ADF7F9"/>
<path d="M194.365 382.499C194.37 382.619 194.361 382.667 194.35 382.689C193.785 383.128 193.191 383.335 192.752 382.63C192.525 382.264 192.737 381.802 193.155 381.657C193.78 381.44 194.282 381.597 194.365 382.499Z" fill="#D2F6FC"/>
<path d="M207.665 419.27C209.935 419.27 214.111 416.27 212.658 404.271C206.303 406.089 203.579 411.543 207.665 419.27Z" fill="#1F4891"/>
<path d="M212.658 404.271C213.257 409.217 212.899 412.634 212.113 414.942C211.789 414.567 211.142 413.179 211.142 410.634C211.142 407.452 211.142 412.452 208.873 413.816C207.057 414.906 206.245 415.179 206.066 415.179C204.726 409.629 207.493 405.748 212.658 404.271Z" fill="#3A70BB"/>
<path d="M208.729 419.863C210.156 420.689 213.871 420.32 217.309 412.244C212.653 411.077 208.961 413.517 208.729 419.863Z" fill="#1F4891"/>
<path d="M217.309 412.244C215.892 415.574 214.428 417.593 213.096 418.759C213.029 418.405 213.125 417.297 214.048 415.696C215.202 413.695 213.389 416.839 211.467 416.872C209.929 416.898 209.319 416.774 209.207 416.709C210.377 412.73 213.524 411.296 217.309 412.244Z" fill="#3A70BB"/>
<path d="M228.518 412.337C230.683 411.085 233.018 405.918 225.029 395.268C219.965 400.509 220.367 407.217 228.518 412.337Z" fill="#1F4891"/>
<path d="M225.029 395.268C228.323 399.658 229.861 403.117 230.381 405.753C229.866 405.573 228.485 404.606 227.084 402.177C225.333 399.141 228.085 403.912 226.669 406.465C225.536 408.508 224.911 409.217 224.74 409.315C220.408 404.757 220.913 399.528 225.029 395.268Z" fill="#3A70BB"/>
<path d="M229.859 412.317C231.676 412.317 235.018 409.916 233.856 400.312C228.77 401.768 226.589 406.133 229.859 412.317Z" fill="#1F4891"/>
<path d="M233.856 400.312C234.335 404.272 234.049 407.007 233.419 408.854C233.16 408.553 232.642 407.443 232.642 405.406C232.642 402.859 232.642 406.861 230.826 407.952C229.373 408.825 228.723 409.043 228.579 409.043C227.507 404.601 229.722 401.495 233.856 400.312Z" fill="#3A70BB"/>
<path d="M240.644 406.216C241.785 406.973 242.977 405.662 244.01 405.034C248.326 402.41 250.24 397.316 248.799 393.383C245.944 392.811 237.091 403.862 240.644 406.216Z" fill="#15356C"/>
<path d="M240.174 402.928C241.536 402.928 241.915 401.43 242.486 400.617C244.29 398.054 246.174 395.582 248.799 393.518C245.612 392.526 242.349 397.33 242.309 397.285C241.077 398.516 240.628 401.11 240.174 402.928Z" fill="#0F6085"/>
<path d="M243.276 396.936C244.539 396.547 245.366 395.598 246.075 394.291C244.721 394.508 243.824 395.474 243.276 396.936Z" fill="#1993B8"/>
<path d="M240.777 406.997C242.144 407.08 242.521 405.349 243.102 404.288C245.53 399.855 244.643 394.485 241.432 391.8C238.674 392.734 236.525 406.737 240.777 406.997Z" fill="#15356C"/>
<path d="M238.729 404.384C239.909 403.702 239.489 402.215 239.578 401.225C239.86 398.103 240.257 395.018 241.499 391.917C238.244 392.654 237.817 398.447 237.76 398.429C237.308 400.111 238.215 402.582 238.729 404.384Z" fill="#0F6085"/>
<path d="M238.424 397.643C239.323 396.674 239.565 395.438 239.527 393.951C238.463 394.817 238.169 396.103 238.424 397.643Z" fill="#1993B8"/>
<path d="M241.421 411.27C240.171 409.101 240.729 403.457 252.966 398.234C254.734 405.308 251.037 410.916 241.421 411.27Z" fill="#1F4891"/>
<path d="M252.966 398.234C247.921 400.387 244.862 402.612 243.095 404.635C243.631 404.737 245.31 404.591 247.736 403.188C250.768 401.435 246.003 404.19 245.954 407.11C245.915 409.446 246.103 410.373 246.201 410.544C252.229 408.766 254.403 403.984 252.966 398.234Z" fill="#3A70BB"/>
<path d="M240.27 410.581C238.697 409.672 237.002 405.919 242.804 398.184C246.482 401.99 246.19 406.862 240.27 410.581Z" fill="#1F4891"/>
<path d="M242.804 398.184C240.412 401.372 239.294 403.884 238.917 405.799C239.291 405.669 240.294 404.966 241.312 403.202C242.583 400.996 240.585 404.462 241.613 406.317C242.436 407.8 242.89 408.315 243.014 408.386C246.161 405.076 245.794 401.278 242.804 398.184Z" fill="#3A70BB"/>
<path fill-rule="evenodd" clip-rule="evenodd" d="M229.262 512.732C229.438 495.84 230.043 477.282 230.548 465.347L234.574 465.517C234.071 477.423 233.467 495.936 233.291 512.775C233.203 521.195 233.222 529.18 233.413 535.704C233.606 542.3 233.972 547.207 234.524 549.599L230.597 550.505C229.941 547.659 229.576 542.349 229.385 535.822C229.192 529.222 229.173 521.177 229.262 512.732Z" fill="url(#paint9_linear_422_14460)"/>
<circle cx="232.561" cy="450.321" r="17.1255" fill="#64E6C6"/>
<circle cx="236.59" cy="448.306" r="9.06644" fill="#84F3E9"/>
<circle cx="232.561" cy="450.32" r="9.06644" fill="#F2FDFE"/>
<circle cx="249.687" cy="467.446" r="2.01476" fill="#5FDAEB"/>
<circle cx="214.428" cy="468.454" r="3.02215" fill="#5FDAEB"/>
<circle cx="220.472" cy="478.528" r="3.02215" fill="#5FDAEB"/>
<path fill-rule="evenodd" clip-rule="evenodd" d="M252.768 540.136C252.878 529.635 253.254 518.098 253.568 510.679L256.071 510.784C255.758 518.186 255.383 529.695 255.273 540.162C255.218 545.397 255.23 550.361 255.349 554.417C255.469 558.517 255.696 561.567 256.04 563.054L253.599 563.618C253.19 561.848 252.964 558.548 252.845 554.49C252.725 550.387 252.713 545.386 252.768 540.136Z" fill="url(#paint10_linear_422_14460)"/>
<circle cx="254.819" cy="501.339" r="10.6461" fill="#64E6C6"/>
<circle cx="257.324" cy="500.086" r="5.63619" fill="#84F3E9"/>
<circle cx="254.819" cy="501.339" r="5.63619" fill="#F2FDFE"/>
<circle cx="265.465" cy="511.985" r="1.25249" fill="#5FDAEB"/>
<circle cx="243.546" cy="512.611" r="1.87873" fill="#5FDAEB"/>
<path d="M1270.46 333.475C1195.09 333.475 968.968 333.475 1044.34 333.475C1086.81 333.475 1129.04 331.669 1170.79 340.887C1194.46 346.114 1218.49 351.096 1242.48 354.65C1243.8 354.846 1253.41 356.617 1252.46 356.617C1217.09 356.617 1182.19 358.869 1146.89 360.398C1128.9 361.177 1111 362.491 1093.04 363.725C1085.88 364.217 1077.56 363.718 1070.66 365.843C1068.95 366.368 1082.26 366.145 1084.12 366.145C1101.01 366.145 1118.07 365.477 1134.94 366.448C1146.9 367.136 1159.29 366.77 1171.09 368.868C1174.04 369.393 1184.35 368.669 1186.59 370.91C1187.48 371.798 1182.39 371.59 1181.9 371.59C1174.61 371.59 1167.39 371.572 1160.12 372.271C1144.27 373.795 1128.94 375.479 1113.31 378.321C1110.86 378.767 1110.38 380.75 1113.46 381.043C1120.98 381.76 1128.38 382.142 1135.92 383.085C1146.29 384.381 1156.19 384.888 1166.4 387.245C1170.41 388.171 1178.63 388.603 1181.9 391.328C1185.88 394.645 1171.7 393.37 1170.18 393.37C1150.24 393.37 1130.3 393.37 1110.36 393.37C1107.31 393.37 1104.26 393.37 1101.21 393.37C1096.98 393.37 1109.68 393.37 1113.92 393.37C1122.8 393.37 1132.75 391.933 1141.14 394.731" stroke="url(#paint11_linear_422_14460)" stroke-width="10" stroke-linecap="round"/>
<g filter="url(#filter1_i_422_14460)">
<path d="M1175.32 363.147C1194.54 354.875 1236.66 347.005 1255.31 344.104C1318.72 334.987 1422.56 351.836 1466.56 361.399L1406.46 391.454C1372.66 394.551 1298.27 400.238 1271.1 398.214C1237.14 395.684 1151.31 373.487 1175.32 363.147Z" fill="url(#paint12_linear_422_14460)"/>
</g>
<path fill-rule="evenodd" clip-rule="evenodd" d="M1482.81 466.094C1482.57 443.682 1481.77 419.06 1481.1 403.225L1475.76 403.45C1476.43 419.247 1477.23 443.81 1477.46 466.15C1477.58 477.322 1477.55 487.916 1477.3 496.571C1477.04 505.322 1476.56 511.833 1475.83 515.006L1481.04 516.209C1481.91 512.432 1482.39 505.388 1482.64 496.728C1482.9 487.971 1482.93 477.298 1482.81 466.094Z" fill="url(#paint13_linear_422_14460)"/>
<circle cx="22.7213" cy="22.7213" r="22.7213" transform="matrix(-1 0 0 1 1501.15 360.568)" fill="#64E6C6"/>
<circle cx="12.0289" cy="12.0289" r="12.0289" transform="matrix(-1 0 0 1 1485.11 368.588)" fill="#84F3E9"/>
<circle cx="12.0289" cy="12.0289" r="12.0289" transform="matrix(-1 0 0 1 1490.46 371.261)" fill="#F2FDFE"/>
<circle cx="2.6731" cy="2.6731" r="2.6731" transform="matrix(-1 0 0 1 1458.38 403.338)" fill="#5FDAEB"/>
<circle cx="4.00964" cy="4.00964" r="4.00964" transform="matrix(-1 0 0 1 1506.5 403.338)" fill="#5FDAEB"/>
<circle cx="4.00964" cy="4.00964" r="4.00964" transform="matrix(-1 0 0 1 1498.48 416.704)" fill="#5FDAEB"/>
<path fill-rule="evenodd" clip-rule="evenodd" d="M1436.99 424.525C1436.76 402.113 1435.96 377.491 1435.29 361.656L1429.95 361.882C1430.61 377.678 1431.41 402.241 1431.65 424.581C1431.76 435.753 1431.74 446.348 1431.49 455.003C1431.23 463.754 1430.74 470.264 1430.01 473.438L1435.22 474.64C1436.09 470.864 1436.58 463.82 1436.83 455.159C1437.09 446.403 1437.11 435.73 1436.99 424.525Z" fill="url(#paint14_linear_422_14460)"/>
<circle cx="22.7213" cy="22.7213" r="22.7213" transform="matrix(-1 0 0 1 1455.34 319)" fill="#64E6C6"/>
<circle cx="12.0289" cy="12.0289" r="12.0289" transform="matrix(-1 0 0 1 1439.3 327.02)" fill="#84F3E9"/>
<circle cx="12.0289" cy="12.0289" r="12.0289" transform="matrix(-1 0 0 1 1444.65 329.692)" fill="#F2FDFE"/>
<circle cx="2.6731" cy="2.6731" r="2.6731" transform="matrix(-1 0 0 1 1412.57 361.77)" fill="#5FDAEB"/>
<circle cx="4.00964" cy="4.00964" r="4.00964" transform="matrix(-1 0 0 1 1460.68 361.77)" fill="#5FDAEB"/>
<circle cx="4.00964" cy="4.00964" r="4.00964" transform="matrix(-1 0 0 1 1452.66 375.136)" fill="#5FDAEB"/>
<path fill-rule="evenodd" clip-rule="evenodd" d="M1239.82 518.499C1239.53 490.783 1238.53 460.334 1237.71 440.751L1231.1 441.03C1231.93 460.565 1232.92 490.941 1233.21 518.568C1233.35 532.384 1233.32 545.485 1233.01 556.189C1232.69 567.011 1232.09 575.062 1231.18 578.987L1237.63 580.474C1238.7 575.804 1239.3 567.092 1239.61 556.382C1239.93 545.554 1239.96 532.354 1239.82 518.499Z" fill="url(#paint15_linear_422_14460)"/>
<circle cx="28.0985" cy="28.0985" r="28.0985" transform="matrix(-1 0 0 1 1262.5 388)" fill="#64E6C6"/>
<circle cx="14.8757" cy="14.8757" r="14.8757" transform="matrix(-1 0 0 1 1242.67 397.917)" fill="#84F3E9"/>
<circle cx="14.8757" cy="14.8757" r="14.8757" transform="matrix(-1 0 0 1 1249.28 401.223)" fill="#F2FDFE"/>
<circle cx="3.30571" cy="3.30571" r="3.30571" transform="matrix(-1 0 0 1 1209.61 440.892)" fill="#5FDAEB"/>
<circle cx="4.95857" cy="4.95857" r="4.95857" transform="matrix(-1 0 0 1 1269.11 440.892)" fill="#5FDAEB"/>
<circle cx="4.95857" cy="4.95857" r="4.95857" transform="matrix(-1 0 0 1 1259.2 457.421)" fill="#5FDAEB"/>
<path d="M1272.26 370.166C1277.59 367.799 1277.93 352.66 1277.44 345.386L1272.26 346.495L1268.56 369.797C1267.58 370.906 1266.94 372.534 1272.26 370.166Z" fill="#07668F" stroke="#07668F" stroke-width="2"/>
<path d="M1275.96 345.016C1276.26 348.566 1275.1 352.413 1274.48 353.892L1274.11 345.755C1274.61 344.029 1275.67 341.465 1275.96 345.016Z" fill="#33C2E2"/>
<path d="M1273 346.125C1273.3 349.676 1271.89 357.468 1271.15 360.92C1271.45 357.369 1271.03 349.824 1270.78 346.495C1271.4 344.892 1272.71 342.574 1273 346.125Z" fill="#33C2E2"/>
<path d="M1284.8 329.573C1281.06 325.115 1277.85 324.286 1275.87 324C1272.03 324.429 1270.33 325.715 1267.35 328.287C1264.37 330.859 1252.45 336.432 1252.45 340.719C1252.45 345.006 1266.93 345.863 1274.59 346.721C1282.25 347.578 1297.58 345.863 1297.58 340.719C1297.58 335.575 1289.49 335.146 1284.8 329.573Z" fill="url(#paint16_linear_422_14460)"/>
<path d="M1283.52 330.289C1280.27 326.442 1277.48 325.727 1275.75 325.48C1272.43 325.85 1270.95 326.96 1268.36 329.179C1265.77 331.398 1255.41 336.206 1255.41 339.905C1255.41 343.604 1267.99 344.343 1274.64 345.083C1281.3 345.823 1294.62 344.343 1294.62 339.905C1294.62 335.467 1287.59 335.097 1283.52 330.289Z" fill="#14F2F4"/>
<path d="M1287.15 335.978C1287.36 335.658 1287.39 335.442 1287.43 335.064C1287.04 334.335 1286.64 333.757 1285.82 333.505C1285.64 333.566 1285.56 333.617 1285.4 333.63C1284.43 335.191 1284.81 335.773 1287.15 335.978Z" fill="#B6F6F7"/>
<path d="M1276.51 333.234C1276.59 333.109 1276.68 332.909 1276.73 332.812C1276.91 331.854 1277.58 331.522 1278.34 331.094C1278.62 330.596 1279.2 330.759 1279.31 330.192C1278.92 329.765 1278.57 329.48 1278.09 329.161C1277.75 328.918 1277.47 328.923 1277.11 328.799C1277.01 327.471 1275.85 326.929 1275.29 327.433C1273.88 328.72 1272.04 327.793 1270.49 328.655C1270.32 328.604 1270.33 328.623 1270.33 328.632C1270.24 328.761 1270.14 328.884 1270.12 329.024C1269.99 330.061 1268.96 331.114 1269.83 332.116C1270.74 333.162 1271.67 331.726 1272.78 331.915C1273 332.005 1273.09 332.046 1273.31 332.141C1273.72 332.251 1274 332.323 1274.36 332.555C1274.67 332.792 1274.85 332.959 1275.15 333.19C1275.62 333.616 1275.99 333.951 1276.51 333.234Z" fill="#D2F6FC"/>
<path d="M1279.44 330.061C1279.02 330.281 1278.77 330.511 1278.47 330.861C1279.05 330.847 1279.53 331.093 1280.05 331.429C1280.43 331.677 1280.92 332.614 1281.41 331.68C1281.82 330.903 1281.43 330.259 1280.5 330.11C1280.21 330.065 1279.91 330.082 1279.44 330.061Z" fill="#ADF7F9"/>
<path d="M1281.56 334.392C1281.53 334.877 1281.63 335.26 1281.84 335.737C1282.61 335.695 1283.01 335.32 1282.85 334.635C1282.68 333.934 1282.18 334.036 1281.56 334.392Z" fill="#ADF7F9"/>
<path d="M1278.36 333.402C1278.62 333.537 1278.8 333.549 1279.12 333.55C1279.64 332.928 1279.94 332.159 1278.99 331.99C1278.13 331.838 1277.85 332.478 1278.36 333.402Z" fill="#8AF5F7"/>
<path d="M1283.76 331.784C1283.33 331.867 1282.69 331.605 1282.6 332.356C1282.58 332.505 1282.8 332.795 1282.95 332.829C1283.55 332.965 1283.61 332.459 1283.76 331.911C1283.78 331.766 1283.74 331.804 1283.76 331.784Z" fill="#68F5F4"/>
<path d="M1264.49 336.189C1264.77 336.292 1264.97 336.294 1265.32 336.279C1265.63 336.244 1265.75 336.165 1265.88 335.916C1266.12 335.8 1266.3 335.785 1266.62 335.768C1266.84 335.714 1266.93 335.661 1267.14 335.546C1267.36 335.467 1267.43 335.451 1267.62 335.401C1267.95 335.184 1267.98 334.931 1268.04 334.553C1268.53 334.088 1268.96 333.744 1269.46 333.271C1269.4 332.922 1269.28 332.701 1269.11 332.363C1268.16 332.368 1267.46 332.834 1267.06 333.639C1266.61 334.534 1265.8 334.512 1264.83 334.594C1264.67 334.609 1264.63 334.596 1264.62 334.586C1264.38 334.69 1264.12 334.698 1263.77 334.83C1263.53 334.948 1263.42 335.037 1263.3 335.261C1263.26 335.359 1263.44 335.422 1263.53 335.451C1263.95 335.598 1264.17 335.857 1264.49 336.189Z" fill="#8AF5F7"/>
<path d="M1267.47 341.125C1267.67 340.599 1268.2 340.195 1267.84 339.52C1267.02 339.524 1266.21 341.018 1265.25 339.697C1264.96 339.305 1264.17 339.102 1263.92 339.62C1263.55 340.363 1264.43 340.496 1264.98 340.918C1265.83 341.064 1266.56 341.111 1267.47 341.125Z" fill="#8AF5F7"/>
<path d="M1272.55 341.425C1272.96 341.523 1273.25 341.518 1273.69 341.481C1273.99 341.152 1274.14 340.855 1274.29 340.431C1273.05 340.142 1272.85 338.242 1271.19 338.568C1270.61 339.968 1271.3 340.76 1272.55 341.425Z" fill="#B6F6F7"/>
<path d="M1274.44 335.094C1272.89 334.822 1272.65 336.594 1271.4 336.798C1271.15 336.837 1271.37 337.454 1271.66 337.71C1271.99 337.988 1272.33 337.986 1272.65 337.708C1273.26 337.188 1273.85 336.659 1274.52 335.989C1274.67 335.629 1274.67 335.414 1274.44 335.094Z" fill="#ADF7F9"/>
<path d="M1277.98 341.458C1278.49 341.6 1278.94 341.624 1279.56 341.613C1279.66 340.807 1280.03 340.226 1280.57 339.546C1280.38 339.262 1280.15 339.124 1279.81 338.91C1279.51 338.743 1279.3 338.718 1278.97 338.854C1278.82 339.571 1278.82 340.201 1277.84 340.344C1277.78 340.707 1277.86 341.023 1277.98 341.458Z" fill="#ADF7F9"/>
<path d="M1278.7 335.098C1278.43 335.568 1278.46 335.941 1278.78 336.167C1279.26 336.5 1278.69 337.49 1279.59 337.469C1280.18 337.456 1280.26 336.977 1280.04 336.535C1279.74 335.942 1280.48 334.488 1278.7 335.098Z" fill="#8AF5F7"/>
<path d="M1265.64 336.622C1266.01 337.925 1266.48 339.2 1268.15 337.802C1267.6 337.626 1267.3 337.26 1266.94 336.721C1266.49 336.461 1266.14 336.466 1265.64 336.622Z" fill="#8AF5F7"/>
<path d="M1275.22 335.642C1276.36 335.785 1277.23 335.665 1276.69 334.169C1276.17 333.626 1275.82 333.862 1275.37 334.317C1275.25 334.521 1275.23 334.596 1275.18 334.78C1275.05 335.097 1275.04 335.31 1275.22 335.642Z" fill="#ADF7F9"/>
<path d="M1270.84 336.124C1271.38 335.748 1271.9 335.491 1271.51 334.849C1271.31 334.516 1270.96 334.608 1270.78 334.835C1270.43 335.254 1269.52 335.229 1269.7 336.011C1269.83 336.591 1270.31 336.5 1270.84 336.124Z" fill="#8AF5F7"/>
<path d="M1273.5 331.805C1272.83 331.993 1272.03 331.991 1271.7 332.999C1271.77 333.272 1271.87 333.393 1272.07 333.581C1272.35 333.76 1272.56 333.801 1272.91 333.707C1273.22 333.417 1273.38 333.202 1273.6 332.859C1273.75 332.513 1273.76 332.291 1273.6 331.923C1273.5 331.784 1273.49 331.805 1273.5 331.805Z" fill="#ADF7F9"/>
<path d="M1281.55 338.741C1282.04 338.929 1282.53 338.994 1283.04 338.527C1283.12 337.78 1282.73 337.548 1282.14 337.62C1281.6 337.688 1281.5 338.107 1281.55 338.741Z" fill="#ADF7F9"/>
<path d="M1283.09 341.413C1283.08 341.566 1283.1 341.628 1283.11 341.656C1283.83 342.214 1284.59 342.477 1285.15 341.58C1285.44 341.115 1285.17 340.526 1284.63 340.342C1283.84 340.066 1283.2 340.266 1283.09 341.413Z" fill="#D2F6FC"/>
<path d="M1247.24 380.452C1243.59 378.027 1243.35 362.519 1243.69 355.067L1247.24 356.204L1249.78 380.073C1250.45 381.21 1250.89 382.877 1247.24 380.452Z" fill="#07668F" stroke="#07668F" stroke-width="2"/>
<path d="M1244.82 355.188C1244.63 357.458 1245.37 359.918 1245.77 360.863L1246 355.661C1245.69 354.558 1245.01 352.918 1244.82 355.188Z" fill="#33C2E2"/>
<path d="M1246.71 355.898C1246.52 358.168 1247.42 363.149 1247.89 365.356C1247.7 363.086 1247.97 358.262 1248.13 356.134C1247.74 355.109 1246.9 353.628 1246.71 355.898Z" fill="#33C2E2"/>
<path d="M1239.16 345.316C1241.56 342.466 1243.61 341.936 1244.88 341.753C1247.33 342.027 1248.42 342.849 1250.32 344.494C1252.23 346.138 1259.85 349.701 1259.85 352.442C1259.85 355.183 1250.6 355.731 1245.7 356.279C1240.8 356.827 1231 355.731 1231 352.442C1231 349.153 1236.17 348.879 1239.16 345.316Z" fill="url(#paint17_linear_422_14460)"/>
<path d="M1239.99 345.773C1242.07 343.314 1243.85 342.857 1244.95 342.699C1247.08 342.936 1248.03 343.645 1249.68 345.064C1251.34 346.483 1257.96 349.557 1257.96 351.921C1257.96 354.286 1249.92 354.759 1245.66 355.232C1241.41 355.705 1232.89 354.759 1232.89 351.921C1232.89 349.084 1237.39 348.847 1239.99 345.773Z" fill="#14F2F4"/>
<path d="M1237.67 349.411C1237.53 349.207 1237.52 349.068 1237.48 348.827C1237.73 348.361 1237.99 347.991 1238.51 347.83C1238.63 347.869 1238.68 347.902 1238.79 347.91C1239.41 348.908 1239.16 349.28 1237.67 349.411Z" fill="#B6F6F7"/>
<path d="M1244.47 347.656C1244.42 347.577 1244.36 347.449 1244.33 347.387C1244.21 346.774 1243.79 346.562 1243.3 346.289C1243.12 345.97 1242.75 346.075 1242.68 345.712C1242.93 345.439 1243.15 345.257 1243.46 345.052C1243.68 344.897 1243.85 344.9 1244.08 344.821C1244.15 343.972 1244.89 343.626 1245.25 343.948C1246.15 344.771 1247.33 344.178 1248.32 344.729C1248.43 344.696 1248.42 344.708 1248.42 344.715C1248.48 344.797 1248.54 344.876 1248.55 344.965C1248.64 345.628 1249.3 346.301 1248.74 346.942C1248.16 347.611 1247.56 346.693 1246.85 346.813C1246.71 346.871 1246.66 346.898 1246.52 346.958C1246.25 347.028 1246.08 347.075 1245.84 347.223C1245.65 347.374 1245.53 347.481 1245.34 347.628C1245.04 347.901 1244.8 348.115 1244.47 347.656Z" fill="#D2F6FC"/>
<path d="M1242.59 345.628C1242.87 345.769 1243.02 345.916 1243.21 346.139C1242.85 346.131 1242.54 346.288 1242.21 346.503C1241.96 346.662 1241.65 347.26 1241.34 346.663C1241.07 346.166 1241.32 345.755 1241.92 345.66C1242.1 345.631 1242.29 345.642 1242.59 345.628Z" fill="#ADF7F9"/>
<path d="M1241.24 348.396C1241.26 348.707 1241.2 348.952 1241.06 349.256C1240.57 349.23 1240.31 348.99 1240.42 348.552C1240.52 348.104 1240.84 348.169 1241.24 348.396Z" fill="#ADF7F9"/>
<path d="M1243.28 347.764C1243.12 347.85 1243 347.858 1242.8 347.858C1242.46 347.461 1242.27 346.969 1242.88 346.861C1243.44 346.764 1243.61 347.173 1243.28 347.764Z" fill="#8AF5F7"/>
<path d="M1239.83 346.729C1240.11 346.782 1240.52 346.615 1240.58 347.095C1240.59 347.19 1240.45 347.376 1240.35 347.397C1239.97 347.484 1239.93 347.161 1239.83 346.811C1239.82 346.718 1239.84 346.742 1239.83 346.729Z" fill="#68F5F4"/>
<path d="M1252.16 349.545C1251.98 349.61 1251.85 349.612 1251.62 349.602C1251.42 349.58 1251.35 349.53 1251.27 349.37C1251.11 349.296 1251 349.286 1250.79 349.276C1250.65 349.241 1250.6 349.207 1250.46 349.134C1250.32 349.083 1250.27 349.073 1250.15 349.041C1249.94 348.902 1249.92 348.74 1249.88 348.499C1249.57 348.202 1249.29 347.981 1248.98 347.679C1249.01 347.456 1249.09 347.315 1249.2 347.099C1249.81 347.102 1250.25 347.399 1250.51 347.914C1250.8 348.486 1251.32 348.472 1251.93 348.525C1252.04 348.535 1252.06 348.526 1252.07 348.52C1252.23 348.587 1252.39 348.591 1252.61 348.676C1252.77 348.751 1252.84 348.808 1252.91 348.951C1252.94 349.014 1252.83 349.054 1252.77 349.073C1252.5 349.167 1252.36 349.332 1252.16 349.545Z" fill="#8AF5F7"/>
<path d="M1250.25 352.702C1250.12 352.366 1249.78 352.107 1250.01 351.676C1250.53 351.678 1251.06 352.634 1251.67 351.789C1251.85 351.538 1252.36 351.409 1252.52 351.739C1252.75 352.215 1252.19 352.299 1251.84 352.569C1251.3 352.662 1250.83 352.693 1250.25 352.702Z" fill="#8AF5F7"/>
<path d="M1247 352.894C1246.74 352.956 1246.55 352.953 1246.27 352.93C1246.08 352.719 1245.98 352.529 1245.89 352.258C1246.68 352.073 1246.81 350.859 1247.87 351.067C1248.24 351.962 1247.8 352.469 1247 352.894Z" fill="#B6F6F7"/>
<path d="M1245.79 348.845C1246.79 348.672 1246.93 349.805 1247.74 349.935C1247.89 349.96 1247.76 350.354 1247.57 350.518C1247.36 350.696 1247.14 350.694 1246.94 350.517C1246.55 350.184 1246.17 349.846 1245.74 349.418C1245.64 349.187 1245.65 349.05 1245.79 348.845Z" fill="#ADF7F9"/>
<path d="M1243.53 352.914C1243.2 353.005 1242.91 353.02 1242.52 353.013C1242.46 352.498 1242.22 352.126 1241.88 351.691C1241.99 351.51 1242.14 351.422 1242.36 351.285C1242.55 351.179 1242.68 351.162 1242.9 351.249C1242.99 351.707 1242.99 352.111 1243.62 352.202C1243.66 352.434 1243.61 352.636 1243.53 352.914Z" fill="#ADF7F9"/>
<path d="M1243.07 348.849C1243.24 349.15 1243.22 349.388 1243.01 349.532C1242.71 349.745 1243.07 350.378 1242.5 350.365C1242.13 350.356 1242.07 350.05 1242.21 349.767C1242.4 349.388 1241.93 348.459 1243.07 348.849Z" fill="#8AF5F7"/>
<path d="M1251.42 349.822C1251.18 350.655 1250.88 351.47 1249.82 350.576C1250.16 350.464 1250.36 350.23 1250.58 349.885C1250.88 349.72 1251.1 349.723 1251.42 349.822Z" fill="#8AF5F7"/>
<path d="M1245.29 349.197C1244.57 349.288 1244.01 349.211 1244.35 348.255C1244.69 347.908 1244.91 348.059 1245.2 348.35C1245.27 348.48 1245.28 348.528 1245.32 348.646C1245.4 348.849 1245.41 348.985 1245.29 349.197Z" fill="#ADF7F9"/>
<path d="M1248.09 349.504C1247.75 349.264 1247.42 349.1 1247.67 348.689C1247.8 348.476 1248.02 348.535 1248.13 348.68C1248.35 348.948 1248.94 348.932 1248.82 349.432C1248.74 349.803 1248.43 349.745 1248.09 349.504Z" fill="#8AF5F7"/>
<path d="M1246.39 346.743C1246.82 346.863 1247.33 346.862 1247.54 347.507C1247.5 347.681 1247.43 347.758 1247.31 347.879C1247.13 347.993 1247 348.019 1246.77 347.959C1246.57 347.773 1246.47 347.636 1246.33 347.417C1246.23 347.196 1246.22 347.054 1246.33 346.818C1246.39 346.73 1246.4 346.743 1246.39 346.743Z" fill="#ADF7F9"/>
<path d="M1241.25 351.177C1240.93 351.297 1240.62 351.338 1240.3 351.04C1240.24 350.563 1240.49 350.414 1240.87 350.46C1241.22 350.503 1241.28 350.772 1241.25 351.177Z" fill="#ADF7F9"/>
<path d="M1240.26 352.886C1240.27 352.984 1240.26 353.024 1240.25 353.041C1239.79 353.399 1239.31 353.567 1238.95 352.993C1238.76 352.696 1238.94 352.319 1239.28 352.201C1239.78 352.025 1240.19 352.153 1240.26 352.886Z" fill="#D2F6FC"/>
<path d="M1251.1 382.808C1252.95 382.808 1256.35 380.367 1255.17 370.603C1249.99 372.082 1247.77 376.52 1251.1 382.808Z" fill="#1F4891"/>
<path d="M1255.17 370.603C1255.65 374.628 1255.36 377.408 1254.72 379.287C1254.46 378.981 1253.93 377.852 1253.93 375.781C1253.93 373.192 1253.93 377.26 1252.08 378.37C1250.6 379.257 1249.94 379.479 1249.8 379.479C1248.7 374.963 1250.96 371.805 1255.17 370.603Z" fill="#3A70BB"/>
<path d="M1251.96 383.29C1253.13 383.961 1256.15 383.662 1258.96 377.09C1255.16 376.14 1252.15 378.126 1251.96 383.29Z" fill="#1F4891"/>
<path d="M1258.96 377.09C1257.8 379.799 1256.61 381.442 1255.52 382.391C1255.47 382.103 1255.55 381.201 1256.3 379.898C1257.24 378.27 1255.76 380.829 1254.2 380.855C1252.94 380.876 1252.45 380.776 1252.35 380.723C1253.31 377.485 1255.87 376.318 1258.96 377.09Z" fill="#3A70BB"/>
<path d="M1268.09 377.167C1269.85 376.148 1271.76 371.943 1265.25 363.277C1261.12 367.542 1261.45 373.001 1268.09 377.167Z" fill="#1F4891"/>
<path d="M1265.25 363.277C1267.93 366.85 1269.18 369.664 1269.61 371.809C1269.19 371.663 1268.06 370.876 1266.92 368.899C1265.49 366.429 1267.74 370.311 1266.58 372.389C1265.66 374.051 1265.15 374.628 1265.01 374.708C1261.48 370.999 1261.89 366.744 1265.25 363.277Z" fill="#3A70BB"/>
<path d="M1269.18 377.15C1270.66 377.15 1273.39 375.196 1272.44 367.381C1268.29 368.565 1266.52 372.117 1269.18 377.15Z" fill="#1F4891"/>
<path d="M1272.44 367.381C1272.83 370.602 1272.59 372.828 1272.08 374.331C1271.87 374.087 1271.45 373.183 1271.45 371.525C1271.45 369.453 1271.45 372.709 1269.97 373.597C1268.78 374.308 1268.26 374.485 1268.14 374.485C1267.26 370.871 1269.07 368.343 1272.44 367.381Z" fill="#3A70BB"/>
<path d="M1277.97 372.186C1278.9 372.802 1279.87 371.735 1280.71 371.224C1284.23 369.089 1285.79 364.943 1284.61 361.743C1282.29 361.278 1275.07 370.271 1277.97 372.186Z" fill="#15356C"/>
<path d="M1277.59 369.511C1278.7 369.511 1279.01 368.292 1279.47 367.631C1280.94 365.545 1282.48 363.534 1284.61 361.854C1282.02 361.047 1279.36 364.956 1279.33 364.92C1278.32 365.921 1277.96 368.032 1277.59 369.511Z" fill="#0F6085"/>
<path d="M1280.11 364.635C1281.14 364.318 1281.82 363.546 1282.4 362.482C1281.29 362.659 1280.56 363.445 1280.11 364.635Z" fill="#1993B8"/>
<path d="M1278.08 372.821C1279.19 372.889 1279.5 371.479 1279.97 370.616C1281.95 367.009 1281.23 362.639 1278.61 360.454C1276.36 361.214 1274.61 372.609 1278.08 372.821Z" fill="#15356C"/>
<path d="M1276.41 370.694C1277.37 370.139 1277.03 368.93 1277.1 368.124C1277.33 365.583 1277.65 363.073 1278.67 360.549C1276.01 361.149 1275.67 365.863 1275.62 365.848C1275.25 367.217 1275.99 369.228 1276.41 370.694Z" fill="#0F6085"/>
<path d="M1276.16 365.208C1276.89 364.42 1277.09 363.414 1277.06 362.204C1276.19 362.909 1275.95 363.955 1276.16 365.208Z" fill="#1993B8"/>
<path d="M1278.6 376.297C1277.58 374.532 1278.04 369.94 1288.01 365.689C1289.45 371.446 1286.44 376.009 1278.6 376.297Z" fill="#1F4891"/>
<path d="M1288.01 365.689C1283.9 367.441 1281.41 369.252 1279.97 370.898C1280.4 370.981 1281.77 370.862 1283.75 369.721C1286.22 368.294 1282.34 370.536 1282.3 372.912C1282.27 374.813 1282.42 375.567 1282.5 375.706C1287.41 374.259 1289.18 370.368 1288.01 365.689Z" fill="#3A70BB"/>
<path d="M1277.67 375.736C1276.38 374.996 1275 371.942 1279.73 365.648C1282.73 368.745 1282.49 372.71 1277.67 375.736Z" fill="#1F4891"/>
<path d="M1279.73 365.648C1277.78 368.242 1276.87 370.286 1276.56 371.845C1276.87 371.738 1277.68 371.167 1278.51 369.731C1279.55 367.936 1277.92 370.756 1278.76 372.266C1279.43 373.473 1279.8 373.892 1279.9 373.95C1282.46 371.256 1282.17 368.165 1279.73 365.648Z" fill="#3A70BB"/>
<path fill-rule="evenodd" clip-rule="evenodd" d="M1347.42 512.732C1347.25 495.84 1346.64 477.282 1346.14 465.347L1342.11 465.517C1342.61 477.423 1343.22 495.936 1343.39 512.775C1343.48 521.195 1343.46 529.18 1343.27 535.704C1343.08 542.3 1342.71 547.207 1342.16 549.599L1346.09 550.505C1346.74 547.659 1347.11 542.349 1347.3 535.822C1347.49 529.222 1347.51 521.177 1347.42 512.732Z" fill="url(#paint18_linear_422_14460)"/>
<circle cx="17.1255" cy="17.1255" r="17.1255" transform="matrix(-1 0 0 1 1361.25 433.195)" fill="#64E6C6"/>
<circle cx="9.06644" cy="9.06644" r="9.06644" transform="matrix(-1 0 0 1 1349.16 439.239)" fill="#84F3E9"/>
<circle cx="9.06644" cy="9.06644" r="9.06644" transform="matrix(-1 0 0 1 1353.19 441.254)" fill="#F2FDFE"/>
<circle cx="2.01476" cy="2.01476" r="2.01476" transform="matrix(-1 0 0 1 1329.01 465.432)" fill="#5FDAEB"/>
<circle cx="3.02215" cy="3.02215" r="3.02215" transform="matrix(-1 0 0 1 1365.28 465.432)" fill="#5FDAEB"/>
<circle cx="3.02215" cy="3.02215" r="3.02215" transform="matrix(-1 0 0 1 1359.23 475.506)" fill="#5FDAEB"/>
<path fill-rule="evenodd" clip-rule="evenodd" d="M1323.92 540.136C1323.81 529.635 1323.43 518.098 1323.12 510.679L1320.61 510.784C1320.93 518.186 1321.3 529.695 1321.41 540.162C1321.47 545.397 1321.45 550.361 1321.34 554.417C1321.22 558.517 1320.99 561.567 1320.64 563.054L1323.09 563.618C1323.49 561.848 1323.72 558.548 1323.84 554.49C1323.96 550.387 1323.97 545.386 1323.92 540.136Z" fill="url(#paint19_linear_422_14460)"/>
<circle cx="10.6461" cy="10.6461" r="10.6461" transform="matrix(-1 0 0 1 1332.51 490.692)" fill="#64E6C6"/>
<circle cx="5.63619" cy="5.63619" r="5.63619" transform="matrix(-1 0 0 1 1325 494.45)" fill="#84F3E9"/>
<circle cx="5.63619" cy="5.63619" r="5.63619" transform="matrix(-1 0 0 1 1327.5 495.703)" fill="#F2FDFE"/>
<circle cx="1.25249" cy="1.25249" r="1.25249" transform="matrix(-1 0 0 1 1312.47 510.732)" fill="#5FDAEB"/>
<circle cx="1.87873" cy="1.87873" r="1.87873" transform="matrix(-1 0 0 1 1335.02 510.732)" fill="#5FDAEB"/>
<circle cx="1.87873" cy="1.87873" r="1.87873" transform="matrix(-1 0 0 1 1331.26 516.995)" fill="#5FDAEB"/>
<circle cx="1.76652" cy="1.76652" r="1.76652" transform="matrix(1.19249e-08 -1 -1 -1.19249e-08 123.198 307.964)" fill="#D6F9FC"/>
<circle cx="4.4163" cy="4.4163" r="4.4163" transform="matrix(1.19249e-08 -1 -1 -1.19249e-08 221.252 300.326)" fill="#D6F9FC"/>
<circle cx="4.4163" cy="4.4163" r="4.4163" transform="matrix(1.19249e-08 -1 -1 -1.19249e-08 364.34 314.459)" fill="#D6F9FC"/>
<circle cx="3.53304" cy="3.53304" r="3.53304" transform="matrix(1.19249e-08 -1 -1 -1.19249e-08 403.204 302.094)" fill="#D6F9FC"/>
<circle cx="1.76652" cy="1.76652" r="1.76652" transform="matrix(1.19249e-08 -1 -1 -1.19249e-08 105.533 320.329)" fill="#8AF5F7"/>
<circle cx="1.76652" cy="1.76652" r="1.76652" transform="matrix(1.19249e-08 -1 -1 -1.19249e-08 182.388 268.529)" fill="#8AF5F7"/>
<circle cx="2.64978" cy="2.64978" r="2.64978" transform="matrix(1.19249e-08 -1 -1 -1.19249e-08 126.731 299.132)" fill="#8AF5F7"/>
<circle cx="1.76652" cy="1.76652" r="1.76652" transform="matrix(1.19249e-08 -1 -1 -1.19249e-08 210.652 279.129)" fill="#8AF5F7"/>
<circle cx="4.4163" cy="4.4163" r="4.4163" transform="matrix(1.19249e-08 -1 -1 -1.19249e-08 760.494 295.529)" fill="#D6F9FC"/>
<circle cx="3.53304" cy="3.53304" r="3.53304" transform="matrix(1.19249e-08 -1 -1 -1.19249e-08 799.357 329.094)" fill="#D6F9FC"/>
<circle cx="1.76652" cy="1.76652" r="1.76652" transform="matrix(1.19249e-08 -1 -1 -1.19249e-08 623.688 321.426)" fill="#D6F9FC"/>
<circle cx="3.53304" cy="3.53304" r="3.53304" transform="matrix(1.19249e-08 -1 -1 -1.19249e-08 944.066 345.994)" fill="#D6F9FC"/>
<circle cx="2.64978" cy="2.64978" r="2.64978" transform="matrix(1.19249e-08 -1 -1 -1.19249e-08 463.299 302.3)" fill="#D6F9FC"/>
<circle cx="1.76652" cy="1.76652" r="1.76652" transform="matrix(1.19249e-08 -1 -1 -1.19249e-08 566.533 256.723)" fill="#D6F9FC"/>
<circle cx="5.29956" cy="5.29956" r="5.29956" transform="matrix(1.19249e-08 -1 -1 -1.19249e-08 486.264 318.198)" fill="#8AF5F7"/>
<circle cx="2.64978" cy="2.64978" r="2.64978" transform="matrix(1.19249e-08 -1 -1 -1.19249e-08 970.564 351.295)" fill="#8AF5F7"/>
<circle cx="1.76652" cy="1.76652" r="1.76652" transform="matrix(1.19249e-08 -1 -1 -1.19249e-08 547.728 369.123)" fill="#8AF5F7"/>
<circle cx="1.76652" cy="1.76652" r="1.76652" transform="matrix(1.19249e-08 -1 -1 -1.19249e-08 584.825 370.891)" fill="#8AF5F7"/>
<circle cx="1.76652" cy="1.76652" r="1.76652" transform="matrix(1.19249e-08 -1 -1 -1.19249e-08 551.26 298.461)" fill="#8AF5F7"/>
<circle cx="2.64978" cy="2.64978" r="2.64978" transform="matrix(1.19249e-08 -1 -1 -1.19249e-08 568.926 347.924)" fill="#8AF5F7"/>
<circle cx="2.64978" cy="2.64978" r="2.64978" transform="matrix(1.19249e-08 -1 -1 -1.19249e-08 801.123 378.555)" fill="#8AF5F7"/>
<circle cx="2.64978" cy="2.64978" r="2.64978" transform="matrix(1.19249e-08 -1 -1 -1.19249e-08 838.219 277.865)" fill="#8AF5F7"/>
<circle cx="4.4163" cy="4.4163" r="4.4163" transform="matrix(1.19249e-08 -1 -1 -1.19249e-08 882.382 302.596)" fill="#8AF5F7"/>
<circle cx="2.64978" cy="2.64978" r="2.64978" transform="matrix(1.19249e-08 -1 -1 -1.19249e-08 866.484 302.596)" fill="#8AF5F7"/>
<circle cx="1.76652" cy="1.76652" r="1.76652" transform="matrix(1.19249e-08 -1 -1 -1.19249e-08 618.389 298.461)" fill="#8AF5F7"/>
<circle cx="3.53304" cy="3.53304" r="3.53304" transform="matrix(1.19249e-08 -1 -1 -1.19249e-08 484.498 316.433)" fill="white"/>
<circle cx="1480.71" cy="318.561" r="5.29956" transform="rotate(-90 1480.71 318.561)" fill="#8AF5F7"/>
<circle cx="1470.11" cy="336.227" r="1.76652" transform="rotate(-90 1470.11 336.227)" fill="#8AF5F7"/>
<circle cx="1275.79" cy="293.83" r="1.76652" transform="rotate(-90 1275.79 293.83)" fill="#8AF5F7"/>
<circle cx="1160.08" cy="315.912" r="2.64978" transform="rotate(-90 1160.08 315.912)" fill="#8AF5F7"/>
<defs>
<filter id="filter0_i_422_14460" x="110.127" y="341.483" width="295.414" height="57.1562" filterUnits="userSpaceOnUse" color-interpolation-filters="sRGB">
<feFlood flood-opacity="0" result="BackgroundImageFix"/>
<feBlend mode="normal" in="SourceGraphic" in2="BackgroundImageFix" result="shape"/>
<feColorMatrix in="SourceAlpha" type="matrix" values="0 0 0 0 0 0 0 0 0 0 0 0 0 0 0 0 0 0 127 0" result="hardAlpha"/>
<feOffset dx="3" dy="2"/>
<feComposite in2="hardAlpha" operator="arithmetic" k2="-1" k3="1"/>
<feColorMatrix type="matrix" values="0 0 0 0 0.517647 0 0 0 0 0.831373 0 0 0 0 0.713726 0 0 0 1 0"/>
<feBlend mode="normal" in2="shape" result="effect1_innerShadow_422_14460"/>
</filter>
<filter id="filter1_i_422_14460" x="1171.14" y="341.483" width="295.414" height="57.1562" filterUnits="userSpaceOnUse" color-interpolation-filters="sRGB">
<feFlood flood-opacity="0" result="BackgroundImageFix"/>
<feBlend mode="normal" in="SourceGraphic" in2="BackgroundImageFix" result="shape"/>
<feColorMatrix in="SourceAlpha" type="matrix" values="0 0 0 0 0 0 0 0 0 0 0 0 0 0 0 0 0 0 127 0" result="hardAlpha"/>
<feOffset dx="3" dy="2"/>
<feComposite in2="hardAlpha" operator="arithmetic" k2="-1" k3="1"/>
<feColorMatrix type="matrix" values="0 0 0 0 0.517647 0 0 0 0 0.831373 0 0 0 0 0.713726 0 0 0 1 0"/>
<feBlend mode="normal" in2="shape" result="effect1_innerShadow_422_14460"/>
</filter>
<linearGradient id="paint0_linear_422_14460" x1="751.372" y1="117.502" x2="751.372" y2="587.508" gradientUnits="userSpaceOnUse">
<stop stop-color="#025172" stop-opacity="0"/>
<stop offset="1" stop-color="#38E5B0"/>
</linearGradient>
<linearGradient id="paint1_linear_422_14460" x1="2266.34" y1="597.12" x2="2266.34" y2="889.601" gradientUnits="userSpaceOnUse">
<stop stop-color="#2CC1FF" stop-opacity="0"/>
<stop offset="1" stop-color="#0BFFB4"/>
</linearGradient>
<linearGradient id="paint2_linear_422_14460" x1="426.87" y1="333.332" x2="426.87" y2="394.731" gradientUnits="userSpaceOnUse">
<stop stop-color="#83E0B7"/>
<stop offset="1" stop-color="#83E0B7" stop-opacity="0"/>
</linearGradient>
<linearGradient id="paint3_linear_422_14460" x1="288.069" y1="354.515" x2="269.407" y2="434.203" gradientUnits="userSpaceOnUse">
<stop stop-color="#2D6A3E"/>
<stop offset="0.572917" stop-color="#2D6A3E" stop-opacity="0"/>
</linearGradient>
<linearGradient id="paint4_linear_422_14460" x1="97.3678" y1="403.337" x2="97.3678" y2="515.607" gradientUnits="userSpaceOnUse">
<stop stop-color="#35B4CB"/>
<stop offset="1" stop-color="#32769A"/>
</linearGradient>
<linearGradient id="paint5_linear_422_14460" x1="192.873" y1="432.963" x2="108.528" y2="430.054" gradientUnits="userSpaceOnUse">
<stop stop-color="#098D9C"/>
<stop offset="1" stop-color="#148BBB"/>
</linearGradient>
<linearGradient id="paint6_linear_422_14460" x1="37.438" y1="467.609" x2="91.3635" y2="465.75" gradientUnits="userSpaceOnUse">
<stop stop-color="#098D9C"/>
<stop offset="1" stop-color="#148BBB"/>
</linearGradient>
<linearGradient id="paint7_linear_422_14460" x1="259.259" y1="362.454" x2="219.768" y2="361.094" gradientUnits="userSpaceOnUse">
<stop stop-color="#098D9C"/>
<stop offset="1" stop-color="#148BBB"/>
</linearGradient>
<linearGradient id="paint8_linear_422_14460" x1="186.483" y1="378.698" x2="211.731" y2="377.828" gradientUnits="userSpaceOnUse">
<stop stop-color="#098D9C"/>
<stop offset="1" stop-color="#148BBB"/>
</linearGradient>
<linearGradient id="paint9_linear_422_14460" x1="231.893" y1="465.432" x2="231.893" y2="550.052" gradientUnits="userSpaceOnUse">
<stop stop-color="#35B4CB"/>
<stop offset="1" stop-color="#32769A"/>
</linearGradient>
<linearGradient id="paint10_linear_422_14460" x1="254.404" y1="510.732" x2="254.404" y2="563.336" gradientUnits="userSpaceOnUse">
<stop stop-color="#35B4CB"/>
<stop offset="1" stop-color="#32769A"/>
</linearGradient>
<linearGradient id="paint11_linear_422_14460" x1="1149.81" y1="333.332" x2="1149.81" y2="394.731" gradientUnits="userSpaceOnUse">
<stop stop-color="#83E0B7"/>
<stop offset="1" stop-color="#83E0B7" stop-opacity="0"/>
</linearGradient>
<linearGradient id="paint12_linear_422_14460" x1="1288.62" y1="354.515" x2="1307.28" y2="434.203" gradientUnits="userSpaceOnUse">
<stop stop-color="#2D6A3E"/>
<stop offset="0.572917" stop-color="#2D6A3E" stop-opacity="0"/>
</linearGradient>
<linearGradient id="paint13_linear_422_14460" x1="1479.32" y1="403.337" x2="1479.32" y2="515.607" gradientUnits="userSpaceOnUse">
<stop stop-color="#35B4CB"/>
<stop offset="1" stop-color="#32769A"/>
</linearGradient>
<linearGradient id="paint14_linear_422_14460" x1="1433.5" y1="361.769" x2="1433.5" y2="474.039" gradientUnits="userSpaceOnUse">
<stop stop-color="#35B4CB"/>
<stop offset="1" stop-color="#32769A"/>
</linearGradient>
<linearGradient id="paint15_linear_422_14460" x1="1235.5" y1="440.891" x2="1235.5" y2="579.73" gradientUnits="userSpaceOnUse">
<stop stop-color="#35B4CB"/>
<stop offset="1" stop-color="#32769A"/>
</linearGradient>
<linearGradient id="paint16_linear_422_14460" x1="1293.14" y1="336.575" x2="1260.96" y2="335.466" gradientUnits="userSpaceOnUse">
<stop stop-color="#098D9C"/>
<stop offset="1" stop-color="#148BBB"/>
</linearGradient>
<linearGradient id="paint17_linear_422_14460" x1="1233.84" y1="349.793" x2="1254.41" y2="349.083" gradientUnits="userSpaceOnUse">
<stop stop-color="#098D9C"/>
<stop offset="1" stop-color="#148BBB"/>
</linearGradient>
<linearGradient id="paint18_linear_422_14460" x1="1344.79" y1="465.432" x2="1344.79" y2="550.052" gradientUnits="userSpaceOnUse">
<stop stop-color="#35B4CB"/>
<stop offset="1" stop-color="#32769A"/>
</linearGradient>
<linearGradient id="paint19_linear_422_14460" x1="1322.28" y1="510.732" x2="1322.28" y2="563.336" gradientUnits="userSpaceOnUse">
<stop stop-color="#35B4CB"/>
<stop offset="1" stop-color="#32769A"/>
</linearGradient>
</defs>
</svg>
