<svg width="342" height="305" viewBox="0 0 342 305" fill="none" xmlns="http://www.w3.org/2000/svg">
<path d="M111.517 145.505L111.512 145.518L111.508 145.531C111.312 146.16 111.164 146.597 111.016 147.032L110.975 147.155C109.541 151.388 108.107 155.621 106.673 159.854C101.318 175.659 95.9624 191.467 90.6417 207.285C90.3743 208.08 90.1244 208.452 89.8757 208.666C89.6413 208.868 89.2435 209.071 88.381 209.167C63.7335 211.899 33.8897 216.699 12.9102 231.991C5.6459 237.286 1.67217 243.61 1.50543 250.255C1.33869 256.9 4.99087 263.413 11.9885 269.059C21.3608 276.62 32.3972 280.81 43.4005 284.394C81.6293 296.844 121.074 301.662 160.956 302.913C189.015 303.793 216.963 302.151 244.741 297.832C246.498 297.558 248.316 297.282 250.185 296.998C262.969 295.054 278.127 292.749 292.513 288.635C308.984 283.925 324.7 276.779 334.779 264.849C340.711 257.829 341.309 250.4 338.6 243.816C335.935 237.34 330.135 231.808 323.474 228.166C301.958 216.401 278.516 211.61 254.655 209.003C253.762 208.906 253.365 208.766 253.139 208.614C252.965 208.498 252.74 208.271 252.505 207.567C251.709 205.19 250.814 202.782 249.93 200.402C249.299 198.705 248.673 197.021 248.093 195.373C240.447 173.669 233.267 151.806 226.107 129.918C225.714 128.718 225.321 127.517 224.928 126.316C218.163 105.632 211.392 84.9321 204.247 64.3563C200.808 54.4541 197.481 44.5327 194.152 34.6024C191.774 27.5096 189.394 20.4122 186.971 13.314C184.392 5.76044 178.573 1.42565 171.193 1.50096C164.046 1.57389 158.753 6.00875 156.187 13.273C143.263 49.86 131.042 86.6858 118.783 123.628C116.364 130.916 113.944 138.209 111.517 145.505Z" fill="#06021D" stroke="white" stroke-width="3"/>
<path d="M171.5 44C171.5 44 170.742 59.1587 176.767 65.1961C182.309 70.7495 196 71 196 71C196 71 182.309 71.2505 176.767 76.8039C170.742 82.8413 171.5 98 171.5 98C171.5 98 172.258 82.8413 166.233 76.8039C160.691 71.2505 147 71 147 71C147 71 160.691 70.7495 166.233 65.1961C172.258 59.1587 171.5 44 171.5 44Z" fill="white"/>
<path d="M182.5 68.5C180 69 177.636 68.5992 175.708 68.1524C173.96 67.7472 173.236 66.5962 173.136 64.9444C173.021 63.0541 173.081 60.6602 173.136 58.5C176.5 66 178.5 67 182.5 68.5Z" fill="#6B72BB"/>
<path d="M173.3 76.7883C173.429 74.5223 174.313 72.9634 176.777 72.7395C180.334 72.4159 183.5 72 187.5 72C175.5 75 174.877 78.2721 172.5 86C171.542 87.0353 173.223 78.1397 173.3 76.7883Z" fill="#8399DC"/>
<path d="M165.9 73.0734C168.314 73.1998 169.974 74.0672 170.212 76.483C170.557 79.9723 171 84.5769 171 88.5C167.805 76.7307 164.32 74.6195 156.089 72.2886C154.986 71.3489 164.461 72.9981 165.9 73.0734Z" fill="#7483CB"/>
<path d="M225.5 167L196.5 76L192 87.5L217 169.5L225.5 167Z" fill="#353F92"/>
<path d="M169.588 22.0327C169.941 21.2453 171.059 21.2453 171.412 22.0327L172.623 24.7311C172.769 25.0551 173.075 25.2777 173.428 25.3159L176.369 25.6338C177.227 25.7266 177.572 26.7898 176.933 27.3692L174.741 29.3548C174.477 29.5933 174.36 29.9534 174.433 30.301L175.039 33.1959C175.216 34.0406 174.312 34.6977 173.563 34.2684L170.997 32.7972C170.689 32.6206 170.311 32.6206 170.003 32.7972L167.437 34.2684C166.688 34.6977 165.784 34.0406 165.961 33.1959L166.567 30.301C166.64 29.9534 166.523 29.5933 166.259 29.3548L164.067 27.3692C163.428 26.7898 163.773 25.7266 164.631 25.6338L167.572 25.3159C167.925 25.2777 168.231 25.0551 168.377 24.7311L169.588 22.0327Z" fill="white"/>
<circle cx="147" cy="93" r="4" fill="white"/>
<circle cx="172.5" cy="197.5" r="6.5" fill="white"/>
<circle cx="147.5" cy="201.5" r="2.5" fill="white"/>
<circle cx="118" cy="211" r="2" fill="white"/>
<circle cx="198" cy="210" r="2" fill="white"/>
<circle cx="197" cy="175" r="10" fill="#5B1999"/>
<ellipse cx="198.961" cy="175.022" rx="8.5" ry="7" transform="rotate(75 198.961 175.022)" fill="#480A8B"/>
<ellipse cx="196" cy="172" rx="7" ry="6" fill="#C26BDA"/>
<ellipse cx="194" cy="169.656" rx="4.97582" ry="3.36151" transform="rotate(-36.3509 194 169.656)" fill="white"/>
<circle cx="137" cy="123" r="2" fill="white"/>
<circle cx="191.5" cy="113.5" r="2.5" fill="white"/>
<path fill-rule="evenodd" clip-rule="evenodd" d="M206 135.5C206 136.328 205.328 137 204.5 137H194C192.895 137 192 137.895 192 139V141C192 142.105 191.105 143 190 143H184C182.895 143 182 143.895 182 145V150C182 151.105 181.105 152 180 152H175C173.895 152 173 152.895 173 154V168.5C173 169.328 172.328 170 171.5 170C170.672 170 170 169.328 170 168.5V154C170 152.895 169.105 152 168 152H163C161.895 152 161 151.105 161 150V145C161 143.895 160.105 143 159 143H153C151.895 143 151 142.105 151 141V139C151 137.895 150.105 137 149 137H138.5C137.672 137 137 136.328 137 135.5C137 134.672 137.672 134 138.5 134H149C150.105 134 151 133.105 151 132V130C151 128.895 151.895 128 153 128H159C160.105 128 161 127.105 161 126V121C161 119.895 161.895 119 163 119H168C169.105 119 170 118.105 170 117V102.5C170 101.672 170.672 101 171.5 101C172.328 101 173 101.672 173 102.5V117C173 118.105 173.895 119 175 119H180C181.105 119 182 119.895 182 121V126C182 127.105 182.895 128 184 128H190C191.105 128 192 128.895 192 130V132C192 133.105 192.895 134 194 134H204.5C205.328 134 206 134.672 206 135.5Z" fill="white"/>
<rect x="163" y="121" width="7" height="7" rx="1" fill="#DBEAFB"/>
<path d="M151 139C151 137.895 151.895 137 153 137H159C160.105 137 161 137.895 161 139V141C161 142.105 160.105 143 159 143H153C151.895 143 151 142.105 151 141V139Z" fill="#869FEA"/>
<path d="M182 139C182 137.895 182.895 137 184 137H190C191.105 137 192 137.895 192 139V141C192 142.105 191.105 143 190 143H184C182.895 143 182 142.105 182 141V139Z" fill="#869FEA"/>
<path d="M251.243 214L254.276 224.573C244.714 227.317 235.759 229.692 227.26 231.689L223.76 221.21C232.321 219.22 241.423 216.817 251.243 214Z" fill="#40037C"/>
<path d="M190.26 238.231L189.26 227.275C199.988 226.125 211.303 224.105 223.76 221.21L227.26 231.689C214.011 234.801 201.87 236.995 190.26 238.231Z" fill="#099CF8"/>
<path d="M152.26 227.667C157.864 228.183 163.427 228.431 169.04 228.416C175.634 228.399 182.324 228.019 189.26 227.275L190.26 238.231C183.037 239 176.019 239.398 169.069 239.416C163.429 239.431 157.851 239.196 152.26 238.711V227.667Z" fill="white"/>
<path d="M119.909 233.287L122.76 222.659C130.702 224.57 138.298 225.996 145.76 226.952L144.76 237.913C136.647 236.891 128.438 235.348 119.909 233.287Z" fill="#099CF8"/>
<path d="M109 230.443L112.5 220C115.902 220.952 119.23 221.821 122.5 222.607L119.65 233.235C116.159 232.391 112.614 231.461 109 230.443Z" fill="#0D154C"/>
<path d="M90 224.422L93.5191 214C98.0464 215.529 102.425 216.932 106.682 218.211L103.26 228.668C98.9531 227.371 94.5414 225.955 90 224.422Z" fill="#40037C"/>
<path d="M153 247.389C158.324 247.811 163.621 248.013 168.958 247.999C175.986 247.981 183.116 247.588 190.5 246.819L191.5 260.79C183.842 261.573 176.385 261.98 168.995 261.999C163.63 262.013 158.315 261.823 153 261.43V247.389Z" fill="#CC6FDB"/>
<path d="M114 255.093L118 241.656C130.214 244.594 141.667 246.49 153 247.389V261.43C140.245 260.486 127.486 258.371 114 255.093Z" fill="#6326A7"/>
<path d="M191.5 260.789L190.5 246.819C201.005 245.725 212.025 243.869 224 241.247L228 254.702C215.064 257.567 203.052 259.607 191.5 260.789Z" fill="#6326A7"/>
<path d="M259.079 232.269L262.921 245.731C250.441 249.293 238.893 252.29 228 254.702L224 241.247C234.807 238.881 246.393 235.889 259.079 232.269Z" fill="#3B027A"/>
<path d="M103 252.21L107.75 239C111.233 239.965 114.645 240.85 118 241.657L114 255.093C110.39 254.215 106.728 253.254 103 252.21Z" fill="#3B027A"/>
<path d="M81.7711 245.636L86.2289 232.364C91.4923 234.132 96.571 235.746 101.5 237.207L96.5 250.326C91.716 248.893 86.8155 247.33 81.7711 245.636Z" fill="#40037C"/>
<path d="M242.5 227L227.5 178.5L219.5 180.5L234 229.5L242.5 227Z" fill="#6326A7"/>
<path d="M235 228.5L220 180L214.5 191.5L226.5 231L235 228.5Z" fill="#13134D"/>
<path d="M147 289.332L151.5 269C164.168 270.251 176.439 270.314 189 269.204L195 289.117C178.75 290.36 162.947 290.43 147 289.332Z" fill="#688BE6"/>
<path d="M28 263.5L79 252C85.4028 254.142 91.555 256.092 97.5 257.851L70.5 276.137C57.0224 272.593 42.9415 268.38 28 263.5Z" fill="#131247"/>
<path d="M263.5 252L316.5 263.5C300.535 268.384 285.573 272.596 271.358 276.137L249 256.653C253.697 255.216 258.523 253.665 263.5 252Z" fill="#131247"/>
<path d="M97.5 257.851L70.5 276.137C82.234 279.222 93.5107 281.801 104.5 283.872L122 264.259C114.176 262.517 106.052 260.381 97.5 257.851Z" fill="#38439A"/>
<path d="M271.358 276.137L249 256.652C239.014 259.707 229.612 262.244 220.59 264.259L235.719 283.872C247.142 281.802 258.966 279.224 271.358 276.137Z" fill="#38439A"/>
<path d="M122 264.26L104.5 283.872C119.039 286.612 133.074 288.462 147 289.422L151.5 269.09C141.987 268.151 132.251 266.543 122 264.26Z" fill="#3F54B3"/>
<path d="M235.719 283.872L220.59 264.26C209.622 266.71 199.215 268.39 189 269.294L195 289.208C208.174 288.2 221.643 286.422 235.719 283.872Z" fill="#3F54B3"/>
</svg>
