<svg width="1095" height="787" viewBox="0 0 1095 787" fill="none" xmlns="http://www.w3.org/2000/svg">
<path d="M271.471 561.281C340.402 561.281 547.195 561.281 478.264 561.281C439.42 561.281 400.8 559.629 362.626 568.059C340.978 572.84 318.999 577.397 297.061 580.647C295.85 580.826 287.063 582.445 287.931 582.445C320.276 582.445 352.192 584.505 384.481 585.903C400.935 586.616 417.298 587.818 433.724 588.946C440.274 589.396 447.881 588.94 454.196 590.883C455.757 591.363 443.588 591.159 441.885 591.159C426.435 591.159 410.837 590.548 395.408 591.436C384.472 592.065 373.14 591.731 362.349 593.649C359.649 594.129 350.22 593.468 348.171 595.516C347.358 596.329 352.009 596.139 352.459 596.139C359.126 596.139 365.732 596.122 372.378 596.761C386.871 598.155 400.897 599.696 415.189 602.294C417.434 602.702 417.866 604.516 415.05 604.784C408.171 605.439 401.408 605.789 394.509 606.651C385.027 607.837 375.976 608.3 366.637 610.455C362.967 611.302 355.45 611.697 352.459 614.19C348.819 617.224 361.789 616.057 363.179 616.057C381.415 616.057 399.65 616.057 417.886 616.057C420.675 616.057 423.465 616.057 426.255 616.057C430.128 616.057 418.508 616.057 414.635 616.057C406.512 616.057 397.415 614.743 389.737 617.302" stroke="url(#paint0_linear_422_13900)" stroke-width="10" stroke-linecap="round"/>
<rect width="957.562" height="543.356" transform="matrix(-1 0 0 1 985.491 8.56885)" fill="url(#paint1_linear_422_13900)"/>
<rect width="887.451" height="543.356" transform="matrix(-1 0 0 1 1094.35 8.56885)" fill="url(#paint2_linear_422_13900)"/>
<rect x="985.491" y="735.504" width="957.562" height="183.579" transform="rotate(180 985.491 735.504)" fill="url(#paint3_linear_422_13900)"/>
<rect x="1094.35" y="735.504" width="468.633" height="183.579" transform="rotate(180 1094.35 735.504)" fill="url(#paint4_linear_422_13900)"/>
<path d="M227.165 466.105C227.165 466.105 226.497 225.719 227.165 222.392C227.833 219.065 227.833 219.897 229.837 216.57C251.883 183.298 242.155 142.703 245.87 134.223C253.219 124.242 253.887 110.379 253.887 101.783C253.887 101.783 253.219 100.12 252.551 101.783C250.947 117.754 248.542 125.905 243.198 130.064C242.753 125.073 242.664 113.595 245.87 107.606C249.077 101.617 251.66 74.0572 252.551 61.0259C251.66 59.9169 249.611 61.6914 248.542 77.6616C247.474 93.6319 244.534 101.506 243.198 103.447L243.866 40.2313L239.19 61.8577V134.223C239.19 177.476 230.728 198.825 226.497 204.925L224.493 149.195L234.513 86.8113H231.841L230.505 94.2973C230.505 94.2973 227.833 108.438 223.156 115.092C222.488 111.765 223.156 93.4656 223.156 93.4656H221.152L219.816 117.587C219.816 117.587 217.144 113.428 216.476 107.606C211.458 63.8728 216.476 -5.51685 216.476 -5.51685L191.09 1.13743C191.09 1.13743 203.025 83.9124 204.451 137.55C204.986 157.679 204.451 189.121 204.451 189.121C204.451 189.121 203.174 187.142 202.447 185.794C197.932 177.42 197.102 160.84 197.102 160.84C197.102 160.84 195.766 178.308 200.443 186.625C203.14 191.423 204.451 200.766 204.451 200.766C204.451 200.766 203.783 214.074 203.783 223.224C201.111 216.57 195.766 195.775 195.766 195.775C195.766 195.775 198.439 219.897 203.783 234.037C204.712 246.005 203.115 264.813 203.115 264.813C203.115 264.813 196.753 245.927 194.43 233.205C190.149 209.757 193.094 171.653 193.094 171.653L191.09 172.485C191.09 172.485 187.75 216.57 191.09 232.374C189.079 230.356 186.414 226.551 186.414 226.551L185.077 227.383L189.754 243.187C189.754 243.187 199.61 271.047 203.783 289.767C205.119 349.655 203.783 382.927 203.783 441.152C199.107 513.517 171.716 550.947 171.716 550.947H255.891H266.467C271.938 554.795 270.861 550.556 267.248 550.947H266.467C264.181 549.34 260.754 546.322 255.891 540.966C238.522 521.835 227.833 488.286 227.165 466.105Z" fill="#013148"/>
<path d="M227.166 466.105C227.166 466.105 226.498 225.719 227.166 222.392C227.834 219.065 227.834 219.897 229.838 216.569C248.211 188.842 244.516 156.027 244.925 140.953C245.003 139.76 245.071 138.622 245.13 137.55C245.023 138.551 244.959 139.69 244.925 140.953C243.55 161.977 239.104 200.47 230.506 209.915C221.421 219.897 220.486 257.327 221.154 274.794V484.404C222.49 498.822 228.235 529.32 240.527 535.975C249.295 540.721 257.225 545.186 262.425 548.16C260.718 546.285 258.573 543.918 255.892 540.965C238.523 521.834 227.834 488.286 227.166 466.105Z" fill="#32746E"/>
<path d="M226.498 204.924L224.494 149.195L225.563 142.541C219.818 166.662 217.279 193.279 223.158 209.915C224.227 207.919 225.83 205.756 226.498 204.924Z" fill="#32746E"/>
<path d="M227.166 222.392C227.163 222.409 227.159 222.432 227.156 222.461L224.493 240.691V446.974C224.493 452.796 224.493 473.591 227.166 492.722C229.304 508.027 243.038 531.261 249.637 540.965C254.683 543.761 259.109 546.263 262.425 548.16C260.718 546.285 258.573 543.918 255.892 540.965C238.523 521.834 227.834 488.286 227.166 466.105C227.166 466.105 226.505 228.155 227.156 222.461L227.166 222.392Z" fill="#61CBCA"/>
<path d="M219.148 239.028V275.627M219.148 285.608V322.207M219.148 333.02V402.058M215.139 406.217V439.488M219.148 412.039V467.769M219.148 479.414C219.148 483.296 220.885 493.388 227.832 502.704M215.139 481.909C215.807 485.192 217.945 492.45 221.152 495.218M209.795 498.545C214.249 500.209 222.354 507.528 219.148 523.498M227.832 508.526C229.837 510.744 234.379 517.177 236.517 525.162M227.832 523.498C228.278 525.162 229.703 528.822 231.841 530.153" stroke="#08646D" stroke-width="1.5" stroke-linejoin="round"/>
<path d="M222.489 249.009V285.608M222.489 295.589V332.188M222.489 343.001V412.039M218.481 416.198V449.469M222.489 422.021V477.75M222.489 489.395C222.489 493.277 224.226 503.369 231.174 512.685M218.481 491.89C219.149 495.173 221.287 502.431 224.493 505.199M213.136 508.526C217.59 510.19 225.696 517.509 222.489 533.48M231.174 518.508C233.178 520.726 237.721 527.158 239.858 535.143M231.174 533.48C231.619 535.143 233.044 538.803 235.182 540.134" stroke="#61CBCA" stroke-linejoin="round"/>
<g filter="url(#filter0_i_422_13900)">
<path d="M322.77 757.021C301.444 745.389 253.57 731.711 232.299 726.326C159.923 708.878 37.8951 716.902 -14.0715 723.094L52.1658 764.291C90.9388 771.561 176.401 786.262 208.066 786.909C247.647 787.716 349.426 771.561 322.77 757.021Z" fill="url(#paint5_linear_422_13900)"/>
<path d="M99.8244 702.9C167.677 726.164 303.114 703.977 362.351 689.976C343.368 679.84 315.088 671.609 282.451 664.984C297.455 664.465 310.136 663.677 317.115 662.512C295.34 651.235 254.098 641.269 220.06 634.956C256.211 635.2 295.714 632.225 293.69 630.201C291.105 627.616 282.92 623.2 279.15 621.315C285.881 621.315 300.314 620.023 304.191 614.853C274.465 600.636 153.407 606.237 96.5934 610.814C76.9375 614.315 41.3417 623.092 56.2047 630.201C62.2582 633.096 79.5047 638.055 100.478 643.516C74.5505 641.953 51.1845 641.064 32.7793 640.702C26.8556 651.741 31.9715 679.637 99.8244 702.9Z" fill="url(#paint6_linear_422_13900)"/>
</g>
<path d="M191.634 454.847C191.634 454.847 190.44 109.858 191.634 105.083C192.828 100.308 192.828 101.502 196.409 96.7268C235.802 48.9774 218.42 -9.28339 225.058 -21.4528C238.19 -35.7776 239.383 -55.6732 239.383 -68.0084C239.383 -68.0084 238.19 -70.3959 236.996 -68.0084C234.131 -45.0887 229.833 -33.3902 220.283 -27.4215C219.488 -34.5839 219.328 -51.0574 225.058 -59.6523C230.788 -68.2472 235.404 -107.8 236.996 -126.501C235.404 -128.093 231.743 -125.546 229.833 -102.627C227.923 -79.707 222.671 -68.4063 220.283 -65.6209L221.477 -156.345L213.121 -125.308V-21.4528C213.121 40.6213 198.001 71.2605 190.44 80.0145L186.859 0.0343781L204.765 -89.4956H199.99L197.602 -78.752C197.602 -78.752 192.828 -58.4586 184.471 -48.9087C183.278 -53.6836 184.471 -79.9457 184.471 -79.9457H180.89L178.503 -45.3275C178.503 -45.3275 173.728 -51.2961 172.534 -59.6523C163.567 -122.416 172.534 -222 172.534 -222L127.172 -212.45C127.172 -212.45 148.499 -93.656 151.047 -16.6779C152.003 12.2096 151.047 57.3336 151.047 57.3336C151.047 57.3336 148.765 54.4939 147.466 52.5587C139.398 40.5411 137.916 16.7466 137.916 16.7466C137.916 16.7466 135.528 41.815 143.885 53.7524C148.704 60.6374 151.047 74.0458 151.047 74.0458C151.047 74.0458 149.853 93.1456 149.853 106.277C145.078 96.7268 135.528 66.8834 135.528 66.8834C135.528 66.8834 140.303 101.502 149.853 121.795C151.514 138.97 148.659 165.963 148.659 165.963C148.659 165.963 137.291 138.859 133.141 120.601C125.492 86.9498 130.753 32.2652 130.753 32.2652L127.172 33.4589C127.172 33.4589 121.204 96.7268 127.172 119.408C123.578 116.513 118.816 111.052 118.816 111.052L116.429 112.245L124.785 134.926C124.785 134.926 142.396 174.91 149.853 201.775C152.241 287.724 149.853 335.473 149.853 419.035C141.497 522.89 92.554 576.608 92.554 576.608H242.964H261.862C271.638 582.13 269.713 576.046 263.258 576.608H261.862C257.778 574.301 251.653 569.969 242.964 562.283C211.927 534.827 192.827 486.68 191.634 454.847Z" fill="#0A0819"/>
<path d="M191.635 454.847C191.635 454.847 190.442 109.858 191.636 105.083C192.829 100.308 192.829 101.502 196.41 96.7269C229.24 56.9334 222.638 9.8394 223.369 -11.7929C223.508 -13.5061 223.63 -15.1384 223.735 -16.6777C223.543 -15.2413 223.43 -13.6066 223.369 -11.7929C220.911 18.3795 212.967 73.6219 197.604 87.1771C181.369 101.502 179.698 155.22 180.892 180.288V481.109C183.28 501.8 193.546 545.571 215.51 555.121C231.178 561.932 245.347 568.34 254.639 572.609C251.589 569.918 247.757 566.521 242.966 562.283C211.929 534.827 192.829 486.68 191.635 454.847Z" fill="#33757A"/>
<path d="M190.442 80.0147L186.861 0.0345325L188.771 -9.51533C178.504 25.1029 173.968 63.3024 184.473 87.1771C186.383 84.3121 189.248 81.2084 190.442 80.0147Z" fill="#33757A"/>
<path d="M191.636 105.083C191.629 105.107 191.623 105.14 191.618 105.182L186.859 131.345V427.391C186.859 435.747 186.859 465.59 191.635 493.046C195.456 515.011 219.997 548.356 231.789 562.283C240.805 566.294 248.713 569.886 254.639 572.608C251.589 569.917 247.757 566.521 242.966 562.283C211.929 534.827 192.829 486.68 191.635 454.847C191.635 454.847 190.454 113.354 191.618 105.182L191.636 105.083Z" fill="#98DBC2"/>
<path d="M177.308 128.958V181.482M177.308 195.807V248.331M177.308 263.849V362.929M170.146 368.898V416.647M177.308 377.254V457.234M177.308 473.946C177.308 479.517 180.412 494.001 192.827 507.371M170.146 477.528C171.339 482.239 175.159 492.654 180.889 496.627M160.596 501.402C168.554 503.79 183.038 514.295 177.308 537.214M192.827 515.727C196.408 518.91 204.525 528.142 208.345 539.602M192.827 537.214C193.623 539.602 196.169 544.854 199.989 546.764" stroke="#0F4158" stroke-width="1.5" stroke-linejoin="round"/>
<path d="M183.277 143.282V195.807M183.277 210.132V262.656M183.277 278.174V377.254M176.115 383.223V430.972M183.277 391.579V471.559M183.277 488.271C183.277 493.842 186.381 508.326 198.796 521.696M176.115 491.853C177.309 496.564 181.129 506.979 186.859 510.952M166.565 515.727C174.523 518.115 189.007 528.62 183.277 551.539M198.796 530.052C202.377 533.235 210.495 542.467 214.314 553.927M198.796 551.539C199.592 553.927 202.138 559.179 205.958 561.089" stroke="#B4F3E3" stroke-linejoin="round"/>
<path d="M228.77 111.844C225.259 106.219 236.67 80.006 242.814 67.6026C267.39 36.6627 300.256 35.1782 313.617 38.3034C326.881 41.917 351.652 50.2575 344.63 54.711C340.949 57.0456 336.651 57.7313 333.483 57.8052C342.552 60.6652 360.98 75.0382 353.408 76.3924C346.854 77.5644 337.218 74.3415 333.22 72.5835C345.703 79.0293 368.095 92.6242 357.796 95.4369C344.923 98.9528 338.486 87.8191 344.63 95.4369C350.774 103.055 348.726 111.844 344.63 111.844C342.235 111.844 339.484 108.712 337.569 105.883C337.616 107.43 336.593 109.467 333.22 111.844C328.312 115.303 322.264 109.915 318.253 104.682C321.461 109.856 324.183 115.946 320.054 115.946C313.325 115.946 315.373 111.844 308.936 106.278C314.495 115.36 307.18 113.309 303.377 115.946C308.936 115.946 323.565 129.131 313.617 130.303C309.47 130.792 306.414 130.665 304.3 130.321C307.528 131.607 311.829 133.816 315.373 137.042C321.809 142.902 314.495 143.781 308.936 143.781C315.49 144.249 319.079 154.524 320.054 159.602C317.518 163.02 311.745 168.509 308.936 163.118C306.127 169.212 300.354 163.313 297.818 159.602C299.281 162.337 300.451 168.216 293.429 169.857C287.457 171.252 283.743 165.823 282.105 161.645C282.21 163.718 280.385 165.862 272.949 165.169C262.884 164.231 262.319 137.628 263.294 124.443C261.831 127.568 258.203 132.881 255.394 129.131C252.586 125.381 254.224 118.779 255.394 115.946C251.201 121.513 241.468 131.006 236.084 124.443C232.849 120.499 234.313 115.157 236.97 110.568C233.974 113.476 230.761 115.034 228.77 111.844Z" fill="#021219"/>
<path d="M241.201 94.5638C234.424 90.5838 240.519 74.9563 244.414 67.6401C249.087 73.9613 248.503 85.2966 247.627 90.1741C248.308 93.2957 247.977 98.5438 241.201 94.5638Z" fill="#0A413E"/>
<path d="M257.558 88.7108C249.613 84.9649 249.379 69.9813 250.256 62.9577C251.683 57.7155 253.818 57.656 255.53 59.0127C254.024 57.0725 254.485 55.3488 260.479 55.3488C273.331 55.3488 280.049 66.4694 280.633 70.5665C281.218 74.6636 275.376 77.8828 273.915 75.8342C272.747 74.1954 264.471 66.567 260.479 62.9577C259.242 62.2256 257.863 61.2823 256.774 60.3106C257.071 60.6981 257.336 61.1044 257.558 61.4944C260.868 72.1274 265.503 92.4567 257.558 88.7108Z" fill="#0A413E"/>
<path d="M296.407 67.6401C283.788 63.8942 272.455 55.3488 268.366 51.5443C269.631 48.4227 278.764 41.5942 305.169 39.253C265.737 30.1809 331.75 16.1337 332.626 25.4985C333.327 32.9903 325.324 34.8633 321.235 34.8633C330.095 36.5217 346.881 41.5357 343.142 48.3252C339.403 55.1146 331.069 53.3002 327.369 51.5443C332.529 56.1292 342.032 65.7671 338.76 67.6401C335.489 69.513 323.182 61.3969 317.437 57.1047C319.19 60.2263 321.644 66.7036 317.437 67.6401C313.231 68.5766 305.754 63.9332 302.541 61.4944C305.754 65.1038 309.025 71.386 296.407 67.6401Z" fill="#0A413E"/>
<path d="M306.922 75.8342C317.437 73.7857 341.156 72.5565 351.905 84.0284C365.341 98.3682 348.692 96.0271 336.132 88.7108C345.479 97.7829 349.86 110.952 345.186 111.83C341.842 112.458 335.13 101.578 331.243 94.3188C334.264 100.419 337.766 109.782 334.087 111.83C329.881 114.171 320.261 100.319 315.977 93.1005C319.19 99.929 324.272 113.644 318.898 113.879C314.05 114.09 305.987 100.35 301.523 91.4264C301.489 92.4884 300.922 93.7642 299.328 95.149C294.946 98.9535 282.97 89.0034 282.97 84.0284C282.97 79.0533 295.238 78.1754 300.204 81.1019C305.169 84.0284 300.204 76.7828 306.922 75.8342Z" fill="#0A413E"/>
<path d="M268.366 91.9299C274.013 91.1495 286.066 91.6372 289.104 99.8314C292.901 110.074 247.627 89.296 268.366 91.9299Z" fill="#0A413E"/>
<path d="M270.118 108.904C275.863 109.391 286.475 113.059 282.97 123.829C279.465 134.598 272.942 118.366 270.118 108.904Z" fill="#0A413E"/>
<path d="M277.713 132.316C281.899 129.974 291.499 127.984 296.407 138.754C301.314 149.523 285.989 138.949 277.713 132.316Z" fill="#0A413E"/>
<path d="M287.936 119.439C291.441 119.634 298.042 121.253 296.407 126.17C294.771 131.086 290.078 123.731 287.936 119.439Z" fill="#0A413E"/>
<path d="M299.328 115.634C305.851 115.83 318.898 118.912 318.898 129.682C318.898 140.451 305.851 124.804 299.328 115.634Z" fill="#0A413E"/>
<path d="M321.235 161.288C327.077 150.284 311.206 141.68 302.541 138.754C299.035 149.506 304.975 159.427 308.383 163.044C310.232 167.043 315.393 172.291 321.235 161.288Z" fill="#0A413E"/>
<path d="M285.307 148.411C289.104 146.558 297.867 147.299 302.541 165.092C307.214 182.885 292.999 161.385 285.307 148.411Z" fill="#0A413E"/>
<path d="M254.929 110.659C259.505 111.147 267.84 114.932 264.568 126.17C261.297 137.408 256.779 120.512 254.929 110.659Z" fill="#0A413E"/>
<path d="M241.201 108.904C246.653 110.464 256.39 116.103 251.716 126.17C247.043 136.237 242.759 118.854 241.201 108.904Z" fill="#0A413E"/>
<path d="M247.627 90.1742C248.308 93.2958 247.977 98.544 241.201 94.5639C238.896 93.2105 238.08 90.5101 238.16 87.2477C241.607 85.1991 248.239 79.6388 247.188 73.7857C248.742 79.7319 248.261 86.6442 247.627 90.1742Z" fill="#129580"/>
<path d="M280.633 70.5666C281.218 74.6637 275.376 77.8829 273.915 75.8343C273.448 75.1783 271.841 73.5624 269.826 71.6288C273.136 71.8861 278.706 70.0811 274.5 60.802C278.278 64.2243 280.323 68.3882 280.633 70.5666Z" fill="#129580"/>
<path d="M329.998 91.93C330.388 92.6387 330.81 93.4453 331.243 94.3189C331.662 95.1007 332.113 95.9245 332.589 96.7714C330.502 92.9257 329.068 87.1259 338.176 90.8447C346.093 99.715 349.505 111.019 345.187 111.83C342.284 112.375 336.846 104.254 332.919 97.353C332.808 97.1655 332.698 96.9711 332.589 96.7714C332.113 95.9245 331.662 95.1007 331.243 94.3189C334.264 100.419 337.766 109.782 334.087 111.83C330.908 113.599 324.638 106.121 319.916 99.2463C316.85 94.9541 314.575 87.4816 329.998 91.93Z" fill="#129580"/>
<path d="M318.898 113.879C324.272 113.645 319.19 99.9291 315.977 93.1006C301.489 82.331 300.983 88.8271 302.541 93.4213C307.131 102.256 314.399 114.075 318.898 113.879Z" fill="#129580"/>
<path d="M270.118 108.904C275.863 109.391 286.475 113.059 282.97 123.829C279.465 134.598 272.942 118.366 270.118 108.904Z" fill="#129580"/>
<path d="M277.713 132.316C281.899 129.975 291.499 127.984 296.407 138.754C301.314 149.524 285.989 138.949 277.713 132.316Z" fill="#129580"/>
<path d="M287.936 119.439C291.441 119.634 298.042 121.254 296.407 126.17C294.771 131.087 290.078 123.731 287.936 119.439Z" fill="#129580"/>
<path d="M321.235 161.288C327.077 150.284 311.206 141.681 302.541 138.754C299.035 149.506 304.975 159.427 308.383 163.044C310.232 167.044 315.393 172.292 321.235 161.288Z" fill="#129580"/>
<path d="M285.307 148.411C289.104 146.558 297.867 147.299 302.541 165.093C307.214 182.886 292.999 161.386 285.307 148.411Z" fill="#129580"/>
<path d="M254.929 110.66C259.505 111.147 267.84 114.932 264.568 126.17C261.297 137.408 256.779 120.512 254.929 110.66Z" fill="#129580"/>
<path d="M241.201 108.904C246.653 110.464 256.39 116.103 251.716 126.17C247.043 136.237 242.759 118.854 241.201 108.904Z" fill="#129580"/>
<path d="M257.558 88.7109C254.509 87.2732 252.595 84.1799 251.444 80.5167C252.676 77.5902 256.258 72.1469 260.73 73.7857C262.552 82.8054 262.919 91.2384 257.558 88.7109Z" fill="#129580"/>
<path d="M340.199 90.8447C351.867 96.3354 363.925 96.857 351.905 84.0284C350.462 82.4888 348.786 81.1779 346.939 80.067C336.424 75.259 338.064 85.2488 340.199 90.8447Z" fill="#129580"/>
<path d="M241.201 94.5638C247.977 98.5439 248.308 93.2957 247.627 90.1741C246.698 77.5212 242.956 87.8285 241.201 94.5638Z" fill="#65BD96"/>
<path d="M257.558 88.7108C255.882 87.9207 254.549 86.6305 253.498 85.0204C253.64 79.6057 255.449 70.7256 261.546 78.5228C262.5 85.4779 261.957 90.7849 257.558 88.7108Z" fill="#65BD96"/>
<path d="M274.708 121.053C277.568 126.917 280.831 130.401 282.97 123.829C283.968 120.764 283.822 118.274 282.97 116.269C272.101 110.222 272.933 116.939 274.708 121.053Z" fill="#65BD96"/>
<path d="M259.715 127.385C261.346 130.577 263.085 131.265 264.568 126.17C265.484 123.025 265.49 120.463 264.925 118.395C258.696 111.203 258.856 121.391 259.715 127.385Z" fill="#65BD96"/>
<path d="M291.356 141.727C295.984 144.179 298.982 144.407 296.407 138.754C295.687 137.174 294.866 135.868 293.976 134.798C287.124 131.634 289.374 138.099 291.356 141.727Z" fill="#65BD96"/>
<path d="M314.65 167.822C316.617 167.533 318.87 165.742 321.235 161.288C324.449 155.234 321.091 149.907 315.977 145.852C304.761 137.574 310.419 157.05 314.65 167.822Z" fill="#65BD96"/>
<path d="M299.073 168.899C302.694 173.125 304.774 173.596 302.541 165.092C301.703 161.903 300.734 159.262 299.686 157.085C295.748 154.723 297.636 163.977 299.073 168.899Z" fill="#65BD96"/>
<path d="M315.977 112.724C317.03 113.495 318.017 113.917 318.898 113.879C321.881 113.749 321.643 109.466 320.291 104.513C319.192 101.461 316.053 95.5348 312.287 96.2437C308.521 96.9525 313.178 107.526 315.977 112.724Z" fill="#65BD96"/>
<path d="M328.827 109.927C330.894 111.695 332.76 112.569 334.087 111.83C335.941 110.798 335.971 107.908 335.158 104.513C333.934 102.758 330.717 99.2462 327.645 99.2462C324.574 99.2462 327.153 106.367 328.827 109.927Z" fill="#65BD96"/>
<path d="M341.664 109.927C343.015 111.259 344.237 112.009 345.187 111.83C348.658 111.178 347.133 103.743 342.288 96.2437C336.753 93.8416 339.566 104.365 341.664 109.927Z" fill="#65BD96"/>
<g filter="url(#filter1_i_422_13900)">
<path d="M280.062 567.2C262.49 559.635 223.972 552.437 206.91 549.784C148.92 541.446 53.9531 556.855 13.7183 565.602L68.6783 593.087C99.5886 595.919 167.621 601.121 192.468 599.27C223.527 596.956 302.027 576.656 280.062 567.2Z" fill="url(#paint7_linear_422_13900)"/>
</g>
<path d="M279.151 489.648C279.151 489.648 278.344 256.201 279.152 252.97C279.959 249.739 279.959 250.547 282.383 247.316C309.039 215.005 297.277 175.581 301.769 167.346C310.655 157.653 311.463 144.19 311.463 135.843C311.463 135.843 310.655 134.228 309.847 135.843C307.908 151.352 305 159.268 298.538 163.307C298 158.461 297.892 147.313 301.769 141.497C305.646 135.682 308.77 108.917 309.847 96.2622C308.77 95.1852 306.293 96.9084 305 112.418C303.708 127.927 300.154 135.574 298.538 137.459L299.346 76.0679L293.691 97.07V167.346C293.691 209.35 283.46 230.083 278.344 236.007L275.921 181.886L288.037 121.303H284.806L283.19 128.573C283.19 128.573 279.959 142.305 274.305 148.767C273.497 145.536 274.305 127.765 274.305 127.765H271.882L270.266 151.191C270.266 151.191 267.035 147.152 266.227 141.497C260.159 99.0269 266.227 31.6404 266.227 31.6404L235.532 38.1026C235.532 38.1026 249.963 118.488 251.687 170.577C252.334 190.125 251.687 220.659 251.687 220.659C251.687 220.659 250.143 218.738 249.264 217.428C243.805 209.296 242.802 193.195 242.802 193.195C242.802 193.195 241.186 210.158 246.841 218.236C250.102 222.895 251.687 231.968 251.687 231.968C251.687 231.968 250.88 244.892 250.88 253.778C247.649 247.316 241.186 227.121 241.186 227.121C241.186 227.121 244.417 250.547 250.88 264.279C252.003 275.901 250.072 294.167 250.072 294.167C250.072 294.167 242.379 275.825 239.571 263.471C234.395 240.7 237.955 203.696 237.955 203.696L235.532 204.504C235.532 204.504 231.493 247.316 235.532 262.663C233.1 260.704 229.877 257.009 229.877 257.009L228.262 257.817L233.916 273.164C233.916 273.164 245.833 300.22 250.88 318.4C252.495 376.559 250.88 408.87 250.88 465.414C245.225 535.691 212.106 572.04 212.106 572.04H313.886H326.673C333.289 575.777 331.986 571.661 327.618 572.04H326.673C323.91 570.479 319.765 567.548 313.886 562.347C292.884 543.768 279.959 511.188 279.151 489.648Z" fill="#021025"/>
<path d="M279.152 489.648C279.152 489.648 278.345 256.201 279.152 252.97C279.96 249.739 279.96 250.547 282.383 247.316C304.599 220.388 300.131 188.521 300.625 173.883C300.72 172.724 300.802 171.619 300.873 170.577C300.743 171.549 300.667 172.656 300.625 173.883C298.962 194.3 293.587 231.681 283.191 240.854C272.205 250.547 271.075 286.897 271.882 303.86V507.419C273.498 521.42 280.445 551.038 295.308 557.501C305.91 562.11 315.498 566.446 321.785 569.334C319.722 567.513 317.128 565.215 313.886 562.347C292.884 543.768 279.96 511.188 279.152 489.648Z" fill="#32746E"/>
<path d="M278.345 236.007L275.921 181.886L277.214 175.424C270.267 198.849 267.197 224.698 274.306 240.854C275.598 238.915 277.537 236.815 278.345 236.007Z" fill="#32746E"/>
<path d="M279.152 252.97C279.148 252.986 279.144 253.009 279.14 253.037L275.92 270.741V471.069C275.92 476.723 275.92 496.917 279.152 515.496C281.738 530.359 298.344 552.923 306.323 562.347C312.424 565.062 317.776 567.492 321.785 569.334C319.722 567.513 317.128 565.215 313.886 562.347C292.884 543.768 279.96 511.188 279.152 489.647C279.152 489.647 278.353 258.567 279.14 253.037L279.152 252.97Z" fill="#B4F3E3"/>
<path d="M269.458 269.125V304.667M269.458 314.361V349.903M269.458 360.404V427.449M264.611 431.488V463.799M269.458 437.142V491.263M269.458 502.572C269.458 506.341 271.558 516.142 279.959 525.189M264.611 504.995C265.419 508.183 268.004 515.231 271.881 517.92M258.149 521.151C263.534 522.766 273.335 529.875 269.458 545.384M279.959 530.844C282.382 532.998 287.875 539.245 290.46 546.999M279.959 545.384C280.497 546.999 282.221 550.554 284.806 551.846" stroke="#0F4158" stroke-width="1.5" stroke-linejoin="round"/>
<path d="M273.497 278.819V314.361M273.497 324.054V359.596M273.497 370.097V437.142M268.651 441.181V473.492M273.497 446.835V500.956M273.497 512.265C273.497 516.035 275.598 525.836 283.998 534.883M268.651 514.688C269.459 517.876 272.043 524.924 275.921 527.613M262.189 530.844C267.574 532.459 277.375 539.568 273.497 555.077M283.998 540.537C286.422 542.691 291.915 548.938 294.5 556.692M283.998 555.077C284.537 556.692 286.26 560.247 288.845 561.539" stroke="#B4F3E3" stroke-linejoin="round"/>
<g filter="url(#filter2_i_422_13900)">
<path d="M358.475 588.418C340.903 580.852 302.385 573.655 285.323 571.002C227.333 562.664 132.366 578.073 92.1314 586.819L147.091 614.305C178.002 617.137 246.034 622.339 270.881 620.487C301.94 618.173 380.44 597.874 358.475 588.418Z" fill="url(#paint8_linear_422_13900)"/>
</g>
<mask id="mask0_422_13900" style="mask-type:alpha" maskUnits="userSpaceOnUse" x="12" y="-38" width="302" height="825">
<path d="M233.915 191.58C231.977 133.42 286.42 49.9503 313.885 15.4853C309.307 14.139 297.729 12.2541 288.036 15.4853C278.343 18.7165 246.84 91.1468 232.3 126.958L228.261 107.571C225.568 108.648 220.991 114.034 224.222 126.958C228.261 143.114 222.606 185.118 218.568 191.58C214.529 198.042 204.835 202.888 194.334 220.659C185.934 234.876 164.447 247.585 154.754 252.163C154.754 248.393 156.208 236.169 162.023 217.428C171.071 210.32 176.025 192.926 177.371 185.118C180.602 172.193 191.911 142.467 211.298 126.958C230.684 111.449 254.592 30.0371 261.323 2.57272L248.455 15.4853C239.839 27.0634 221.799 56.6816 218.568 82.5305C214.529 114.842 204.028 116.457 199.989 113.226C196.758 110.641 218.298 28.1522 224.222 2.57272C220.183 -17.0831 201.281 -12.9483 199.989 38.103C198.696 89.1542 182.218 129.381 174.14 143.113C174.14 133.689 175.917 109.672 183.026 88.9927C191.911 63.1439 179.794 -55.4444 177.371 -35.2501C174.948 -15.0557 149.907 142.306 145.06 134.228C140.214 126.15 155.561 -2.62276 149.907 6.26274C144.252 15.1482 136.175 163.308 136.175 151.191C136.175 139.075 128.097 126.958 128.905 113.226C129.551 102.24 134.021 4.27459 136.175 -10.8038L99.0172 -3.42379C101.441 8.96206 107.095 121.142 110.326 126.958C114.365 134.228 126.481 182.694 124.058 213.39C121.635 244.085 96.5939 308.707 93.3628 307.091C90.1317 305.476 90.1317 260.241 90.9395 240.854C91.7473 221.467 85.2851 209.351 93.3628 186.733C101.441 164.116 98.2094 96.2626 96.5939 119.688C95.3015 138.428 85.2851 171.116 80.4384 185.118L73.9763 -3.42379L12.5855 -28.3315V778.023H31.1643C41.1268 763.214 66.5447 731.818 88.5162 724.71C115.98 715.825 167.678 758.636 178.987 778.023C190.296 797.41 244.416 778.023 232.3 778.023C220.183 778.023 220.991 775.6 204.835 770.753C191.911 766.876 182.218 744.366 178.987 733.595C175.217 720.94 177.048 701.446 214.529 724.71C252.009 747.974 274.842 746.789 281.574 743.289C276.458 740.865 265.257 733.757 261.38 724.71C240.701 678.828 200.527 668.974 183.026 669.781C179.256 669.781 170.909 669.297 167.678 667.358C163.801 658.311 148.291 651.203 141.021 648.779C139.675 649.049 135.852 647.648 131.328 639.894C103.864 594.659 111.134 445.22 111.134 429.873C111.134 414.525 118.404 383.022 131.328 352.327C146.191 338.756 149.907 320.285 149.907 312.746C150.445 303.052 154.592 282.212 166.87 276.396C182.218 269.126 202.412 235.2 208.067 224.698C212.59 216.298 222.337 208.812 226.645 206.12C229.069 205.043 233.915 200.627 233.915 191.58Z" fill="#0E0617"/>
</mask>
<g mask="url(#mask0_422_13900)">
<rect width="311.724" height="893.141" transform="matrix(-1 0 0 1 277.109 11.1838)" fill="#0E0617"/>
<path d="M137.79 727.133C159.116 731.657 169.832 750.02 172.525 758.636C176.86 739.669 145.868 726.325 145.868 726.325C145.868 726.325 115.484 719.863 99.0175 696.438C104.672 722.286 141.829 733.595 153.946 742.481C163.639 749.589 166.063 756.213 166.063 758.636C167.409 752.713 163.639 738.119 137.79 727.133Z" fill="#1C1B2F"/>
<path d="M54.59 642.317C59.7598 646.84 71.8225 660.357 77.2076 666.55C70.7455 663.319 59.4366 658.472 65.8988 664.935C72.361 671.397 79.3617 677.859 82.0543 680.282L65.8988 672.205C57.8211 668.166 48.1278 636.663 54.59 642.317Z" fill="#1C1B2F"/>
<path d="M51.3589 598.697C49.7434 608.929 48.9356 631.331 58.6289 639.086C58.6289 622.284 53.7822 605.159 51.3589 598.697Z" fill="#1C1B2F"/>
<path d="M43.2812 622.123C39.7808 628.316 35.5266 644.902 46.5123 661.704C43.2812 639.086 43.2812 638.278 43.2812 622.123Z" fill="#1C1B2F"/>
<path d="M82.0543 660.088C60.7291 648.456 59.1674 610.006 61.0522 592.235C65.6296 577.157 74.1381 550.231 71.5532 563.155C68.3222 579.311 65.8988 613.237 82.0543 660.088Z" fill="#1C1B2F"/>
<path d="M126.482 313.553C140.699 301.275 170.102 272.357 183.026 259.433L122.443 438.758C117.058 430.142 104.995 408.386 99.8253 390.292C93.3631 367.674 108.711 328.901 126.482 313.553Z" fill="#1C1B2F"/>
<path d="M141.829 273.972C132.944 285.551 113.396 310.322 106.287 316.784C99.4254 323.023 90.0041 339.297 85.7259 347.443C80.2924 319.849 68.5871 277.196 45.7045 215.813C54.3208 252.163 71.7148 330.517 72.361 353.134C73.0072 375.752 76.3999 418.025 78.0154 436.335L89.3242 386.253C90.3808 381.322 89.9632 369.051 85.7817 347.727C102.657 328.633 136.71 288.05 141.829 273.972Z" fill="#1C1B2F"/>
<path d="M119.385 312.57C130.156 300.912 141.881 289.477 149.907 282.05C137.53 290.8 127.455 301.493 119.385 312.57C105.946 327.117 93.9902 342.011 92.5553 349.903C89.9705 364.12 91.4783 370.367 92.5553 371.713C94.8998 359.089 103.018 335.039 119.385 312.57Z" fill="#1C1B2F"/>
<path d="M50.5511 256.201C60.8906 288.512 61.86 317.592 61.0522 328.093C59.9752 323.247 56.3671 311.615 50.5511 303.86C62.1831 343.926 58.6289 383.022 55.3978 397.562C56.2056 388.945 57.3364 368.967 55.3978 357.981C52.9745 344.249 41.6656 313.553 50.5511 256.201Z" fill="#1C1B2F"/>
<path d="M33.5879 256.201C35.2035 263.471 38.4346 281.566 38.4346 295.782C38.4346 313.553 48.9356 285.281 33.5879 256.201Z" fill="#1C1B2F"/>
<path d="M40.8579 338.594C44.089 348.826 50.5511 371.39 50.5511 379.791C50.5511 390.292 58.6289 366.059 40.8579 338.594Z" fill="#1C1B2F"/>
<path d="M69.9377 273.972C55.7209 242.308 52.7052 188.079 52.9745 164.923C52.9745 192.064 70.2069 244.085 78.8232 266.702C81.785 282.319 84.1545 305.637 69.9377 273.972Z" fill="#1C1B2F"/>
<path d="M165.255 129.381C157.446 133.689 141.829 145.698 141.829 159.269C141.829 176.232 147.484 219.044 141.829 229.545C136.175 240.046 128.097 270.741 123.251 273.972C119.319 276.594 124.957 275.493 130.244 268.514C126.178 276.159 120.135 287.761 115.981 295.782C125.674 289.32 146.676 270.095 153.138 244.893C159.6 219.69 163.909 157.384 165.255 129.381Z" fill="#1C1B2F"/>
<path d="M55.3978 504.995C41.8272 467.515 41.6656 425.295 43.2812 408.87C21.956 470.221 46.243 528.135 61.0522 549.423C64.8218 550.231 68.9684 542.476 55.3978 504.995Z" fill="#1C1B2F"/>
<path d="M256.532 792.562C255.886 792.538 255.219 792.51 254.532 792.477C235.305 790.903 198.873 768.022 190.295 759.444C181.41 750.558 169.293 724.709 161.215 718.247C154.753 713.078 128.904 698.861 116.788 692.399C107.902 688.36 103.863 680.282 101.44 681.898C102.086 697.407 131.866 712.593 146.675 718.247H133.751C146.675 731.172 157.984 728.748 166.87 736.018C175.755 743.288 174.14 751.366 183.025 770.753C189.92 785.797 232.334 791.416 254.532 792.477C255.222 792.533 255.889 792.562 256.532 792.562Z" fill="#336347"/>
<path d="M120.827 688.36C114.634 682.975 103.056 672.076 101.44 668.165C106.287 668.165 122.442 675.435 120.827 688.36Z" fill="#336347"/>
<path d="M123.25 680.282C128.42 689.975 134.02 696.168 136.174 698.053C132.943 666.55 101.44 651.202 94.1701 647.971C88.3541 645.386 78.8224 632.354 74.7835 626.161C75.5913 637.47 93.3623 657.664 105.479 664.934C111.13 668.325 120.019 675.705 123.25 680.282Z" fill="#336347"/>
<path d="M243.608 719.863C254.594 734.726 270.265 740.596 276.727 741.673C281.304 515.227 287.712 62.6588 276.727 63.9512C265.741 65.2437 249.532 100.032 242.8 117.264C239.3 140.151 230.522 187.702 223.414 194.81C216.305 201.919 204.835 215.543 199.988 221.467C195.949 229.814 182.864 249.416 162.831 261.048C142.798 272.68 128.097 292.82 123.25 301.436C127.827 298.475 140.052 290.612 152.33 282.858C130.52 303.86 136.174 321.631 121.634 345.864C110.002 365.251 106.556 377.098 106.287 380.598C108.441 378.175 114.041 372.682 119.211 370.097C111.941 376.559 109.518 386.253 105.479 411.294C106.287 399.177 100.632 383.829 94.1701 370.097C97.4011 382.214 94.1701 405.639 94.1701 388.676C94.1701 375.105 78.5531 335.094 70.7446 316.784C73.4372 324.862 79.9532 351.68 84.4768 394.33C90.1312 447.643 70.7446 595.466 78.8224 617.276C85.2846 634.724 95.5163 645.009 99.8245 647.971C98.4782 643.932 95.9471 634.562 96.5934 629.392C97.4011 637.47 105.479 652.01 106.287 651.202C107.094 650.394 105.479 636.662 105.479 630.2C111.941 645.548 107.902 652.818 111.133 653.625C113.718 654.272 118.134 658.741 120.019 660.895V641.509C124.865 655.241 146.675 706.131 147.483 695.63C148.129 687.229 137.521 666.281 132.135 656.857C142.367 671.935 162.831 701.446 162.831 698.861C162.831 696.276 156.907 685.936 153.945 681.09C160.407 687.821 173.332 700.799 173.332 698.861C173.332 696.437 171.716 694.822 169.293 689.975C177.048 697.73 188.141 702.9 192.718 704.515C192.449 703.707 191.587 700.961 190.295 696.437C200.796 704.515 208.066 699.669 215.336 699.669C222.606 699.669 229.876 701.284 243.608 719.863Z" fill="#336347"/>
<path d="M182.218 163.307C192.557 135.52 211.297 119.957 219.375 115.649L162.831 244.085C158.792 247.585 150.068 255.878 147.483 261.048C144.899 266.218 142.098 269.664 141.021 270.741V261.048C136.982 265.894 129.228 274.942 130.52 272.357C132.136 269.126 147.483 226.314 150.715 216.62C153.946 206.927 169.293 198.042 182.218 163.307Z" fill="#336347"/>
<path d="M90.9393 310.322L95.786 303.052L102.248 160.076L90.9393 157.653C90.9393 166 89.8085 186.41 85.2849 201.273C79.6305 219.851 86.9005 221.467 85.2849 227.929C83.6694 234.391 83.6694 248.123 76.3994 278.011C70.5835 301.921 78.8228 324.054 83.6694 332.132C84.7464 328.362 86.5774 320.015 85.2849 316.784C83.8401 313.172 83.0413 290.823 84.6222 268.805C84.2027 284.336 88.4132 302.284 90.9393 310.322Z" fill="#336347"/>
<path d="M76.3994 208.543L70.7446 168.962C65.0898 187.54 69.1295 237.622 70.7446 231.968C72.0367 227.444 75.0529 214.466 76.3994 208.543Z" fill="#336347"/>
<path d="M256.532 792.562C255.886 792.538 255.219 792.51 254.532 792.477C235.305 790.903 198.873 768.022 190.295 759.444C181.41 750.558 169.293 724.709 161.215 718.247C154.753 713.078 128.904 698.861 116.788 692.399C107.902 688.36 103.863 680.282 101.44 681.898C102.086 697.407 131.866 712.593 146.675 718.247H133.751C146.675 731.172 157.984 728.748 166.87 736.018C175.755 743.288 174.14 751.366 183.025 770.753C189.92 785.797 232.334 791.416 254.532 792.477C255.222 792.533 255.889 792.562 256.532 792.562Z" stroke="black"/>
<path d="M120.827 688.36C114.634 682.975 103.056 672.076 101.44 668.165C106.287 668.165 122.442 675.435 120.827 688.36Z" stroke="black"/>
<path d="M123.25 680.282C128.42 689.975 134.02 696.168 136.174 698.053C132.943 666.55 101.44 651.202 94.1701 647.971C88.3541 645.386 78.8224 632.354 74.7835 626.161C75.5913 637.47 93.3623 657.664 105.479 664.934C111.13 668.325 120.019 675.705 123.25 680.282Z" stroke="black"/>
<path d="M243.608 719.863C254.594 734.726 270.265 740.596 276.727 741.673C281.304 515.227 287.712 62.6588 276.727 63.9512C265.741 65.2437 249.532 100.032 242.8 117.264C239.3 140.151 230.522 187.702 223.414 194.81C216.305 201.919 204.835 215.543 199.988 221.467C195.949 229.814 182.864 249.416 162.831 261.048C142.798 272.68 128.097 292.82 123.25 301.436C127.827 298.475 140.052 290.612 152.33 282.858C130.52 303.86 136.174 321.631 121.634 345.864C110.002 365.251 106.556 377.098 106.287 380.598C108.441 378.175 114.041 372.682 119.211 370.097C111.941 376.559 109.518 386.253 105.479 411.294C106.287 399.177 100.632 383.829 94.1701 370.097C97.4011 382.214 94.1701 405.639 94.1701 388.676C94.1701 375.105 78.5531 335.094 70.7446 316.784C73.4372 324.862 79.9532 351.68 84.4768 394.33C90.1312 447.643 70.7446 595.466 78.8224 617.276C85.2846 634.724 95.5163 645.009 99.8245 647.971C98.4782 643.932 95.9471 634.562 96.5934 629.392C97.4011 637.47 105.479 652.01 106.287 651.202C107.094 650.394 105.479 636.662 105.479 630.2C111.941 645.548 107.902 652.818 111.133 653.625C113.718 654.272 118.134 658.741 120.019 660.895V641.509C124.865 655.241 146.675 706.131 147.483 695.63C148.129 687.229 137.521 666.281 132.135 656.857C142.367 671.935 162.831 701.446 162.831 698.861C162.831 696.276 156.907 685.936 153.945 681.09C160.407 687.821 173.332 700.799 173.332 698.861C173.332 696.437 171.716 694.822 169.293 689.975C177.048 697.73 188.141 702.9 192.718 704.515C192.449 703.707 191.587 700.961 190.295 696.437C200.796 704.515 208.066 699.669 215.336 699.669C222.606 699.669 229.876 701.284 243.608 719.863Z" stroke="black"/>
<path d="M182.218 163.307C192.557 135.52 211.297 119.957 219.375 115.649L162.831 244.085C158.792 247.585 150.068 255.878 147.483 261.048C144.899 266.218 142.098 269.664 141.021 270.741V261.048C136.982 265.894 129.228 274.942 130.52 272.357C132.136 269.126 147.483 226.314 150.715 216.62C153.946 206.927 169.293 198.042 182.218 163.307Z" stroke="black"/>
<path d="M90.9393 310.322L95.786 303.052L102.248 160.076L90.9393 157.653C90.9393 166 89.8085 186.41 85.2849 201.273C79.6305 219.851 86.9005 221.467 85.2849 227.929C83.6694 234.391 83.6694 248.123 76.3994 278.011C70.5835 301.921 78.8228 324.054 83.6694 332.132C84.7464 328.362 86.5774 320.015 85.2849 316.784C83.8401 313.172 83.0413 290.823 84.6222 268.805C84.2027 284.336 88.4132 302.284 90.9393 310.322Z" stroke="black"/>
<path d="M76.3994 208.543L70.7446 168.962C65.0898 187.54 69.1295 237.622 70.7446 231.968C72.0367 227.444 75.0529 214.466 76.3994 208.543Z" stroke="black"/>
<path d="M246.84 703.707C254.595 721.155 265.688 731.979 270.265 735.211C308.231 721.478 120.828 590.619 120.828 614.045C120.828 637.47 128.905 658.472 129.713 656.049C130.359 654.11 131.059 652.549 131.329 652.01C133.213 654.164 138.76 660.572 145.868 668.973C145.868 664.127 141.83 661.703 132.944 647.971C147.484 656.857 165.255 668.973 159.601 665.742C155.077 663.157 150.715 661.973 149.1 661.703C150.446 662.78 154.916 666.065 162.024 670.589C169.132 675.112 187.065 674.628 195.143 673.82C192.989 675.166 189.488 677.859 192.719 677.859C196.758 677.859 200.797 676.243 220.184 681.09C212.429 680.443 206.721 683.513 204.836 685.129C215.606 684.052 239.085 686.26 246.84 703.707Z" fill="#D1EFDD"/>
<path d="M136.176 698.861C158.147 706.615 176.026 730.633 182.219 741.673C177.049 735.211 166.063 727.671 161.216 724.709C162.024 724.979 164.124 725.356 166.063 724.709C160.247 718.894 152.331 716.362 149.1 715.824C148.292 715.555 147.807 714.855 152.331 714.208C146.677 706.131 108.711 689.167 136.176 698.861Z" fill="#D1EFDD"/>
<path d="M108.711 395.946C91.2633 454.752 109.519 561.001 120.828 606.775L271.074 79.299C269.997 77.4142 264.127 79.7837 249.264 104.34C230.685 135.035 236.339 170.577 232.3 189.156C228.262 207.735 217.761 206.927 207.26 219.851C196.758 232.776 199.182 244.892 168.486 267.51C137.791 290.128 150.715 307.091 145.869 322.439C141.022 337.786 130.521 322.439 108.711 395.946Z" fill="#D1EFDD"/>
<path d="M193.527 137.459L210.491 126.958L145.869 267.51C147.215 255.393 150.069 230.514 150.715 227.929C151.523 224.698 158.793 210.966 162.832 207.735C166.871 204.504 177.372 174.616 178.18 169.769C178.826 165.892 188.681 146.613 193.527 137.459Z" fill="#D1EFDD"/>
<path d="M156.37 195.618L168.486 155.23L175.756 137.459L185.45 84.1456H180.603C177.103 94.9159 165.74 142.144 164.448 144.729C163.363 146.897 163.735 133.416 164.096 126.027C164.32 124.07 164.448 122.711 164.448 122.111C164.448 120.252 164.273 122.409 164.096 126.027C162.633 138.825 157.07 177.168 156.37 195.618Z" fill="#D1EFDD"/>
<path d="M199.99 114.841L193.527 119.688C193.527 108.056 202.682 80.376 207.26 67.9901L212.914 62.3357L199.99 114.841Z" fill="#D1EFDD"/>
<path d="M90.9402 311.938L95.7869 300.629V189.156C91.2095 190.772 82.5394 198.688 84.478 217.428C86.9014 240.853 79.6314 246.508 76.4003 283.665C73.8154 313.391 80.7084 326.747 84.478 329.708C85.2858 327.285 86.4167 321.469 84.478 317.592C82.0547 312.745 82.8625 299.821 84.478 283.665C83.8318 296.59 88.5169 307.899 90.9402 311.938Z" fill="#D1EFDD"/>
<path d="M73.1692 222.275L70.7459 169.769L80.4392 186.733L73.1692 222.275Z" fill="#D1EFDD"/>
<path d="M112.75 619.699C107.634 605.698 96.11 567.194 90.9402 525.19C84.478 472.684 82.8625 585.347 112.75 619.699Z" fill="#D1EFDD"/>
<path d="M90.9402 410.486C90.7448 438.758 92.0866 499.502 99.018 516.304C107.682 537.306 97.4024 485.609 90.9402 410.486Z" fill="#D1EFDD"/>
<path d="M112.426 595.402C107.971 579.465 102.997 547.491 100.633 530.036C97.0923 556.848 106.465 582.076 112.426 595.402C113.675 599.87 114.883 603.078 115.981 604.351C118.324 607.068 115.983 603.354 112.426 595.402Z" fill="#D1EFDD"/>
</g>
<circle cx="66.2374" cy="66.2374" r="66.2374" transform="matrix(-1 0 0 1 439.001 378.68)" fill="url(#paint9_radial_422_13900)"/>
<path fill-rule="evenodd" clip-rule="evenodd" d="M396.227 265.538C397.769 272.474 396.563 279.632 393.281 284.008C389.795 288.656 386.454 290.991 382.688 291.888C378.849 292.802 374.324 292.284 368.333 290.687C363.154 289.306 360.395 284.621 359.83 279.255C359.258 273.814 361.03 268.417 364.062 266.059C367.229 263.595 370.454 263.462 373.165 264.564C375.953 265.696 378.266 268.17 379.329 271.005C380.168 273.243 378.823 276.194 376.129 278.238C374.842 279.214 373.422 279.825 372.147 279.964C370.909 280.098 369.861 279.791 369.059 278.989C368.335 278.264 368.189 277.749 368.178 277.463C368.166 277.182 368.273 276.832 368.655 276.407C369.478 275.493 371.191 274.701 372.977 274.462C374.763 274.224 374.803 270.959 372.55 271.26C370.297 271.56 367.759 272.574 366.253 274.246C365.472 275.114 364.895 276.252 364.949 277.593C365.003 278.928 365.67 280.169 366.775 281.273C368.396 282.895 370.478 283.395 372.496 283.176C374.478 282.961 376.44 282.058 378.082 280.812C381.244 278.413 383.938 274.095 382.354 269.87C380.994 266.243 378.056 263.063 374.381 261.57C370.63 260.046 366.181 260.317 362.078 263.508C357.84 266.804 355.978 273.523 356.617 279.593C357.264 285.738 360.563 291.959 367.501 293.809C373.627 295.442 378.795 296.136 383.437 295.031C388.153 293.908 392.081 290.993 395.866 285.947C399.854 280.63 401.071 272.44 399.382 264.837C397.681 257.185 393.765 251.051 383.445 249.309C388.116 252.667 394.697 258.65 396.227 265.538ZM360.711 257.065C367.239 254.089 374.908 254.004 379.968 257.257C385.235 260.643 387.756 265.255 388.116 269.759C388.478 274.285 386.672 278.849 382.992 282.161C377.247 287.331 371.022 285.535 369.059 284.008C367.097 282.482 364.849 284.01 367.733 286.253C370.617 288.496 377.973 291.025 385.153 284.563C389.55 280.606 391.783 275.072 391.337 269.501C390.89 263.908 387.756 258.423 381.715 254.539C375.466 250.522 366.575 250.841 359.371 254.125C352.126 257.428 346.107 263.96 346.107 272.861C346.107 280.985 346.904 287.632 350.076 292.881C353.293 298.205 358.772 301.816 367.473 304.302C376.535 306.891 389.216 304.087 397.971 296.281C402.384 292.346 405.835 287.112 407.318 280.617C408.802 274.122 406.784 263.818 403.459 255.09C404.168 263.976 405.487 274.125 404.168 279.898C402.85 285.67 399.788 290.332 395.821 293.869C387.815 301.007 376.262 303.453 368.361 301.195C360.099 298.835 355.481 295.579 352.841 291.21C350.156 286.766 349.338 280.893 349.338 272.861C349.338 265.607 354.224 260.022 360.711 257.065ZM373.944 315.385C384.565 316.254 395.381 313.25 400.227 306.788C389.726 311.634 383.983 312.965 374.208 312.165C364.517 311.371 351.761 305.172 341.551 294.788C346.107 309.211 363.239 314.509 373.944 315.385Z" fill="#DBFAFD"/>
<path fill-rule="evenodd" clip-rule="evenodd" d="M382.042 381.818C366.285 377.971 350.146 380.295 342.037 388.245C351.258 385.128 366.21 382.942 380.893 386.527C395.454 390.081 409.797 399.308 418.19 419.202C423.481 431.744 424.348 442.503 422.492 451.508C420.634 460.522 416.013 467.954 410.046 473.777C404.068 479.611 396.761 483.802 389.636 486.286C382.476 488.783 375.698 489.488 370.782 488.577C349.542 484.644 333.124 472.3 332.374 451.293C331.601 429.653 344.697 412.336 362.661 409.342C371.53 407.864 381.707 411.197 389.006 417.832C396.241 424.41 400.464 434.049 397.868 445.174C395.278 456.277 387.808 461.687 379.872 463.238C371.723 464.83 363.353 462.316 359.197 457.813C355.024 453.293 353.683 445.743 355.595 439.463C356.535 436.374 358.221 433.742 360.575 431.974C362.899 430.228 366.031 429.204 370.131 429.56C374.347 429.927 376.873 431.267 378.352 432.803C379.833 434.341 380.498 436.316 380.539 438.401C380.581 440.514 379.972 442.624 379.042 444.208C378.052 445.893 377.023 446.486 376.502 446.551C373.715 446.9 372.206 446.125 371.717 445.596C371.504 445.365 371.492 445.212 371.497 445.129C371.504 445.025 371.565 444.696 372.054 444.207C372.543 443.718 370.144 439.066 368.627 440.78C367.11 442.494 366.754 443.294 366.66 444.831C366.564 446.389 367.158 447.801 368.156 448.883C370.09 450.978 373.428 451.82 377.103 451.36C379.814 451.022 381.914 448.888 383.222 446.661C384.589 444.332 385.444 441.343 385.385 438.306C385.325 435.242 384.324 432.017 381.842 429.441C379.358 426.861 375.624 425.173 370.551 424.732C365.361 424.28 361.021 425.578 357.665 428.099C354.339 430.596 352.138 434.174 350.958 438.052C348.628 445.706 350.115 455.12 355.636 461.101C361.172 467.099 371.381 469.835 380.802 467.994C390.435 466.112 399.524 459.405 402.588 446.275C405.647 433.167 400.581 421.805 392.266 414.246C384.016 406.746 372.382 402.808 361.864 404.561C341.056 408.029 326.687 427.87 327.53 451.466C328.395 475.693 347.519 489.198 369.899 493.343C375.888 494.452 383.549 493.541 391.232 490.863C398.95 488.172 406.889 483.629 413.431 477.246C419.985 470.851 425.158 462.582 427.239 452.487C429.321 442.383 428.269 430.625 422.655 417.318C413.6 395.855 397.921 385.695 382.042 381.818Z" fill="#DBFAFD"/>
<path fill-rule="evenodd" clip-rule="evenodd" d="M383.264 177.433C373.896 177.433 366.301 169.839 366.301 160.47C366.301 158.225 366.738 156.081 367.53 154.119C359.328 156.688 353.377 164.346 353.377 173.394C353.377 184.547 362.419 193.589 373.572 193.589C384.591 193.589 393.548 184.763 393.762 173.796C390.874 176.074 387.228 177.433 383.264 177.433Z" fill="white"/>
<path fill-rule="evenodd" clip-rule="evenodd" d="M333.614 402.238C318.62 412.691 308.021 430.513 311.397 454.145C314.779 477.819 330.476 492.382 348.891 499.287C367.204 506.155 388.465 505.571 403.636 498.829C415.847 493.402 424.405 483.962 429.928 474.468C435.428 465.015 436.578 455.419 433.347 448.9C433.224 454.201 430.915 463.134 425.739 472.031C420.587 480.887 412.72 489.488 401.667 494.4C387.758 500.582 367.822 501.21 350.593 494.749C333.466 488.327 319.275 475.021 316.195 453.46C313.109 431.857 322.704 415.752 336.386 406.213C350.198 396.584 367.94 393.803 380.784 398.714C394.029 403.778 403.568 412.463 408.107 422.771C412.624 433.027 412.311 445.15 405.386 457.461C398.606 469.514 387.735 474.048 377.332 474.811C372.11 475.194 367.04 474.619 362.754 473.563C358.43 472.496 355.069 470.982 353.187 469.614C349.231 466.737 344.657 460.542 342.363 453.182C340.087 445.882 340.165 437.823 344.876 430.938C349.748 423.817 357.197 419.389 364.916 418.654C372.568 417.925 380.667 420.804 387.036 428.671C393.018 436.061 391.315 444.408 386.426 449.742C381.469 455.149 373.841 456.931 367.853 451.941C364.614 449.242 363.739 446.805 363.764 445.001C363.79 443.139 364.779 441.394 366.324 440.126C367.903 438.831 369.743 438.295 371.076 438.482C371.704 438.57 372.203 438.81 372.592 439.19C372.983 439.573 372.003 440.546 373.571 442.494C375.14 444.443 378.752 442.307 378.371 440.403C377.99 438.499 377.189 436.907 375.981 435.726C374.77 434.541 373.281 433.897 371.75 433.682C368.767 433.264 365.608 434.444 363.25 436.38C360.857 438.343 358.968 441.343 358.918 444.934C358.868 448.582 360.719 452.305 364.75 455.664C373.302 462.79 383.849 459.726 389.999 453.017C396.217 446.234 398.553 435.195 390.803 425.621C383.439 416.525 373.768 412.942 364.456 413.829C355.212 414.709 346.505 419.974 340.876 428.201C335.086 436.664 335.164 446.376 337.735 454.625C340.288 462.814 345.407 469.948 350.336 473.533C352.897 475.396 356.907 477.113 361.594 478.268C366.32 479.433 371.903 480.069 377.687 479.645C389.295 478.793 401.85 473.634 409.61 459.837C417.225 446.299 417.72 432.574 412.543 420.818C407.389 409.114 396.734 399.624 382.515 394.187C367.894 388.597 348.479 391.874 333.614 402.238Z" fill="#DBFAFD"/>
<circle cx="4.03886" cy="4.03886" r="4.03886" transform="matrix(1.19249e-08 -1 -1 -1.19249e-08 126.89 483.158)" fill="#D6F9FC"/>
<circle cx="1.61555" cy="1.61555" r="1.61555" transform="matrix(1.19249e-08 -1 -1 -1.19249e-08 157.585 483.158)" fill="#D6F9FC"/>
<circle cx="1.61555" cy="1.61555" r="1.61555" transform="matrix(1.19249e-08 -1 -1 -1.19249e-08 175.356 460.541)" fill="#D6F9FC"/>
<circle cx="1.61555" cy="1.61555" r="1.61555" transform="matrix(1.19249e-08 -1 -1 -1.19249e-08 199.589 557.473)" fill="#D6F9FC"/>
<circle cx="1.61555" cy="1.61555" r="1.61555" transform="matrix(1.19249e-08 -1 -1 -1.19249e-08 217.36 568.782)" fill="#D6F9FC"/>
<circle cx="1.61555" cy="1.61555" r="1.61555" transform="matrix(1.19249e-08 -1 -1 -1.19249e-08 225.438 491.236)" fill="#D6F9FC"/>
<circle cx="1.61555" cy="1.61555" r="1.61555" transform="matrix(1.19249e-08 -1 -1 -1.19249e-08 227.053 539.702)" fill="#D6F9FC"/>
<circle cx="1.61555" cy="1.61555" r="1.61555" transform="matrix(1.19249e-08 -1 -1 -1.19249e-08 227.053 513.853)" fill="#D6F9FC"/>
<circle cx="1.61555" cy="1.61555" r="1.61555" transform="matrix(1.19249e-08 -1 -1 -1.19249e-08 241.593 551.011)" fill="#D6F9FC"/>
<circle cx="1.61555" cy="1.61555" r="1.61555" transform="matrix(1.19249e-08 -1 -1 -1.19249e-08 265.827 559.088)" fill="#D6F9FC"/>
<circle cx="0.807773" cy="0.807773" r="0.807773" transform="matrix(1.19249e-08 -1 -1 -1.19249e-08 231.9 531.625)" fill="#D6F9FC"/>
<circle cx="0.807773" cy="0.807773" r="0.807773" transform="matrix(1.19249e-08 -1 -1 -1.19249e-08 249.671 539.702)" fill="#D6F9FC"/>
<circle cx="0.807773" cy="0.807773" r="0.807773" transform="matrix(1.19249e-08 -1 -1 -1.19249e-08 227.053 509.007)" fill="#D6F9FC"/>
<circle cx="0.807773" cy="0.807773" r="0.807773" transform="matrix(1.19249e-08 -1 -1 -1.19249e-08 257.749 531.625)" fill="#D6F9FC"/>
<circle cx="0.807773" cy="0.807773" r="0.807773" transform="matrix(1.19249e-08 -1 -1 -1.19249e-08 238.362 481.543)" fill="#D6F9FC"/>
<circle cx="1.61555" cy="1.61555" r="1.61555" transform="matrix(1.19249e-08 -1 -1 -1.19249e-08 233.516 478.311)" fill="#D6F9FC"/>
<circle cx="0.807773" cy="0.807773" r="0.807773" transform="matrix(1.19249e-08 -1 -1 -1.19249e-08 222.207 481.543)" fill="#D6F9FC"/>
<circle cx="0.807773" cy="0.807773" r="0.807773" transform="matrix(1.19249e-08 -1 -1 -1.19249e-08 239.978 488.005)" fill="#D6F9FC"/>
<circle cx="4.03886" cy="4.03886" r="4.03886" transform="matrix(1.19249e-08 -1 -1 -1.19249e-08 264.211 526.778)" fill="#D6F9FC"/>
<circle cx="4.03886" cy="4.03886" r="4.03886" transform="matrix(1.19249e-08 -1 -1 -1.19249e-08 395.07 539.702)" fill="#D6F9FC"/>
<circle cx="4.03886" cy="4.03886" r="4.03886" transform="matrix(1.19249e-08 -1 -1 -1.19249e-08 395.07 497.698)" fill="#D6F9FC"/>
<circle cx="3.23109" cy="3.23109" r="3.23109" transform="matrix(1.19249e-08 -1 -1 -1.19249e-08 430.612 528.394)" fill="#D6F9FC"/>
<circle cx="4.03886" cy="4.03886" r="4.03886" transform="matrix(1.19249e-08 -1 -1 -1.19249e-08 377.299 484.774)" fill="#D6F9FC"/>
<circle cx="3.23109" cy="3.23109" r="3.23109" transform="matrix(1.19249e-08 -1 -1 -1.19249e-08 338.526 457.31)" fill="#D6F9FC"/>
<circle cx="1.61555" cy="1.61555" r="1.61555" transform="matrix(1.19249e-08 -1 -1 -1.19249e-08 294.906 518.7)" fill="#D6F9FC"/>
<circle cx="1.61555" cy="1.61555" r="1.61555" transform="matrix(1.19249e-08 -1 -1 -1.19249e-08 193.127 560.705)" fill="#D6F9FC"/>
<circle cx="3.23109" cy="3.23109" r="3.23109" transform="matrix(1.19249e-08 -1 -1 -1.19249e-08 99.4253 497.698)" fill="#D6F9FC"/>
<circle cx="2.42332" cy="2.42332" r="2.42332" transform="matrix(1.19249e-08 -1 -1 -1.19249e-08 101.041 515.469)" fill="#D6F9FC"/>
<circle cx="0.807773" cy="0.807773" r="0.807773" transform="matrix(1.19249e-08 -1 -1 -1.19249e-08 97.8096 460.541)" fill="#D6F9FC"/>
<circle cx="0.807773" cy="0.807773" r="0.807773" transform="matrix(1.19249e-08 -1 -1 -1.19249e-08 99.4253 478.311)" fill="#D6F9FC"/>
<circle cx="0.807773" cy="0.807773" r="0.807773" transform="matrix(1.19249e-08 -1 -1 -1.19249e-08 96.1943 455.694)" fill="#D6F9FC"/>
<circle cx="1.61555" cy="1.61555" r="1.61555" transform="matrix(1.19249e-08 -1 -1 -1.19249e-08 96.1943 565.551)" fill="#D6F9FC"/>
<circle cx="4.84664" cy="4.84664" r="4.84664" transform="matrix(1.19249e-08 -1 -1 -1.19249e-08 122.043 530.008)" fill="#8AF5F7"/>
<circle cx="2.42332" cy="2.42332" r="2.42332" transform="matrix(1.19249e-08 -1 -1 -1.19249e-08 123.658 502.544)" fill="#8AF5F7"/>
<circle cx="1.61555" cy="1.61555" r="1.61555" transform="matrix(1.19249e-08 -1 -1 -1.19249e-08 128.505 542.933)" fill="#8AF5F7"/>
<circle cx="1.61555" cy="1.61555" r="1.61555" transform="matrix(1.19249e-08 -1 -1 -1.19249e-08 138.198 560.705)" fill="#8AF5F7"/>
<circle cx="1.61555" cy="1.61555" r="1.61555" transform="matrix(1.19249e-08 -1 -1 -1.19249e-08 147.892 509.007)" fill="#8AF5F7"/>
<circle cx="0.807773" cy="0.807773" r="0.807773" transform="matrix(1.19249e-08 -1 -1 -1.19249e-08 131.736 499.313)" fill="#8AF5F7"/>
<circle cx="1.61555" cy="1.61555" r="1.61555" transform="matrix(1.19249e-08 -1 -1 -1.19249e-08 138.198 491.236)" fill="#8AF5F7"/>
<circle cx="1.61555" cy="1.61555" r="1.61555" transform="matrix(1.19249e-08 -1 -1 -1.19249e-08 141.429 481.543)" fill="#8AF5F7"/>
<circle cx="0.807773" cy="0.807773" r="0.807773" transform="matrix(1.19249e-08 -1 -1 -1.19249e-08 146.276 528.394)" fill="#8AF5F7"/>
<circle cx="0.807773" cy="0.807773" r="0.807773" transform="matrix(1.19249e-08 -1 -1 -1.19249e-08 170.509 554.242)" fill="#8AF5F7"/>
<circle cx="1.61555" cy="1.61555" r="1.61555" transform="matrix(1.19249e-08 -1 -1 -1.19249e-08 225.438 562.32)" fill="#8AF5F7"/>
<circle cx="1.61555" cy="1.61555" r="1.61555" transform="matrix(1.19249e-08 -1 -1 -1.19249e-08 259.364 563.936)" fill="#8AF5F7"/>
<circle cx="1.61555" cy="1.61555" r="1.61555" transform="matrix(1.19249e-08 -1 -1 -1.19249e-08 228.669 497.698)" fill="#8AF5F7"/>
<circle cx="2.42332" cy="2.42332" r="2.42332" transform="matrix(1.19249e-08 -1 -1 -1.19249e-08 244.824 542.933)" fill="#8AF5F7"/>
<circle cx="2.42332" cy="2.42332" r="2.42332" transform="matrix(1.19249e-08 -1 -1 -1.19249e-08 302.984 563.936)" fill="#8AF5F7"/>
<circle cx="2.42332" cy="2.42332" r="2.42332" transform="matrix(1.19249e-08 -1 -1 -1.19249e-08 341.757 568.782)" fill="#8AF5F7"/>
<circle cx="1.61555" cy="1.61555" r="1.61555" transform="matrix(1.19249e-08 -1 -1 -1.19249e-08 288.444 533.239)" fill="#8AF5F7"/>
<circle cx="1.61555" cy="1.61555" r="1.61555" transform="matrix(1.19249e-08 -1 -1 -1.19249e-08 307.831 536.471)" fill="#8AF5F7"/>
<circle cx="1.61555" cy="1.61555" r="1.61555" transform="matrix(1.19249e-08 -1 -1 -1.19249e-08 325.602 542.933)" fill="#8AF5F7"/>
<circle cx="1.61555" cy="1.61555" r="1.61555" transform="matrix(1.19249e-08 -1 -1 -1.19249e-08 306.215 504.16)" fill="#8AF5F7"/>
<circle cx="1.61555" cy="1.61555" r="1.61555" transform="matrix(1.19249e-08 -1 -1 -1.19249e-08 304.6 497.698)" fill="#8AF5F7"/>
<circle cx="1.61555" cy="1.61555" r="1.61555" transform="matrix(1.19249e-08 -1 -1 -1.19249e-08 417.688 484.774)" fill="#8AF5F7"/>
<circle cx="2.42332" cy="2.42332" r="2.42332" transform="matrix(1.19249e-08 -1 -1 -1.19249e-08 412.841 525.163)" fill="#8AF5F7"/>
<circle cx="2.42332" cy="2.42332" r="2.42332" transform="matrix(1.19249e-08 -1 -1 -1.19249e-08 411.225 510.622)" fill="#8AF5F7"/>
<circle cx="2.42332" cy="2.42332" r="2.42332" transform="matrix(1.19249e-08 -1 -1 -1.19249e-08 430.612 450.847)" fill="#8AF5F7"/>
<circle cx="2.42332" cy="2.42332" r="2.42332" transform="matrix(1.19249e-08 -1 -1 -1.19249e-08 432.228 573.628)" fill="#8AF5F7"/>
<circle cx="2.42332" cy="2.42332" r="2.42332" transform="matrix(1.19249e-08 -1 -1 -1.19249e-08 466.154 481.543)" fill="#8AF5F7"/>
<circle cx="4.03886" cy="4.03886" r="4.03886" transform="matrix(1.19249e-08 -1 -1 -1.19249e-08 506.542 504.16)" fill="#8AF5F7"/>
<circle cx="2.42332" cy="2.42332" r="2.42332" transform="matrix(1.19249e-08 -1 -1 -1.19249e-08 492.003 504.16)" fill="#8AF5F7"/>
<circle cx="1.61555" cy="1.61555" r="1.61555" transform="matrix(1.19249e-08 -1 -1 -1.19249e-08 422.535 479.927)" fill="#8AF5F7"/>
<circle cx="1.61555" cy="1.61555" r="1.61555" transform="matrix(1.19249e-08 -1 -1 -1.19249e-08 290.06 497.698)" fill="#8AF5F7"/>
<circle cx="1.61555" cy="1.61555" r="1.61555" transform="matrix(1.19249e-08 -1 -1 -1.19249e-08 269.058 462.156)" fill="#8AF5F7"/>
<circle cx="0.807773" cy="0.807773" r="0.807773" transform="matrix(1.19249e-08 -1 -1 -1.19249e-08 296.522 481.543)" fill="#8AF5F7"/>
<circle cx="2.42332" cy="2.42332" r="2.42332" transform="matrix(1.19249e-08 -1 -1 -1.19249e-08 267.442 502.544)" fill="#8AF5F7"/>
<circle cx="1.61555" cy="1.61555" r="1.61555" transform="matrix(1.19249e-08 -1 -1 -1.19249e-08 254.518 507.391)" fill="#8AF5F7"/>
<circle cx="3.23109" cy="3.23109" r="3.23109" transform="matrix(1.19249e-08 -1 -1 -1.19249e-08 262.595 486.389)" fill="#8AF5F7"/>
<circle cx="1.61555" cy="1.61555" r="1.61555" transform="matrix(1.19249e-08 -1 -1 -1.19249e-08 151.123 534.855)" fill="#8AF5F7"/>
<circle cx="0.807773" cy="0.807773" r="0.807773" transform="matrix(1.19249e-08 -1 -1 -1.19249e-08 149.507 496.082)" fill="#8AF5F7"/>
<circle cx="0.807773" cy="0.807773" r="0.807773" transform="matrix(1.19249e-08 -1 -1 -1.19249e-08 201.205 463.772)" fill="#8AF5F7"/>
<circle cx="215.745" cy="475.081" r="1.61555" transform="rotate(90 215.745 475.081)" fill="#8AF5F7"/>
<circle cx="209.282" cy="454.078" r="1.61555" transform="rotate(90 209.282 454.078)" fill="#8AF5F7"/>
<circle cx="227.053" cy="465.387" r="1.61555" transform="rotate(90 227.053 465.387)" fill="#8AF5F7"/>
<circle cx="1.61555" cy="1.61555" r="1.61555" transform="matrix(1.19249e-08 -1 -1 -1.19249e-08 154.354 452.463)" fill="#8AF5F7"/>
<circle cx="1.61555" cy="1.61555" r="1.61555" transform="matrix(1.19249e-08 -1 -1 -1.19249e-08 173.74 476.696)" fill="#8AF5F7"/>
<circle cx="0.807773" cy="0.807773" r="0.807773" transform="matrix(1.19249e-08 -1 -1 -1.19249e-08 168.894 462.156)" fill="#8AF5F7"/>
<circle cx="0.807773" cy="0.807773" r="0.807773" transform="matrix(1.19249e-08 -1 -1 -1.19249e-08 159.201 463.772)" fill="#8AF5F7"/>
<circle cx="0.807773" cy="0.807773" r="0.807773" transform="matrix(1.19249e-08 -1 -1 -1.19249e-08 157.585 467.002)" fill="#8AF5F7"/>
<circle cx="3.23109" cy="3.23109" r="3.23109" transform="matrix(1.19249e-08 -1 -1 -1.19249e-08 120.427 528.394)" fill="white"/>
<path d="M51.2101 478.777C49.7276 478.777 54.1751 478.777 55.6576 478.777C57.2389 478.777 59.1173 477.293 59.7906 475.947C61.3148 472.898 61.0972 468.039 58.5777 465.749C49.8993 457.859 39.4848 463.955 39.4848 474.734C39.4848 483.719 43.9271 491.306 50.2667 497.645C65.6603 513.039 101.733 529.351 87.8011 557.215C84.2723 564.273 79.4883 568.77 72.2347 571.591C56.7044 577.63 39.2982 574.459 27.5349 562.696C7.61026 542.771 37.5273 513.583 50.1993 536.393C51.6169 538.944 49.6695 542.217 47.1669 543.468" stroke="url(#paint10_linear_422_13900)" stroke-width="6" stroke-linecap="round"/>
<path d="M54.04 513.548C72.0397 515.348 69.9046 554.789 49.5925 554.789C43.8477 554.789 40.1877 554.656 38.0693 548.724C36.3952 544.037 36.2111 536.851 42.719 539.021" stroke="url(#paint11_linear_422_13900)" stroke-width="6" stroke-linecap="round"/>
<path d="M70.617 526.487C76.5034 528.694 77.905 541.628 77.1977 546.226C75.5647 556.84 64.0675 565.706 54.4442 565.706C35.1935 566.42 18.2303 537.34 39.2324 535.725" stroke="url(#paint12_linear_422_13900)" stroke-width="6" stroke-linecap="round"/>
<path d="M49.9975 446.836C55.6672 446.836 61.3789 451.816 64.553 456.225C77.2239 473.823 61.8507 491.297 48.7846 482.416" stroke="url(#paint13_linear_422_13900)" stroke-width="6" stroke-linecap="round"/>
<path d="M51.2115 478.777C49.729 478.777 54.1766 478.777 55.6591 478.777C57.2404 478.777 59.1188 477.293 59.7921 475.947C61.3162 472.898 61.0986 468.039 58.5792 465.749C49.9008 457.859 39.4862 463.955 39.4862 474.734C39.4862 483.719 43.9285 491.306 50.2681 497.645C65.6617 513.039 101.735 529.351 87.8025 557.215C84.2738 564.273 79.4898 568.77 72.2362 571.591C56.7058 577.63 39.2997 574.459 27.5363 562.696C7.61173 542.771 37.5288 513.583 50.2007 536.393C51.6184 538.944 49.671 542.217 47.1683 543.468" stroke="white" stroke-width="2" stroke-linecap="round"/>
<path d="M54.0415 513.548C72.0412 515.348 69.9061 554.789 49.5939 554.789C43.8492 554.789 40.1892 554.656 38.0708 548.724C36.3967 544.037 36.2125 536.851 42.7205 539.021" stroke="white" stroke-width="2" stroke-linecap="round"/>
<path d="M70.6185 526.487C76.5049 528.694 77.9064 541.628 77.1991 546.226C75.5661 556.84 64.069 565.706 54.4457 565.706C35.195 566.42 18.2317 537.34 39.2338 535.725" stroke="white" stroke-width="2" stroke-linecap="round"/>
<path d="M49.998 446.836C55.6677 446.836 61.3794 451.816 64.5535 456.225C77.2244 473.823 61.8512 491.297 48.785 482.416" stroke="white" stroke-width="2" stroke-linecap="round"/>
<path d="M154.047 94.3169C150.536 88.6914 161.947 62.4784 168.091 50.0751C192.667 19.1351 225.534 17.6506 238.895 20.7758C252.158 24.3894 276.929 32.7299 269.908 37.1834C266.227 39.5181 261.928 40.2037 258.76 40.2776C267.83 43.1376 286.258 57.5106 278.685 58.8648C272.131 60.0368 262.496 56.8139 258.497 55.0559C270.98 61.5018 293.372 75.0966 283.074 77.9093C270.2 81.4252 263.764 70.2915 269.908 77.9093C276.052 85.5271 274.004 94.3169 269.908 94.3169C267.512 94.3169 264.762 91.1848 262.846 88.3554C262.893 89.9021 261.87 91.9398 258.497 94.3169C253.59 97.7753 247.541 92.3874 243.53 87.1543C246.739 92.3281 249.46 98.4188 245.331 98.4188C238.602 98.4188 240.65 94.3169 234.213 88.75C239.772 97.8328 232.458 95.7818 228.654 98.4188C234.213 98.4188 248.842 111.603 238.895 112.775C234.748 113.264 231.692 113.137 229.578 112.793C232.806 114.08 237.106 116.288 240.65 119.514C247.087 125.374 239.772 126.253 234.213 126.253C240.767 126.722 244.356 136.996 245.331 142.075C242.796 145.493 237.022 150.982 234.213 145.59C231.405 151.685 225.631 145.786 223.095 142.075C224.558 144.809 225.729 150.689 218.707 152.329C212.735 153.725 209.02 148.296 207.383 144.118C207.487 146.191 205.663 148.334 198.226 147.641C188.162 146.704 187.596 120.1 188.571 106.916C187.108 110.041 183.481 115.354 180.672 111.603C177.863 107.853 179.501 101.251 180.672 98.4188C176.478 103.986 166.745 113.479 161.362 106.916C158.126 102.971 159.59 97.6293 162.247 93.0406C159.251 95.9488 156.038 97.5064 154.047 94.3169Z" fill="#021219"/>
<path d="M166.478 77.0362C159.701 73.0562 165.796 57.4287 169.691 50.1125C174.365 56.4337 173.78 67.769 172.904 72.6465C173.586 75.7681 173.255 81.0163 166.478 77.0362Z" fill="#0A413E"/>
<path d="M182.835 71.1832C174.89 67.4373 174.657 52.4537 175.533 45.4301C176.96 40.1879 179.095 40.1284 180.807 41.4851C179.301 39.5449 179.763 37.8212 185.756 37.8212C198.608 37.8212 205.327 48.9419 205.911 53.039C206.495 57.136 200.653 60.3552 199.193 58.3066C198.024 56.6678 189.748 49.0394 185.756 45.4301C184.52 44.698 183.141 43.7547 182.051 42.783C182.348 43.1705 182.613 43.5768 182.835 43.9668C186.146 54.5998 190.78 74.9292 182.835 71.1832Z" fill="#0A413E"/>
<path d="M221.684 50.1125C209.065 46.3666 197.732 37.8212 193.643 34.0167C194.909 30.8951 204.041 24.0666 230.447 21.7255C191.014 12.6533 257.027 -1.39385 257.904 7.97093C258.605 15.4628 250.601 17.3357 246.512 17.3357C255.372 18.9941 272.158 24.0081 268.419 30.7976C264.68 37.5871 256.346 35.7726 252.646 34.0167C257.806 38.6016 267.309 48.2395 264.038 50.1125C260.766 51.9854 248.459 43.8693 242.715 39.5771C244.467 42.6987 246.921 49.176 242.715 50.1125C238.509 51.049 231.031 46.4056 227.818 43.9668C231.031 47.5762 234.302 53.8584 221.684 50.1125Z" fill="#0A413E"/>
<path d="M232.199 58.3066C242.715 56.2581 266.433 55.0289 277.182 66.5008C290.618 80.8406 273.969 78.4995 261.409 71.1832C270.756 80.2553 275.137 93.4245 270.464 94.3025C267.119 94.9308 260.407 84.0503 256.52 76.7913C259.541 82.8917 263.044 92.2545 259.364 94.3025C255.158 96.6437 245.538 82.7916 241.254 75.5729C244.467 82.4014 249.55 96.1169 244.175 96.351C239.328 96.5622 231.264 82.8224 226.801 73.8988C226.767 74.9608 226.2 76.2366 224.605 77.6215C220.223 81.4259 208.248 71.4758 208.248 66.5008C208.248 61.5257 220.516 60.6478 225.481 63.5743C230.447 66.5008 225.481 59.2553 232.199 58.3066Z" fill="#0A413E"/>
<path d="M193.643 74.4023C199.29 73.6219 211.344 74.1097 214.382 82.3038C218.179 92.5466 172.904 71.7684 193.643 74.4023Z" fill="#0A413E"/>
<path d="M195.395 91.376C201.14 91.8637 211.753 95.5316 208.248 106.301C204.742 117.071 198.219 100.838 195.395 91.376Z" fill="#0A413E"/>
<path d="M202.99 114.788C207.177 112.447 216.777 110.457 221.684 121.226C226.591 131.996 211.266 121.421 202.99 114.788Z" fill="#0A413E"/>
<path d="M213.213 101.911C216.718 102.106 223.32 103.726 221.684 108.642C220.048 113.559 215.355 106.204 213.213 101.911Z" fill="#0A413E"/>
<path d="M224.605 98.1069C231.128 98.302 244.175 101.385 244.175 112.154C244.175 122.924 231.128 107.277 224.605 98.1069Z" fill="#0A413E"/>
<path d="M246.512 143.76C252.354 132.757 236.483 124.153 227.818 121.226C224.313 131.978 230.252 141.899 233.66 145.516C235.51 149.516 240.67 154.764 246.512 143.76Z" fill="#0A413E"/>
<path d="M210.584 130.884C214.382 129.03 223.144 129.772 227.818 147.565C232.491 165.358 218.276 143.858 210.584 130.884Z" fill="#0A413E"/>
<path d="M180.206 93.1319C184.783 93.6196 193.117 97.4046 189.846 108.642C186.574 119.88 182.056 102.984 180.206 93.1319Z" fill="#0A413E"/>
<path d="M166.478 91.376C171.93 92.9368 181.667 98.5751 176.993 108.642C172.32 118.709 168.036 101.326 166.478 91.376Z" fill="#0A413E"/>
<path d="M172.904 72.6463C173.586 75.7679 173.255 81.0161 166.478 77.0361C164.174 75.6826 163.358 72.9823 163.437 69.7198C166.885 67.6713 173.517 62.1109 172.465 56.2579C174.019 62.2041 173.538 69.1164 172.904 72.6463Z" fill="#129580"/>
<path d="M205.911 53.0388C206.495 57.1359 200.653 60.355 199.193 58.3065C198.725 57.6504 197.118 56.0346 195.103 54.1009C198.414 54.3583 203.983 52.5533 199.777 43.2742C203.556 46.6964 205.6 50.8604 205.911 53.0388Z" fill="#129580"/>
<path d="M255.275 74.4022C255.665 75.1109 256.088 75.9175 256.52 76.791C256.939 77.5729 257.39 78.3967 257.867 79.2436C255.779 75.3979 254.346 69.5981 263.454 73.3169C271.37 82.1872 274.782 93.4912 270.464 94.3024C267.561 94.8477 262.123 86.726 258.196 79.8252C258.085 79.6377 257.975 79.4433 257.867 79.2436C257.39 78.3967 256.939 77.5729 256.52 76.791C259.541 82.8915 263.044 92.2544 259.364 94.3024C256.186 96.0716 249.916 88.5933 245.193 81.7185C242.127 77.4262 239.852 69.9538 255.275 74.4022Z" fill="#129580"/>
<path d="M244.175 96.3509C249.55 96.1168 244.467 82.4013 241.254 75.5728C226.766 64.8032 226.26 71.2992 227.818 75.8935C232.409 84.728 239.677 96.5469 244.175 96.3509Z" fill="#129580"/>
<path d="M195.395 91.3759C201.14 91.8636 211.753 95.5315 208.248 106.301C204.742 117.071 198.219 100.838 195.395 91.3759Z" fill="#129580"/>
<path d="M202.99 114.788C207.177 112.447 216.777 110.457 221.684 121.226C226.591 131.996 211.266 121.421 202.99 114.788Z" fill="#129580"/>
<path d="M213.213 101.911C216.718 102.106 223.32 103.726 221.684 108.642C220.048 113.559 215.355 106.203 213.213 101.911Z" fill="#129580"/>
<path d="M246.512 143.76C252.354 132.757 236.483 124.153 227.818 121.226C224.313 131.978 230.252 141.899 233.66 145.516C235.51 149.516 240.67 154.764 246.512 143.76Z" fill="#129580"/>
<path d="M210.584 130.884C214.382 129.03 223.144 129.772 227.818 147.565C232.491 165.358 218.276 143.858 210.584 130.884Z" fill="#129580"/>
<path d="M180.206 93.1318C184.783 93.6195 193.117 97.4045 189.846 108.642C186.574 119.88 182.056 102.984 180.206 93.1318Z" fill="#129580"/>
<path d="M166.478 91.3759C171.93 92.9367 181.667 98.5751 176.993 108.642C172.32 118.709 168.036 101.326 166.478 91.3759Z" fill="#129580"/>
<path d="M182.835 71.1831C179.786 69.7453 177.873 66.6521 176.722 62.9889C177.953 60.0624 181.535 54.6191 186.007 56.2579C187.83 65.2776 188.196 73.7106 182.835 71.1831Z" fill="#129580"/>
<path d="M265.476 73.3169C277.144 78.8076 289.202 79.3291 277.182 66.5006C275.739 64.9609 274.063 63.65 272.216 62.5392C261.701 57.7311 263.342 67.721 265.476 73.3169Z" fill="#129580"/>
<path d="M166.478 77.0362C173.255 81.0163 173.586 75.7681 172.904 72.6465C171.976 59.9936 168.233 70.301 166.478 77.0362Z" fill="#65BD96"/>
<path d="M182.835 71.1832C181.159 70.3931 179.827 69.1029 178.775 67.4928C178.917 62.0781 180.726 53.198 186.823 60.9952C187.777 67.9503 187.234 73.2573 182.835 71.1832Z" fill="#65BD96"/>
<path d="M199.985 103.525C202.845 109.39 206.109 112.873 208.248 106.301C209.245 103.236 209.099 100.747 208.248 98.7418C197.379 92.6943 198.211 99.411 199.985 103.525Z" fill="#65BD96"/>
<path d="M184.993 109.857C186.623 113.049 188.363 113.737 189.846 108.642C190.761 105.497 190.768 102.936 190.202 100.867C183.973 93.675 184.134 103.864 184.993 109.857Z" fill="#65BD96"/>
<path d="M216.633 124.2C221.261 126.651 224.26 126.879 221.684 121.226C220.964 119.646 220.143 118.341 219.253 117.271C212.401 114.107 214.652 120.572 216.633 124.2Z" fill="#65BD96"/>
<path d="M239.927 150.295C241.894 150.006 244.147 148.214 246.512 143.76C249.726 137.707 246.368 132.38 241.254 128.324C230.038 120.046 235.696 139.522 239.927 150.295Z" fill="#65BD96"/>
<path d="M224.35 151.372C227.971 155.597 230.051 156.068 227.818 147.565C226.98 144.376 226.011 141.735 224.963 139.558C221.025 137.195 222.914 146.449 224.35 151.372Z" fill="#65BD96"/>
<path d="M241.254 95.1963C242.307 95.967 243.294 96.3894 244.175 96.3511C247.158 96.2211 246.92 91.9388 245.568 86.9858C244.469 83.9339 241.33 78.0072 237.564 78.7161C233.799 79.4249 238.455 89.9982 241.254 95.1963Z" fill="#65BD96"/>
<path d="M254.104 92.3996C256.171 94.1679 258.037 95.0412 259.364 94.3025C261.219 93.2703 261.249 90.3801 260.436 86.9858C259.211 85.2301 255.994 81.7186 252.923 81.7186C249.851 81.7186 252.43 88.8393 254.104 92.3996Z" fill="#65BD96"/>
<path d="M266.941 92.3996C268.292 93.7311 269.514 94.481 270.464 94.3025C273.936 93.6503 272.411 86.2155 267.565 78.7161C262.031 76.314 264.843 86.8375 266.941 92.3996Z" fill="#65BD96"/>
<path d="M222.237 601.555C217.779 594.844 209.234 592.545 205.519 592.235C188.802 595.031 187.873 607.147 187.873 609.943C187.873 612.74 190.659 616.468 208.306 616.468C225.952 616.468 227.809 609.943 222.237 601.555Z" fill="#054F68"/>
<path d="M211.115 631.957L211.112 631.934L211.11 631.91L209.521 615.231C208.972 614.52 208.317 613.766 207.642 613.123C206.877 612.395 206.162 611.881 205.596 611.669C205.322 611.567 205.149 611.561 205.052 611.578C204.981 611.59 204.899 611.621 204.796 611.751C204.531 612.082 204.22 612.949 204.22 614.852C204.22 617.323 204.014 619.887 203.812 622.318C203.805 622.408 203.797 622.497 203.79 622.586C203.595 624.936 203.412 627.143 203.412 629.089C203.412 631.128 203.616 632.74 204.129 633.861C204.604 634.899 205.333 635.515 206.575 635.67C208.907 635.961 209.991 635.283 210.521 634.584C211.109 633.808 211.226 632.734 211.115 631.957Z" fill="#054F68" stroke="#7ADEEA" stroke-width="2"/>
<path d="M220.183 602.736C216.306 596.92 208.874 594.927 205.643 594.658C191.103 597.082 190.295 607.583 190.295 610.006C190.295 612.429 192.719 615.66 208.066 615.66C223.414 615.66 225.029 610.006 220.183 602.736Z" fill="#15DCF0"/>
<path d="M216.952 605.159C216.306 600.636 209.682 598.428 206.451 597.889C194.819 603.059 196.758 607.583 199.181 609.198C205.374 609.737 217.599 609.683 216.952 605.159Z" fill="#ADF7F9"/>
<path d="M228.086 553.735C225.097 549.111 219.37 547.527 216.879 547.313C205.673 549.239 205.05 557.589 205.05 559.515C205.05 561.442 206.918 564.011 218.747 564.011C230.576 564.011 231.821 559.515 228.086 553.735Z" fill="#054F68"/>
<path d="M220.304 574.724L220.3 574.702L220.298 574.679L219.241 563.27C218.892 562.81 218.483 562.331 218.065 561.922C217.561 561.428 217.121 561.113 216.807 560.993C216.734 560.964 216.685 560.954 216.656 560.95C216.544 561.099 216.338 561.611 216.338 562.898C216.338 564.614 216.199 566.392 216.064 568.066C216.059 568.125 216.054 568.185 216.049 568.244C215.918 569.869 215.796 571.379 215.796 572.708C215.796 574.104 215.934 575.163 216.252 575.876C216.532 576.508 216.933 576.845 217.631 576.934C219.1 577.123 219.692 576.683 219.961 576.317C220.293 575.868 220.372 575.214 220.304 574.724Z" fill="#054F68" stroke="#7ADEEA" stroke-width="2"/>
<path d="M226.709 554.549C224.11 550.541 219.128 549.168 216.962 548.983C207.216 550.653 206.674 557.888 206.674 559.558C206.674 561.228 208.299 563.455 218.587 563.455C228.875 563.455 229.958 559.558 226.709 554.549Z" fill="#15DCF0"/>
<path d="M224.543 556.219C224.11 553.102 219.67 551.58 217.504 551.209C209.707 554.772 211.006 557.889 212.631 559.002C216.782 559.373 224.976 559.336 224.543 556.219Z" fill="#ADF7F9"/>
<path d="M190.897 615.409C187.99 611.032 182.417 609.533 179.994 609.33C169.091 611.154 168.486 619.056 168.486 620.879C168.486 622.703 170.303 625.134 181.811 625.134C193.32 625.134 194.531 620.879 190.897 615.409Z" fill="#054F68"/>
<path d="M183.301 635.285L183.297 635.262L183.295 635.238L182.269 624.461C181.933 624.032 181.541 623.586 181.14 623.204C180.651 622.74 180.226 622.444 179.924 622.331C179.857 622.306 179.812 622.295 179.783 622.291C179.685 622.431 179.496 622.902 179.496 624.081C179.496 625.709 179.36 627.395 179.229 628.978C179.224 629.034 179.219 629.09 179.215 629.145C179.087 630.685 178.969 632.111 178.969 633.366C178.969 634.684 179.103 635.672 179.405 636.333C179.669 636.91 180.047 637.227 180.727 637.312C182.16 637.491 182.729 637.07 182.98 636.739C183.289 636.331 183.365 635.734 183.301 635.285Z" fill="#054F68" stroke="#7ADEEA" stroke-width="2"/>
<path d="M189.559 616.179C187.03 612.386 182.183 611.086 180.076 610.911C170.594 612.491 170.067 619.34 170.067 620.92C170.067 622.5 171.647 624.608 181.657 624.608C191.666 624.608 192.719 620.92 189.559 616.179Z" fill="#15DCF0"/>
<path d="M187.451 617.759C187.029 614.809 182.709 613.369 180.602 613.018C173.016 616.39 174.28 619.34 175.861 620.393C179.9 620.745 187.872 620.709 187.451 617.759Z" fill="#ADF7F9"/>
<path d="M-6.32927 138.286C-10.5885 131.462 3.25392 99.6621 10.7075 84.6152C40.5219 47.0811 80.3927 45.2802 96.6013 49.0715C112.692 53.4553 142.743 63.5734 134.224 68.976C129.759 71.8082 124.544 72.64 120.701 72.7297C131.703 76.1992 154.059 93.6355 144.872 95.2783C136.922 96.7001 125.233 92.7903 120.382 90.6577C135.526 98.4773 162.69 114.97 150.196 118.382C134.579 122.647 126.771 109.14 134.224 118.382C141.678 127.623 139.193 138.286 134.224 138.286C131.318 138.286 127.982 134.487 125.658 131.054C125.714 132.931 124.474 135.402 120.382 138.286C114.428 142.482 107.09 135.946 102.225 129.597C106.117 135.874 109.419 143.262 104.41 143.262C96.2464 143.262 98.7309 138.286 90.9224 131.533C97.6661 142.551 88.7928 140.063 84.1786 143.262C90.9224 143.262 108.669 159.257 96.6013 160.679C91.5705 161.271 87.8633 161.118 85.299 160.7C89.2146 162.261 94.4322 164.94 98.7309 168.854C106.539 175.963 97.6661 177.029 90.9224 177.029C98.8729 177.598 103.227 190.062 104.41 196.222C101.334 200.369 94.3297 207.028 90.9224 200.488C87.515 207.881 80.511 200.725 77.4349 196.222C79.2096 199.54 80.6293 206.672 72.1109 208.663C64.8659 210.356 60.3595 203.769 58.3735 198.701C58.5005 201.216 56.2867 203.816 47.2656 202.976C35.0559 201.838 34.3697 169.565 35.5528 153.57C33.7782 157.361 29.377 163.807 25.9696 159.257C22.5623 154.707 24.5499 146.698 25.9696 143.262C20.8823 150.016 9.07483 161.532 2.54407 153.57C-1.38112 148.785 0.394998 142.305 3.61863 136.738C-0.0161629 140.266 -3.91437 142.156 -6.32927 138.286Z" fill="#021219"/>
<path d="M8.75071 117.323C0.529819 112.494 7.9239 93.5363 12.6485 84.6607C18.3181 92.3292 17.6094 106.08 16.5464 111.997C17.3732 115.784 16.9716 122.151 8.75071 117.323Z" fill="#0A413E"/>
<path d="M28.5942 110.222C18.956 105.678 18.6725 87.5009 19.7355 78.9804C21.4666 72.621 24.0569 72.5488 26.1338 74.1946C24.3067 71.8409 24.8668 69.7498 32.1377 69.7498C47.7291 69.7498 55.8791 83.2406 56.5878 88.2109C57.2965 93.1812 50.2095 97.0865 48.4378 94.6013C47.0204 92.6132 36.9805 83.359 32.1377 78.9804C30.6377 78.0923 28.9645 76.9479 27.6429 75.7691C28.003 76.2393 28.3244 76.7322 28.5942 77.2053C32.6102 90.1044 38.2325 114.767 28.5942 110.222Z" fill="#0A413E"/>
<path d="M75.7226 84.6607C60.4148 80.1165 46.666 69.7498 41.7051 65.1345C43.2407 61.3476 54.32 53.0638 86.3531 50.2236C38.516 39.218 118.599 22.177 119.662 33.5376C120.512 42.6262 110.803 44.8983 105.842 44.8983C116.591 46.9101 136.954 52.9928 132.418 61.2293C127.883 69.4658 117.772 67.2647 113.284 65.1345C119.544 70.6965 131.072 82.3886 127.103 84.6607C123.134 86.9329 108.205 77.0869 101.236 71.8799C103.362 75.6668 106.338 83.5247 101.236 84.6607C96.1331 85.7968 87.0618 80.1638 83.1639 77.2053C87.0618 81.5839 91.0305 89.205 75.7226 84.6607Z" fill="#0A413E"/>
<path d="M88.4792 94.6013C101.236 92.1161 130.009 90.625 143.049 104.542C159.349 121.938 139.151 119.098 123.914 110.222C135.253 121.228 140.568 137.204 134.899 138.269C130.841 139.031 122.699 125.832 117.984 117.026C121.648 124.426 125.897 135.784 121.434 138.269C116.331 141.109 104.661 124.305 99.464 115.547C103.362 123.831 109.527 140.47 103.007 140.754C97.1268 141.01 87.345 124.342 81.9298 113.517C81.8885 114.805 81.2009 116.353 79.2661 118.033C73.9509 122.648 59.4226 110.577 59.4226 104.542C59.4226 98.5065 74.3052 97.4414 80.3292 100.992C86.3531 104.542 80.3292 95.7521 88.4792 94.6013Z" fill="#0A413E"/>
<path d="M41.7051 114.127C48.5559 113.181 63.1787 113.772 66.8639 123.713C71.4704 136.139 16.5464 110.932 41.7051 114.127Z" fill="#0A413E"/>
<path d="M43.8312 134.719C50.8001 135.31 63.6748 139.76 59.4226 152.825C55.1704 165.89 47.2566 146.198 43.8312 134.719Z" fill="#0A413E"/>
<path d="M53.0443 163.12C58.1233 160.28 69.7696 157.866 75.7226 170.931C81.6757 183.996 63.0842 171.167 53.0443 163.12Z" fill="#0A413E"/>
<path d="M65.4465 147.499C69.6987 147.736 77.707 149.701 75.7226 155.665C73.7383 161.629 68.0451 152.706 65.4465 147.499Z" fill="#0A413E"/>
<path d="M79.2661 142.884C87.1799 143.121 103.007 146.86 103.007 159.925C103.007 172.99 87.1799 154.008 79.2661 142.884Z" fill="#0A413E"/>
<path d="M105.842 198.267C112.929 184.919 93.6763 174.481 83.1639 170.931C78.9118 183.974 86.1169 196.01 90.2509 200.398C92.4951 205.25 98.7553 211.616 105.842 198.267Z" fill="#0A413E"/>
<path d="M62.2574 182.647C66.8639 180.398 77.4944 181.297 83.1639 202.883C88.8335 224.468 71.5886 198.386 62.2574 182.647Z" fill="#0A413E"/>
<path d="M25.4051 136.849C30.9566 137.44 41.0673 142.032 37.0986 155.665C33.1299 169.298 27.6493 148.801 25.4051 136.849Z" fill="#0A413E"/>
<path d="M8.75071 134.719C15.3652 136.612 27.1768 143.452 21.5073 155.665C15.8377 167.878 10.6406 146.789 8.75071 134.719Z" fill="#0A413E"/>
<path d="M16.5464 111.997C17.3732 115.784 16.9716 122.151 8.75071 117.323C5.95511 115.681 4.96524 112.405 5.06207 108.447C9.24409 105.962 17.2893 99.2166 16.0142 92.1162C17.8995 99.3297 17.3157 107.715 16.5464 111.997Z" fill="#129580"/>
<path d="M56.5878 88.2109C57.2965 93.1812 50.2095 97.0865 48.4378 94.6013C47.8704 93.8055 45.9212 91.8452 43.4769 89.4995C47.4928 89.8117 54.2491 87.622 49.1465 76.3652C53.7305 80.5169 56.211 85.5683 56.5878 88.2109Z" fill="#129580"/>
<path d="M116.473 114.127C116.946 114.987 117.459 115.966 117.984 117.026C118.492 117.974 119.039 118.973 119.617 120.001C117.085 115.336 115.345 108.299 126.394 112.811C135.998 123.572 140.137 137.285 134.899 138.269C131.377 138.93 124.781 129.078 120.016 120.706C119.882 120.479 119.749 120.243 119.617 120.001C119.039 118.973 118.492 117.974 117.984 117.026C121.648 124.426 125.897 135.785 121.434 138.269C117.578 140.415 109.971 131.343 104.242 123.003C100.523 117.796 97.7631 108.731 116.473 114.127Z" fill="#129580"/>
<path d="M103.007 140.754C109.527 140.47 103.362 123.831 99.464 115.548C81.8883 102.483 81.2741 110.363 83.1639 115.937C88.7329 126.654 97.5501 140.992 103.007 140.754Z" fill="#129580"/>
<path d="M43.8312 134.719C50.8001 135.31 63.6748 139.76 59.4226 152.825C55.1704 165.89 47.2566 146.198 43.8312 134.719Z" fill="#129580"/>
<path d="M53.0443 163.121C58.1233 160.28 69.7696 157.866 75.7226 170.931C81.6757 183.996 63.0842 171.168 53.0443 163.121Z" fill="#129580"/>
<path d="M65.4465 147.5C69.6987 147.736 77.707 149.701 75.7226 155.665C73.7383 161.629 68.0451 152.707 65.4465 147.5Z" fill="#129580"/>
<path d="M105.842 198.268C112.929 184.919 93.6763 174.481 83.1639 170.931C78.9118 183.974 86.1168 196.01 90.2509 200.398C92.4951 205.25 98.7553 211.617 105.842 198.268Z" fill="#129580"/>
<path d="M62.2574 182.647C66.8639 180.398 77.4944 181.298 83.1639 202.883C88.8335 224.468 71.5886 198.386 62.2574 182.647Z" fill="#129580"/>
<path d="M25.4051 136.849C30.9566 137.441 41.0673 142.032 37.0986 155.665C33.1299 169.298 27.6493 148.801 25.4051 136.849Z" fill="#129580"/>
<path d="M8.75071 134.719C15.3652 136.612 27.1768 143.452 21.5073 155.665C15.8377 167.878 10.6406 146.79 8.75071 134.719Z" fill="#129580"/>
<path d="M28.5942 110.222C24.8949 108.478 22.5737 104.726 21.1778 100.282C22.6719 96.7315 27.0167 90.1281 32.4425 92.1162C34.6532 103.058 35.0975 113.288 28.5942 110.222Z" fill="#129580"/>
<path d="M128.848 112.811C143.003 119.472 157.631 120.105 143.049 104.542C141.299 102.674 139.265 101.084 137.025 99.7362C124.268 93.9034 126.259 106.022 128.848 112.811Z" fill="#129580"/>
<path d="M8.75049 117.323C16.9714 122.151 17.373 115.784 16.5462 111.997C15.4199 96.6477 10.8798 109.152 8.75049 117.323Z" fill="#65BD96"/>
<path d="M28.594 110.222C26.5609 109.264 24.9441 107.698 23.6683 105.745C23.8411 99.1765 26.0355 88.4037 33.4315 97.8627C34.5888 106.3 33.9307 112.738 28.594 110.222Z" fill="#65BD96"/>
<path d="M49.3989 149.457C52.8688 156.571 56.8274 160.798 59.4224 152.825C60.6325 149.107 60.4555 146.086 59.4224 143.654C46.237 136.318 47.2461 144.466 49.3989 149.457Z" fill="#65BD96"/>
<path d="M31.211 157.139C33.1892 161.011 35.2992 161.845 37.0984 155.665C38.2091 151.849 38.217 148.742 37.5307 146.233C29.9745 137.508 30.1691 149.868 31.211 157.139Z" fill="#65BD96"/>
<path d="M69.5953 174.538C75.2093 177.512 78.8472 177.789 75.7224 170.931C74.849 169.014 73.853 167.43 72.7732 166.132C64.4608 162.294 67.1911 170.137 69.5953 174.538Z" fill="#65BD96"/>
<path d="M97.8539 206.195C100.24 205.844 102.973 203.671 105.842 198.267C109.741 190.924 105.668 184.461 99.4638 179.542C85.8568 169.499 92.7209 193.126 97.8539 206.195Z" fill="#65BD96"/>
<path d="M78.9566 207.501C83.3492 212.627 85.8732 213.199 83.1637 202.883C82.1476 199.014 80.9721 195.81 79.7005 193.169C74.9234 190.303 77.2141 201.529 78.9566 207.501Z" fill="#65BD96"/>
<path d="M99.4638 139.353C100.741 140.288 101.938 140.8 103.007 140.754C106.626 140.596 106.337 135.401 104.697 129.393C103.364 125.69 99.5558 118.501 94.9875 119.36C90.4191 120.22 96.0682 133.047 99.4638 139.353Z" fill="#65BD96"/>
<path d="M115.052 135.96C117.56 138.105 119.823 139.165 121.433 138.269C123.683 137.017 123.719 133.51 122.733 129.393C121.248 127.263 117.345 123.003 113.619 123.003C109.893 123.003 113.022 131.641 115.052 135.96Z" fill="#65BD96"/>
<path d="M130.625 135.96C132.264 137.576 133.746 138.485 134.899 138.269C139.11 137.478 137.26 128.458 131.382 119.36C124.668 116.446 128.08 129.213 130.625 135.96Z" fill="#65BD96"/>
<defs>
<filter id="filter0_i_422_13900" x="-14.0713" y="605.774" width="376.422" height="181.164" filterUnits="userSpaceOnUse" color-interpolation-filters="sRGB">
<feFlood flood-opacity="0" result="BackgroundImageFix"/>
<feBlend mode="normal" in="SourceGraphic" in2="BackgroundImageFix" result="shape"/>
<feColorMatrix in="SourceAlpha" type="matrix" values="0 0 0 0 0 0 0 0 0 0 0 0 0 0 0 0 0 0 127 0" result="hardAlpha"/>
<feOffset dx="3" dy="2"/>
<feComposite in2="hardAlpha" operator="arithmetic" k2="-1" k3="1"/>
<feColorMatrix type="matrix" values="0 0 0 0 0.517647 0 0 0 0 0.831373 0 0 0 0 0.713726 0 0 0 1 0"/>
<feBlend mode="normal" in2="shape" result="effect1_innerShadow_422_13900"/>
</filter>
<filter id="filter1_i_422_13900" x="13.7183" y="547.388" width="270.167" height="52.271" filterUnits="userSpaceOnUse" color-interpolation-filters="sRGB">
<feFlood flood-opacity="0" result="BackgroundImageFix"/>
<feBlend mode="normal" in="SourceGraphic" in2="BackgroundImageFix" result="shape"/>
<feColorMatrix in="SourceAlpha" type="matrix" values="0 0 0 0 0 0 0 0 0 0 0 0 0 0 0 0 0 0 127 0" result="hardAlpha"/>
<feOffset dx="3" dy="2"/>
<feComposite in2="hardAlpha" operator="arithmetic" k2="-1" k3="1"/>
<feColorMatrix type="matrix" values="0 0 0 0 0.517647 0 0 0 0 0.831373 0 0 0 0 0.713726 0 0 0 1 0"/>
<feBlend mode="normal" in2="shape" result="effect1_innerShadow_422_13900"/>
</filter>
<filter id="filter2_i_422_13900" x="92.1313" y="568.605" width="270.167" height="52.271" filterUnits="userSpaceOnUse" color-interpolation-filters="sRGB">
<feFlood flood-opacity="0" result="BackgroundImageFix"/>
<feBlend mode="normal" in="SourceGraphic" in2="BackgroundImageFix" result="shape"/>
<feColorMatrix in="SourceAlpha" type="matrix" values="0 0 0 0 0 0 0 0 0 0 0 0 0 0 0 0 0 0 127 0" result="hardAlpha"/>
<feOffset dx="3" dy="2"/>
<feComposite in2="hardAlpha" operator="arithmetic" k2="-1" k3="1"/>
<feColorMatrix type="matrix" values="0 0 0 0 0.517647 0 0 0 0 0.831373 0 0 0 0 0.713726 0 0 0 1 0"/>
<feBlend mode="normal" in2="shape" result="effect1_innerShadow_422_13900"/>
</filter>
<linearGradient id="paint0_linear_422_13900" x1="381.804" y1="561.15" x2="381.804" y2="617.302" gradientUnits="userSpaceOnUse">
<stop stop-color="#83E0B7"/>
<stop offset="1" stop-color="#83E0B7" stop-opacity="0"/>
</linearGradient>
<linearGradient id="paint1_linear_422_13900" x1="473.969" y1="197.663" x2="473.969" y2="988.317" gradientUnits="userSpaceOnUse">
<stop stop-color="#025172"/>
<stop offset="1" stop-color="#38E5B0"/>
</linearGradient>
<linearGradient id="paint2_linear_422_13900" x1="261.992" y1="197.663" x2="827.027" y2="197.663" gradientUnits="userSpaceOnUse">
<stop/>
<stop offset="1" stop-opacity="0"/>
</linearGradient>
<linearGradient id="paint3_linear_422_13900" x1="1459.46" y1="802.287" x2="1459.46" y2="1069.42" gradientUnits="userSpaceOnUse">
<stop stop-color="#2CC1FF" stop-opacity="0"/>
<stop offset="1" stop-color="#0BFFB4"/>
</linearGradient>
<linearGradient id="paint4_linear_422_13900" x1="1232.7" y1="802.287" x2="1531.07" y2="802.287" gradientUnits="userSpaceOnUse">
<stop/>
<stop offset="1" stop-opacity="0"/>
</linearGradient>
<linearGradient id="paint5_linear_422_13900" x1="174.14" y1="605.774" x2="174.14" y2="786.938" gradientUnits="userSpaceOnUse">
<stop stop-color="#2D6A3E" stop-opacity="0"/>
<stop offset="1" stop-color="#2D6A3E"/>
</linearGradient>
<linearGradient id="paint6_linear_422_13900" x1="174.14" y1="605.774" x2="174.14" y2="786.938" gradientUnits="userSpaceOnUse">
<stop stop-color="#2D6A3E" stop-opacity="0"/>
<stop offset="1" stop-color="#2D6A3E"/>
</linearGradient>
<linearGradient id="paint7_linear_422_13900" x1="176.453" y1="559.305" x2="159.386" y2="632.183" gradientUnits="userSpaceOnUse">
<stop stop-color="#2D6A3E"/>
<stop offset="0.572917" stop-color="#2D6A3E" stop-opacity="0"/>
</linearGradient>
<linearGradient id="paint8_linear_422_13900" x1="254.866" y1="580.523" x2="237.799" y2="653.401" gradientUnits="userSpaceOnUse">
<stop stop-color="#2D6A3E"/>
<stop offset="0.572917" stop-color="#2D6A3E" stop-opacity="0"/>
</linearGradient>
<radialGradient id="paint9_radial_422_13900" cx="0" cy="0" r="1" gradientUnits="userSpaceOnUse" gradientTransform="translate(66.2374 66.2374) rotate(90) scale(66.2374)">
<stop offset="0.171875" stop-color="#33C2E2"/>
<stop offset="1" stop-color="#045A7D" stop-opacity="0"/>
</radialGradient>
<linearGradient id="paint10_linear_422_13900" x1="55.9065" y1="462.166" x2="55.9065" y2="574.583" gradientUnits="userSpaceOnUse">
<stop offset="0.0260417" stop-color="#5FDAEB" stop-opacity="0.31"/>
<stop offset="1" stop-color="#5CF1DC"/>
</linearGradient>
<linearGradient id="paint11_linear_422_13900" x1="51.6856" y1="513.548" x2="51.6856" y2="554.789" gradientUnits="userSpaceOnUse">
<stop offset="0.0260417" stop-color="#5FDAEB" stop-opacity="0.31"/>
<stop offset="1" stop-color="#5CF1DC"/>
</linearGradient>
<linearGradient id="paint12_linear_422_13900" x1="53.4632" y1="526.487" x2="53.4632" y2="565.719" gradientUnits="userSpaceOnUse">
<stop offset="0.0260417" stop-color="#5FDAEB" stop-opacity="0.31"/>
<stop offset="1" stop-color="#5CF1DC"/>
</linearGradient>
<linearGradient id="paint13_linear_422_13900" x1="59.0339" y1="446.836" x2="59.0339" y2="484.805" gradientUnits="userSpaceOnUse">
<stop offset="0.0260417" stop-color="#5FDAEB" stop-opacity="0.31"/>
<stop offset="1" stop-color="#5CF1DC"/>
</linearGradient>
</defs>
</svg>
