<svg width="133" height="133" viewBox="0 0 133 133" fill="none" xmlns="http://www.w3.org/2000/svg">
<circle cx="66.2374" cy="66.2374" r="66.2374" transform="matrix(-1 0 0 1 132.475 0.22168)" fill="url(#paint0_radial_0_1)"/>
<path fill-rule="evenodd" clip-rule="evenodd" d="M75.516 3.3602C59.7589 -0.486745 43.62 1.83734 35.5104 9.78714C44.7312 6.67024 59.6841 4.48398 74.3665 8.06855C88.9274 11.6234 103.27 20.8498 111.663 40.7443C116.954 53.2862 117.821 64.045 115.965 73.0504C114.108 82.0636 109.487 89.4964 103.52 95.3189C97.5417 101.153 90.2346 105.344 83.1098 107.828C75.9496 110.325 69.1716 111.03 64.2555 110.119C43.0161 106.186 26.5976 93.8424 25.8474 72.8347C25.0745 51.1951 38.1707 33.878 56.1349 30.884C65.0036 29.4059 75.1802 32.7385 82.4794 39.3742C89.7145 45.9515 93.9376 55.5915 91.3419 66.7161C88.7512 77.8192 81.2817 83.2291 73.3457 84.7798C65.1969 86.3721 56.8271 83.8582 52.6705 79.3552C48.4976 74.8346 47.1571 67.2851 49.0683 61.0053C50.0085 57.9162 51.6949 55.2842 54.0491 53.5159C56.373 51.7704 59.5046 50.7457 63.6043 51.1022C67.8204 51.4688 70.3464 52.8095 71.8252 54.3448C73.3063 55.8825 73.9719 57.8583 74.0128 59.9433C74.0542 62.056 73.4453 64.1663 72.5158 65.7495C71.5261 67.4353 70.4963 68.0282 69.9758 68.0932C67.1885 68.4416 65.68 67.6674 65.191 67.1376C64.9778 66.9067 64.9657 66.7544 64.9708 66.6709C64.9772 66.5673 65.0387 66.2383 65.5278 65.7492C66.0168 65.2601 63.6181 60.6084 62.1007 62.3221C60.5833 64.0358 60.2279 64.8361 60.1333 66.3732C60.0375 67.9306 60.6311 69.3433 61.6297 70.425C63.564 72.5205 66.9021 73.3618 70.577 72.9024C73.2876 72.5636 75.3879 70.4303 76.6953 68.2034C78.0629 65.8739 78.9181 62.8851 78.8585 59.8483C78.7984 56.7838 77.798 53.5595 75.316 50.9826C72.8317 48.4034 69.0974 46.7149 64.0241 46.2737C58.8344 45.8225 54.4942 47.1201 51.1384 49.6406C47.8129 52.1384 45.6119 55.7162 44.4317 59.5941C42.1021 67.2484 43.5888 76.6621 49.1092 82.6426C54.6459 88.6406 64.8548 91.3772 74.2751 89.5365C83.9081 87.6542 92.9981 80.9475 96.0617 67.8174C99.1204 54.7088 94.0541 43.3466 85.7396 35.788C77.4892 28.2876 65.856 24.3503 55.3381 26.1033C34.5292 29.5714 20.1611 49.412 21.0038 73.0076C21.8691 97.2352 40.9926 110.74 63.373 114.885C69.3617 115.994 77.0227 115.083 84.7053 112.405C92.4233 109.714 100.363 105.171 106.905 98.7877C113.459 92.3927 118.632 84.1244 120.712 74.0287C122.794 63.9252 121.743 52.1673 116.129 38.8604C107.074 17.397 91.3947 7.23682 75.516 3.3602Z" fill="#DBFAFD"/>
<path fill-rule="evenodd" clip-rule="evenodd" d="M27.0886 23.7795C12.0946 34.2331 1.4955 52.055 4.87153 75.6872C8.25357 99.3615 23.9506 113.924 42.3655 120.829C60.6784 127.697 81.9389 127.113 97.1097 120.371C109.321 114.944 117.879 105.504 123.402 96.0103C128.902 86.5571 130.052 76.9605 126.822 70.4416C126.698 75.7428 124.389 84.6764 119.213 93.573C114.061 102.429 106.194 111.03 95.1413 115.942C81.2323 122.124 61.2964 122.752 44.0673 116.291C26.9402 109.869 12.7496 96.5627 9.66946 75.0018C6.5833 53.3987 16.1785 37.2941 29.8605 27.7553C43.6719 18.1262 61.4143 15.3453 74.258 20.2561C87.5028 25.3203 97.0423 34.0053 101.582 44.3132C106.098 54.569 105.785 66.6923 98.8601 79.0032C92.0805 91.0557 81.2094 95.5897 70.8062 96.3532C65.5841 96.7365 60.5142 96.1609 56.2285 95.1045C51.9037 94.0384 48.543 92.5244 46.6612 91.1558C42.7051 88.2786 38.1306 82.0843 35.8367 74.7245C33.561 67.4236 33.6396 59.3647 38.3503 52.4798C43.2224 45.359 50.6713 40.9307 58.3899 40.1956C66.042 39.4668 74.1416 42.3461 80.5099 50.2129C86.492 57.6025 84.7894 65.9501 79.9002 71.2837C74.9436 76.6909 67.3154 78.473 61.3271 73.4828C58.0881 70.7837 57.2135 68.3473 57.2386 66.5432C57.2644 64.6814 58.2531 62.9362 59.7983 61.6684C61.3776 60.3725 63.2174 59.8368 64.5506 60.0239C65.1782 60.112 65.6772 60.3519 66.0657 60.7321C66.4575 61.1153 65.4772 62.0877 67.0456 64.0361C68.614 65.9846 72.226 63.8486 71.8453 61.945C71.4645 60.0414 70.663 58.4494 69.455 57.2676C68.2438 56.0827 66.7549 55.4391 65.2242 55.2243C62.2409 54.8056 59.0826 55.9863 56.724 57.9216C54.3313 59.8848 52.4423 62.8852 52.3924 66.4759C52.3417 70.1242 54.1934 73.847 58.2244 77.2061C66.776 84.3324 77.3227 81.2679 83.4729 74.5587C89.6907 67.7757 92.0269 56.7369 84.2769 47.1634C76.9131 38.0669 67.2416 34.484 57.9304 35.3708C48.6858 36.2512 39.9792 41.5162 34.3503 49.743C28.56 58.2058 28.6385 67.918 31.2096 76.1667C33.7622 84.3564 38.8811 91.4904 43.8105 95.0754C46.3714 96.9379 50.3816 98.655 55.0685 99.8103C59.7946 100.975 65.3771 101.611 71.161 101.187C82.7695 100.335 95.3239 95.1755 103.084 81.3793C110.699 67.8415 111.194 54.116 106.017 42.3599C100.863 30.6559 90.2083 21.1659 75.9889 15.7291C61.3682 10.1388 41.9531 13.4163 27.0886 23.7795Z" fill="#DBFAFD"/>
<defs>
<radialGradient id="paint0_radial_0_1" cx="0" cy="0" r="1" gradientUnits="userSpaceOnUse" gradientTransform="translate(66.2374 66.2374) rotate(90) scale(66.2374)">
<stop offset="0.171875" stop-color="#33C2E2"/>
<stop offset="1" stop-color="#045A7D" stop-opacity="0"/>
</radialGradient>
</defs>
</svg>
