<?xml version="1.0" encoding="utf-8"?>
<svg viewBox="88.1915 129.164 69.1878 115.012" xmlns="http://www.w3.org/2000/svg">
  <path d="M 136.584 212.469 C 131.168 212.883 117.719 215.298 107.247 221.648 C 94.157 229.584 127.801 223.98 136.584 212.469 Z" fill="#1AD8D1"/>
  <path d="M 124.215 217.552 C 128.77 213.71 134.455 212.472 136.728 212.333 C 121.865 224.438 110.578 238.381 96.202 224.807 C 98.239 224.707 102.823 224.44 104.852 224.168 L 104.895 224.162 C 107.513 223.81 118.552 222.327 124.215 217.552 Z" fill="#035B69"/>
  <path d="M 104.861 206.066 C 99.443 204.352 95.767 205.218 90.76 210.462 C 90.522 212.092 89.99 215.756 90.638 216.563 C 91.286 217.369 94.75 213.745 96.4 211.833 L 103.296 211.209 L 110.304 215.92 L 127.803 208.333 L 118.053 201.571 C 115.215 204.054 108.038 207.071 104.861 206.066 Z" fill="#31E7BD"/>
  <path d="M 99.599 219.442 C 100.181 218.033 102.63 215.426 107.768 216.261 C 114.19 217.306 102.957 224.178 99.599 219.442 Z" fill="#FCDB8F"/>
  <path d="M 106.63 212.296 C 114.18 207.819 120.089 206.733 122.1 206.75 L 127.039 208.098 L 111.426 215.955 C 111.171 215.877 109.855 215.036 106.63 212.296 Z" fill="#014250"/>
  <path d="M 115.182 201.41 C 113.575 199.699 109.19 197.404 104.501 201.915 C 109.253 206.976 111.133 205.212 115.182 201.41 Z" fill="#FEC670"/>
  <path d="M 92.272 218.158 C 94.588 217.389 100.249 216.599 104.364 219.592 C 109.509 223.332 94.99 225.4 92.272 218.158 Z" fill="#FEC670"/>
  <path d="M 134.325 203.979 C 131.019 203.818 125.447 202.974 122.653 202.558 C 127.486 207.706 135.028 208.398 138.195 208.1 L 134.325 203.979 Z" fill="#1AD8D1"/>
  <path d="M 123.006 178.012 L 145.951 202.45 L 141.179 206.931 L 118.234 182.492 L 123.006 178.012 Z" fill="#027C83"/>
  <path d="M 128.879 176.443 L 137.67 182.474 L 141.877 198.113 L 123.006 178.012 L 128.879 176.443 Z" fill="#31E7BD"/>
  <path d="M 121.183 181.287 C 124.271 184.381 131.658 189.273 136.507 184.084 C 142.569 177.598 119.177 173.623 121.183 181.287 Z" fill="#00A393" fill-opacity="0.47"/>
  <path d="M 123.321 174.724 C 125.735 171.152 129.878 170.745 131.647 170.988 L 136.465 173.946 L 142.858 164.816 L 147.084 182.069 C 145.199 182.524 137.807 181.692 123.321 174.724 Z" fill="#FCDB8F"/>
  <path d="M 134.27 176.824 C 125.435 170.427 120.322 171.917 118.87 173.461 L 119.946 179.389 C 121.477 179.04 126.486 178.038 134.27 176.824 Z" fill="#FEC670"/>
  <path d="M 139.075 180.203 L 145.401 179.841 C 148.743 184.212 146.422 193.438 144.844 197.505 L 139.075 180.203 Z" fill="#FEC670"/>
  <path d="M 123.822 161.058 L 121.889 164.505 L 136.339 173.521 C 136.284 173.753 136.445 173.258 137.52 169.419 C 132.44 163.196 126.271 161.253 123.822 161.058 Z" fill="#A2E0D2"/>
  <path d="M 131.072 169.216 C 132.302 164.034 137.377 159.896 139.76 158.474 L 143.141 162.51 L 136.842 175.361 L 131.072 169.216 Z" fill="#1AD8D1"/>
  <path fill-rule="evenodd" clip-rule="evenodd" d="M 150.781 175.419 C 146.072 168.485 146.144 162.037 147.016 159.274 L 151.177 160.587 C 150.738 161.977 150.371 167.049 154.391 172.967 C 159.332 180.242 157.077 187.736 155.193 190.797 L 130.984 239.524 C 130.447 240.604 129.138 241.044 128.059 240.508 C 126.98 239.971 126.539 238.662 127.076 237.583 L 151.382 188.66 L 151.443 188.564 C 152.717 186.553 154.514 180.915 150.781 175.419 Z" fill="#031821"/>
  <path d="M 137.917 159.25 C 126.489 143.152 118.52 135.88 108.355 132.713 C 110.496 137.32 115.044 146.489 106.572 163.719 C 104.155 168.634 103.328 173.095 103.532 177.048 C 103.793 182.106 105.744 186.331 108.218 189.605 C 110.59 192.743 113.442 195.008 115.747 196.295 C 112.325 196.139 98.035 199.764 92.503 212.211 C 92.082 213.158 91.711 214.156 91.4 215.207 C 89.028 223.228 90.964 230.038 95.158 234.792 C 98.739 238.852 103.966 241.413 109.564 241.95 C 119.289 242.883 129.686 228.618 133.67 221.368 L 140.112 208.401 L 147.305 193.925 C 149.114 190.282 147.755 173.106 137.917 159.25 Z" fill="white"/>
  <path d="M 135.925 212.965 C 130.993 215.24 119.227 222.189 111.623 231.788 C 102.118 243.788 131.702 226.814 135.925 212.965 Z" fill="#1AD8D1"/>
  <path d="M 126.102 222.038 C 129.033 216.85 133.931 213.71 136.013 212.788 C 126.297 229.312 120.575 246.313 102.37 238.598 C 104.246 237.795 108.449 235.948 110.256 234.985 L 110.295 234.964 C 112.626 233.723 122.457 228.487 126.102 222.038 Z" fill="#035B69"/>
  <path d="M 103.959 218.014 C 98.283 218.294 95.139 220.387 92.273 227.047 C 92.617 228.658 93.395 232.278 94.283 232.808 C 95.172 233.338 97.156 228.735 98.037 226.367 L 104.283 223.38 L 112.494 225.355 L 126.254 212.147 L 114.759 209.205 C 112.964 212.521 107.287 217.849 103.959 218.014 Z" fill="#31E7BD"/>
  <path d="M 95.827 211.648 C 98.721 205.821 104.715 201.113 113.863 205.659 L 112.23 208.945 C 103.704 204.709 100.747 210.659 99.379 213.413 L 95.827 211.648 Z" fill="#1AD8D1"/>
  <path d="M 103.685 232.385 C 103.741 230.862 105.128 227.564 110.235 226.558 C 116.619 225.3 108.484 235.655 103.685 232.385 Z" fill="#FCDB8F"/>
  <path d="M 107.787 223.238 C 113.305 216.411 118.466 213.335 120.357 212.65 L 125.456 212.193 L 113.558 224.997 C 113.291 225.013 111.765 224.682 107.787 223.238 Z" fill="#014250"/>
  <path d="M 112.012 210.054 C 109.91 209.01 105 208.387 102.176 214.248 C 108.393 217.337 109.54 215.028 112.012 210.054 Z" fill="#FEC670"/>
  <path d="M 96.371 233.734 C 98.274 232.207 103.305 229.494 108.205 230.866 C 114.331 232.58 101.442 239.576 96.371 233.734 Z" fill="#FEC670"/>
  <path d="M 130.851 205.793 C 127.695 206.794 122.178 207.944 119.415 208.527 C 125.738 211.669 133.049 209.69 135.913 208.308 L 130.851 205.793 Z" fill="#1AD8D1"/>
  <path d="M 111.195 185.396 L 141.215 200.311 L 138.303 206.173 L 108.283 191.258 L 111.195 185.396 Z" fill="#027C83"/>
  <path d="M 116.153 181.88 L 126.494 184.47 L 135.886 197.664 L 111.195 185.396 L 116.153 181.88 Z" fill="#31E7BD"/>
  <path d="M 110.627 189.101 C 114.599 190.926 123.228 192.939 125.966 186.385 C 129.388 178.194 106.077 182.617 110.627 189.101 Z" fill="#00A393" fill-opacity="0.47"/>
  <path d="M 110.344 182.205 C 111.362 178.015 115.104 176.19 116.848 175.802 L 122.395 176.896 L 125.206 166.111 L 135.178 180.811 C 133.569 181.895 126.35 183.69 110.344 182.205 Z" fill="#FCDB8F"/>
  <path d="M 117.355 148.701 C 117.951 145.896 117.026 141.413 116.489 139.522 C 120.861 142.491 123.8 148.285 124.723 150.811 C 122.019 151.276 116.759 151.505 117.355 148.701 Z" fill="#1AD8D1"/>
  <path d="M 115.691 157.177 C 121.374 159.291 122.664 155.03 122.599 152.635 C 124.802 154.084 124.126 160.186 123.512 163.056 C 123.245 162.702 121.307 161.03 115.691 157.177 Z" fill="#FEC670"/>
  <path d="M 143.184 172.275 C 139.279 171.221 135.703 172.028 134.403 172.564 C 140.388 189.048 140.971 191.442 142.332 203.192 C 149.272 194.126 145.374 178.79 143.184 172.275 Z" fill="#1AD8D1"/>
  <path d="M 121.339 180.359 C 110.829 177.44 106.555 180.618 105.732 182.571 L 108.806 187.753 C 110.119 186.892 114.465 184.208 121.339 180.359 Z" fill="#FEC670"/>
  <path d="M 127.02 181.852 L 132.823 179.309 C 137.479 182.243 138.517 191.699 138.454 196.06 L 127.02 181.852 Z" fill="#FEC670"/>
  <path d="M 106.053 169.221 L 105.442 173.125 L 122.127 176.542 C 122.158 176.779 122.136 176.259 121.806 172.285 C 114.877 168.223 108.417 168.549 106.053 169.221 Z" fill="#A2E0D2"/>
  <path d="M 115.691 174.341 C 115.039 169.056 118.354 163.408 120.093 161.246 L 124.668 163.851 L 123.24 178.092 L 115.691 174.341 Z" fill="#1AD8D1"/>
  <path d="M 142.818 202.658 C 147.965 186.279 134.233 163.841 127 156.704 C 126.812 158.124 126.33 161.931 125.914 165.799 C 134.981 173.183 140.209 188.516 142.818 202.658 Z" fill="#A2E0D2"/>
  <path d="M 142.818 202.658 C 146.543 190.804 140.381 175.779 133.95 165.675 L 129.481 169.32 C 136.386 177.428 140.573 190.484 142.818 202.658 Z" fill="#069EAF"/>
  <path fill-rule="evenodd" clip-rule="evenodd" d="M 112.317 136.617 C 112.924 138.484 113.44 140.713 113.62 143.332 C 113.756 145.301 113.701 147.467 113.371 149.849 C 113.548 149.663 113.739 149.487 113.943 149.321 C 115.857 147.76 117.981 146.994 120.11 147.354 C 122.219 147.711 123.852 149.09 124.976 150.814 C 127.01 153.938 127.77 158.719 126.966 163.806 C 127.62 164.369 128.263 164.986 128.876 165.672 L 128.906 165.706 L 128.934 165.74 C 138.491 177.363 141.952 189.37 142.712 198.264 L 145.351 192.954 C 145.554 192.544 145.829 191.246 145.803 188.943 C 145.778 186.763 145.49 183.983 144.842 180.86 C 143.547 174.607 140.847 167.145 136.138 160.513 C 126.67 147.177 119.806 140.258 112.317 136.617 Z M 137.713 193.889 C 136.323 186.496 132.893 177.439 125.593 168.547 C 125.512 168.458 125.43 168.369 125.348 168.282 C 125.208 168.753 125.088 169.27 124.996 169.829 C 124.57 172.444 124.805 175.92 126.82 179.793 C 127.415 180.935 128.168 182.119 129.112 183.33 C 129.728 184.121 130.426 184.924 131.215 185.735 C 133.966 188.564 136.092 191.313 137.713 193.889 Z M 122.904 160.624 C 123.028 157.401 122.344 154.769 121.319 153.196 C 120.644 152.16 119.947 151.752 119.383 151.657 C 118.841 151.565 117.951 151.683 116.7 152.703 C 116.431 152.923 116.372 153.071 116.355 153.126 C 116.336 153.189 116.31 153.328 116.381 153.606 C 116.545 154.248 117.107 155.185 118.181 156.374 C 119.485 157.818 121.208 159.28 122.904 160.624 Z M 121.797 165.294 C 121.725 165.459 121.655 165.628 121.587 165.802 C 117.38 163.006 113.153 161.865 109.973 161.546 C 110.951 159.257 111.704 157.106 112.268 155.085 C 112.768 156.629 113.833 158.07 114.942 159.299 C 116.91 161.476 119.631 163.63 121.797 165.294 Z M 108.002 165.808 C 106.9 168.277 106.24 170.59 105.92 172.745 C 107.42 172.102 109.196 171.691 111.204 171.706 C 114.04 171.726 117.215 172.59 120.633 174.679 C 120.426 173.165 120.409 171.732 120.528 170.408 C 115.651 166.644 110.634 165.796 108.002 165.808 Z M 121.067 180.325 C 117.029 177.066 113.671 176.087 111.173 176.069 C 108.71 176.052 106.876 176.962 105.783 177.887 C 106.073 180.788 106.98 183.375 108.223 185.623 C 109.543 184.037 111.344 182.495 113.627 181.466 C 115.779 180.497 118.275 180.022 121.067 180.325 Z M 110.847 189.393 C 112.807 191.688 114.993 193.367 116.766 194.365 L 137.71 204.771 C 136.95 201.186 134.53 195.404 128.086 188.777 C 127.312 187.981 126.607 187.183 125.966 186.387 C 121.351 184.012 117.883 184.335 115.42 185.445 C 113.346 186.379 111.802 187.956 110.847 189.393 Z M 134.221 207.91 L 115.242 198.481 C 114.584 198.518 113.47 198.682 112.016 199.073 C 110.249 199.547 108.119 200.32 105.924 201.462 C 102.034 203.487 98.053 206.614 95.45 211.207 C 100.745 213.662 104.029 214.382 106.318 213.957 C 108.605 213.533 110.471 211.818 112.626 207.48 L 113.597 205.526 L 115.551 206.497 C 121.439 209.422 127.782 209.388 132.639 208.476 C 133.176 208.278 133.704 208.089 134.221 207.91 Z M 135.766 212.246 C 135.152 212.404 134.509 212.552 133.841 212.685 C 131.608 213.523 129.225 214.54 126.924 215.719 C 121.841 218.321 117.632 221.477 115.952 224.858 L 111.386 234.049 L 110.15 233.435 L 111.345 234.121 C 110.364 235.832 108.336 237.877 105.325 238.774 C 105.281 238.787 105.236 238.8 105.192 238.812 C 106.66 239.3 108.198 239.627 109.773 239.778 C 113.57 240.142 117.962 237.492 122.22 233.192 C 126.341 229.03 129.812 223.851 131.736 220.357 L 135.766 212.246 Z M 97.454 233.579 C 100.373 235.067 102.562 235.043 104.079 234.591 C 105.843 234.066 107.014 232.87 107.532 231.999 L 110.022 226.987 C 104.892 224.932 102.047 225.897 100.44 227.285 C 98.711 228.778 97.772 231.271 97.454 233.579 Z M 111.968 223.07 L 112.044 222.916 C 114.036 218.908 118.182 215.64 122.579 213.112 C 120.267 212.805 117.896 212.224 115.548 211.276 C 113.447 214.943 110.909 217.543 107.115 218.248 C 103.455 218.927 99.112 217.713 93.688 215.201 C 93.62 215.407 93.555 215.615 93.493 215.826 C 91.966 220.989 92.402 225.509 94.086 229.191 C 94.803 227.289 95.919 225.423 97.588 223.982 C 100.874 221.145 105.653 220.462 111.968 223.07 Z M 110.276 195.028 C 108.967 193.866 107.666 192.493 106.477 190.92 C 103.793 187.367 101.641 182.733 101.353 177.161 C 101.128 172.803 102.049 167.973 104.614 162.756 C 108.709 154.428 109.582 148.211 109.267 143.632 C 108.961 139.183 107.53 136.109 106.473 133.84 C 106.441 133.77 106.409 133.701 106.377 133.632 L 104.3 129.164 L 109.005 130.63 C 119.887 134.02 128.208 141.805 139.697 157.987 C 144.825 165.21 147.725 173.264 149.115 179.974 C 149.811 183.333 150.138 186.395 150.167 188.894 C 150.194 191.269 149.96 193.484 149.259 194.895 L 135.604 222.379 L 135.582 222.419 C 133.519 226.174 129.81 231.729 125.321 236.263 C 120.952 240.675 115.283 244.691 109.356 244.122 C 103.245 243.535 97.494 240.738 93.522 236.236 C 88.82 230.905 86.728 223.312 89.308 214.588 C 89.647 213.445 90.05 212.358 90.509 211.324 C 93.535 204.518 98.927 200.185 103.909 197.592 C 106.164 196.418 108.363 195.584 110.276 195.028 Z" fill="#031821"/>
  <path d="M 156.021 162.042 C 154.851 164.397 151.994 165.357 149.639 164.187 C 147.285 163.017 146.325 160.16 147.494 157.806 C 148.664 155.451 151.521 154.491 153.876 155.661 C 156.23 156.83 157.191 159.687 156.021 162.042 Z" fill="#031821"/>
</svg>