<svg width="414" height="128" viewBox="0 0 414 128" fill="none" xmlns="http://www.w3.org/2000/svg">
<circle cx="4.03886" cy="4.03886" r="4.03886" transform="matrix(1.19249e-08 -1 -1 -1.19249e-08 33.9268 37.1577)" fill="#D6F9FC"/>
<circle cx="1.61555" cy="1.61555" r="1.61555" transform="matrix(1.19249e-08 -1 -1 -1.19249e-08 64.6221 37.1577)" fill="#D6F9FC"/>
<circle cx="1.61555" cy="1.61555" r="1.61555" transform="matrix(1.19249e-08 -1 -1 -1.19249e-08 82.3931 14.5405)" fill="#D6F9FC"/>
<circle cx="1.61555" cy="1.61555" r="1.61555" transform="matrix(1.19249e-08 -1 -1 -1.19249e-08 106.626 111.473)" fill="#D6F9FC"/>
<circle cx="1.61555" cy="1.61555" r="1.61555" transform="matrix(1.19249e-08 -1 -1 -1.19249e-08 124.397 122.782)" fill="#D6F9FC"/>
<circle cx="1.61555" cy="1.61555" r="1.61555" transform="matrix(1.19249e-08 -1 -1 -1.19249e-08 132.475 45.2356)" fill="#D6F9FC"/>
<circle cx="1.61555" cy="1.61555" r="1.61555" transform="matrix(1.19249e-08 -1 -1 -1.19249e-08 134.09 93.7024)" fill="#D6F9FC"/>
<circle cx="1.61555" cy="1.61555" r="1.61555" transform="matrix(1.19249e-08 -1 -1 -1.19249e-08 134.09 67.8528)" fill="#D6F9FC"/>
<circle cx="1.61555" cy="1.61555" r="1.61555" transform="matrix(1.19249e-08 -1 -1 -1.19249e-08 148.63 105.011)" fill="#D6F9FC"/>
<circle cx="1.61555" cy="1.61555" r="1.61555" transform="matrix(1.19249e-08 -1 -1 -1.19249e-08 172.864 113.088)" fill="#D6F9FC"/>
<circle cx="0.807773" cy="0.807773" r="0.807773" transform="matrix(1.19249e-08 -1 -1 -1.19249e-08 138.938 85.6245)" fill="#D6F9FC"/>
<circle cx="0.807773" cy="0.807773" r="0.807773" transform="matrix(1.19249e-08 -1 -1 -1.19249e-08 156.708 93.7024)" fill="#D6F9FC"/>
<circle cx="0.807773" cy="0.807773" r="0.807773" transform="matrix(1.19249e-08 -1 -1 -1.19249e-08 134.09 63.0068)" fill="#D6F9FC"/>
<circle cx="0.807773" cy="0.807773" r="0.807773" transform="matrix(1.19249e-08 -1 -1 -1.19249e-08 164.786 85.6245)" fill="#D6F9FC"/>
<circle cx="0.807773" cy="0.807773" r="0.807773" transform="matrix(1.19249e-08 -1 -1 -1.19249e-08 145.399 35.543)" fill="#D6F9FC"/>
<circle cx="1.61555" cy="1.61555" r="1.61555" transform="matrix(1.19249e-08 -1 -1 -1.19249e-08 140.553 32.311)" fill="#D6F9FC"/>
<circle cx="0.807773" cy="0.807773" r="0.807773" transform="matrix(1.19249e-08 -1 -1 -1.19249e-08 129.244 35.543)" fill="#D6F9FC"/>
<circle cx="0.807773" cy="0.807773" r="0.807773" transform="matrix(1.19249e-08 -1 -1 -1.19249e-08 147.015 42.0046)" fill="#D6F9FC"/>
<circle cx="4.03886" cy="4.03886" r="4.03886" transform="matrix(1.19249e-08 -1 -1 -1.19249e-08 171.248 80.7778)" fill="#D6F9FC"/>
<circle cx="4.03886" cy="4.03886" r="4.03886" transform="matrix(1.19249e-08 -1 -1 -1.19249e-08 302.107 93.7024)" fill="#D6F9FC"/>
<circle cx="4.03886" cy="4.03886" r="4.03886" transform="matrix(1.19249e-08 -1 -1 -1.19249e-08 302.107 51.6978)" fill="#D6F9FC"/>
<circle cx="3.23109" cy="3.23109" r="3.23109" transform="matrix(1.19249e-08 -1 -1 -1.19249e-08 337.649 82.3936)" fill="#D6F9FC"/>
<circle cx="4.03886" cy="4.03886" r="4.03886" transform="matrix(1.19249e-08 -1 -1 -1.19249e-08 284.336 38.7739)" fill="#D6F9FC"/>
<circle cx="3.23109" cy="3.23109" r="3.23109" transform="matrix(1.19249e-08 -1 -1 -1.19249e-08 245.563 11.3096)" fill="#D6F9FC"/>
<circle cx="1.61555" cy="1.61555" r="1.61555" transform="matrix(1.19249e-08 -1 -1 -1.19249e-08 201.943 72.7)" fill="#D6F9FC"/>
<circle cx="1.61555" cy="1.61555" r="1.61555" transform="matrix(1.19249e-08 -1 -1 -1.19249e-08 100.164 114.705)" fill="#D6F9FC"/>
<circle cx="3.23109" cy="3.23109" r="3.23109" transform="matrix(1.19249e-08 -1 -1 -1.19249e-08 6.4624 51.6978)" fill="#D6F9FC"/>
<circle cx="2.42332" cy="2.42332" r="2.42332" transform="matrix(1.19249e-08 -1 -1 -1.19249e-08 8.07812 69.469)" fill="#D6F9FC"/>
<circle cx="0.807773" cy="0.807773" r="0.807773" transform="matrix(1.19249e-08 -1 -1 -1.19249e-08 4.84668 14.5405)" fill="#D6F9FC"/>
<circle cx="0.807773" cy="0.807773" r="0.807773" transform="matrix(1.19249e-08 -1 -1 -1.19249e-08 6.4624 32.311)" fill="#D6F9FC"/>
<circle cx="0.807773" cy="0.807773" r="0.807773" transform="matrix(1.19249e-08 -1 -1 -1.19249e-08 3.23145 9.69385)" fill="#D6F9FC"/>
<circle cx="1.61555" cy="1.61555" r="1.61555" transform="matrix(1.19249e-08 -1 -1 -1.19249e-08 3.23145 119.551)" fill="#D6F9FC"/>
<circle cx="4.84664" cy="4.84664" r="4.84664" transform="matrix(1.19249e-08 -1 -1 -1.19249e-08 29.0801 84.0083)" fill="#8AF5F7"/>
<circle cx="2.42332" cy="2.42332" r="2.42332" transform="matrix(1.19249e-08 -1 -1 -1.19249e-08 30.6953 56.5444)" fill="#8AF5F7"/>
<circle cx="1.61555" cy="1.61555" r="1.61555" transform="matrix(1.19249e-08 -1 -1 -1.19249e-08 35.5425 96.9333)" fill="#8AF5F7"/>
<circle cx="1.61555" cy="1.61555" r="1.61555" transform="matrix(1.19249e-08 -1 -1 -1.19249e-08 45.2354 114.705)" fill="#8AF5F7"/>
<circle cx="1.61555" cy="1.61555" r="1.61555" transform="matrix(1.19249e-08 -1 -1 -1.19249e-08 54.9287 63.0068)" fill="#8AF5F7"/>
<circle cx="0.807773" cy="0.807773" r="0.807773" transform="matrix(1.19249e-08 -1 -1 -1.19249e-08 38.7734 53.3135)" fill="#8AF5F7"/>
<circle cx="1.61555" cy="1.61555" r="1.61555" transform="matrix(1.19249e-08 -1 -1 -1.19249e-08 45.2354 45.2356)" fill="#8AF5F7"/>
<circle cx="1.61555" cy="1.61555" r="1.61555" transform="matrix(1.19249e-08 -1 -1 -1.19249e-08 48.4663 35.543)" fill="#8AF5F7"/>
<circle cx="0.807773" cy="0.807773" r="0.807773" transform="matrix(1.19249e-08 -1 -1 -1.19249e-08 53.3135 82.3936)" fill="#8AF5F7"/>
<circle cx="0.807773" cy="0.807773" r="0.807773" transform="matrix(1.19249e-08 -1 -1 -1.19249e-08 77.5464 108.242)" fill="#8AF5F7"/>
<circle cx="1.61555" cy="1.61555" r="1.61555" transform="matrix(1.19249e-08 -1 -1 -1.19249e-08 132.475 116.32)" fill="#8AF5F7"/>
<circle cx="1.61555" cy="1.61555" r="1.61555" transform="matrix(1.19249e-08 -1 -1 -1.19249e-08 166.401 117.936)" fill="#8AF5F7"/>
<circle cx="1.61555" cy="1.61555" r="1.61555" transform="matrix(1.19249e-08 -1 -1 -1.19249e-08 135.706 51.6978)" fill="#8AF5F7"/>
<circle cx="2.42332" cy="2.42332" r="2.42332" transform="matrix(1.19249e-08 -1 -1 -1.19249e-08 151.861 96.9333)" fill="#8AF5F7"/>
<circle cx="2.42332" cy="2.42332" r="2.42332" transform="matrix(1.19249e-08 -1 -1 -1.19249e-08 210.021 117.936)" fill="#8AF5F7"/>
<circle cx="2.42332" cy="2.42332" r="2.42332" transform="matrix(1.19249e-08 -1 -1 -1.19249e-08 248.794 122.782)" fill="#8AF5F7"/>
<circle cx="1.61555" cy="1.61555" r="1.61555" transform="matrix(1.19249e-08 -1 -1 -1.19249e-08 195.481 87.2393)" fill="#8AF5F7"/>
<circle cx="1.61555" cy="1.61555" r="1.61555" transform="matrix(1.19249e-08 -1 -1 -1.19249e-08 214.868 90.4712)" fill="#8AF5F7"/>
<circle cx="1.61555" cy="1.61555" r="1.61555" transform="matrix(1.19249e-08 -1 -1 -1.19249e-08 232.639 96.9333)" fill="#8AF5F7"/>
<circle cx="1.61555" cy="1.61555" r="1.61555" transform="matrix(1.19249e-08 -1 -1 -1.19249e-08 213.252 58.1602)" fill="#8AF5F7"/>
<circle cx="1.61555" cy="1.61555" r="1.61555" transform="matrix(1.19249e-08 -1 -1 -1.19249e-08 211.637 51.6978)" fill="#8AF5F7"/>
<circle cx="1.61555" cy="1.61555" r="1.61555" transform="matrix(1.19249e-08 -1 -1 -1.19249e-08 324.725 38.7739)" fill="#8AF5F7"/>
<circle cx="2.42332" cy="2.42332" r="2.42332" transform="matrix(1.19249e-08 -1 -1 -1.19249e-08 319.878 79.1626)" fill="#8AF5F7"/>
<circle cx="2.42332" cy="2.42332" r="2.42332" transform="matrix(1.19249e-08 -1 -1 -1.19249e-08 318.262 64.6221)" fill="#8AF5F7"/>
<circle cx="2.42332" cy="2.42332" r="2.42332" transform="matrix(1.19249e-08 -1 -1 -1.19249e-08 337.649 4.84668)" fill="#8AF5F7"/>
<circle cx="2.42332" cy="2.42332" r="2.42332" transform="matrix(1.19249e-08 -1 -1 -1.19249e-08 339.265 127.628)" fill="#8AF5F7"/>
<circle cx="2.42332" cy="2.42332" r="2.42332" transform="matrix(1.19249e-08 -1 -1 -1.19249e-08 373.191 35.543)" fill="#8AF5F7"/>
<circle cx="4.03886" cy="4.03886" r="4.03886" transform="matrix(1.19249e-08 -1 -1 -1.19249e-08 413.58 58.1602)" fill="#8AF5F7"/>
<circle cx="2.42332" cy="2.42332" r="2.42332" transform="matrix(1.19249e-08 -1 -1 -1.19249e-08 399.04 58.1602)" fill="#8AF5F7"/>
<circle cx="1.61555" cy="1.61555" r="1.61555" transform="matrix(1.19249e-08 -1 -1 -1.19249e-08 329.572 33.9268)" fill="#8AF5F7"/>
<circle cx="1.61555" cy="1.61555" r="1.61555" transform="matrix(1.19249e-08 -1 -1 -1.19249e-08 197.097 51.6978)" fill="#8AF5F7"/>
<circle cx="1.61555" cy="1.61555" r="1.61555" transform="matrix(1.19249e-08 -1 -1 -1.19249e-08 176.095 16.1555)" fill="#8AF5F7"/>
<circle cx="0.807773" cy="0.807773" r="0.807773" transform="matrix(1.19249e-08 -1 -1 -1.19249e-08 203.559 35.543)" fill="#8AF5F7"/>
<circle cx="2.42332" cy="2.42332" r="2.42332" transform="matrix(1.19249e-08 -1 -1 -1.19249e-08 174.479 56.5444)" fill="#8AF5F7"/>
<circle cx="1.61555" cy="1.61555" r="1.61555" transform="matrix(1.19249e-08 -1 -1 -1.19249e-08 161.555 61.3911)" fill="#8AF5F7"/>
<circle cx="3.23109" cy="3.23109" r="3.23109" transform="matrix(1.19249e-08 -1 -1 -1.19249e-08 169.632 40.3889)" fill="#8AF5F7"/>
<circle cx="1.61555" cy="1.61555" r="1.61555" transform="matrix(1.19249e-08 -1 -1 -1.19249e-08 58.1602 88.8555)" fill="#8AF5F7"/>
<circle cx="0.807773" cy="0.807773" r="0.807773" transform="matrix(1.19249e-08 -1 -1 -1.19249e-08 56.5439 50.0823)" fill="#8AF5F7"/>
<circle cx="0.807773" cy="0.807773" r="0.807773" transform="matrix(1.19249e-08 -1 -1 -1.19249e-08 108.242 17.7717)" fill="#8AF5F7"/>
<circle cx="122.782" cy="29.0806" r="1.61555" transform="rotate(90 122.782 29.0806)" fill="#8AF5F7"/>
<circle cx="116.319" cy="8.07844" r="1.61555" transform="rotate(90 116.319 8.07844)" fill="#8AF5F7"/>
<circle cx="134.091" cy="19.3873" r="1.61555" transform="rotate(90 134.091 19.3873)" fill="#8AF5F7"/>
<circle cx="1.61555" cy="1.61555" r="1.61555" transform="matrix(1.19249e-08 -1 -1 -1.19249e-08 61.3911 6.46289)" fill="#8AF5F7"/>
<circle cx="1.61555" cy="1.61555" r="1.61555" transform="matrix(1.19249e-08 -1 -1 -1.19249e-08 80.7773 30.6963)" fill="#8AF5F7"/>
<circle cx="0.807773" cy="0.807773" r="0.807773" transform="matrix(1.19249e-08 -1 -1 -1.19249e-08 75.9312 16.1555)" fill="#8AF5F7"/>
<circle cx="0.807773" cy="0.807773" r="0.807773" transform="matrix(1.19249e-08 -1 -1 -1.19249e-08 66.2378 17.7717)" fill="#8AF5F7"/>
<circle cx="0.807773" cy="0.807773" r="0.807773" transform="matrix(1.19249e-08 -1 -1 -1.19249e-08 64.6221 21.0022)" fill="#8AF5F7"/>
<circle cx="3.23109" cy="3.23109" r="3.23109" transform="matrix(1.19249e-08 -1 -1 -1.19249e-08 27.4644 82.3936)" fill="white"/>
</svg>
