<svg width="129" height="132" viewBox="0 0 129 132" fill="none" xmlns="http://www.w3.org/2000/svg">
<path fill-rule="evenodd" clip-rule="evenodd" d="M104.835 60.41C102.836 52.2699 105.15 46.2503 106.93 43.9639L110.373 46.6445C109.478 47.795 107.367 52.4211 109.073 59.3694C111.17 67.9088 106.446 74.1491 103.613 76.3615L63.9459 113.603C63.0674 114.428 61.6866 114.384 60.8618 113.506C60.037 112.627 60.0806 111.246 60.9591 110.422L100.786 73.0304L100.876 72.9618C102.771 71.521 106.419 66.862 104.835 60.41Z" fill="#031821"/>
<path d="M98.4098 40.7723C93.3047 21.7021 88.3691 12.1094 79.944 5.59963C80.346 10.6635 81.4144 20.8425 67.4707 34.0423C63.4937 37.8072 61.1636 41.7012 59.9782 45.4777C58.4614 50.3097 58.8183 54.9493 59.9966 58.8799C61.1262 62.648 63.0106 65.7645 64.7228 67.774C61.5701 66.4358 46.9125 64.8558 37.3904 74.5954C36.666 75.3364 35.9713 76.1429 35.3136 77.02C30.2958 83.7122 29.7377 90.7698 32.0128 96.6875C33.9553 101.74 37.9629 105.961 43.0235 108.415C51.8138 112.678 66.5296 102.928 72.7887 97.5202L83.3451 87.6094L95.1299 76.5453C98.0951 73.7615 102.804 57.1879 98.4098 40.7723Z" fill="white"/>
<path d="M77.8302 90.4294C72.4147 90.8433 58.9655 93.2583 48.4934 99.6075C35.4033 107.544 69.0476 101.94 77.8302 90.4294Z" fill="#1AD8D1"/>
<path d="M65.4614 95.5116C70.0168 91.6701 75.7016 90.4321 77.9746 90.2933C63.1112 102.398 51.8243 116.341 37.4481 102.767C39.4859 102.667 44.069 102.4 46.0983 102.128L46.1416 102.122C48.7592 101.77 59.7989 100.287 65.4614 95.5116Z" fill="#035B69"/>
<path d="M46.1078 84.0259C40.6893 82.3115 37.0135 83.1778 32.0067 88.4223C31.7682 90.0519 31.2363 93.7163 31.8845 94.5226C32.5326 95.3289 35.996 91.7054 37.6467 89.793L44.5423 89.1685L51.5503 93.88L69.0496 86.2931L59.2998 79.5306C56.4618 82.0137 49.2849 85.0311 46.1078 84.0259Z" fill="#31E7BD"/>
<path d="M40.7022 75.2256C45.4454 70.7725 52.7034 68.4476 59.6952 75.8948L57.02 78.4065C50.5033 71.4653 45.6589 76.0134 43.4175 78.1177L40.7022 75.2256Z" fill="#1AD8D1"/>
<path d="M40.845 97.4015C41.4273 95.9932 43.8764 93.3856 49.014 94.2212C55.436 95.2657 44.2038 102.138 40.845 97.4015Z" fill="#FCDB8F"/>
<path d="M47.8761 90.2559C55.4265 85.7791 61.3357 84.6932 63.3465 84.7098L68.2855 86.0584L52.6721 93.9153C52.4173 93.8371 51.1013 92.9957 47.8761 90.2559Z" fill="#014250"/>
<path d="M56.4284 79.3701C54.8219 77.6589 50.4366 75.3643 45.7478 79.8752C50.4995 84.9364 52.3794 83.1715 56.4284 79.3701Z" fill="#FEC670"/>
<path d="M33.518 96.118C35.8343 95.3491 41.4956 94.5594 45.6109 97.5518C50.7551 101.292 36.2364 103.36 33.518 96.118Z" fill="#FEC670"/>
<path d="M75.5719 81.9385C72.2653 81.7781 66.693 80.9335 63.8996 80.5179C68.7328 85.666 76.2745 86.3576 79.4412 86.0599L75.5719 81.9385Z" fill="#1AD8D1"/>
<path d="M64.2529 55.9717L87.197 80.4104L82.425 84.8906L59.4809 60.4519L64.2529 55.9717Z" fill="#027C83"/>
<path d="M70.1257 54.4032L78.9163 60.4338L83.1239 76.0725L64.2527 55.972L70.1257 54.4032Z" fill="#31E7BD"/>
<path d="M62.4299 59.2466C65.5174 62.3413 72.9046 67.2334 77.7538 62.0444C83.8152 55.558 60.4234 51.5834 62.4299 59.2466Z" fill="#00A393" fill-opacity="0.47"/>
<path d="M64.567 52.6841C66.981 49.1118 71.1241 48.7045 72.8939 48.9475L77.7119 51.9059L84.104 42.7759L88.3309 60.0289C86.4455 60.484 79.0532 59.6521 64.567 52.6841Z" fill="#FCDB8F"/>
<path d="M82.8107 23.7215C84.3465 21.3002 85.0412 16.7756 85.1965 14.8159C88.2601 19.1223 88.9967 25.5771 88.982 28.2662C86.285 27.7602 81.275 26.1428 82.8107 23.7215Z" fill="#1AD8D1"/>
<path d="M78.2984 31.0862C82.8884 35.0479 85.5822 31.5031 86.3553 29.2355C87.916 31.3615 85.1564 36.8454 83.5815 39.3216C83.4546 38.8966 82.2203 36.6546 78.2984 31.0862Z" fill="#FEC670"/>
<path d="M98.8094 54.8169C95.5157 52.4678 91.8827 51.9791 90.4779 52.0283C90.3457 69.5648 90.0581 72.0114 87.24 83.4994C96.9037 77.4194 98.5928 61.6861 98.8094 54.8169Z" fill="#1AD8D1"/>
<path d="M75.5164 54.7838C66.6812 48.3869 61.5684 49.8768 60.1165 51.4213L61.1924 57.3489C62.7236 56.9996 67.7321 55.9976 75.5164 54.7838Z" fill="#FEC670"/>
<path d="M80.3211 58.1628L86.6472 57.801C89.9894 62.1723 87.6683 71.398 86.09 75.4645L80.3211 58.1628Z" fill="#FEC670"/>
<path d="M65.0681 39.0183L63.1352 42.4654L77.585 51.481C77.5309 51.7132 77.6915 51.2178 78.7668 47.3787C73.6868 41.1564 67.5177 39.2125 65.0681 39.0183Z" fill="#A2E0D2"/>
<path d="M72.3184 47.1755C73.5483 41.9942 78.623 37.8556 81.0066 36.434L84.3874 40.4697L78.0883 53.3213L72.3184 47.1755Z" fill="#1AD8D1"/>
<path d="M87.8815 83.1685C98.4127 69.6084 93.3567 43.7928 89.0632 34.583C88.3919 35.8481 86.6147 39.2488 84.8771 42.7302C90.8037 52.81 90.363 69.0037 87.8815 83.1685Z" fill="#A2E0D2"/>
<path d="M87.8819 83.1686C95.503 73.3556 94.9611 57.1244 92.4525 45.413L86.9939 47.273C90.6418 57.2791 90.018 70.9755 87.8819 83.1686Z" fill="#069EAF"/>
<path fill-rule="evenodd" clip-rule="evenodd" d="M82.2968 10.6394C82.2157 12.6002 81.9229 14.8694 81.1793 17.3876C80.6203 19.2806 79.8144 21.2919 78.6751 23.4096C78.9059 23.2968 79.1464 23.1982 79.3952 23.1135C81.7333 22.3172 83.9909 22.3394 85.8617 23.4187C87.7138 24.4872 88.7645 26.3491 89.2168 28.3569C90.0359 31.9935 89.0822 36.7397 86.5566 41.228C86.9739 41.9836 87.3613 42.7861 87.697 43.6429L87.7133 43.6846L87.7279 43.7269C92.6372 57.9511 91.6987 70.4116 89.3131 79.013L93.6362 74.9543C93.9698 74.6412 94.6797 73.5206 95.4573 71.3528C96.1934 69.3008 96.8914 66.5938 97.3726 63.4412C98.336 57.1287 98.4053 49.1936 96.3019 41.3363C92.0725 25.5372 88.0479 16.6608 82.2968 10.6394ZM86.151 73.1708C87.4232 65.7564 87.3635 56.072 83.6179 45.194C83.5735 45.0817 83.5278 44.9702 83.4809 44.8594C83.1861 45.2526 82.8926 45.6952 82.6125 46.1873C81.3017 48.4899 80.311 51.8304 80.8513 56.1625C81.0107 57.4404 81.3042 58.8124 81.7671 60.277C82.0692 61.2326 82.4436 62.2284 82.9004 63.2638C84.4934 66.874 85.5286 70.1911 86.151 73.1708ZM83.8579 36.8302C85.0964 33.8523 85.3722 31.147 84.9597 29.3158C84.6879 28.1093 84.1765 27.4843 83.6811 27.1985C83.2046 26.9236 82.3293 26.7241 80.802 27.2443C80.4725 27.3565 80.3665 27.4746 80.3312 27.5203C80.2909 27.5725 80.2182 27.6941 80.1879 27.9799C80.1182 28.6383 80.3183 29.7121 80.9109 31.2007C81.6308 33.0093 82.7366 34.9794 83.8579 36.8302ZM81.1927 40.8221C81.0682 40.9516 80.9438 41.086 80.8199 41.225C77.8498 37.1389 74.2854 34.5962 71.4152 33.1894C73.1296 31.3852 74.5849 29.6314 75.818 27.933C75.7481 29.5544 76.2442 31.2762 76.8565 32.8146C77.9418 35.5411 79.7429 38.5083 81.1927 40.8221ZM68.0827 36.4984C66.1904 38.4285 64.7652 40.3671 63.7153 42.2753C65.3447 42.1955 67.1526 42.4291 69.03 43.142C71.6815 44.1487 74.3569 46.0646 76.8325 49.2139C77.1662 47.7225 77.6493 46.3732 78.222 45.1738C74.9618 39.9467 70.5551 37.4037 68.0827 36.4984ZM75.2726 54.6576C72.6227 50.1953 69.8164 48.1082 67.481 47.2215C65.1785 46.3472 63.1421 46.5619 61.7958 47.0476C61.0571 49.8676 61.0055 52.6088 61.388 55.1494C63.1775 54.1223 65.4026 53.3043 67.9015 53.1354C70.2566 52.9762 72.7608 53.4005 75.2726 54.6576ZM62.5337 59.5971C63.572 62.4313 65.0358 64.7668 66.3504 66.3199L82.357 83.3692C82.8935 79.7448 82.6392 73.4815 78.9081 65.0254C78.4597 64.0092 78.0765 63.0158 77.7535 62.0459C74.2547 58.212 70.8911 57.307 68.1958 57.4892C65.9265 57.6425 63.9296 58.5825 62.5337 59.5971ZM77.9931 85.0964L63.4881 69.6466C62.8579 69.4524 61.7568 69.2181 60.2574 69.0777C58.4365 68.9072 56.1705 68.8888 53.7151 69.1953C49.3636 69.7384 44.5424 71.2829 40.502 74.6807C44.6106 78.8266 47.4383 80.6461 49.7318 81.0451C52.0231 81.4438 54.3694 80.4865 57.901 77.1709L59.4917 75.6775L60.9851 77.2682C65.4854 82.0617 71.4426 84.2389 76.3132 85.0765C76.8858 85.0772 77.4466 85.0841 77.9931 85.0964ZM77.9305 89.6995C77.3005 89.6336 76.6465 89.5482 75.9735 89.4406C73.5888 89.4483 71.0001 89.5711 68.4329 89.874C62.7623 90.5431 57.717 92.0353 54.9651 94.6189L47.4827 101.644L46.5379 100.637L47.4197 101.697C45.9037 102.959 43.2902 104.169 40.1557 103.961C40.1097 103.958 40.0636 103.954 40.0175 103.951C41.2238 104.919 42.5516 105.762 43.9752 106.452C47.4077 108.116 52.4477 107.162 57.9364 104.615C63.2498 102.149 68.3071 98.5029 71.3283 95.898L77.9305 89.6995ZM34.5873 96.3498C36.8054 98.7611 38.8657 99.5018 40.4451 99.6068C42.2807 99.7288 43.7952 99.0157 44.5842 98.3795L48.6642 94.549C44.5715 90.835 41.569 90.749 39.5785 91.4902C37.4383 92.287 35.6894 94.2976 34.5873 96.3498ZM51.8527 91.5554L51.9783 91.4376C55.2411 88.3743 60.2664 86.7557 65.2688 85.9171C63.2078 84.8238 61.1883 83.4534 59.3173 81.7468C56.0705 84.4518 52.7862 86.0059 48.9838 85.3443C45.3164 84.7061 41.6686 82.0551 37.459 77.8109C37.3242 77.9803 37.1908 78.1528 37.059 78.3286C33.8292 82.6362 32.6633 87.0255 32.959 91.0634C34.2935 89.5298 35.9897 88.17 38.0558 87.4007C42.1249 85.8856 46.8421 86.9104 51.8527 91.5554ZM60.036 64.6806C59.214 63.1349 58.4724 61.3946 57.9063 59.5061C56.6277 55.2406 56.225 50.1478 57.8962 44.824C59.2031 40.6607 61.7487 36.454 65.9705 32.4575C72.7098 26.0777 75.6944 20.5535 76.9942 16.1518C78.257 11.8753 77.9866 8.49553 77.7869 6.00011C77.7807 5.92324 77.7747 5.84722 77.7687 5.77203L77.3787 0.860198L81.2777 3.87279C90.2971 10.8417 95.3853 21.0373 100.517 40.2078C102.808 48.766 102.72 57.3255 101.686 64.0996C101.169 67.4903 100.408 70.4747 99.5647 72.8262C98.7628 75.0619 97.7721 77.0569 96.623 78.1357L74.249 99.1414L74.2149 99.1709C70.9729 101.972 65.5606 105.887 59.7736 108.573C54.142 111.187 47.4291 112.976 42.0712 110.378C36.5473 107.7 32.1306 103.074 29.976 97.4701C27.4253 90.8354 28.1099 82.9899 33.5677 75.7108C34.2828 74.757 35.0396 73.8783 35.83 73.0698C41.037 67.7438 47.6012 65.5608 53.1746 64.8651C55.6967 64.5503 58.0487 64.5351 60.036 64.6806Z" fill="#031821"/>
<path d="M114.407 49.6956C112.49 51.4951 109.477 51.4001 107.678 49.4834C105.878 47.5666 105.973 44.554 107.89 42.7544C109.807 40.9549 112.819 41.0499 114.619 42.9667C116.418 44.8834 116.323 47.8961 114.407 49.6956Z" fill="#031821"/>
<path fill-rule="evenodd" clip-rule="evenodd" d="M92.0275 53.3792C87.3182 46.4453 87.3901 39.9967 88.262 37.2335L92.4235 38.5466C91.9847 39.9371 91.6176 45.0088 95.6374 50.9274C100.578 58.2015 98.3239 65.6964 96.4393 68.757L72.23 117.484C71.6938 118.564 70.3844 119.004 69.3052 118.468C68.226 117.931 67.7858 116.622 68.322 115.543L92.6287 66.6195L92.6893 66.5238C93.9633 64.5132 95.7602 58.8751 92.0275 53.3792Z" fill="#031821"/>
<path d="M79.1637 37.2097C67.735 21.1123 59.7669 13.8399 49.6017 10.6729C51.7427 15.2795 56.2901 24.4487 47.818 41.6791C45.4016 46.5936 44.5741 51.0554 44.7784 55.0083C45.0399 60.066 46.9907 64.2907 49.4644 67.5645C51.836 70.7032 54.688 72.968 56.993 74.2552C53.5716 74.099 39.2817 77.7241 33.749 90.1707C33.328 91.1177 32.9578 92.1156 32.6469 93.1669C30.2747 101.188 32.2101 107.998 36.4042 112.752C39.985 116.812 45.2123 119.373 50.8107 119.91C60.5352 120.843 70.9328 106.578 74.916 99.3282L81.3586 86.3608L88.551 71.8845C90.3606 68.242 89.0013 51.0661 79.1637 37.2097Z" fill="white"/>
<path d="M77.1715 90.9253C72.2394 93.1998 60.4739 100.149 52.8696 109.748C43.3642 121.748 72.9488 104.774 77.1715 90.9253Z" fill="#1AD8D1"/>
<path d="M67.348 99.9982C70.2799 94.8103 75.1774 91.6695 77.2596 90.7476C67.5439 107.272 61.8212 124.273 43.6169 116.558C45.4925 115.755 49.6954 113.908 51.5026 112.945L51.5412 112.924C53.8723 111.683 63.7037 106.447 67.348 99.9982Z" fill="#035B69"/>
<path d="M45.2057 95.9738C39.5293 96.2544 36.3856 98.347 33.5194 105.007C33.8636 106.618 34.6415 110.238 35.5299 110.768C36.4183 111.298 38.4025 106.695 39.2836 104.327L45.5297 101.34L53.74 103.315L67.5003 90.107L56.0054 87.1646C54.2101 90.4808 48.5339 95.8093 45.2057 95.9738Z" fill="#31E7BD"/>
<path d="M37.0732 89.6076C39.9679 83.7811 45.9614 79.0734 55.1096 83.6185L53.4769 86.9048C44.9504 82.6685 41.9938 88.6193 40.6259 91.3727L37.0732 89.6076Z" fill="#1AD8D1"/>
<path d="M44.9319 110.345C44.9872 108.822 46.3744 105.524 51.4813 104.518C57.865 103.26 49.7304 113.615 44.9319 110.345Z" fill="#FCDB8F"/>
<path d="M49.0337 101.198C54.5516 94.3711 59.7124 91.2947 61.603 90.6098L66.7024 90.1533L54.804 102.957C54.5379 102.973 53.0113 102.642 49.0337 101.198Z" fill="#014250"/>
<path d="M53.258 88.0142C51.156 86.9698 46.2461 86.3466 43.4224 92.2083C49.6396 95.2972 50.7869 92.988 53.258 88.0142Z" fill="#FEC670"/>
<path d="M37.617 111.694C39.5203 110.167 44.5519 107.454 49.4519 108.826C55.577 110.54 42.688 117.536 37.617 111.694Z" fill="#FEC670"/>
<path d="M72.0972 83.7529C68.9418 84.7544 63.4243 85.9038 60.6611 86.4874C66.9849 89.6293 74.2951 87.6504 77.1598 86.2682L72.0972 83.7529Z" fill="#1AD8D1"/>
<path d="M52.4414 63.356L82.4618 78.2711L79.5493 84.133L49.529 69.2179L52.4414 63.356Z" fill="#027C83"/>
<path d="M57.3998 59.8396L67.7406 62.4302L77.1325 75.6235L52.4412 63.356L57.3998 59.8396Z" fill="#31E7BD"/>
<path d="M51.8734 67.0609C55.8456 68.8863 64.4743 70.8985 67.2121 64.3453C70.6343 56.1537 47.3231 60.5767 51.8734 67.0609Z" fill="#00A393" fill-opacity="0.47"/>
<path d="M51.5906 60.1648C52.6089 55.9753 56.3506 54.1503 58.0942 53.7615L63.641 54.8562L66.4523 44.0713L76.4246 58.7712C74.8159 59.8545 67.5968 61.6499 51.5906 60.1648Z" fill="#FCDB8F"/>
<path d="M58.6018 26.6608C59.1979 23.8562 58.2729 19.373 57.7358 17.4819C62.1077 20.4514 65.0467 26.2453 65.9698 28.771C63.2654 29.2362 58.0057 29.4654 58.6018 26.6608Z" fill="#1AD8D1"/>
<path d="M56.9378 35.1366C62.6203 37.2511 63.9105 32.9899 63.8453 30.5951C66.0489 32.0442 65.3725 38.146 64.7588 41.0157C64.4918 40.6615 62.5538 38.9899 56.9378 35.1366Z" fill="#FEC670"/>
<path d="M84.4309 50.2354C80.5252 49.1808 76.9495 49.9883 75.6498 50.5238C81.6349 67.0079 82.2176 69.4015 83.578 81.1515C90.5184 72.0859 86.6208 56.7497 84.4309 50.2354Z" fill="#1AD8D1"/>
<path d="M62.5852 58.3185C52.075 55.4001 47.8016 58.5778 46.9786 60.5314L50.0521 65.7129C51.3657 64.852 55.7114 62.168 62.5852 58.3185Z" fill="#FEC670"/>
<path d="M68.2661 59.8121L74.0699 57.2693C78.7255 60.2025 79.7637 69.6588 79.7008 74.0203L68.2661 59.8121Z" fill="#FEC670"/>
<path d="M47.2996 47.1806L46.6886 51.0852L63.3739 54.5024C63.4041 54.7389 63.3821 54.2186 63.0527 50.2454C56.1233 46.1825 49.6634 46.5094 47.2996 47.1806Z" fill="#A2E0D2"/>
<path d="M56.9374 52.3008C56.2853 47.0156 59.6004 41.3684 61.3394 39.2055L65.9143 41.8107L64.4868 56.0516L56.9374 52.3008Z" fill="#1AD8D1"/>
<path d="M84.0641 80.6178C89.2118 64.2386 75.4794 41.8013 68.2466 34.6641C68.058 36.0838 67.5768 39.8905 67.1608 43.7592C76.2275 51.1431 81.4557 66.4759 84.0641 80.6178Z" fill="#A2E0D2"/>
<path d="M84.0643 80.6176C87.7896 68.7644 81.6274 53.7387 75.1962 43.6347L70.7274 47.2797C77.6326 55.3883 81.8191 68.4442 84.0643 80.6176Z" fill="#069EAF"/>
<path fill-rule="evenodd" clip-rule="evenodd" d="M53.5635 14.5774C54.1706 16.4436 54.6866 18.6727 54.8668 21.2922C55.0022 23.2614 54.9475 25.4274 54.6172 27.8093C54.7943 27.6232 54.9854 27.447 55.1891 27.2809C57.1034 25.72 59.2272 24.9544 61.3569 25.3143C63.4652 25.6707 65.0987 27.05 66.222 28.7744C68.2568 31.8979 69.0161 36.6791 68.2122 41.766C68.8667 42.3289 69.5094 42.9462 70.1225 43.6324L70.1523 43.6658L70.1807 43.7004C79.7376 55.3234 83.1986 67.3303 83.9589 76.224L86.5973 70.9136C86.8009 70.5038 87.0759 69.2061 87.0497 66.9032C87.0248 64.7234 86.7361 61.9428 86.0889 58.82C84.793 52.5673 82.0937 45.1051 77.3849 38.4726C67.9167 25.1366 61.052 18.2181 53.5635 14.5774ZM78.9596 71.8493C77.5693 64.4561 74.1397 55.3991 66.8393 46.5073C66.7585 46.4175 66.6769 46.3289 66.5942 46.2415C66.4549 46.7127 66.334 47.2298 66.2428 47.7887C65.8163 50.4037 66.0513 53.88 68.0669 57.7525C68.6615 58.8949 69.4145 60.0787 70.3587 61.2903C70.9747 62.0808 71.6726 62.8838 72.4615 63.6952C75.2123 66.5244 77.3382 69.2731 78.9596 71.8493ZM64.1506 38.5838C64.2742 35.361 63.5903 32.7291 62.5657 31.1563C61.8906 30.1201 61.1935 29.7123 60.6296 29.617C60.0871 29.5253 59.1972 29.6433 57.9468 30.6629C57.677 30.8828 57.6188 31.0305 57.6016 31.0857C57.582 31.1486 57.5563 31.2879 57.6274 31.5664C57.7914 32.2078 58.3531 33.1447 59.4271 34.3336C60.7319 35.7781 62.4548 37.2396 64.1506 38.5838ZM63.043 43.2541C62.9713 43.4189 62.9016 43.5882 62.8339 43.7616C58.6263 40.9661 54.3995 39.8245 51.219 39.5056C52.1975 37.2172 52.9507 35.0663 53.5148 33.0447C54.0142 34.5889 55.079 36.03 56.1889 37.2587C58.156 39.4364 60.8779 41.5903 63.043 43.2541ZM49.248 43.7682C48.1465 46.2367 47.486 48.5503 47.1666 50.7047C48.6661 50.0623 50.4422 49.6514 52.4503 49.6656C55.2864 49.6857 58.4616 50.5495 61.8792 52.6392C61.6725 51.125 61.6553 49.6919 61.7743 48.3681C56.8974 44.6042 51.8809 43.7555 49.248 43.7682ZM62.3134 58.2853C58.275 55.0257 54.9174 54.0469 52.4195 54.0293C49.9566 54.0118 48.1226 54.9224 47.0297 55.8468C47.3197 58.7475 48.2262 61.335 49.4698 63.5831C50.7895 61.997 52.5902 60.455 54.8738 59.4262C57.0259 58.4566 59.521 57.982 62.3134 58.2853ZM52.0931 67.3531C54.0538 69.6481 56.2394 71.3274 58.0127 72.3253L78.956 82.7306C78.1963 79.1463 75.776 73.3639 69.3329 66.7372C68.5586 65.9409 67.8533 65.1432 67.2127 64.3465C62.5974 61.9717 59.1293 62.2951 56.6663 63.4048C54.5925 64.3391 53.0482 65.9158 52.0931 67.3531ZM75.4671 85.8698L56.4886 76.4407C55.8303 76.4781 54.7165 76.6422 53.2621 77.0328C51.4959 77.5073 49.3654 78.2795 47.1706 79.4221C43.2809 81.4471 39.2997 84.5744 36.696 89.1669C41.9915 91.6218 45.2759 92.3422 47.5648 91.9173C49.8515 91.4928 51.7173 89.7781 53.8726 85.4399L54.8434 83.4859L56.7974 84.4567C62.6857 87.3823 69.0282 87.3478 73.8855 86.4363C74.4225 86.2375 74.9506 86.0486 75.4671 85.8698ZM77.012 90.2063C76.3985 90.3641 75.7557 90.5118 75.0874 90.6453C72.8547 91.4833 70.471 92.5002 68.1701 93.6785C63.0877 96.2811 58.8783 99.4374 57.1988 102.818L52.6323 112.009L51.396 111.395L52.5919 112.081C51.6102 113.792 49.5822 115.837 46.5714 116.734C46.5272 116.747 46.4829 116.76 46.4384 116.772C47.9063 117.26 49.4446 117.587 51.0195 117.738C54.8167 118.102 59.2087 115.452 63.4662 111.152C67.5876 106.99 71.0581 101.811 72.9826 98.3165L77.012 90.2063ZM38.7004 111.539C41.6196 113.027 43.8088 113.003 45.3259 112.551C47.089 112.026 48.2602 110.83 48.7782 109.959L51.2682 104.947C46.1381 102.892 43.2937 103.857 41.686 105.245C39.9576 106.738 39.0186 109.231 38.7004 111.539ZM53.2142 101.03L53.2908 100.876C55.2821 96.8682 59.4288 93.6004 63.8258 91.0716C61.513 90.7648 59.1426 90.1838 56.7943 89.2358C54.6931 92.9025 52.1559 95.5033 48.3613 96.2077C44.7013 96.8872 40.3585 95.673 34.934 93.161C34.8667 93.3668 34.8018 93.575 34.7395 93.7856C33.2126 98.9486 33.6488 103.469 35.3325 107.151C36.0492 105.249 37.1654 103.383 38.8342 101.942C42.1206 99.1045 46.8993 98.4218 53.2142 101.03ZM51.5228 72.9883C50.2139 71.8257 48.9125 70.4528 47.7239 68.8798C45.0395 65.3269 42.8879 60.6934 42.5998 55.1209C42.3745 50.7631 43.2953 45.9332 45.8603 40.7163C49.9551 32.3884 50.8283 26.1706 50.5133 21.5917C50.2073 17.1432 48.7764 14.0693 47.7199 11.7998C47.6874 11.7299 47.6552 11.6607 47.6234 11.5923L45.5468 7.12403L50.251 8.58966C61.1331 11.98 69.4543 19.7645 80.943 35.9465C86.0719 43.1704 88.9711 51.2244 90.3618 57.9344C91.0579 61.293 91.3846 64.3554 91.4131 66.8535C91.4402 69.2285 91.2065 71.4437 90.5053 72.8552L76.8502 100.339L76.8285 100.379C74.7654 104.134 71.056 109.689 66.5671 114.223C62.1989 118.635 56.5298 122.651 50.6025 122.082C44.4915 121.495 38.7401 118.698 34.7683 114.196C30.066 108.865 27.9747 101.272 30.5549 92.548C30.893 91.4049 31.2962 90.3176 31.7555 89.2844C34.781 82.4781 40.1736 78.1451 45.1555 75.5515C47.41 74.3778 49.6093 73.5442 51.5228 72.9883Z" fill="#031821"/>
<path d="M97.2673 40.0019C96.0975 42.3565 93.2404 43.3169 90.8859 42.1471C88.5314 40.9772 87.571 38.1202 88.7408 35.7657C89.9106 33.4112 92.7676 32.4508 95.1221 33.6206C97.4767 34.7904 98.4371 37.6474 97.2673 40.0019Z" fill="#031821"/>
</svg>
