<svg width="129" height="132" viewBox="0 0 129 132" fill="none" xmlns="http://www.w3.org/2000/svg">
<path fill-rule="evenodd" clip-rule="evenodd" d="M23.4566 60.41C25.4554 52.2699 23.1416 46.2503 21.3617 43.9639L17.9183 46.6445C18.814 47.795 20.9249 52.4211 19.2187 59.3694C17.1218 67.9088 21.8453 74.1491 24.6781 76.3615L64.3456 113.603C65.2241 114.428 66.6049 114.384 67.4297 113.506C68.2545 112.627 68.2109 111.246 67.3324 110.422L27.5054 73.0304L27.4153 72.9618C25.5207 71.521 21.8722 66.862 23.4566 60.41Z" fill="#031821"/>
<path d="M29.8818 40.7723C34.9869 21.7021 39.9225 12.1094 48.3477 5.59963C47.9456 10.6635 46.8772 20.8425 60.8209 34.0423C64.798 37.8072 67.128 41.7012 68.3135 45.4777C69.8302 50.3097 69.4733 54.9493 68.2951 58.8798C67.1655 62.648 65.281 65.7645 63.5688 67.774C66.7215 66.4358 81.3791 64.8558 90.9012 74.5954C91.6256 75.3364 92.3203 76.1429 92.978 77.02C97.9958 83.7122 98.5539 90.7698 96.2788 96.6875C94.3364 101.74 90.3287 105.961 85.2681 108.415C76.4779 112.678 61.762 102.928 55.5029 97.5202L44.9465 87.6094L33.1618 76.5453C30.1966 73.7615 25.4874 57.1879 29.8818 40.7723Z" fill="white"/>
<path d="M50.4614 90.4294C55.877 90.8433 69.3262 93.2583 79.7982 99.6075C92.8883 107.544 59.244 101.94 50.4614 90.4294Z" fill="#1AD8D1"/>
<path d="M62.8303 95.5116C58.2748 91.6701 52.59 90.4321 50.317 90.2933C65.1804 102.398 76.4674 116.341 90.8435 102.767C88.8057 102.667 84.2227 102.4 82.1934 102.128L82.15 102.122C79.5324 101.77 68.4927 100.287 62.8303 95.5116Z" fill="#035B69"/>
<path d="M82.1837 84.0259C87.6022 82.3115 91.278 83.1778 96.2848 88.4223C96.5233 90.0519 97.0552 93.7163 96.407 94.5226C95.7589 95.3288 92.2955 91.7054 90.6448 89.793L83.7492 89.1685L76.7412 93.88L59.2419 86.2931L68.9917 79.5306C71.8297 82.0137 79.0066 85.0311 82.1837 84.0259Z" fill="#31E7BD"/>
<path d="M87.5891 75.2256C82.846 70.7725 75.588 68.4476 68.5962 75.8948L71.2714 78.4065C77.7881 71.4653 82.6324 76.0134 84.8739 78.1177L87.5891 75.2256Z" fill="#1AD8D1"/>
<path d="M87.4466 97.4015C86.8643 95.9932 84.4152 93.3856 79.2776 94.2212C72.8556 95.2657 84.0879 102.138 87.4466 97.4015Z" fill="#FCDB8F"/>
<path d="M80.4155 90.2559C72.8651 85.7791 66.9559 84.6932 64.9451 84.7098L60.0061 86.0584L75.6196 93.9153C75.8744 93.8371 77.1903 92.9957 80.4155 90.2559Z" fill="#014250"/>
<path d="M71.8631 79.3701C73.4696 77.6589 77.8549 75.3643 82.5437 79.8752C77.792 84.9364 75.9121 83.1715 71.8631 79.3701Z" fill="#FEC670"/>
<path d="M94.7735 96.118C92.4573 95.3491 86.7959 94.5594 82.6806 97.5518C77.5364 101.292 92.0551 103.36 94.7735 96.118Z" fill="#FEC670"/>
<path d="M52.7195 81.9385C56.0261 81.7781 61.5984 80.9335 64.3918 80.5179C59.5586 85.666 52.0169 86.3576 48.8502 86.0599L52.7195 81.9385Z" fill="#1AD8D1"/>
<path d="M64.0386 55.9717L41.0945 80.4104L45.8665 84.8906L68.8106 60.4519L64.0386 55.9717Z" fill="#027C83"/>
<path d="M58.1658 54.4032L49.3752 60.4338L45.1676 76.0725L64.0388 55.972L58.1658 54.4032Z" fill="#31E7BD"/>
<path d="M65.8616 59.2466C62.7741 62.3413 55.3869 67.2334 50.5377 62.0444C44.4763 55.558 67.8681 51.5834 65.8616 59.2466Z" fill="#00A393" fill-opacity="0.47"/>
<path d="M63.7245 52.6841C61.3105 49.1118 57.1674 48.7045 55.3976 48.9475L50.5796 51.9059L44.1875 42.7759L39.9606 60.0289C41.846 60.484 49.2383 59.6521 63.7245 52.6841Z" fill="#FCDB8F"/>
<path d="M45.4808 23.7215C43.945 21.3002 43.2503 16.7756 43.095 14.8159C40.0314 19.1223 39.2948 25.5771 39.3095 28.2662C42.0065 27.7602 47.0165 26.1428 45.4808 23.7215Z" fill="#1AD8D1"/>
<path d="M49.9932 31.0862C45.4033 35.0479 42.7095 31.5031 41.9363 29.2355C40.3756 31.3615 43.1352 36.8454 44.7101 39.3216C44.8371 38.8966 46.0714 36.6546 49.9932 31.0862Z" fill="#FEC670"/>
<path d="M29.4821 54.8169C32.7758 52.4678 36.4088 51.9791 37.8136 52.0283C37.9458 69.5648 38.2335 72.0114 41.0515 83.4994C31.3878 77.4194 29.6987 61.6861 29.4821 54.8169Z" fill="#1AD8D1"/>
<path d="M52.7753 54.7838C61.6105 48.3869 66.7232 49.8768 68.1752 51.4213L67.0992 57.3489C65.568 56.9996 60.5595 55.9976 52.7753 54.7838Z" fill="#FEC670"/>
<path d="M47.9705 58.1628L41.6444 57.801C38.3023 62.1723 40.6233 71.398 42.2016 75.4645L47.9705 58.1628Z" fill="#FEC670"/>
<path d="M63.2232 39.0183L65.1562 42.4654L50.7064 51.481C50.7605 51.7132 50.5999 51.2178 49.5246 47.3787C54.6045 41.1564 60.7737 39.2125 63.2232 39.0183Z" fill="#A2E0D2"/>
<path d="M55.9732 47.1755C54.7433 41.9942 49.6687 37.8556 47.2851 36.434L43.9043 40.4697L50.2033 53.3213L55.9732 47.1755Z" fill="#1AD8D1"/>
<path d="M40.41 83.1685C29.8788 69.6084 34.9348 43.7928 39.2283 34.583C39.8996 35.8481 41.6768 39.2488 43.4144 42.7302C37.4878 52.81 37.9285 69.0037 40.41 83.1685Z" fill="#A2E0D2"/>
<path d="M40.4095 83.1686C32.7884 73.3556 33.3303 57.1244 35.8388 45.413L41.2975 47.273C37.6496 57.2791 38.2734 70.9755 40.4095 83.1686Z" fill="#069EAF"/>
<path fill-rule="evenodd" clip-rule="evenodd" d="M45.9947 10.6394C46.0758 12.6002 46.3686 14.8694 47.1122 17.3876C47.6712 19.2806 48.4771 21.2919 49.6164 23.4096C49.3856 23.2968 49.1451 23.1982 48.8963 23.1135C46.5582 22.3172 44.3007 22.3394 42.4298 23.4187C40.5777 24.4872 39.527 26.3491 39.0747 28.3569C38.2556 31.9935 39.2093 36.7397 41.7349 41.228C41.3176 41.9836 40.9302 42.7861 40.5945 43.6429L40.5782 43.6846L40.5636 43.7269C35.6543 57.9511 36.5928 70.4116 38.9784 79.013L34.6553 74.9543C34.3217 74.6412 33.6119 73.5206 32.8342 71.3528C32.0981 69.3008 31.4001 66.5938 30.9189 63.4412C29.9555 57.1287 29.8862 49.1936 31.9896 41.3363C36.219 25.5372 40.2436 16.6608 45.9947 10.6394ZM42.1406 73.1708C40.8683 65.7564 40.928 56.072 44.6736 45.194C44.718 45.0817 44.7637 44.9702 44.8106 44.8594C45.1054 45.2526 45.3989 45.6952 45.6791 46.1873C46.9898 48.4899 47.9805 51.8304 47.4402 56.1625C47.2809 57.4404 46.9873 58.8124 46.5244 60.277C46.2223 61.2326 45.8479 62.2284 45.3911 63.2638C43.7981 66.874 42.7629 70.1911 42.1406 73.1708ZM44.4336 36.8302C43.1951 33.8523 42.9193 31.147 43.3318 29.3158C43.6036 28.1093 44.115 27.4843 44.6104 27.1985C45.0869 26.9236 45.9622 26.7241 47.4895 27.2443C47.819 27.3565 47.925 27.4746 47.9603 27.5203C48.0006 27.5725 48.0733 27.6941 48.1036 27.9799C48.1733 28.6383 47.9732 29.7121 47.3806 31.2007C46.6607 33.0093 45.5549 34.9794 44.4336 36.8302ZM47.0988 40.8221C47.2233 40.9516 47.3477 41.086 47.4716 41.225C50.4417 37.1389 54.0061 34.5962 56.8763 33.1894C55.1619 31.3852 53.7066 29.6314 52.4736 27.933C52.5434 29.5544 52.0473 31.2762 51.435 32.8146C50.3497 35.5411 48.5486 38.5083 47.0988 40.8221ZM60.2088 36.4984C62.1011 38.4285 63.5263 40.3671 64.5762 42.2753C62.9468 42.1955 61.1389 42.4291 59.2615 43.142C56.61 44.1487 53.9346 46.0646 51.459 49.2139C51.1253 47.7225 50.6422 46.3732 50.0695 45.1738C53.3297 39.9467 57.7364 37.4037 60.2088 36.4984ZM53.0189 54.6576C55.6688 50.1953 58.4751 48.1082 60.8105 47.2215C63.113 46.3472 65.1494 46.5619 66.4957 47.0476C67.2344 49.8676 67.286 52.6088 66.9035 55.1494C65.114 54.1223 62.8889 53.3043 60.39 53.1354C58.0349 52.9762 55.5307 53.4005 53.0189 54.6576ZM65.7578 59.5971C64.7195 62.4313 63.2558 64.7668 61.9411 66.3199L45.9345 83.3692C45.398 79.7448 45.6523 73.4815 49.3834 65.0254C49.8318 64.0092 50.215 63.0158 50.538 62.0459C54.0368 58.212 57.4004 57.307 60.0957 57.4892C62.365 57.6425 64.3619 58.5825 65.7578 59.5971ZM50.2984 85.0964L64.8034 69.6466C65.4336 69.4524 66.5347 69.2181 68.0341 69.0777C69.855 68.9072 72.121 68.8888 74.5764 69.1953C78.9279 69.7384 83.7491 71.2829 87.7895 74.6807C83.6809 78.8266 80.8532 80.6461 78.5597 81.0451C76.2684 81.4438 73.9221 80.4865 70.3905 77.1709L68.7998 75.6775L67.3064 77.2681C62.8061 82.0617 56.8489 84.2389 51.9783 85.0765C51.4057 85.0772 50.8449 85.0841 50.2984 85.0964ZM50.361 89.6995C50.991 89.6336 51.645 89.5482 52.318 89.4406C54.7027 89.4483 57.2914 89.5711 59.8586 89.874C65.5293 90.5431 70.5745 92.0353 73.3264 94.6189L80.8088 101.644L81.7537 100.637L80.8718 101.697C82.3878 102.959 85.0013 104.169 88.1358 103.961C88.1818 103.958 88.2279 103.954 88.274 103.951C87.0677 104.919 85.7399 105.762 84.3163 106.452C80.8838 108.116 75.8438 107.162 70.3551 104.615C65.0417 102.149 59.9844 98.5029 56.9633 95.898L50.361 89.6995ZM93.7042 96.3498C91.4862 98.7611 89.4258 99.5018 87.8464 99.6068C86.0108 99.7288 84.4963 99.0157 83.7073 98.3795L79.6273 94.549C83.7201 90.835 86.7225 90.749 88.7131 91.4902C90.8532 92.287 92.6021 94.2976 93.7042 96.3498ZM76.4388 91.5554L76.3132 91.4376C73.0504 88.3743 68.0251 86.7557 63.0227 85.9171C65.0837 84.8238 67.1032 83.4534 68.9742 81.7468C72.221 84.4518 75.5053 86.0059 79.3077 85.3443C82.9751 84.7061 86.6229 82.0551 90.8325 77.8109C90.9674 77.9803 91.1007 78.1528 91.2325 78.3286C94.4623 82.6362 95.6282 87.0255 95.3325 91.0634C93.998 89.5298 92.3019 88.17 90.2357 87.4007C86.1666 85.8856 81.4494 86.9104 76.4388 91.5554ZM68.2555 64.6806C69.0775 63.1349 69.8191 61.3946 70.3852 59.5061C71.6638 55.2406 72.0665 50.1478 70.3953 44.824C69.0884 40.6607 66.5428 36.454 62.321 32.4575C55.5817 26.0777 52.5971 20.5535 51.2973 16.1518C50.0345 11.8753 50.3049 8.49553 50.5046 6.00011C50.5108 5.92324 50.5169 5.84722 50.5228 5.77203L50.9128 0.860198L47.0138 3.87279C37.9944 10.8417 32.9062 21.0373 27.7743 40.2078C25.4833 48.766 25.5713 57.3255 26.6052 64.0996C27.1227 67.4903 27.8832 70.4747 28.7268 72.8262C29.5287 75.0619 30.5195 77.0569 31.6685 78.1357L54.0425 99.1414L54.0766 99.1709C57.3186 101.972 62.7309 105.887 68.5179 108.573C74.1495 111.187 80.8624 112.976 86.2203 110.378C91.7442 107.7 96.1609 103.074 98.3155 97.4701C100.866 90.8354 100.182 82.9899 94.7238 75.7108C94.0087 74.757 93.2519 73.8783 92.4615 73.0698C87.2545 67.7438 80.6903 65.5608 75.1169 64.8651C72.5948 64.5503 70.2428 64.5351 68.2555 64.6806Z" fill="#031821"/>
<path d="M13.8848 49.6956C15.8016 51.4951 18.8142 51.4001 20.6137 49.4834C22.4133 47.5666 22.3182 44.554 20.4015 42.7544C18.4847 40.9549 15.4721 41.0499 13.6726 42.9667C11.873 44.8834 11.9681 47.8961 13.8848 49.6956Z" fill="#031821"/>
<path fill-rule="evenodd" clip-rule="evenodd" d="M36.2639 53.3792C40.9732 46.4453 40.9013 39.9967 40.0294 37.2335L35.8679 38.5466C36.3067 39.9371 36.6738 45.0088 32.654 50.9274C27.7136 58.2015 29.9674 65.6964 31.8521 68.757L56.0614 117.484C56.5976 118.564 57.907 119.004 58.9862 118.468C60.0653 117.931 60.5055 116.622 59.9694 115.543L35.6627 66.6195L35.6021 66.5238C34.3281 64.5132 32.5312 58.8751 36.2639 53.3792Z" fill="#031821"/>
<path d="M49.1277 37.2097C60.5564 21.1123 68.5245 13.8399 78.6897 10.6729C76.5487 15.2795 72.0013 24.4487 80.4734 41.6791C82.8898 46.5936 83.7173 51.0554 83.5129 55.0083C83.2514 60.066 81.3006 64.2907 78.8269 67.5645C76.4554 70.7032 73.6033 72.968 71.2984 74.2552C74.7198 74.099 89.0097 77.7241 94.5424 90.1707C94.9633 91.1177 95.3336 92.1156 95.6445 93.1669C98.0167 101.188 96.0813 107.998 91.8872 112.752C88.3064 116.812 83.0791 119.373 77.4807 119.91C67.7562 120.843 57.3586 106.578 53.3754 99.3282L46.9328 86.3608L39.7404 71.8845C37.9307 68.242 39.2901 51.0661 49.1277 37.2097Z" fill="white"/>
<path d="M51.12 90.9253C56.0521 93.1998 67.8176 100.149 75.4219 109.748C84.9274 121.748 55.3427 104.774 51.12 90.9253Z" fill="#1AD8D1"/>
<path d="M60.9433 99.9982C58.0115 94.8103 53.114 91.6695 51.0318 90.7476C60.7475 107.272 66.4702 124.273 84.6745 116.558C82.7989 115.755 78.596 113.908 76.7888 112.945L76.7502 112.924C74.4191 111.683 64.5877 106.447 60.9433 99.9982Z" fill="#035B69"/>
<path d="M83.0858 95.9738C88.7622 96.2544 91.9059 98.347 94.7721 105.007C94.428 106.618 93.65 110.238 92.7616 110.768C91.8732 111.298 89.889 106.695 89.0079 104.327L82.7618 101.34L74.5515 103.315L60.7912 90.107L72.2861 87.1646C74.0814 90.4808 79.7576 95.8093 83.0858 95.9738Z" fill="#31E7BD"/>
<path d="M91.2184 89.6076C88.3237 83.7811 82.3302 79.0734 73.182 83.6185L74.8148 86.9048C83.3412 82.6685 86.2978 88.6193 87.6657 91.3727L91.2184 89.6076Z" fill="#1AD8D1"/>
<path d="M83.3597 110.345C83.3045 108.822 81.9172 105.524 76.8103 104.518C70.4267 103.26 78.5613 113.615 83.3597 110.345Z" fill="#FCDB8F"/>
<path d="M79.258 101.198C73.74 94.3711 68.5793 91.2947 66.6886 90.6098L61.5892 90.1533L73.4876 102.957C73.7537 102.973 75.2803 102.642 79.258 101.198Z" fill="#014250"/>
<path d="M75.0336 88.0142C77.1356 86.9698 82.0456 86.3466 84.8693 92.2083C78.652 95.2972 77.5047 92.988 75.0336 88.0142Z" fill="#FEC670"/>
<path d="M90.6745 111.694C88.7712 110.167 83.7396 107.454 78.8396 108.826C72.7145 110.54 85.6035 117.536 90.6745 111.694Z" fill="#FEC670"/>
<path d="M56.1945 83.7529C59.3498 84.7544 64.8674 85.9038 67.6305 86.4874C61.3067 89.6293 53.9965 87.6504 51.1318 86.2682L56.1945 83.7529Z" fill="#1AD8D1"/>
<path d="M75.8501 63.356L45.8297 78.2711L48.7422 84.133L78.7625 69.2179L75.8501 63.356Z" fill="#027C83"/>
<path d="M70.8919 59.8396L60.5511 62.4302L51.1592 75.6235L75.8505 63.356L70.8919 59.8396Z" fill="#31E7BD"/>
<path d="M76.4181 67.0609C72.4459 68.8863 63.8172 70.8985 61.0794 64.3453C57.6572 56.1537 80.9684 60.5767 76.4181 67.0609Z" fill="#00A393" fill-opacity="0.47"/>
<path d="M76.701 60.1648C75.6827 55.9753 71.941 54.1503 70.1974 53.7615L64.6506 54.8562L61.8394 44.0713L51.867 58.7712C53.4758 59.8545 60.6948 61.6499 76.701 60.1648Z" fill="#FCDB8F"/>
<path d="M69.6897 26.6608C69.0936 23.8562 70.0186 19.373 70.5557 17.4819C66.1838 20.4514 63.2448 26.2453 62.3217 28.771C65.0261 29.2362 70.2858 29.4654 69.6897 26.6608Z" fill="#1AD8D1"/>
<path d="M71.3537 35.1366C65.6712 37.2511 64.381 32.9899 64.4462 30.5951C62.2426 32.0442 62.919 38.146 63.5327 41.0157C63.7997 40.6615 65.7377 38.9899 71.3537 35.1366Z" fill="#FEC670"/>
<path d="M43.8606 50.2354C47.7663 49.1808 51.342 49.9883 52.6417 50.5238C46.6566 67.0079 46.0739 69.4014 44.7135 81.1515C37.7731 72.0859 41.6707 56.7497 43.8606 50.2354Z" fill="#1AD8D1"/>
<path d="M65.7062 58.3185C76.2164 55.4001 80.4898 58.5778 81.3128 60.5314L78.2393 65.7129C76.9257 64.852 72.58 62.168 65.7062 58.3185Z" fill="#FEC670"/>
<path d="M60.0253 59.8121L54.2215 57.2693C49.5659 60.2025 48.5277 69.6588 48.5905 74.0203L60.0253 59.8121Z" fill="#FEC670"/>
<path d="M80.9919 47.1806L81.6029 51.0852L64.9176 54.5024C64.8874 54.7389 64.9094 54.2186 65.2388 50.2454C72.1682 46.1825 78.6281 46.5094 80.9919 47.1806Z" fill="#A2E0D2"/>
<path d="M71.3543 52.3008C72.0064 47.0156 68.6913 41.3684 66.9522 39.2055L62.3773 41.8107L63.8048 56.0516L71.3543 52.3008Z" fill="#1AD8D1"/>
<path d="M44.2274 80.6178C39.0797 64.2386 52.8121 41.8013 60.0449 34.6641C60.2335 36.0838 60.7147 39.8905 61.1307 43.7592C52.064 51.1431 46.8358 66.4759 44.2274 80.6178Z" fill="#A2E0D2"/>
<path d="M44.2273 80.6176C40.502 68.7644 46.6642 53.7387 53.0954 43.6347L57.5642 47.2797C50.6591 55.3883 46.4726 68.4442 44.2273 80.6176Z" fill="#069EAF"/>
<path fill-rule="evenodd" clip-rule="evenodd" d="M74.728 14.5774C74.1209 16.4436 73.6049 18.6727 73.4247 21.2922C73.2893 23.2614 73.344 25.4274 73.6743 27.8093C73.4972 27.6232 73.3061 27.447 73.1024 27.2809C71.1881 25.72 69.0643 24.9544 66.9346 25.3143C64.8263 25.6707 63.1928 27.05 62.0695 28.7744C60.0347 31.8979 59.2754 36.6791 60.0793 41.766C59.4248 42.3289 58.7821 42.9462 58.169 43.6324L58.1392 43.6658L58.1108 43.7004C48.5539 55.3234 45.0929 67.3303 44.3326 76.224L41.6942 70.9136C41.4906 70.5038 41.2156 69.2061 41.2418 66.9032C41.2667 64.7234 41.5554 61.9428 42.2026 58.82C43.4985 52.5673 46.1978 45.1051 50.9066 38.4726C60.3748 25.1366 67.2395 18.2181 74.728 14.5774ZM49.3319 71.8493C50.7222 64.4561 54.1518 55.3991 61.4522 46.5073C61.533 46.4175 61.6146 46.3289 61.6973 46.2415C61.8366 46.7127 61.9575 47.2298 62.0487 47.7887C62.4752 50.4037 62.2402 53.88 60.2246 57.7525C59.6301 58.8949 58.877 60.0787 57.9329 61.2903C57.3168 62.0808 56.6189 62.8838 55.83 63.6952C53.0792 66.5244 50.9533 69.2731 49.3319 71.8493ZM64.1409 38.5838C64.0173 35.361 64.7012 32.7291 65.7258 31.1563C66.4009 30.1201 67.098 29.7123 67.6619 29.617C68.2044 29.5253 69.0943 29.6433 70.3447 30.6629C70.6145 30.8828 70.6727 31.0305 70.6899 31.0857C70.7095 31.1486 70.7352 31.2879 70.6641 31.5664C70.5001 32.2078 69.9384 33.1447 68.8644 34.3336C67.5596 35.7781 65.8367 37.2396 64.1409 38.5838ZM65.2485 43.2541C65.3202 43.4189 65.3899 43.5882 65.4576 43.7616C69.6652 40.9661 73.892 39.8245 77.0725 39.5056C76.094 37.2172 75.3408 35.0663 74.7767 33.0447C74.2773 34.5889 73.2125 36.03 72.1026 37.2587C70.1355 39.4364 67.4136 41.5903 65.2485 43.2541ZM79.0435 43.7682C80.145 46.2367 80.8055 48.5503 81.1249 50.7047C79.6254 50.0623 77.8493 49.6514 75.8412 49.6656C73.0051 49.6857 69.8299 50.5495 66.4123 52.6392C66.619 51.125 66.6362 49.6919 66.5172 48.3681C71.3941 44.6042 76.4106 43.7555 79.0435 43.7682ZM65.9781 58.2853C70.0165 55.0257 73.3741 54.0469 75.872 54.0293C78.3349 54.0118 80.1689 54.9224 81.2618 55.8468C80.9718 58.7475 80.0653 61.335 78.8217 63.5831C77.502 61.997 75.7013 60.455 73.4177 59.4262C71.2656 58.4566 68.7705 57.982 65.9781 58.2853ZM76.1984 67.3531C74.2377 69.6481 72.0521 71.3274 70.2788 72.3253L49.3355 82.7306C50.0952 79.1463 52.5155 73.3639 58.9587 66.7372C59.7329 65.9409 60.4382 65.1432 61.0788 64.3465C65.6941 61.9717 69.1622 62.2951 71.6252 63.4048C73.699 64.3391 75.2433 65.9158 76.1984 67.3531ZM52.8244 85.8698L71.8029 76.4407C72.4612 76.4781 73.575 76.6422 75.0294 77.0328C76.7956 77.5073 78.9261 78.2794 81.1209 79.4221C85.0106 81.4471 88.9918 84.5744 91.5955 89.1669C86.3 91.6218 83.0156 92.3422 80.7267 91.9173C78.44 91.4928 76.5742 89.7781 74.4189 85.4399L73.4481 83.4859L71.4941 84.4567C65.6058 87.3823 59.2633 87.3478 54.406 86.4363C53.869 86.2375 53.3409 86.0486 52.8244 85.8698ZM51.2795 90.2063C51.893 90.3641 52.5358 90.5118 53.2041 90.6453C55.4368 91.4833 57.8205 92.5002 60.1214 93.6785C65.2038 96.2811 69.4132 99.4374 71.0927 102.818L75.6592 112.009L76.8955 111.395L75.6996 112.081C76.6813 113.792 78.7093 115.837 81.7201 116.734C81.7643 116.747 81.8086 116.76 81.8531 116.772C80.3852 117.26 78.8469 117.587 77.272 117.738C73.4748 118.102 69.0828 115.452 64.8253 111.152C60.7039 106.99 57.2334 101.811 55.3089 98.3165L51.2795 90.2063ZM89.5911 111.539C86.672 113.027 84.4827 113.003 82.9656 112.551C81.2025 112.026 80.0313 110.83 79.5134 109.959L77.0233 104.947C82.1534 102.892 84.9978 103.857 86.6055 105.245C88.334 106.738 89.2729 109.231 89.5911 111.539ZM75.0773 101.03L75.0007 100.876C73.0094 96.8682 68.8627 93.6004 64.4657 91.0716C66.7785 90.7648 69.1489 90.1838 71.4972 89.2358C73.5984 92.9025 76.1356 95.5033 79.9302 96.2077C83.5902 96.8872 87.933 95.673 93.3575 93.161C93.4248 93.3668 93.4897 93.575 93.552 93.7856C95.0789 98.9485 94.6427 103.469 92.959 107.151C92.2423 105.249 91.1261 103.383 89.4573 101.942C86.1709 99.1045 81.3923 98.4218 75.0773 101.03ZM76.7687 72.9883C78.0776 71.8257 79.379 70.4528 80.5676 68.8798C83.2521 65.3269 85.4036 60.6934 85.6917 55.1209C85.917 50.7631 84.9962 45.9332 82.4312 40.7163C78.3364 32.3884 77.4632 26.1706 77.7782 21.5917C78.0842 17.1432 79.5151 14.0693 80.5716 11.7998C80.6041 11.7299 80.6363 11.6607 80.6681 11.5923L82.7447 7.12403L78.0405 8.58966C67.1584 11.98 58.8372 19.7645 47.3485 35.9465C42.2196 43.1704 39.3204 51.2244 37.9297 57.9344C37.2336 61.293 36.9069 64.3554 36.8784 66.8535C36.8513 69.2285 37.085 71.4437 37.7862 72.8552L51.4413 100.339L51.463 100.379C53.5261 104.134 57.2355 109.689 61.7244 114.223C66.0927 118.635 71.7617 122.651 77.689 122.082C83.8 121.495 89.5514 118.698 93.5232 114.196C98.2255 108.865 100.317 101.272 97.7366 92.548C97.3985 91.4049 96.9953 90.3176 96.536 89.2844C93.5105 82.4781 88.1179 78.1451 83.136 75.5515C80.8815 74.3778 78.6822 73.5442 76.7687 72.9883Z" fill="#031821"/>
<path d="M31.0242 40.0019C32.1941 42.3565 35.0511 43.3169 37.4056 42.1471C39.7601 40.9772 40.7205 38.1202 39.5507 35.7657C38.3809 33.4112 35.5239 32.4508 33.1694 33.6206C30.8148 34.7904 29.8544 37.6474 31.0242 40.0019Z" fill="#031821"/>
</svg>
