<svg width="235" height="235" viewBox="0 0 235 235" fill="none" xmlns="http://www.w3.org/2000/svg">
<path fill-rule="evenodd" clip-rule="evenodd" d="M31.0365 61.4748C24.6704 63.4039 19.6763 67.9289 18.0091 69.9137C17.6964 70.2859 17.1411 70.3342 16.7688 70.0215C16.3965 69.7088 16.3482 69.1535 16.6609 68.7812C18.4798 66.6159 23.7446 61.8447 30.5259 59.7898C33.6652 58.8385 34.5239 57.2997 34.5615 56.5571C34.5796 56.1981 34.4349 56.0107 34.2782 55.9253C34.1045 55.8306 33.7019 55.7488 33.0307 56.0719C32.5926 56.2829 32.0665 56.0987 31.8555 55.6606C31.6446 55.2226 31.8288 54.6964 32.2668 54.4855C33.2764 53.9994 34.3024 53.9331 35.1209 54.3793C35.9562 54.8346 36.3671 55.7133 36.3199 56.646C36.2268 58.4869 34.471 60.4341 31.0365 61.4748ZM21.0656 71.798C20.8462 71.4384 20.9122 70.9739 21.2231 70.6897C25.601 66.6871 29.139 65.1524 32.0574 66.013C33.5149 66.4428 34.6822 67.438 35.629 68.7611C36.5722 70.079 37.3295 71.766 37.966 73.6756C38.1068 74.0981 37.9099 74.5593 37.5072 74.7498C37.1046 74.9402 36.6231 74.8 36.3858 74.423C34.907 72.0743 32.3408 71.1403 29.5436 70.9954C26.7474 70.8505 23.8868 71.5109 22.1232 72.1649C21.7283 72.3113 21.285 72.1575 21.0656 71.798ZM25.5188 69.4826C26.8188 69.2739 28.228 69.1641 29.6347 69.237C31.3528 69.326 33.1186 69.6928 34.6758 70.5218C34.5208 70.2606 34.3613 70.0151 34.1972 69.7858C33.4011 68.6734 32.5296 67.9879 31.5594 67.7018C30.128 67.2797 28.1853 67.6571 25.5188 69.4826Z" fill="#F3EAAB"/>
<path fill-rule="evenodd" clip-rule="evenodd" d="M16.9789 26.7324C16.8609 26.2607 17.1477 25.7827 17.6194 25.6648C18.7743 25.3761 20.2709 25.3703 21.6016 26.3447C22.9202 27.3103 23.8898 29.1039 24.3069 31.9958C24.7982 35.4025 24.811 43.9889 21.1494 53.9636C20.7376 55.0853 20.2174 56.3189 19.6254 57.6413C20.3378 56.8261 21.0615 56.0294 21.7821 55.2412C21.9322 55.077 22.0821 54.9132 22.2317 54.7498C25.1981 51.5092 28.0595 48.3832 30.0385 44.5774C30.6392 43.4221 30.7503 42.6355 30.6854 42.1562C30.6257 41.7146 30.4167 41.4951 30.1852 41.3815C29.6153 41.1018 28.6859 41.3541 28.3397 42.0849C28.1315 42.5243 27.6066 42.7118 27.1672 42.5037C26.7278 42.2955 26.5403 41.7706 26.7485 41.3312C27.5228 39.6965 29.5259 39.0965 30.961 39.8009C31.7321 40.1794 32.2937 40.911 32.4302 41.9201C32.5617 42.8914 32.2947 44.0549 31.6006 45.3897C29.5112 49.4079 26.5037 52.6921 23.5743 55.8909C23.4098 56.0705 23.2455 56.2499 23.0816 56.4292C19.9732 59.8294 17.0005 63.1891 15.0767 67.4002C11.9796 74.2049 8.98559 81.8265 8.50221 89.0773C8.46987 89.5624 8.05037 89.9295 7.56524 89.8971C7.08011 89.8648 6.71305 89.4453 6.74539 88.9601C7.25175 81.3648 10.3701 73.491 13.4743 66.6704C14.2774 64.906 15.0755 63.2197 15.8302 61.6252C17.3209 58.4759 18.642 55.6848 19.4965 53.3568C23.0561 43.6603 23.0144 35.3689 22.5642 32.2471C22.1819 29.5966 21.3462 28.34 20.5614 27.7653C19.7886 27.1995 18.8836 27.1636 18.0465 27.3729C17.5748 27.4909 17.0968 27.2041 16.9789 26.7324Z" fill="#F3EAAB"/>
<path fill-rule="evenodd" clip-rule="evenodd" d="M19.1879 99.8761C19.9833 99.5763 20.7612 99.6511 21.1438 99.7393C21.6175 99.8487 21.9129 100.321 21.8036 100.795C21.6943 101.269 21.2216 101.564 20.7478 101.455C20.5909 101.419 20.186 101.382 19.809 101.524C19.4966 101.641 19.1234 101.906 18.9415 102.657C18.9435 102.679 18.9616 102.774 19.1117 102.953C19.3156 103.197 19.6846 103.49 20.2358 103.77C21.3298 104.327 22.9856 104.755 24.9605 104.707C28.8572 104.613 34.0048 102.661 38.3808 96.1511C40.1117 92.5405 41.0487 88.8664 40.7365 85.489C40.6917 85.0049 41.0479 84.5761 41.5321 84.5314C42.0162 84.4866 42.445 84.8428 42.4897 85.327C42.8429 89.1479 41.7708 93.1712 39.9401 96.9713C37.0962 102.875 32.348 108.394 27.8399 112.053C25.5876 113.88 23.3525 115.279 21.4035 116.018C19.5266 116.731 17.5842 116.949 16.2686 115.836C15.547 115.226 15.1293 114.479 15.0275 113.669C14.9273 112.873 15.143 112.103 15.5273 111.442C16.285 110.138 17.7745 109.11 19.4232 108.819C19.9021 108.734 20.3587 109.054 20.4432 109.533C20.5277 110.012 20.208 110.468 19.7292 110.553C18.556 110.76 17.5294 111.501 17.0498 112.326C16.8155 112.73 16.7322 113.115 16.7744 113.45C16.8149 113.771 16.9809 114.132 17.4058 114.492C17.927 114.933 18.9968 115.048 20.7788 114.372C22.4887 113.723 24.5593 112.447 26.7304 110.685C29.1146 108.75 31.5686 106.272 33.7463 103.496C30.7226 105.585 27.6612 106.403 25.0033 106.468C22.7674 106.522 20.8177 106.042 19.4369 105.339C18.7505 104.99 18.1647 104.565 17.762 104.084C17.3695 103.615 17.057 102.97 17.2259 102.261C17.5429 100.929 18.3295 100.2 19.1879 99.8761Z" fill="#F3EAAB"/>
<path fill-rule="evenodd" clip-rule="evenodd" d="M6.87688 96.7503C7.55757 96.7503 8.10938 97.3021 8.10938 97.9828L8.10938 218.338H5.64437L5.64437 97.9828C5.64437 97.3021 6.19618 96.7503 6.87688 96.7503Z" fill="#F3EAAB"/>
<path fill-rule="evenodd" clip-rule="evenodd" d="M8.10929 8.08103V70.3435H5.64429V5.61602L8.10929 8.08103Z" fill="#F3EAAB"/>
<path fill-rule="evenodd" clip-rule="evenodd" d="M0.0292969 0V234.5H3.39084L3.39084 98.9788C3.58774 97.317 3.67402 95.685 3.7646 93.9715L3.76464 93.9708L3.76468 93.9702C4.15132 86.655 4.61659 77.8521 14.098 58.8893C21.1501 44.7851 21.1947 33.8644 14.4715 24.9003C15.8826 23.4893 19.7006 21.7628 23.6847 26.1453C27.6687 30.5278 26.5067 35.2754 25.4277 37.1015C27.3367 36.0224 31.7773 34.8355 34.2673 38.72C36.7573 42.6044 34.2258 47.5596 32.6488 49.5516C36.0518 49.6346 40.7414 51.1701 40.6169 56.7728C40.5036 61.8661 35.3878 64.7408 32.8978 64.4918C35.7198 65.9858 41.1896 69.8952 40.4924 73.5804C39.7952 77.2657 37.5458 78.5191 36.5083 78.8096C36.2998 78.6011 36.0583 78.3249 35.7797 78.0063C33.8956 75.8513 30.3169 71.7583 23.8092 73.5804C16.3391 75.6721 13.4755 80.677 12.9775 82.9181C15.0111 80.1375 20.8211 75.0247 27.7932 76.8175C36.5083 79.0585 39.4963 85.2836 36.5083 92.0067C33.262 99.3111 16.3391 100.722 16.9616 86.9021C20.0741 93.2518 28.8906 97.1344 33.1467 90.1392C37.4029 83.144 30.6567 80.1791 28.9137 79.6811C27.1707 79.1831 12.9775 80.4281 10.8609 101.469C10.7917 114 10.7986 145.813 10.8232 203.091H12.355V137.823C14.2225 140.438 18.3311 144.795 22.4396 141.932C26.5482 139.068 25.5521 134.586 22.9376 134.213C20.3231 133.839 20.6966 127.49 24.1826 123.755C25.5112 122.331 26.5685 121.071 27.9748 119.394C30.2585 116.671 33.4629 112.85 40.2433 105.453C49.0083 95.8912 45.1404 81.2996 42.1109 75.199C42.4444 69.8141 41.5179 67.4884 37.0063 65.1144C39.3483 64.7296 43.1954 60.401 42.8579 56.5238C42.6715 54.3826 41.8619 49.3027 35.8858 48.0576C39.1726 43.3764 37.9608 38.2635 36.2593 36.23L11.7325 11.7032V58.0178C10.363 59.7193 5.63187 67.3554 3.88885 75.5725V3.85955L0.0292969 0ZM35.6368 96.8623C41.3141 89.9898 39.5793 82.9596 38.0023 80.3036C38.3693 80.1201 38.6987 79.9892 38.9979 79.8703C39.9169 79.5051 40.5513 79.253 41.1149 77.938C42.1109 79.9301 45.3479 91.1352 41.7374 99.7258C40.6991 102.196 35.9593 107.474 31.1216 112.861C27.0329 117.414 22.8741 122.045 20.8211 125.124C16.339 131.847 19.8251 138.072 23.1866 138.446C21.4436 142.43 14.098 141.558 12.853 135.582C11.608 129.606 13.9735 123.008 16.588 118.401C14.7205 118.028 12.9775 115.538 13.102 113.421C13.105 113.37 13.1079 113.319 13.1108 113.268C13.2299 111.185 13.3673 108.782 19.0781 107.445C13.102 100.871 16.422 97.4018 18.8291 96.4888C22.0661 99.4768 29.9595 103.735 35.6368 96.8623ZM15.2185 91.3842C15.343 92.2557 15.7663 94.1731 16.4635 94.8703C14.9695 95.3683 13.102 96.2398 12.7285 97.6093C12.604 94.7458 14.4715 92.1312 15.2185 91.3842Z" fill="#F3EAAB"/>
<path fill-rule="evenodd" clip-rule="evenodd" d="M21.1444 119.724C21.5139 120.04 21.5572 120.596 21.2411 120.965C14.4172 128.943 16.7042 134.995 18.3666 136.865C18.6896 137.228 18.6569 137.785 18.2935 138.108C17.9301 138.431 17.3736 138.398 17.0506 138.035C14.7289 135.423 12.5837 128.377 19.9032 119.821C20.2192 119.451 20.7749 119.408 21.1444 119.724Z" fill="#F3EAAB"/>
<path d="M8.86887 92.2557C9.55647 92.9433 9.55647 94.0582 8.86887 94.7458C8.18126 95.4334 7.06644 95.4334 6.37884 94.7458C5.69123 94.0582 5.69123 92.9433 6.37884 92.2557C7.06644 91.5681 8.18126 91.5681 8.86887 92.2557Z" fill="#F3EAAB"/>
<path fill-rule="evenodd" clip-rule="evenodd" d="M61.4748 31.0072C63.4039 24.6411 67.9289 19.647 69.9136 17.9798C70.2859 17.6671 70.3342 17.1118 70.0215 16.7395C69.7088 16.3672 69.1535 16.3189 68.7812 16.6317C66.6159 18.4505 61.8447 23.7153 59.7898 30.4966C58.8385 33.6359 57.2997 34.4946 56.5571 34.5322C56.1981 34.5503 56.0107 34.4056 55.9253 34.2489C55.8306 34.0753 55.7488 33.6726 56.0719 33.0014C56.2829 32.5633 56.0987 32.0372 55.6606 31.8263C55.2226 31.6153 54.6964 31.7995 54.4855 32.2375C53.9994 33.2471 53.9331 34.2731 54.3793 35.0916C54.8346 35.9269 55.7133 36.3378 56.646 36.2906C58.4869 36.1975 60.4341 34.4417 61.4748 31.0072ZM71.798 21.0363C71.4384 20.8169 70.9739 20.8829 70.6897 21.1938C66.6871 25.5717 65.1524 29.1097 66.013 32.0281C66.4428 33.4856 67.438 34.6529 68.7611 35.5997C70.079 36.5429 71.766 37.3002 73.6756 37.9367C74.0981 38.0776 74.5593 37.8806 74.7498 37.478C74.9402 37.0753 74.8 36.5938 74.423 36.3565C72.0743 34.8777 71.1403 32.3115 70.9954 29.5143C70.8505 26.7181 71.5109 23.8575 72.1649 22.0939C72.3113 21.699 72.1575 21.2557 71.798 21.0363ZM69.4826 25.4895C69.2739 26.7895 69.1641 28.1987 69.237 29.6054C69.326 31.3235 69.6928 33.0893 70.5218 34.6465C70.2606 34.4915 70.0151 34.332 69.7858 34.1679C68.6734 33.3718 67.9879 32.5003 67.7018 31.5301C67.2797 30.0987 67.6571 28.156 69.4826 25.4895Z" fill="#F3EAAB"/>
<path fill-rule="evenodd" clip-rule="evenodd" d="M26.7324 16.9496C26.2607 16.8317 25.7827 17.1184 25.6648 17.5901C25.3761 18.745 25.3703 20.2416 26.3447 21.5723C27.3103 22.8909 29.1039 23.8605 31.9958 24.2776C35.4025 24.7689 43.9889 24.7817 53.9636 21.1201C55.0853 20.7083 56.3189 20.1881 57.6413 19.5962C56.8261 20.3085 56.0294 21.0322 55.2412 21.7528C55.077 21.9029 54.9132 22.0528 54.7498 22.2024C51.5092 25.1688 48.3832 28.0302 44.5774 30.0092C43.4221 30.6099 42.6355 30.721 42.1562 30.6561C41.7146 30.5964 41.4951 30.3874 41.3815 30.1559C41.1018 29.586 41.3541 28.6566 42.0849 28.3104C42.5243 28.1023 42.7118 27.5773 42.5037 27.1379C42.2955 26.6985 41.7706 26.511 41.3312 26.7192C39.6965 27.4935 39.0965 29.4966 39.8009 30.9317C40.1794 31.7028 40.911 32.2644 41.9201 32.4009C42.8914 32.5324 44.0549 32.2654 45.3897 31.5713C49.4079 29.4819 52.6921 26.4744 55.8909 23.545C56.0705 23.3805 56.2499 23.2162 56.4292 23.0523C59.8294 19.9439 63.1891 16.9713 67.4002 15.0474C74.2049 11.9503 81.8265 8.9563 89.0773 8.47291C89.5624 8.44057 89.9295 8.02108 89.8971 7.53595C89.8648 7.05081 89.4453 6.68375 88.9601 6.7161C81.3648 7.22245 73.491 10.3408 66.6704 13.445C64.906 14.2481 63.2197 15.0463 61.6252 15.8009C58.4759 17.2916 55.6848 18.6127 53.3568 19.4672C43.6603 23.0268 35.3689 22.9851 32.2471 22.5349C29.5966 22.1526 28.34 21.3169 27.7653 20.5321C27.1995 19.7594 27.1636 18.8544 27.3729 18.0172C27.4909 17.5455 27.2041 17.0675 26.7324 16.9496Z" fill="#F3EAAB"/>
<path fill-rule="evenodd" clip-rule="evenodd" d="M99.8761 19.1586C99.5763 19.954 99.6511 20.7319 99.7393 21.1145C99.8487 21.5882 100.321 21.8837 100.795 21.7743C101.269 21.665 101.564 21.1923 101.455 20.7186C101.419 20.5616 101.382 20.1567 101.524 19.7798C101.641 19.4674 101.906 19.0941 102.657 18.9122C102.679 18.9142 102.774 18.9323 102.953 19.0825C103.197 19.2863 103.49 19.6553 103.77 20.2065C104.327 21.3005 104.755 22.9563 104.707 24.9313C104.613 28.8279 102.661 33.9755 96.1511 38.3515C92.5405 40.0824 88.8664 41.0194 85.489 40.7072C85.0049 40.6624 84.5761 41.0186 84.5314 41.5028C84.4866 41.9869 84.8428 42.4157 85.327 42.4604C89.1479 42.8136 93.1711 41.7415 96.9713 39.9108C102.875 37.0669 108.394 32.3187 112.053 27.8106C113.88 25.5583 115.279 23.3232 116.018 21.3742C116.731 19.4974 116.949 17.5549 115.836 16.2393C115.226 15.5178 114.479 15.1001 113.669 14.9982C112.873 14.898 112.103 15.1137 111.442 15.4981C110.138 16.2557 109.11 17.7452 108.819 19.394C108.734 19.8728 109.054 20.3294 109.533 20.4139C110.012 20.4984 110.468 20.1788 110.553 19.6999C110.76 18.5267 111.501 17.5001 112.326 17.0205C112.73 16.7862 113.115 16.7029 113.45 16.7451C113.771 16.7856 114.132 16.9516 114.492 17.3765C114.933 17.8977 115.048 18.9675 114.372 20.7495C113.723 22.4594 112.447 24.53 110.685 26.7011C108.75 29.0853 106.272 31.5393 103.496 33.717C105.585 30.6933 106.403 27.6319 106.468 24.974C106.522 22.7381 106.042 20.7884 105.339 19.4076C104.99 18.7212 104.565 18.1354 104.084 17.7327C103.615 17.3402 102.97 17.0277 102.261 17.1966C100.929 17.5136 100.2 18.3002 99.8761 19.1586Z" fill="#F3EAAB"/>
<path fill-rule="evenodd" clip-rule="evenodd" d="M96.7503 6.84758C96.7503 7.52827 97.3021 8.08008 97.9828 8.08009L218.338 8.08009L218.338 5.61508L97.9828 5.61508C97.3021 5.61508 96.7503 6.16689 96.7503 6.84758Z" fill="#F3EAAB"/>
<path fill-rule="evenodd" clip-rule="evenodd" d="M8.08103 8.08L70.3435 8.08L70.3435 5.615L5.61602 5.61499L8.08103 8.08Z" fill="#F3EAAB"/>
<path fill-rule="evenodd" clip-rule="evenodd" d="M0 0L234.5 1.02503e-05L234.5 3.36155L98.9788 3.36155C97.317 3.55845 95.685 3.64473 93.9715 3.73531L93.9708 3.73535L93.9702 3.73539C86.655 4.12202 77.8521 4.5873 58.8893 14.0687C44.7851 21.1208 33.8644 21.1654 24.9003 14.4423C23.4893 15.8533 21.7628 19.6713 26.1453 23.6554C30.5278 27.6394 35.2754 26.4774 37.1015 25.3984C36.0224 27.3074 34.8355 31.748 38.72 34.238C42.6044 36.7281 47.5596 34.1965 49.5516 32.6195C49.6346 36.0225 51.1701 40.7121 56.7728 40.5876C61.8661 40.4743 64.7408 35.3585 64.4918 32.8685C65.9858 35.6905 69.8952 41.1603 73.5804 40.4631C77.2657 39.7659 78.519 37.5165 78.8096 36.479C78.6011 36.2705 78.3249 36.029 78.0063 35.7504C75.8513 33.8663 71.7583 30.2876 73.5804 23.7799C75.6721 16.3098 80.677 13.4462 82.9181 12.9482C80.1375 14.9818 75.0247 20.7918 76.8175 27.7639C79.0585 36.479 85.2836 39.467 92.0067 36.479C99.3111 33.2327 100.722 16.3098 86.9021 16.9323C93.2518 20.0448 97.1344 28.8613 90.1392 33.1175C83.144 37.3736 80.1791 30.6274 79.6811 28.8844C79.1831 27.1414 80.4281 12.9482 101.469 10.8317C114 10.7624 145.813 10.7693 203.091 10.794L203.091 12.3257L137.823 12.3257C140.438 14.1932 144.795 18.3018 141.932 22.4103C139.068 26.5189 134.586 25.5229 134.213 22.9083C133.839 20.2938 127.49 20.6673 123.755 24.1533C122.331 25.4819 121.071 26.5392 119.394 27.9455C116.671 30.2292 112.85 33.4336 105.453 40.2141C95.8912 48.979 81.2996 45.1111 75.199 42.0816C69.8141 42.4151 67.4884 41.4886 65.1144 36.977C64.7296 39.319 60.401 43.1662 56.5238 42.8286C54.3826 42.6422 49.3027 41.8326 48.0576 35.8565C43.3764 39.1433 38.2635 37.9315 36.23 36.23L11.7032 11.7032L58.0178 11.7032C59.7193 10.3337 67.3554 5.60258 75.5725 3.85956L3.85955 3.85955L0 0ZM96.8623 35.6075C89.9898 41.2848 82.9596 39.55 80.3036 37.973C80.1201 38.34 79.9892 38.6694 79.8703 38.9686C79.5051 39.8876 79.253 40.522 77.938 41.0856C79.9301 42.0816 91.1352 45.3186 99.7258 41.7081C102.196 40.6698 107.474 35.93 112.861 31.0923C117.414 27.0036 122.045 22.8448 125.124 20.7918C131.847 16.3097 138.072 19.7958 138.446 23.1573C142.43 21.4143 141.558 14.0687 135.582 12.8237C129.606 11.5787 123.008 13.9442 118.401 16.5587C118.028 14.6912 115.538 12.9482 113.421 13.0727C113.37 13.0757 113.319 13.0786 113.268 13.0815C111.185 13.2006 108.782 13.338 107.445 19.0488C100.871 13.0727 97.4018 16.3927 96.4888 18.7998C99.4768 22.0368 103.735 29.9302 96.8623 35.6075ZM91.3842 15.1892C92.2557 15.3137 94.1731 15.737 94.8703 16.4342C95.3683 14.9402 96.2398 13.0727 97.6093 12.6992C94.7458 12.5747 92.1312 14.4422 91.3842 15.1892Z" fill="#F3EAAB"/>
<path fill-rule="evenodd" clip-rule="evenodd" d="M119.724 21.1151C120.04 21.4846 120.596 21.5279 120.965 21.2118C128.943 14.3879 134.995 16.6749 136.865 18.3373C137.228 18.6603 137.785 18.6276 138.108 18.2642C138.431 17.9008 138.398 17.3443 138.035 17.0213C135.423 14.6996 128.377 12.5544 119.821 19.8739C119.451 20.1899 119.408 20.7456 119.724 21.1151Z" fill="#F3EAAB"/>
<path d="M92.2557 8.83958C92.9433 9.52718 94.0582 9.52718 94.7458 8.83958C95.4334 8.15197 95.4334 7.03715 94.7458 6.34954C94.0582 5.66194 92.9433 5.66194 92.2557 6.34954C91.5681 7.03715 91.5681 8.15197 92.2557 8.83958Z" fill="#F3EAAB"/>
</svg>
