<svg width="128" height="414" viewBox="0 0 128 414" fill="none" xmlns="http://www.w3.org/2000/svg">
<circle cx="4.03886" cy="4.03886" r="4.03886" transform="matrix(-1 0 0 1 37.1577 379.653)" fill="#D6F9FC"/>
<circle cx="1.61555" cy="1.61555" r="1.61555" transform="matrix(-1 0 0 1 37.1577 348.958)" fill="#D6F9FC"/>
<circle cx="1.61555" cy="1.61555" r="1.61555" transform="matrix(-1 0 0 1 14.5405 331.187)" fill="#D6F9FC"/>
<circle cx="1.61555" cy="1.61555" r="1.61555" transform="matrix(-1 0 0 1 111.473 306.953)" fill="#D6F9FC"/>
<circle cx="1.61555" cy="1.61555" r="1.61555" transform="matrix(-1 0 0 1 122.782 289.182)" fill="#D6F9FC"/>
<circle cx="1.61555" cy="1.61555" r="1.61555" transform="matrix(-1 0 0 1 45.2354 281.104)" fill="#D6F9FC"/>
<circle cx="1.61555" cy="1.61555" r="1.61555" transform="matrix(-1 0 0 1 93.7021 279.489)" fill="#D6F9FC"/>
<circle cx="1.61555" cy="1.61555" r="1.61555" transform="matrix(-1 0 0 1 67.8525 279.489)" fill="#D6F9FC"/>
<circle cx="1.61555" cy="1.61555" r="1.61555" transform="matrix(-1 0 0 1 105.01 264.949)" fill="#D6F9FC"/>
<circle cx="1.61555" cy="1.61555" r="1.61555" transform="matrix(-1 0 0 1 113.088 240.716)" fill="#D6F9FC"/>
<circle cx="0.807773" cy="0.807773" r="0.807773" transform="matrix(-1 0 0 1 85.6245 274.642)" fill="#D6F9FC"/>
<circle cx="0.807773" cy="0.807773" r="0.807773" transform="matrix(-1 0 0 1 93.7021 256.871)" fill="#D6F9FC"/>
<circle cx="0.807773" cy="0.807773" r="0.807773" transform="matrix(-1 0 0 1 63.0068 279.489)" fill="#D6F9FC"/>
<circle cx="0.807773" cy="0.807773" r="0.807773" transform="matrix(-1 0 0 1 85.6245 248.794)" fill="#D6F9FC"/>
<circle cx="0.807773" cy="0.807773" r="0.807773" transform="matrix(-1 0 0 1 35.5425 268.18)" fill="#D6F9FC"/>
<circle cx="1.61555" cy="1.61555" r="1.61555" transform="matrix(-1 0 0 1 32.3105 273.027)" fill="#D6F9FC"/>
<circle cx="0.807773" cy="0.807773" r="0.807773" transform="matrix(-1 0 0 1 35.5425 284.336)" fill="#D6F9FC"/>
<circle cx="0.807773" cy="0.807773" r="0.807773" transform="matrix(-1 0 0 1 42.0044 266.564)" fill="#D6F9FC"/>
<circle cx="4.03886" cy="4.03886" r="4.03886" transform="matrix(-1 0 0 1 80.7773 242.331)" fill="#D6F9FC"/>
<circle cx="4.03886" cy="4.03886" r="4.03886" transform="matrix(-1 0 0 1 93.7021 111.472)" fill="#D6F9FC"/>
<circle cx="4.03886" cy="4.03886" r="4.03886" transform="matrix(-1 0 0 1 51.6973 111.472)" fill="#D6F9FC"/>
<circle cx="3.23109" cy="3.23109" r="3.23109" transform="matrix(-1 0 0 1 82.3931 75.9302)" fill="#D6F9FC"/>
<circle cx="4.03886" cy="4.03886" r="4.03886" transform="matrix(-1 0 0 1 38.7739 129.243)" fill="#D6F9FC"/>
<circle cx="3.23109" cy="3.23109" r="3.23109" transform="matrix(-1 0 0 1 11.3096 168.016)" fill="#D6F9FC"/>
<circle cx="1.61555" cy="1.61555" r="1.61555" transform="matrix(-1 0 0 1 72.6997 211.636)" fill="#D6F9FC"/>
<circle cx="1.61555" cy="1.61555" r="1.61555" transform="matrix(-1 0 0 1 114.705 313.416)" fill="#D6F9FC"/>
<circle cx="3.23109" cy="3.23109" r="3.23109" transform="matrix(-1 0 0 1 51.6973 407.117)" fill="#D6F9FC"/>
<circle cx="2.42332" cy="2.42332" r="2.42332" transform="matrix(-1 0 0 1 69.4688 405.501)" fill="#D6F9FC"/>
<circle cx="0.807773" cy="0.807773" r="0.807773" transform="matrix(-1 0 0 1 14.5405 408.733)" fill="#D6F9FC"/>
<circle cx="0.807773" cy="0.807773" r="0.807773" transform="matrix(-1 0 0 1 32.3105 407.117)" fill="#D6F9FC"/>
<circle cx="0.807773" cy="0.807773" r="0.807773" transform="matrix(-1 0 0 1 9.69385 410.348)" fill="#D6F9FC"/>
<circle cx="1.61555" cy="1.61555" r="1.61555" transform="matrix(-1 0 0 1 119.55 410.348)" fill="#D6F9FC"/>
<circle cx="4.84664" cy="4.84664" r="4.84664" transform="matrix(-1 0 0 1 84.0083 384.5)" fill="#8AF5F7"/>
<circle cx="2.42332" cy="2.42332" r="2.42332" transform="matrix(-1 0 0 1 56.5439 382.884)" fill="#8AF5F7"/>
<circle cx="1.61555" cy="1.61555" r="1.61555" transform="matrix(-1 0 0 1 96.9331 378.037)" fill="#8AF5F7"/>
<circle cx="1.61555" cy="1.61555" r="1.61555" transform="matrix(-1 0 0 1 114.705 368.344)" fill="#8AF5F7"/>
<circle cx="1.61555" cy="1.61555" r="1.61555" transform="matrix(-1 0 0 1 63.0068 358.651)" fill="#8AF5F7"/>
<circle cx="0.807773" cy="0.807773" r="0.807773" transform="matrix(-1 0 0 1 53.313 374.806)" fill="#8AF5F7"/>
<circle cx="1.61555" cy="1.61555" r="1.61555" transform="matrix(-1 0 0 1 45.2354 368.344)" fill="#8AF5F7"/>
<circle cx="1.61555" cy="1.61555" r="1.61555" transform="matrix(-1 0 0 1 35.5425 365.113)" fill="#8AF5F7"/>
<circle cx="0.807773" cy="0.807773" r="0.807773" transform="matrix(-1 0 0 1 82.3931 360.266)" fill="#8AF5F7"/>
<circle cx="0.807773" cy="0.807773" r="0.807773" transform="matrix(-1 0 0 1 108.242 336.033)" fill="#8AF5F7"/>
<circle cx="1.61555" cy="1.61555" r="1.61555" transform="matrix(-1 0 0 1 116.319 281.104)" fill="#8AF5F7"/>
<circle cx="1.61555" cy="1.61555" r="1.61555" transform="matrix(-1 0 0 1 117.936 247.178)" fill="#8AF5F7"/>
<circle cx="1.61555" cy="1.61555" r="1.61555" transform="matrix(-1 0 0 1 51.6973 277.874)" fill="#8AF5F7"/>
<circle cx="2.42332" cy="2.42332" r="2.42332" transform="matrix(-1 0 0 1 96.9331 261.718)" fill="#8AF5F7"/>
<circle cx="2.42332" cy="2.42332" r="2.42332" transform="matrix(-1 0 0 1 117.936 203.558)" fill="#8AF5F7"/>
<circle cx="2.42332" cy="2.42332" r="2.42332" transform="matrix(-1 0 0 1 122.782 164.785)" fill="#8AF5F7"/>
<circle cx="1.61555" cy="1.61555" r="1.61555" transform="matrix(-1 0 0 1 87.2393 218.098)" fill="#8AF5F7"/>
<circle cx="1.61555" cy="1.61555" r="1.61555" transform="matrix(-1 0 0 1 90.4712 198.712)" fill="#8AF5F7"/>
<circle cx="1.61555" cy="1.61555" r="1.61555" transform="matrix(-1 0 0 1 96.9331 180.94)" fill="#8AF5F7"/>
<circle cx="1.61555" cy="1.61555" r="1.61555" transform="matrix(-1 0 0 1 58.1597 200.328)" fill="#8AF5F7"/>
<circle cx="1.61555" cy="1.61555" r="1.61555" transform="matrix(-1 0 0 1 51.6973 201.943)" fill="#8AF5F7"/>
<circle cx="1.61555" cy="1.61555" r="1.61555" transform="matrix(-1 0 0 1 38.7739 88.8547)" fill="#8AF5F7"/>
<circle cx="2.42332" cy="2.42332" r="2.42332" transform="matrix(-1 0 0 1 79.1621 93.7012)" fill="#8AF5F7"/>
<circle cx="2.42332" cy="2.42332" r="2.42332" transform="matrix(-1 0 0 1 64.6221 95.3171)" fill="#8AF5F7"/>
<circle cx="2.42332" cy="2.42332" r="2.42332" transform="matrix(-1 0 0 1 4.84619 75.9302)" fill="#8AF5F7"/>
<circle cx="2.42332" cy="2.42332" r="2.42332" transform="matrix(-1 0 0 1 127.628 74.3147)" fill="#8AF5F7"/>
<circle cx="2.42332" cy="2.42332" r="2.42332" transform="matrix(-1 0 0 1 35.5425 40.3882)" fill="#8AF5F7"/>
<circle cx="4.03886" cy="4.03886" r="4.03886" transform="matrix(-1 0 0 1 58.1597 0)" fill="#8AF5F7"/>
<circle cx="2.42332" cy="2.42332" r="2.42332" transform="matrix(-1 0 0 1 58.1597 14.5396)" fill="#8AF5F7"/>
<circle cx="1.61555" cy="1.61555" r="1.61555" transform="matrix(-1 0 0 1 33.9268 84.0081)" fill="#8AF5F7"/>
<circle cx="1.61555" cy="1.61555" r="1.61555" transform="matrix(-1 0 0 1 51.6973 216.482)" fill="#8AF5F7"/>
<circle cx="1.61555" cy="1.61555" r="1.61555" transform="matrix(-1 0 0 1 16.1553 237.485)" fill="#8AF5F7"/>
<circle cx="0.807773" cy="0.807773" r="0.807773" transform="matrix(-1 0 0 1 35.5425 210.021)" fill="#8AF5F7"/>
<circle cx="2.42332" cy="2.42332" r="2.42332" transform="matrix(-1 0 0 1 56.5439 239.1)" fill="#8AF5F7"/>
<circle cx="1.61555" cy="1.61555" r="1.61555" transform="matrix(-1 0 0 1 61.3911 252.025)" fill="#8AF5F7"/>
<circle cx="3.23109" cy="3.23109" r="3.23109" transform="matrix(-1 0 0 1 40.3887 243.947)" fill="#8AF5F7"/>
<circle cx="1.61555" cy="1.61555" r="1.61555" transform="matrix(-1 0 0 1 88.8555 355.419)" fill="#8AF5F7"/>
<circle cx="0.807773" cy="0.807773" r="0.807773" transform="matrix(-1 0 0 1 50.082 357.035)" fill="#8AF5F7"/>
<circle cx="0.807773" cy="0.807773" r="0.807773" transform="matrix(-1 0 0 1 17.7715 305.338)" fill="#8AF5F7"/>
<circle cx="29.0804" cy="290.798" r="1.61555" fill="#8AF5F7"/>
<circle cx="8.07795" cy="297.26" r="1.61555" fill="#8AF5F7"/>
<circle cx="19.387" cy="279.489" r="1.61555" fill="#8AF5F7"/>
<circle cx="1.61555" cy="1.61555" r="1.61555" transform="matrix(-1 0 0 1 6.4624 352.188)" fill="#8AF5F7"/>
<circle cx="1.61555" cy="1.61555" r="1.61555" transform="matrix(-1 0 0 1 30.6958 332.802)" fill="#8AF5F7"/>
<circle cx="0.807773" cy="0.807773" r="0.807773" transform="matrix(-1 0 0 1 16.1553 337.648)" fill="#8AF5F7"/>
<circle cx="0.807773" cy="0.807773" r="0.807773" transform="matrix(-1 0 0 1 17.7715 347.342)" fill="#8AF5F7"/>
<circle cx="0.807773" cy="0.807773" r="0.807773" transform="matrix(-1 0 0 1 21.002 348.958)" fill="#8AF5F7"/>
<circle cx="3.23109" cy="3.23109" r="3.23109" transform="matrix(-1 0 0 1 82.3931 386.115)" fill="white"/>
</svg>
