<svg width="67" height="67" viewBox="0 0 67 67" fill="none" xmlns="http://www.w3.org/2000/svg">
<path fill-rule="evenodd" clip-rule="evenodd" d="M54.7015 16.3456C56.243 23.2823 55.0373 30.4399 51.7551 34.8162C48.2695 39.4636 44.9284 41.7989 41.1626 42.6955C37.3233 43.6097 32.798 43.092 26.8073 41.4945C21.6285 40.1135 18.8693 35.4293 18.3044 30.063C17.7317 24.622 19.5043 19.2246 22.5362 16.8664C25.7033 14.4032 28.928 14.2699 31.6393 15.3714C34.4269 16.5039 36.7396 18.978 37.8027 21.8128C38.6419 24.0506 37.2973 27.002 34.603 29.046C33.3164 30.022 31.8956 30.6333 30.6216 30.7716C29.3829 30.906 28.3355 30.5986 27.5334 29.7965C26.8092 29.0724 26.6632 28.5573 26.6517 28.2709C26.6404 27.99 26.7468 27.6399 27.129 27.2152C27.9519 26.3012 29.6651 25.5084 31.4512 25.2703C33.2372 25.0321 33.277 21.7672 31.0241 22.0675C28.7713 22.3679 26.2327 23.3815 24.7276 25.0535C23.9459 25.9219 23.3693 27.0597 23.4232 28.4007C23.4769 29.7361 24.1442 30.9768 25.2487 32.0812C26.8699 33.7025 28.9526 34.2028 30.9702 33.9838C32.9525 33.7687 34.9143 32.8654 36.5559 31.6201C39.7179 29.2213 42.4122 24.9027 40.8281 20.6783C39.4678 17.051 36.5301 13.8707 32.8554 12.3779C29.1046 10.8541 24.6555 11.1248 20.5525 14.3159C16.3145 17.6122 14.4521 24.3313 15.0911 30.4012C15.7379 36.5457 19.037 42.7664 25.9748 44.6165C32.1006 46.2501 37.2686 46.9441 41.911 45.8388C46.6267 44.716 50.5555 41.8007 54.34 36.7549C58.3277 31.4378 59.5453 23.2478 57.8557 15.6446C56.1553 7.99279 52.2394 1.8591 41.9196 0.116943C46.5905 3.47464 53.1709 9.4575 54.7015 16.3456ZM19.1854 7.87277C25.7135 4.89674 33.3817 4.81176 38.4418 8.06467C43.7091 11.4508 46.2302 16.063 46.5905 20.5667C46.9526 25.0928 45.1465 29.6564 41.4657 32.9692C35.7213 38.1392 29.4957 36.3425 27.5334 34.8162C25.5711 33.2899 23.3226 34.8174 26.2069 37.0608C29.0912 39.3041 36.4473 41.8327 43.6272 35.3708C48.0241 31.4136 50.257 25.8801 49.8113 20.309C49.3638 14.7156 46.2305 9.23055 40.189 5.34675C33.9403 1.32971 25.0491 1.64858 17.8451 4.93277C10.5998 8.23576 4.58116 14.7674 4.58116 23.6689C4.58116 31.7927 5.37843 38.4397 8.54988 43.689C11.7667 49.0133 17.2462 52.6239 25.9472 55.1099C35.0091 57.699 47.6896 54.8945 56.445 47.0886C60.8583 43.1538 64.309 37.9201 65.7925 31.4248C67.2759 24.9298 65.2578 14.6263 61.9328 5.89796C62.6425 14.7835 63.961 24.9324 62.6425 30.7054C61.324 36.4782 58.2621 41.1397 54.2948 44.6768C46.2888 51.8146 34.7362 54.2607 26.8348 52.0031C18.5727 49.6425 13.955 46.3871 11.3154 42.0181C8.63053 37.5742 7.81225 31.7006 7.81225 23.6689C7.81225 16.415 12.6985 10.83 19.1854 7.87277ZM32.4185 66.1928C43.0395 67.0621 53.855 64.0576 58.7016 57.5954C48.2006 62.4421 42.4573 63.7725 32.6821 62.9724C22.9913 62.1793 10.2353 55.9799 0.0251168 45.5954C4.58091 60.0187 21.713 65.3165 32.4185 66.1928Z" fill="#DBFAFD"/>
</svg>
