<svg width="224" height="67" viewBox="0 0 224 67" fill="none" xmlns="http://www.w3.org/2000/svg">
<path fill-rule="evenodd" clip-rule="evenodd" d="M77.9483 28.5948C75.882 37.0586 77.1303 45.7275 81.4005 50.0836C79.7263 45.1306 78.552 37.0988 80.4774 29.2122C82.3869 21.3909 87.3428 13.6867 98.029 9.17843C104.766 6.33634 110.545 5.87076 115.382 6.8676C120.223 7.86529 124.216 10.3474 127.343 13.5525C130.477 16.7638 132.729 20.6888 134.063 24.5158C135.404 28.3619 135.782 32.0026 135.293 34.6433C133.181 46.0519 126.55 54.871 115.266 55.274C103.643 55.6891 94.3408 48.6546 92.7326 39.0052C91.9386 34.2415 93.7287 28.7752 97.293 24.8544C100.826 20.9681 106.004 18.6997 111.98 20.094C117.944 21.4856 120.849 25.4978 121.682 29.7606C122.538 34.1376 121.187 38.6334 118.769 40.8661C116.34 43.1075 112.285 43.8276 108.912 42.801C107.253 42.296 105.839 41.3902 104.889 40.1256C103.952 38.8774 103.401 37.1952 103.593 34.9931C103.79 32.7284 104.51 31.3716 105.334 30.5773C106.16 29.7817 107.222 29.4242 108.342 29.4022C109.476 29.38 110.61 29.707 111.46 30.2063C112.366 30.7379 112.684 31.2911 112.719 31.5707C112.906 33.0679 112.491 33.8781 112.206 34.1408C112.082 34.2553 112 34.2618 111.955 34.2591C111.9 34.2556 111.723 34.2226 111.46 33.9599C111.198 33.6972 108.699 34.9857 109.619 35.8007C110.54 36.6158 110.97 36.8067 111.795 36.8575C112.632 36.909 113.391 36.5901 113.972 36.0538C115.097 35.0148 115.549 33.2217 115.303 31.2478C115.121 29.7918 113.975 28.6636 112.778 27.9613C111.527 27.2267 109.922 26.7674 108.291 26.7994C106.645 26.8316 104.913 27.369 103.528 28.7022C102.143 30.0366 101.236 32.0425 100.999 34.7676C100.757 37.5552 101.454 39.8865 102.808 41.6891C104.149 43.4753 106.071 44.6576 108.154 45.2915C112.266 46.5429 117.322 45.7443 120.534 42.7791C123.756 39.8051 125.226 34.3214 124.237 29.2613C123.226 24.087 119.624 19.2044 112.571 17.5588C105.53 15.9158 99.4268 18.6371 95.3667 23.1032C91.338 27.5349 89.2231 33.7836 90.1647 39.4332C92.0276 50.6106 102.685 58.3284 115.359 57.8757C128.373 57.4109 135.627 47.1388 137.853 35.1174C138.449 31.9005 137.96 27.7855 136.521 23.6588C135.076 19.5131 132.636 15.2484 129.207 11.7344C125.772 8.21414 121.33 5.43536 115.908 4.31784C110.48 3.19946 104.165 3.76436 97.0171 6.7798C85.4881 11.6436 80.0306 20.0656 77.9483 28.5948Z" fill="#DBFAFD"/>
<path fill-rule="evenodd" clip-rule="evenodd" d="M88.9161 54.6075C94.5312 62.6614 104.104 68.3547 116.798 66.5413C129.514 64.7246 137.337 56.2931 141.046 46.4016C144.735 36.5649 144.421 25.145 140.8 16.9961C137.884 10.4368 132.814 5.84008 127.714 2.87307C122.637 -0.0812022 117.482 -0.698633 113.98 1.03649C116.828 1.10272 121.627 2.34296 126.405 5.12328C131.162 7.89086 135.782 12.1165 138.421 18.0534C141.741 25.5245 142.079 36.233 138.608 45.4875C135.158 54.6872 128.011 62.3096 116.43 63.9641C104.826 65.6218 96.1754 60.4678 91.0517 53.1186C85.8794 45.6999 84.3857 36.1696 87.0235 29.2707C89.7437 22.1564 94.4088 17.0322 99.9456 14.594C105.454 12.1681 111.966 12.3362 118.579 16.0559C125.053 19.6975 127.489 25.5368 127.899 31.1248C128.105 33.9299 127.795 36.6532 127.228 38.9552C126.655 41.2782 125.842 43.0834 125.107 44.0942C123.561 46.2192 120.234 48.6763 116.281 49.9085C112.359 51.1309 108.03 51.0887 104.332 48.5583C100.507 45.9413 98.1287 41.9402 97.7339 37.7942C97.3424 33.6839 98.889 29.3333 103.115 25.9126C107.084 22.6993 111.568 23.6139 114.433 26.24C117.337 28.9025 118.294 32.9999 115.614 36.2165C114.164 37.9563 112.855 38.4261 111.886 38.4126C110.886 38.3987 109.949 37.8677 109.268 37.0377C108.572 36.1894 108.284 35.2011 108.385 34.485C108.432 34.1479 108.561 33.8799 108.765 33.6712C108.971 33.4607 109.493 33.9873 110.54 33.1448C111.586 32.3024 110.439 30.3622 109.416 30.5667C108.394 30.7712 107.539 31.2017 106.904 31.8506C106.268 32.5012 105.922 33.301 105.806 34.1232C105.582 35.7256 106.216 37.4221 107.255 38.689C108.31 39.9742 109.922 40.9889 111.85 41.0157C113.81 41.0429 115.81 40.0483 117.614 37.8831C121.442 33.2896 119.796 27.6245 116.192 24.321C112.548 20.9812 106.619 19.7262 101.477 23.8891C96.5905 27.8446 94.6659 33.0395 95.1423 38.041C95.6152 43.0067 98.4432 47.6834 102.862 50.7069C107.408 53.8172 112.625 53.775 117.056 52.3939C121.455 51.0228 125.287 48.2733 127.212 45.6254C128.213 44.2499 129.135 42.0958 129.756 39.5782C130.381 37.0397 130.723 34.041 130.495 30.9343C130.037 24.6988 127.266 17.9553 119.855 13.7869C112.584 9.6965 105.211 9.43069 98.8964 12.2115C92.6097 14.9799 87.5122 20.7031 84.5918 28.341C81.5891 36.1944 83.3495 46.6231 88.9161 54.6075Z" fill="#DBFAFD"/>
<path d="M18.6132 35.4107C18.6132 36.1593 18.6132 33.9137 18.6132 33.1652C18.6132 32.3668 17.8641 31.4184 17.1842 31.0784C15.6451 30.3089 13.1917 30.4187 12.0353 31.6908C8.05191 36.0725 11.1294 41.3309 16.5718 41.3309C21.1084 41.3309 24.939 39.0879 28.1398 35.8871C35.9121 28.1148 44.1479 9.90148 58.2167 16.9359C61.7801 18.7176 64.0509 21.133 65.4751 24.7954C68.5245 32.6367 66.9233 41.425 60.984 47.3644C50.924 57.4243 36.1868 42.3192 47.7034 35.9211C48.9918 35.2053 50.6441 36.1886 51.2759 37.4522" stroke="url(#paint0_linear_777_64)" stroke-width="4" stroke-linecap="round"/>
<path d="M36.1694 33.9819C37.0782 24.8939 56.9919 25.9719 56.9919 36.2275C56.9919 39.128 56.9246 40.976 53.9298 42.0455C51.563 42.8908 47.9351 42.9838 49.0304 39.6979" stroke="url(#paint1_linear_777_64)" stroke-width="4" stroke-linecap="round"/>
<path d="M42.7019 25.612C43.8164 22.64 50.3471 21.9323 52.6682 22.2894C58.0275 23.1139 62.5037 28.9189 62.5037 33.7777C62.8644 43.4974 48.1819 52.0622 47.3662 41.4582" stroke="url(#paint2_linear_777_64)" stroke-width="4" stroke-linecap="round"/>
<path d="M2.48608 36.0228C2.48608 33.1602 5.00087 30.2763 7.22671 28.6737C16.1122 22.2761 24.9347 30.0381 20.4506 36.6352" stroke="url(#paint3_linear_777_64)" stroke-width="4" stroke-linecap="round"/>
<path d="M18.613 35.4098C18.613 36.1583 18.613 33.9127 18.613 33.1642C18.613 32.3658 17.8639 31.4174 17.184 31.0774C15.6449 30.3079 13.1915 30.4178 12.035 31.6898C8.05167 36.0716 11.1292 41.3299 16.5715 41.3299C21.1081 41.3299 24.9387 39.087 28.1396 35.8861C35.9118 28.1138 44.1477 9.90051 58.2165 16.9349C61.7798 18.7166 64.0506 21.132 65.4749 24.7944C68.5243 32.6357 66.9231 41.4241 60.9837 47.3634C50.9238 57.4234 36.1866 42.3182 47.7032 35.9201C48.9916 35.2043 50.6439 36.1876 51.2757 37.4512" stroke="white" stroke-width="2" stroke-linecap="round"/>
<path d="M36.1692 33.981C37.078 24.8929 56.9917 25.9709 56.9917 36.2265C56.9917 39.1271 56.9243 40.975 53.9295 42.0446C51.5628 42.8898 47.9348 42.9828 49.0301 39.6969" stroke="white" stroke-width="2" stroke-linecap="round"/>
<path d="M42.7017 25.611C43.8162 22.639 50.3468 21.9314 52.668 22.2885C58.0273 23.113 62.5034 28.9179 62.5034 33.7767C62.8641 43.4964 48.1817 52.0612 47.366 41.4572" stroke="white" stroke-width="2" stroke-linecap="round"/>
<path d="M2.48584 36.0225C2.48584 33.1599 5.00062 30.276 7.22647 28.6734C16.112 22.2759 24.9345 30.0378 20.4503 36.635" stroke="white" stroke-width="2" stroke-linecap="round"/>
<path d="M205.216 30.6657C205.216 29.9172 205.216 32.1627 205.216 32.9112C205.216 33.7096 205.965 34.6581 206.645 34.998C208.184 35.7676 210.638 35.6577 211.794 34.3856C215.778 30.0039 212.7 24.7456 207.258 24.7456C202.721 24.7456 198.891 26.9885 195.69 30.1893C187.918 37.9616 179.682 56.1749 165.613 49.1405C162.05 47.3588 159.779 44.9434 158.354 41.281C155.305 33.4397 156.906 24.6514 162.846 18.712C172.906 8.65206 187.643 23.7572 176.126 30.1553C174.838 30.8711 173.185 29.8879 172.554 28.6242" stroke="url(#paint4_linear_777_64)" stroke-width="4" stroke-linecap="round"/>
<path d="M187.66 32.0945C186.751 41.1826 166.837 40.1046 166.837 29.8489C166.837 26.9484 166.905 25.1004 169.9 24.0309C172.266 23.1856 175.894 23.0926 174.799 26.3785" stroke="url(#paint5_linear_777_64)" stroke-width="4" stroke-linecap="round"/>
<path d="M181.128 40.4644C180.013 43.4365 173.483 44.1441 171.161 43.787C165.802 42.9625 161.326 37.1575 161.326 32.2987C160.965 22.579 175.648 14.0143 176.463 24.6182" stroke="url(#paint6_linear_777_64)" stroke-width="4" stroke-linecap="round"/>
<path d="M221.343 30.0536C221.343 32.9163 218.828 35.8001 216.603 37.4028C207.717 43.8003 198.895 36.0384 203.379 29.4412" stroke="url(#paint7_linear_777_64)" stroke-width="4" stroke-linecap="round"/>
<path d="M205.216 30.6664C205.216 29.9179 205.216 32.1634 205.216 32.912C205.216 33.7104 205.965 34.6588 206.645 34.9988C208.184 35.7683 210.638 35.6584 211.794 34.3863C215.777 30.0046 212.7 24.7463 207.258 24.7463C202.721 24.7463 198.89 26.9892 195.69 30.1901C187.917 37.9623 179.681 56.1757 165.613 49.1412C162.049 47.3596 159.778 44.9441 158.354 41.2818C155.305 33.4405 156.906 24.6521 162.845 18.7128C172.905 8.65279 187.643 23.758 176.126 30.156C174.838 30.8718 173.185 29.8886 172.553 28.625" stroke="white" stroke-width="2" stroke-linecap="round"/>
<path d="M187.66 32.0952C186.751 41.1833 166.837 40.1053 166.837 29.8496C166.837 26.9491 166.905 25.1012 169.899 24.0316C172.266 23.1863 175.894 23.0934 174.799 26.3792" stroke="white" stroke-width="2" stroke-linecap="round"/>
<path d="M181.127 40.4651C180.013 43.4372 173.482 44.1448 171.161 43.7877C165.802 42.9632 161.326 37.1583 161.326 32.2995C160.965 22.5797 175.647 14.015 176.463 24.619" stroke="white" stroke-width="2" stroke-linecap="round"/>
<path d="M221.343 30.0536C221.343 32.9163 218.828 35.8001 216.602 37.4028C207.717 43.8003 198.894 36.0384 203.379 29.4412" stroke="white" stroke-width="2" stroke-linecap="round"/>
<defs>
<linearGradient id="paint0_linear_777_64" x1="10.2261" y1="33.0395" x2="66.9859" y2="33.0395" gradientUnits="userSpaceOnUse">
<stop offset="0.0260417" stop-color="#5FDAEB" stop-opacity="0.31"/>
<stop offset="1" stop-color="#5CF1DC"/>
</linearGradient>
<linearGradient id="paint1_linear_777_64" x1="36.1694" y1="35.1707" x2="56.9919" y2="35.1707" gradientUnits="userSpaceOnUse">
<stop offset="0.0260417" stop-color="#5FDAEB" stop-opacity="0.31"/>
<stop offset="1" stop-color="#5CF1DC"/>
</linearGradient>
<linearGradient id="paint2_linear_777_64" x1="42.7019" y1="34.273" x2="62.5102" y2="34.273" gradientUnits="userSpaceOnUse">
<stop offset="0.0260417" stop-color="#5FDAEB" stop-opacity="0.31"/>
<stop offset="1" stop-color="#5CF1DC"/>
</linearGradient>
<linearGradient id="paint3_linear_777_64" x1="2.48608" y1="31.4603" x2="21.6569" y2="31.4603" gradientUnits="userSpaceOnUse">
<stop offset="0.0260417" stop-color="#5FDAEB" stop-opacity="0.31"/>
<stop offset="1" stop-color="#5CF1DC"/>
</linearGradient>
<linearGradient id="paint4_linear_777_64" x1="213.604" y1="33.0369" x2="156.844" y2="33.0369" gradientUnits="userSpaceOnUse">
<stop offset="0.0260417" stop-color="#5FDAEB" stop-opacity="0.31"/>
<stop offset="1" stop-color="#5CF1DC"/>
</linearGradient>
<linearGradient id="paint5_linear_777_64" x1="187.66" y1="30.9057" x2="166.837" y2="30.9057" gradientUnits="userSpaceOnUse">
<stop offset="0.0260417" stop-color="#5FDAEB" stop-opacity="0.31"/>
<stop offset="1" stop-color="#5CF1DC"/>
</linearGradient>
<linearGradient id="paint6_linear_777_64" x1="181.128" y1="31.8034" x2="161.319" y2="31.8034" gradientUnits="userSpaceOnUse">
<stop offset="0.0260417" stop-color="#5FDAEB" stop-opacity="0.31"/>
<stop offset="1" stop-color="#5CF1DC"/>
</linearGradient>
<linearGradient id="paint7_linear_777_64" x1="221.343" y1="34.6161" x2="202.172" y2="34.6161" gradientUnits="userSpaceOnUse">
<stop offset="0.0260417" stop-color="#5FDAEB" stop-opacity="0.31"/>
<stop offset="1" stop-color="#5CF1DC"/>
</linearGradient>
</defs>
</svg>
