<svg width="285" height="72" viewBox="0 0 285 72" fill="none" xmlns="http://www.w3.org/2000/svg">
<circle cx="35.579" cy="35.579" r="35.579" transform="matrix(-4.37114e-08 1 1 4.37114e-08 105.262 0)" fill="url(#paint0_radial_422_15807)"/>
<path fill-rule="evenodd" clip-rule="evenodd" d="M106.948 30.5948C104.882 39.0586 106.13 47.7275 110.401 52.0836C108.726 47.1306 107.552 39.0988 109.477 31.2122C111.387 23.3909 116.343 15.6867 127.029 11.1784C133.766 8.33634 139.545 7.87076 144.382 8.8676C149.223 9.86529 153.216 12.3474 156.343 15.5525C159.477 18.7638 161.729 22.6888 163.063 26.5158C164.404 30.3619 164.782 34.0026 164.293 36.6433C162.181 48.0519 155.55 56.871 144.266 57.274C132.643 57.6891 123.341 50.6546 121.733 41.0052C120.939 36.2415 122.729 30.7752 126.293 26.8544C129.826 22.9681 135.004 20.6997 140.98 22.094C146.944 23.4856 149.849 27.4978 150.682 31.7606C151.538 36.1376 150.187 40.6334 147.769 42.8661C145.34 45.1075 141.285 45.8276 137.912 44.801C136.253 44.296 134.839 43.3902 133.889 42.1256C132.952 40.8774 132.401 39.1952 132.593 36.9931C132.79 34.7284 133.51 33.3716 134.334 32.5773C135.16 31.7817 136.222 31.4242 137.342 31.4022C138.476 31.38 139.61 31.707 140.46 32.2063C141.366 32.7379 141.684 33.2911 141.719 33.5707C141.906 35.0679 141.491 35.8781 141.206 36.1408C141.082 36.2553 141 36.2618 140.955 36.2591C140.9 36.2556 140.723 36.2226 140.46 35.9599C140.198 35.6972 137.699 36.9857 138.619 37.8007C139.54 38.6158 139.97 38.8067 140.795 38.8575C141.632 38.909 142.391 38.5901 142.972 38.0538C144.097 37.0148 144.549 35.2217 144.303 33.2478C144.121 31.7918 142.975 30.6636 141.778 29.9613C140.527 29.2267 138.922 28.7674 137.291 28.7994C135.645 28.8316 133.913 29.369 132.528 30.7022C131.143 32.0366 130.236 34.0425 129.999 36.7676C129.757 39.5552 130.454 41.8865 131.808 43.6891C133.149 45.4753 135.071 46.6576 137.154 47.2915C141.266 48.5429 146.322 47.7443 149.534 44.7791C152.756 41.8051 154.226 36.3214 153.237 31.2613C152.226 26.087 148.624 21.2044 141.571 19.5588C134.53 17.9158 128.427 20.6371 124.367 25.1032C120.338 29.5349 118.223 35.7836 119.165 41.4332C121.028 52.6106 131.685 60.3284 144.359 59.8757C157.373 59.4109 164.627 49.1388 166.853 37.1174C167.449 33.9005 166.96 29.7855 165.521 25.6588C164.076 21.5131 161.636 17.2484 158.207 13.7344C154.772 10.2141 150.33 7.43536 144.908 6.31784C139.48 5.19946 133.165 5.76436 126.017 8.7798C114.488 13.6436 109.031 22.0656 106.948 30.5948Z" fill="#DBFAFD"/>
<path fill-rule="evenodd" clip-rule="evenodd" d="M12.5231 29.9386C12.5231 34.9709 8.44363 39.0503 3.41138 39.0503C2.20515 39.0503 1.05367 38.816 -6.15913e-07 38.3902C1.37947 42.7957 5.49317 45.9922 10.3535 45.9922C16.3442 45.9922 21.2007 41.1357 21.2007 35.145C21.2007 29.2262 16.4604 24.4147 10.5691 24.2998C11.7928 25.851 12.5231 27.8095 12.5231 29.9386Z" fill="white"/>
<path fill-rule="evenodd" clip-rule="evenodd" d="M275.929 29.9386C275.929 34.9709 271.85 39.0503 266.818 39.0503C265.611 39.0503 264.46 38.816 263.406 38.3902C264.786 42.7957 268.899 45.9922 273.76 45.9922C279.75 45.9922 284.607 41.1357 284.607 35.145C284.607 29.2262 279.867 24.4147 273.975 24.2998C275.199 25.851 275.929 27.8095 275.929 29.9386Z" fill="white"/>
<path fill-rule="evenodd" clip-rule="evenodd" d="M117.916 56.6075C123.531 64.6614 133.104 70.3547 145.798 68.5413C158.514 66.7246 166.337 58.2931 170.046 48.4016C173.735 38.5649 173.421 27.145 169.8 18.9961C166.884 12.4368 161.814 7.84008 156.714 4.87307C151.637 1.9188 146.482 1.30137 142.98 3.03649C145.828 3.10272 150.627 4.34296 155.405 7.12328C160.162 9.89086 164.782 14.1165 167.421 20.0534C170.741 27.5245 171.079 38.233 167.608 47.4875C164.158 56.6872 157.011 64.3096 145.43 65.9641C133.826 67.6218 125.175 62.4678 120.052 55.1186C114.879 47.6999 113.386 38.1696 116.024 31.2707C118.744 24.1564 123.409 19.0322 128.946 16.594C134.454 14.1681 140.966 14.3362 147.579 18.0559C154.053 21.6975 156.489 27.5368 156.899 33.1248C157.105 35.9299 156.795 38.6532 156.228 40.9552C155.655 43.2782 154.842 45.0834 154.107 46.0942C152.561 48.2192 149.234 50.6763 145.281 51.9085C141.359 53.1309 137.03 53.0887 133.332 50.5583C129.507 47.9413 127.129 43.9402 126.734 39.7942C126.342 35.6839 127.889 31.3333 132.115 27.9126C136.084 24.6993 140.568 25.6139 143.433 28.24C146.337 30.9025 147.294 34.9999 144.614 38.2165C143.164 39.9563 141.855 40.4261 140.886 40.4126C139.886 40.3987 138.949 39.8677 138.268 39.0377C137.572 38.1894 137.284 37.2011 137.385 36.485C137.432 36.1479 137.561 35.8799 137.765 35.6712C137.971 35.4607 138.493 35.9873 139.54 35.1448C140.586 34.3024 139.439 32.3622 138.416 32.5667C137.394 32.7712 136.539 33.2017 135.904 33.8506C135.268 34.5012 134.922 35.301 134.806 36.1232C134.582 37.7256 135.216 39.4221 136.255 40.689C137.31 41.9742 138.922 42.9889 140.85 43.0157C142.81 43.0429 144.81 42.0483 146.614 39.8831C150.442 35.2896 148.796 29.6245 145.192 26.321C141.548 22.9812 135.619 21.7262 130.477 25.8891C125.59 29.8446 123.666 35.0395 124.142 40.041C124.615 45.0067 127.443 49.6834 131.862 52.7069C136.408 55.8172 141.625 55.775 146.056 54.3939C150.455 53.0228 154.287 50.2733 156.212 47.6254C157.213 46.2499 158.135 44.0958 158.756 41.5782C159.381 39.0397 159.723 36.041 159.495 32.9343C159.037 26.6988 156.266 19.9553 148.855 15.7869C141.584 11.6965 134.211 11.4307 127.896 14.2115C121.61 16.9799 116.512 22.7031 113.592 30.341C110.589 38.1944 112.35 48.6231 117.916 56.6075Z" fill="#DBFAFD"/>
<path d="M47.6132 37.4107C47.6132 38.1593 47.6132 35.9137 47.6132 35.1652C47.6132 34.3668 46.8641 33.4184 46.1842 33.0784C44.6451 32.3089 42.1917 32.4187 41.0353 33.6908C37.0519 38.0725 40.1294 43.3309 45.5718 43.3309C50.1084 43.3309 53.939 41.0879 57.1398 37.8871C64.9121 30.1148 73.1479 11.9015 87.2167 18.9359C90.7801 20.7176 93.0509 23.133 94.4751 26.7954C97.5245 34.6367 95.9233 43.425 89.984 49.3644C79.924 59.4243 65.1868 44.3192 76.7034 37.9211C77.9918 37.2053 79.6441 38.1886 80.2759 39.4522" stroke="url(#paint1_linear_422_15807)" stroke-width="4" stroke-linecap="round"/>
<path d="M65.1694 35.9819C66.0782 26.8939 85.9919 27.9719 85.9919 38.2275C85.9919 41.128 85.9246 42.976 82.9298 44.0455C80.563 44.8908 76.9351 44.9838 78.0304 41.6979" stroke="url(#paint2_linear_422_15807)" stroke-width="4" stroke-linecap="round"/>
<path d="M71.7019 27.612C72.8164 24.64 79.3471 23.9323 81.6682 24.2894C87.0275 25.1139 91.5037 30.9189 91.5037 35.7777C91.8644 45.4974 77.1819 54.0622 76.3662 43.4582" stroke="url(#paint3_linear_422_15807)" stroke-width="4" stroke-linecap="round"/>
<path d="M31.4861 38.0228C31.4861 35.1602 34.0009 32.2763 36.2267 30.6737C45.1122 24.2761 53.9347 32.0381 49.4506 38.6352" stroke="url(#paint4_linear_422_15807)" stroke-width="4" stroke-linecap="round"/>
<path d="M47.613 37.4098C47.613 38.1583 47.613 35.9127 47.613 35.1642C47.613 34.3658 46.8639 33.4174 46.184 33.0774C44.6449 32.3079 42.1915 32.4178 41.035 33.6898C37.0517 38.0716 40.1292 43.3299 45.5715 43.3299C50.1081 43.3299 53.9387 41.087 57.1396 37.8861C64.9118 30.1138 73.1477 11.9005 87.2165 18.9349C90.7798 20.7166 93.0506 23.132 94.4749 26.7944C97.5243 34.6357 95.9231 43.4241 89.9837 49.3634C79.9238 59.4234 65.1866 44.3182 76.7032 37.9201C77.9916 37.2043 79.6439 38.1876 80.2757 39.4512" stroke="white" stroke-width="2" stroke-linecap="round"/>
<path d="M65.1692 35.981C66.078 26.8929 85.9917 27.9709 85.9917 38.2265C85.9917 41.1271 85.9243 42.975 82.9295 44.0446C80.5628 44.8898 76.9348 44.9828 78.0301 41.6969" stroke="white" stroke-width="2" stroke-linecap="round"/>
<path d="M71.7017 27.611C72.8162 24.639 79.3468 23.9314 81.668 24.2885C87.0273 25.113 91.5034 30.9179 91.5034 35.7767C91.8641 45.4964 77.1817 54.0612 76.366 43.4572" stroke="white" stroke-width="2" stroke-linecap="round"/>
<path d="M31.4858 38.0225C31.4858 35.1599 34.0006 32.276 36.2265 30.6734C45.112 24.2759 53.9345 32.0378 49.4503 38.635" stroke="white" stroke-width="2" stroke-linecap="round"/>
<path d="M234.216 32.6657C234.216 31.9172 234.216 34.1627 234.216 34.9112C234.216 35.7096 234.965 36.6581 235.645 36.998C237.184 37.7676 239.638 37.6577 240.794 36.3856C244.778 32.0039 241.7 26.7456 236.258 26.7456C231.721 26.7456 227.891 28.9885 224.69 32.1893C216.918 39.9616 208.682 58.1749 194.613 51.1405C191.05 49.3588 188.779 46.9434 187.354 43.281C184.305 35.4397 185.906 26.6514 191.846 20.712C201.906 10.6521 216.643 25.7572 205.126 32.1553C203.838 32.8711 202.185 31.8879 201.554 30.6242" stroke="url(#paint5_linear_422_15807)" stroke-width="4" stroke-linecap="round"/>
<path d="M216.66 34.0945C215.751 43.1826 195.837 42.1046 195.837 31.8489C195.837 28.9484 195.905 27.1004 198.9 26.0309C201.266 25.1856 204.894 25.0926 203.799 28.3785" stroke="url(#paint6_linear_422_15807)" stroke-width="4" stroke-linecap="round"/>
<path d="M210.128 42.4644C209.013 45.4365 202.483 46.1441 200.161 45.787C194.802 44.9625 190.326 39.1575 190.326 34.2987C189.965 24.579 204.648 16.0143 205.463 26.6182" stroke="url(#paint7_linear_422_15807)" stroke-width="4" stroke-linecap="round"/>
<path d="M250.343 32.0536C250.343 34.9163 247.828 37.8001 245.603 39.4028C236.717 45.8003 227.895 38.0384 232.379 31.4412" stroke="url(#paint8_linear_422_15807)" stroke-width="4" stroke-linecap="round"/>
<path d="M234.216 32.6664C234.216 31.9179 234.216 34.1634 234.216 34.912C234.216 35.7104 234.965 36.6588 235.645 36.9988C237.184 37.7683 239.638 37.6584 240.794 36.3863C244.777 32.0046 241.7 26.7463 236.258 26.7463C231.721 26.7463 227.89 28.9892 224.69 32.1901C216.917 39.9623 208.681 58.1757 194.613 51.1412C191.049 49.3596 188.778 46.9441 187.354 43.2818C184.305 35.4405 185.906 26.6521 191.845 20.7128C201.905 10.6528 216.643 25.758 205.126 32.156C203.838 32.8718 202.185 31.8886 201.553 30.625" stroke="white" stroke-width="2" stroke-linecap="round"/>
<path d="M216.66 34.0952C215.751 43.1833 195.837 42.1053 195.837 31.8496C195.837 28.9491 195.905 27.1012 198.899 26.0316C201.266 25.1863 204.894 25.0934 203.799 28.3792" stroke="white" stroke-width="2" stroke-linecap="round"/>
<path d="M210.127 42.4651C209.013 45.4372 202.482 46.1448 200.161 45.7877C194.802 44.9632 190.326 39.1583 190.326 34.2995C189.965 24.5797 204.647 16.015 205.463 26.619" stroke="white" stroke-width="2" stroke-linecap="round"/>
<path d="M250.343 32.0536C250.343 34.9163 247.828 37.8001 245.602 39.4028C236.717 45.8003 227.894 38.0384 232.379 31.4412" stroke="white" stroke-width="2" stroke-linecap="round"/>
<defs>
<radialGradient id="paint0_radial_422_15807" cx="0" cy="0" r="1" gradientUnits="userSpaceOnUse" gradientTransform="translate(35.579 35.579) rotate(90) scale(35.579)">
<stop offset="0.171875" stop-color="#33C2E2"/>
<stop offset="1" stop-color="#045A7D" stop-opacity="0"/>
</radialGradient>
<linearGradient id="paint1_linear_422_15807" x1="39.2261" y1="35.0395" x2="95.9859" y2="35.0395" gradientUnits="userSpaceOnUse">
<stop offset="0.0260417" stop-color="#5FDAEB" stop-opacity="0.31"/>
<stop offset="1" stop-color="#5CF1DC"/>
</linearGradient>
<linearGradient id="paint2_linear_422_15807" x1="65.1694" y1="37.1707" x2="85.9919" y2="37.1707" gradientUnits="userSpaceOnUse">
<stop offset="0.0260417" stop-color="#5FDAEB" stop-opacity="0.31"/>
<stop offset="1" stop-color="#5CF1DC"/>
</linearGradient>
<linearGradient id="paint3_linear_422_15807" x1="71.7019" y1="36.273" x2="91.5102" y2="36.273" gradientUnits="userSpaceOnUse">
<stop offset="0.0260417" stop-color="#5FDAEB" stop-opacity="0.31"/>
<stop offset="1" stop-color="#5CF1DC"/>
</linearGradient>
<linearGradient id="paint4_linear_422_15807" x1="31.4861" y1="33.4603" x2="50.6569" y2="33.4603" gradientUnits="userSpaceOnUse">
<stop offset="0.0260417" stop-color="#5FDAEB" stop-opacity="0.31"/>
<stop offset="1" stop-color="#5CF1DC"/>
</linearGradient>
<linearGradient id="paint5_linear_422_15807" x1="242.604" y1="35.0369" x2="185.844" y2="35.0369" gradientUnits="userSpaceOnUse">
<stop offset="0.0260417" stop-color="#5FDAEB" stop-opacity="0.31"/>
<stop offset="1" stop-color="#5CF1DC"/>
</linearGradient>
<linearGradient id="paint6_linear_422_15807" x1="216.66" y1="32.9057" x2="195.837" y2="32.9057" gradientUnits="userSpaceOnUse">
<stop offset="0.0260417" stop-color="#5FDAEB" stop-opacity="0.31"/>
<stop offset="1" stop-color="#5CF1DC"/>
</linearGradient>
<linearGradient id="paint7_linear_422_15807" x1="210.128" y1="33.8034" x2="190.319" y2="33.8034" gradientUnits="userSpaceOnUse">
<stop offset="0.0260417" stop-color="#5FDAEB" stop-opacity="0.31"/>
<stop offset="1" stop-color="#5CF1DC"/>
</linearGradient>
<linearGradient id="paint8_linear_422_15807" x1="250.343" y1="36.6161" x2="231.172" y2="36.6161" gradientUnits="userSpaceOnUse">
<stop offset="0.0260417" stop-color="#5FDAEB" stop-opacity="0.31"/>
<stop offset="1" stop-color="#5CF1DC"/>
</linearGradient>
</defs>
</svg>
