<svg width="202" height="257" viewBox="0 0 202 257" fill="none" xmlns="http://www.w3.org/2000/svg">
<path d="M220.716 186.229C219.141 195.528 182.259 212.643 164.015 220.039C108.665 229.756 72.2992 200.312 61.0353 184.375C50.3361 168.011 31.8561 135.756 43.5299 137.646C49.6497 138.637 54.8698 141.965 58.3099 144.877C51.3608 133.274 45.3235 100.588 54.6579 106.296C62.7362 111.235 69.9447 123.759 72.5391 129.404C65.3433 110.763 54.3545 75.1642 67.9656 81.8931C84.9795 90.3042 81.3178 108.224 81.972 94.3207C82.6263 80.4171 93.102 72.9994 97.4595 76.8658C100.008 79.1271 99.9774 85.0551 99.3446 89.8732C100.755 88.1837 103.766 86.9812 109.598 87.6364C118.084 88.5896 119.433 100.031 118.76 109.384C120.23 100.851 123.084 91.8026 127.477 95.7003C134.636 102.052 128.585 104.483 130.178 116.481C132.837 101.571 138.683 110.657 145.218 111.442C139.304 106.195 136.187 78.36 147.876 86.503C152.749 89.8976 155.88 92.9169 157.804 95.2782C155.585 90.8628 153.094 84.4536 152.369 77.677C151.053 65.3673 159.664 71.3365 165.578 76.5837C159.048 69.8988 164.928 55.581 168.684 49.2577C174.609 48.0147 185.932 47.6254 183.831 56.0118C192.571 52.1798 193.145 63.905 192.34 70.2466C193.365 65.9566 197.669 58.5972 206.688 63.4798C214.359 67.6325 213.186 76.9146 210.984 82.9046C212.829 80.6006 216.794 80.0426 224.051 87.7988C233.873 98.2965 209.363 127.132 195.88 140.238C200.386 138.294 209.261 136.067 208.709 142.708C208.157 149.348 200.182 154.825 196.264 156.734C205.98 154.77 225.295 153.858 224.827 165.922C224.545 173.172 217.946 177.473 210.788 179.846C216.72 179.581 221.609 180.957 220.716 186.229Z" fill="#021219"/>
<path d="M191.179 192.878C194.632 203.509 173.396 214.381 162.347 218.488C163.342 207.352 174.663 195.844 180.199 191.483C182.421 187.519 187.727 182.248 191.179 192.878Z" fill="#0A413E"/>
<path d="M168.253 183.665C173.169 195.15 159.274 211.31 151.712 217.955C145.246 222.185 142.919 220.233 142.378 217.173C142.149 220.659 140.03 222.057 133.654 216.4C119.982 204.268 123.332 186.096 126.578 181.186C129.823 176.276 139.077 178.366 138.697 181.924C138.393 184.77 139.997 200.697 140.837 208.305C141.461 210.251 142.038 212.556 142.28 214.618C142.33 213.926 142.431 213.244 142.563 212.619C149.078 198.182 163.337 172.181 168.253 183.665Z" fill="#0A413E"/>
<path d="M107.035 169.411C116.923 185.307 120.914 205.095 121.673 213.003C117.38 215.129 101.219 213.772 70.9178 191.338C104.304 238.211 20.8175 190.843 28.725 180.054C35.0509 171.422 45.3331 176.984 49.6835 180.844C41.823 170.716 28.6987 149.538 39.0849 145.844C49.4711 142.15 56.6249 151.948 58.9035 157.308C57.7415 147.56 56.7295 128.337 61.9778 129.432C67.226 130.528 72.6575 150.779 74.7173 160.767C75.7994 155.792 79.3032 146.585 84.6619 149.559C90.0205 152.533 93.5925 164.531 94.7086 170.159C94.6974 163.286 97.147 153.515 107.035 169.411Z" fill="#0A413E"/>
<path d="M103.583 150.768C90.4628 143.021 64.0704 121.941 63.4637 99.5904C62.7053 71.6523 78.2078 89.8586 84.6636 109.498C83.2832 91.0236 91.0528 72.878 96.8534 76.3554C101.005 78.8443 97.8747 96.7546 95.1577 108.146C97.7026 98.805 102.814 85.5383 108.662 86.8326C115.346 88.3123 112.505 112.129 110.248 123.852C113.276 113.555 120.815 94.1664 126.754 98.9905C132.11 103.342 127.719 125.57 124.044 139.276C125.083 138.179 126.89 137.356 129.894 137.389C138.146 137.477 141.495 159.367 136.799 164.659C132.103 169.952 118.223 159.306 115.702 151.505C113.182 143.705 111.626 156.1 103.583 150.768Z" fill="#0A413E"/>
<path d="M159.794 170.039C153.05 165.539 140.687 153.642 145.19 142.057C150.819 127.576 179.37 192.417 159.794 170.039Z" fill="#0A413E"/>
<path d="M173.951 150.328C168.301 144.386 160.473 130.467 174.367 122.318C188.262 114.17 179.879 137.596 173.951 150.328Z" fill="#0A413E"/>
<path d="M187.971 118.252C181.307 116.791 169.216 109.846 174.161 93.7574C179.106 77.6684 185.428 103.384 187.971 118.252Z" fill="#0A413E"/>
<path d="M164.941 122.301C161.396 118.785 155.902 110.831 162.283 107.145C168.664 103.458 166.714 115.713 164.941 122.301Z" fill="#0A413E"/>
<path d="M149.231 115.595C142.475 109.23 131.505 93.6356 141.671 82.1786C151.836 70.7216 150.946 99.6827 149.231 115.595Z" fill="#0A413E"/>
<path d="M169.019 46.3492C152.417 52.5409 161.179 76.6745 167.636 87.9674C181.513 79.8379 184.56 63.6769 184.349 56.6126C186.156 50.6116 185.62 40.1574 169.019 46.3492Z" fill="#0A413E"/>
<path d="M195.085 93.9607C189.296 92.3482 180.674 83.288 192.497 59.9476C204.32 36.6073 199.149 72.8979 195.085 93.9607Z" fill="#0A413E"/>
<path d="M191.767 162.797C187.36 157.958 182.066 146.065 196.154 137.198C210.242 128.331 199.099 150.569 191.767 162.797Z" fill="#0A413E"/>
<path d="M204.715 177.623C200.388 170.816 195.352 155.627 209.826 149.329C224.301 143.031 212.45 165.568 204.715 177.623Z" fill="#0A413E"/>
<path d="M180.201 191.483C182.423 187.519 187.729 182.248 191.181 192.879C192.355 196.494 190.674 200.137 187.51 203.533C181.909 202.458 169.605 202.113 165.198 209.332C169.158 201.539 176.195 194.64 180.201 191.483Z" fill="#129580"/>
<path d="M126.579 181.187C129.825 176.277 139.079 178.366 138.699 181.924C138.577 183.064 138.761 186.299 139.079 190.258C135.801 186.86 128.172 183.523 123.888 197.365C123.098 190.157 124.854 183.797 126.579 181.187Z" fill="#129580"/>
<path d="M94.2296 111.864C94.4833 110.741 94.7951 109.484 95.1595 108.147C95.4522 106.92 95.7496 105.617 96.0422 104.267C94.633 110.328 90.6834 117.852 84.5044 105.298C84.4555 88.3893 91.4959 73.1431 96.8553 76.3561C100.458 78.5159 98.5769 92.289 96.2411 103.337C96.1816 103.641 96.1153 103.952 96.0422 104.267C95.7496 105.617 95.4522 106.92 95.1595 108.147C97.7044 98.8057 102.816 85.539 108.663 86.8333C113.715 87.9514 113.326 101.825 111.861 113.597C111.071 121.057 106.438 131.154 94.2296 111.864Z" fill="#129580"/>
<path d="M126.756 98.9911C120.817 94.167 113.278 113.556 110.25 123.853C115.497 148.985 122.168 142.553 124.847 136.195C128.302 122.463 131.726 103.029 126.756 98.9911Z" fill="#129580"/>
<path d="M173.953 150.328C168.302 144.387 160.474 130.467 174.369 122.319C188.263 114.17 179.881 137.597 173.953 150.328Z" fill="#129580"/>
<path d="M187.973 118.253C181.309 116.792 169.218 109.847 174.163 93.758C179.108 77.669 185.43 103.384 187.973 118.253Z" fill="#129580"/>
<path d="M164.943 122.302C161.398 118.786 155.904 110.832 162.285 107.145C168.666 103.459 166.715 115.714 164.943 122.302Z" fill="#129580"/>
<path d="M169.02 46.3497C152.419 52.5415 161.181 76.6751 167.637 87.968C181.515 79.8385 184.562 63.6775 184.351 56.6132C186.158 50.6121 185.622 40.158 169.02 46.3497Z" fill="#129580"/>
<path d="M195.087 93.9613C189.298 92.3487 180.676 83.2886 192.499 59.9482C204.322 36.6078 199.151 72.8984 195.087 93.9613Z" fill="#129580"/>
<path d="M191.769 162.797C187.361 157.959 182.068 146.065 196.156 137.198C210.243 128.331 199.101 150.57 191.769 162.797Z" fill="#129580"/>
<path d="M204.717 177.624C200.389 170.817 195.354 155.628 209.828 149.33C224.303 143.031 212.452 165.568 204.717 177.624Z" fill="#129580"/>
<path d="M168.255 183.666C170.142 188.074 169.258 193.171 167.024 198.154C162.951 200.104 154.003 202.515 150.792 196.549C157.367 185.234 164.938 175.917 168.255 183.666Z" fill="#129580"/>
<path d="M82.3524 103.389C75.1225 86.5342 62.7871 74.5975 63.4655 99.5911C63.547 102.591 64.0929 105.568 65.0088 108.493C71.6571 123.533 79.3413 111.357 82.3524 103.389Z" fill="#129580"/>
<path d="M191.179 192.879C187.727 182.249 182.421 187.519 180.2 191.484C169.244 205.82 182.955 198.388 191.179 192.879Z" fill="#65BD96"/>
<path d="M168.253 183.666C169.29 186.088 169.49 188.719 169.089 191.424C163.827 197.05 153.52 204.79 154.394 190.74C159.944 182.441 165.531 177.307 168.253 183.666Z" fill="#65BD96"/>
<path d="M180.537 133.071C183.03 124.133 182.847 117.346 174.367 122.319C170.413 124.638 168.218 127.424 167.232 130.361C173.086 147.054 178.541 139.123 180.537 133.071Z" fill="#65BD96"/>
<path d="M202.464 140.487C203.742 135.552 202.541 133.178 196.154 137.198C192.211 139.68 189.786 142.399 188.436 145.134C188.273 158.664 197.72 147.673 202.464 140.487Z" fill="#65BD96"/>
<path d="M182.341 95.3624C179.732 88.3859 176.757 85.3129 174.161 93.7582C173.436 96.1187 173.077 98.2824 173.014 100.261C177.317 110.095 181.025 101.093 182.341 95.3624Z" fill="#65BD96"/>
<path d="M182.192 45.6139C179.826 44.0646 175.739 43.8435 169.019 46.3498C159.886 49.7562 158.429 58.5928 160.042 67.7342C164.16 87.128 176.525 61.0681 182.192 45.6139Z" fill="#65BD96"/>
<path d="M199.78 59.1719C199.917 51.2586 198.148 48.7938 192.497 59.9483C190.378 64.1316 188.916 67.8561 187.976 71.1612C189.935 77.3918 196.662 65.7644 199.78 59.1719Z" fill="#65BD96"/>
<path d="M128.771 102.977C128.379 101.163 127.728 99.7821 126.754 98.9913C123.458 96.314 119.669 101.094 116.432 107.64C114.72 111.924 112.466 121.192 117.141 123.992C121.816 126.793 126.843 111.149 128.771 102.977Z" fill="#65BD96"/>
<path d="M112.462 93.8231C111.932 89.9906 110.771 87.3002 108.662 86.8334C105.715 86.1811 102.955 89.2275 100.616 93.6059C100.261 96.6295 100.369 103.402 103.636 106.301C106.904 109.2 110.881 99.1905 112.462 93.8231Z" fill="#65BD96"/>
<path d="M98.8051 81.7059C98.6244 79.0138 98.0327 77.0631 96.8536 76.3562C92.5447 73.773 87.1492 83.1219 85.225 95.6738C88.8452 103.453 95.7868 89.6032 98.8051 81.7059Z" fill="#65BD96"/>
</svg>
