<svg width="264" height="174" viewBox="0 0 264 174" fill="none" xmlns="http://www.w3.org/2000/svg">
<path d="M285.584 79.8677C266.37 71.5955 224.252 63.7257 205.596 60.8248C142.187 51.7076 38.3454 68.5561 -5.64941 78.12L42.5001 173.5C76.2988 176.597 162.635 116.959 189.804 114.934C223.766 112.404 309.602 90.208 285.584 79.8677Z" fill="url(#paint0_linear_918_6)"/>
<path d="M62.4169 32.6795C62.4169 22.4354 70.7213 14.131 80.9653 14.131C83.4204 14.131 85.764 14.608 87.9087 15.4743C85.1002 6.5067 76.7263 1.17981e-07 66.8327 0C54.6374 -1.45427e-07 44.7512 9.88622 44.7512 22.0815C44.7512 34.1305 54.4016 43.9254 66.3948 44.1587C63.9035 41.0009 62.4169 37.0138 62.4169 32.6795Z" fill="white"/>
<defs>
<linearGradient id="paint0_linear_918_6" x1="110.833" y1="26.6731" x2="170.123" y2="135.224" gradientUnits="userSpaceOnUse">
<stop stop-color="#2D6A3E"/>
<stop offset="0.572917" stop-color="#2D6A3E" stop-opacity="0"/>
</linearGradient>
</defs>
</svg>
