<svg width="175" height="148" viewBox="0 0 175 148" fill="none" xmlns="http://www.w3.org/2000/svg">
<path d="M108.157 121.01C122.118 114.806 123.023 75.1213 121.73 56.0547L108.157 58.9631L98.4625 120.041C95.8772 122.949 94.1967 127.215 108.157 121.01Z" fill="#07668F" stroke="#07668F" stroke-width="2"/>
<path d="M117.852 55.0844C118.628 64.3915 115.59 74.4741 113.974 78.3521L113.005 57.0234C114.298 52.4991 117.076 45.7773 117.852 55.0844Z" fill="#33C2E2"/>
<path d="M110.097 57.9929C110.872 67.3 107.188 87.7238 105.249 96.7724C106.025 87.4653 104.926 67.6878 104.28 58.9624C105.896 54.7613 109.321 48.6858 110.097 57.9929Z" fill="#33C2E2"/>
<path d="M141.033 14.6082C131.214 2.92163 122.808 0.749137 117.601 0C107.558 1.1237 103.095 4.49482 95.2842 11.237C87.4735 17.9793 56.2304 32.5874 56.2304 43.8245C56.2304 55.0615 94.1684 57.3089 114.253 59.5564C134.338 61.8038 174.508 57.3089 174.508 43.8245C174.508 30.34 153.307 29.2163 141.033 14.6082Z" fill="url(#paint0_linear_901_655)"/>
<path d="M137.667 16.4813C129.136 6.3986 121.832 4.52425 117.308 3.87793C108.583 4.84742 104.705 7.75588 97.9184 13.5728C91.132 19.3897 63.9863 31.9931 63.9863 41.6879C63.9863 51.3828 96.9489 53.3218 114.4 55.2608C131.85 57.1997 166.752 53.3218 166.752 41.6879C166.752 30.0541 148.332 29.0846 137.667 16.4813Z" fill="#14F2F4"/>
<path d="M146.961 27.7885C147.519 26.8438 147.59 26.2049 147.714 25.0886C146.692 22.9352 145.643 21.2273 143.5 20.4834C143.024 20.6638 142.81 20.8158 142.384 20.854C139.841 25.4655 140.846 27.1842 146.961 27.7885Z" fill="#B6F6F7"/>
<path d="M119.118 19.6834C119.315 19.3166 119.548 18.7234 119.687 18.4378C120.155 15.6076 121.901 14.6288 123.91 13.363C124.64 11.8917 126.144 12.3753 126.451 10.698C125.413 9.43807 124.504 8.59615 123.253 7.65218C122.357 6.93622 121.634 6.94914 120.689 6.58434C120.413 2.6618 117.373 1.05968 115.92 2.54997C112.215 6.35072 107.401 3.61291 103.336 6.16004C102.903 6.00719 102.917 6.06298 102.918 6.09156C102.697 6.47275 102.435 6.83635 102.387 7.24828C102.031 10.3111 99.3241 13.4223 101.608 16.3837C103.99 19.4721 106.437 15.2317 109.337 15.788C109.921 16.0544 110.149 16.1769 110.726 16.4555C111.809 16.7813 112.528 16.9951 113.482 17.6797C114.288 18.3789 114.772 18.8723 115.54 19.5535C116.78 20.8133 117.743 21.8027 119.118 19.6834Z" fill="#D2F6FC"/>
<path d="M126.789 10.3105C125.673 10.9604 125.026 11.6403 124.253 12.6739C125.753 12.6351 127.018 13.3592 128.374 14.3518C129.377 15.0867 130.663 17.8518 131.947 15.0943C133.016 12.7987 131.998 10.8965 129.546 10.4571C128.797 10.3225 128.021 10.3742 126.789 10.3105Z" fill="#ADF7F9"/>
<path d="M132.335 23.1052C132.263 24.5397 132.511 25.6716 133.071 27.0781C135.092 26.9565 136.127 25.8477 135.704 23.8245C135.272 21.7534 133.963 22.0538 132.335 23.1052Z" fill="#ADF7F9"/>
<path d="M123.961 20.1804C124.622 20.5778 125.105 20.6138 125.948 20.6175C127.316 18.7799 128.099 16.5089 125.597 16.0097C123.34 15.5593 122.622 17.451 123.961 20.1804Z" fill="#8AF5F7"/>
<path d="M138.098 15.4019C136.978 15.645 135.283 14.8719 135.058 17.0911C135.013 17.5313 135.576 18.3878 135.97 18.4877C137.555 18.8887 137.702 17.3952 138.094 15.7779C138.155 15.3469 138.049 15.4599 138.098 15.4019Z" fill="#68F5F4"/>
<path d="M87.6277 28.41C88.3562 28.7137 88.8839 28.7216 89.8049 28.6764C90.6224 28.5717 90.9367 28.3407 91.2728 27.6049C91.8995 27.2626 92.3774 27.2175 93.215 27.1674C93.7935 27.0064 94.0123 26.8504 94.5837 26.511C95.1378 26.2788 95.3393 26.23 95.8375 26.0828C96.6951 25.441 96.7776 24.6949 96.9401 23.5771C98.2051 22.2049 99.348 21.1865 100.653 19.7894C100.496 18.7594 100.176 18.1081 99.7395 17.1094C97.2462 17.1238 95.414 18.4987 94.3528 20.8766C93.1727 23.5207 91.0549 23.4558 88.5306 23.6978C88.0923 23.7438 88.0113 23.7042 87.9752 23.6757C87.3392 23.9838 86.6682 24.0064 85.7579 24.3965C85.1142 24.7445 84.8298 25.006 84.5165 25.6699C84.4055 25.9589 84.8783 26.1433 85.1158 26.2314C86.2166 26.6648 86.794 27.4303 87.6277 28.41Z" fill="#8AF5F7"/>
<path d="M95.4471 42.9913C95.9696 41.4389 97.3513 40.2432 96.4103 38.2507C94.2685 38.2629 92.1284 42.6766 89.6127 38.7742C88.8661 37.616 86.8008 37.017 86.1343 38.5445C85.1755 40.7419 87.4873 41.1324 88.9187 42.379C91.1316 42.8099 93.0527 42.95 95.4471 42.9913Z" fill="#8AF5F7"/>
<path d="M108.75 43.8816C109.816 44.1698 110.584 44.1559 111.726 44.0478C112.503 43.0753 112.906 42.1968 113.299 40.9454C110.043 40.0904 109.527 34.48 105.184 35.4409C103.659 39.5789 105.469 41.9177 108.75 43.8816Z" fill="#B6F6F7"/>
<path d="M113.691 25.177C109.622 24.3755 109.008 29.61 105.722 30.2103C105.079 30.3278 105.637 32.1492 106.418 32.9069C107.266 33.728 108.162 33.7212 109.007 32.9004C110.591 31.3638 112.155 29.8021 113.892 27.8232C114.301 26.757 114.291 26.1238 113.691 25.177Z" fill="#ADF7F9"/>
<path d="M122.97 43.9775C124.29 44.3984 125.477 44.4665 127.106 44.4368C127.347 42.0557 128.338 40.3372 129.733 38.3284C129.244 37.4897 128.648 37.082 127.763 36.452C126.961 35.959 126.425 35.8846 125.556 36.2848C125.16 38.4021 125.149 40.2653 122.603 40.6872C122.435 41.7591 122.636 42.6918 122.97 43.9775Z" fill="#ADF7F9"/>
<path d="M124.845 25.1892C124.13 26.5798 124.219 27.6801 125.067 28.3488C126.315 29.3326 124.827 32.2546 127.166 32.1946C128.708 32.1549 128.925 30.7407 128.351 29.4345C127.581 27.682 129.508 23.3874 124.845 25.1892Z" fill="#8AF5F7"/>
<path d="M90.6382 29.6893C91.6027 33.5394 92.8323 37.3038 97.2031 33.1747C95.7818 32.6559 94.988 31.5748 94.0576 29.9818C92.8671 29.2159 91.942 29.23 90.6382 29.6893Z" fill="#8AF5F7"/>
<path d="M115.727 26.7998C118.708 27.2202 120.984 26.8658 119.593 22.4467C118.213 20.8447 117.295 21.5424 116.129 22.8858C115.811 23.4868 115.766 23.7081 115.629 24.2543C115.294 25.1899 115.263 25.8184 115.727 26.7998Z" fill="#ADF7F9"/>
<path d="M104.267 28.2202C105.684 27.112 107.036 26.3514 106.013 24.4548C105.482 23.4717 104.579 23.7427 104.091 24.4142C103.191 25.6524 100.793 25.5771 101.27 27.888C101.624 29.6003 102.876 29.3322 104.267 28.2202Z" fill="#8AF5F7"/>
<path d="M111.238 15.46C109.468 16.0148 107.382 16.0112 106.526 18.9892C106.704 19.7946 106.969 20.1502 107.485 20.7081C108.227 21.2353 108.757 21.3567 109.686 21.0788C110.487 20.2211 110.924 19.5887 111.486 18.5739C111.874 17.5535 111.921 16.8954 111.486 15.8088C111.218 15.4001 111.211 15.4603 111.238 15.46Z" fill="#ADF7F9"/>
<path d="M132.298 35.9516C133.592 36.5063 134.873 36.6986 136.198 35.319C136.423 33.1146 135.388 32.4274 133.863 32.6403C132.427 32.8407 132.182 34.0807 132.298 35.9516Z" fill="#ADF7F9"/>
<path d="M136.345 43.8451C136.329 44.2964 136.359 44.4798 136.394 44.5621C138.28 46.2127 140.263 46.99 141.726 44.339C142.485 42.9648 141.778 41.2256 140.384 40.6815C138.298 39.867 136.623 40.4568 136.345 43.8451Z" fill="#D2F6FC"/>
<path d="M42.5618 147.975C32.9875 141.619 32.3669 100.968 33.2534 81.4365L42.5618 84.4159L49.2106 146.982C50.9836 149.961 52.136 154.331 42.5618 147.975Z" fill="#07668F" stroke="#07668F" stroke-width="2"/>
<path d="M36.2222 81.7532C35.7263 87.7036 37.6684 94.1498 38.7015 96.6292L39.321 82.9928C38.4947 80.1003 36.718 75.8028 36.2222 81.7532Z" fill="#33C2E2"/>
<path d="M41.1805 83.6127C40.6847 89.5631 43.04 102.621 44.2797 108.406C43.7838 102.456 44.4863 89.811 44.8995 84.2325C43.8665 81.5466 41.6764 77.6623 41.1805 83.6127Z" fill="#33C2E2"/>
<path d="M21.4018 55.8748C27.6797 48.4031 33.0539 47.0141 36.3831 46.5352C42.8036 47.2536 45.6572 49.4089 50.6509 53.7195C55.6447 58.0301 75.6197 67.3697 75.6197 74.554C75.6197 81.7383 51.3643 83.1751 38.5232 84.612C25.6822 86.0489 0 83.1751 0 74.554C0 65.9328 13.5545 65.2144 21.4018 55.8748Z" fill="url(#paint1_linear_901_655)"/>
<path d="M23.554 57.0725C29.0085 50.6262 33.6779 49.4279 36.5705 49.0146C42.149 49.6345 44.6283 51.494 48.9672 55.213C53.306 58.932 70.6613 66.9898 70.6613 73.1882C70.6613 79.3865 49.587 80.6262 38.43 81.8658C27.273 83.1055 4.95898 80.6262 4.95898 73.1882C4.95898 65.7502 16.7358 65.1303 23.554 57.0725Z" fill="#14F2F4"/>
<path d="M17.3947 67.4727C17.0379 66.8687 16.9926 66.4602 16.9131 65.7465C17.5662 64.3698 18.2368 63.2779 19.607 62.8022C19.9113 62.9176 20.0484 63.0147 20.3207 63.0392C21.9467 65.9875 21.3039 67.0863 17.3947 67.4727Z" fill="#B6F6F7"/>
<path d="M35.1954 62.2896C35.0694 62.0551 34.92 61.6759 34.8317 61.4932C34.5325 59.6838 33.4157 59.058 32.1316 58.2487C31.6646 57.308 30.7032 57.6172 30.5068 56.5449C31.1709 55.7394 31.7517 55.2011 32.5516 54.5976C33.1244 54.1398 33.587 54.1481 34.191 53.9148C34.3675 51.407 36.311 50.3827 37.2399 51.3355C39.6089 53.7655 42.6862 52.0151 45.2852 53.6436C45.562 53.5458 45.5533 53.5815 45.5524 53.5998C45.6941 53.8435 45.8615 54.076 45.8921 54.3393C46.1199 56.2975 47.8503 58.2866 46.3899 60.18C44.867 62.1546 43.3026 59.4434 41.4484 59.7991C41.0751 59.9695 40.9297 60.0478 40.5603 60.2259C39.8679 60.4342 39.4087 60.5709 38.7988 61.0086C38.2834 61.4556 37.9738 61.7711 37.4829 62.2066C36.69 63.012 36.0744 63.6446 35.1954 62.2896Z" fill="#D2F6FC"/>
<path d="M30.2914 56.2979C31.0045 56.7133 31.4186 57.148 31.9128 57.8088C30.9537 57.7841 30.1448 58.247 29.2782 58.8816C28.6366 59.3515 27.8145 61.1193 26.9937 59.3563C26.3103 57.8886 26.9608 56.6725 28.5283 56.3915C29.0077 56.3055 29.5039 56.3386 30.2914 56.2979Z" fill="#ADF7F9"/>
<path d="M26.7454 64.4772C26.7914 65.3943 26.6327 66.118 26.2747 67.0172C24.9826 66.9395 24.3207 66.2306 24.591 64.9371C24.8678 63.6129 25.7041 63.805 26.7454 64.4772Z" fill="#ADF7F9"/>
<path d="M32.0996 62.6074C31.6769 62.8614 31.3686 62.8844 30.8293 62.8868C29.9548 61.7119 29.4539 60.26 31.0536 59.9409C32.497 59.6529 32.9556 60.8624 32.0996 62.6074Z" fill="#8AF5F7"/>
<path d="M23.0609 59.5518C23.7767 59.7072 24.86 59.2129 25.0043 60.6318C25.0329 60.9132 24.6732 61.4608 24.4208 61.5247C23.4079 61.781 23.3135 60.8262 23.0632 59.7922C23.0243 59.5166 23.092 59.5889 23.0609 59.5518Z" fill="#68F5F4"/>
<path d="M55.3298 67.869C54.864 68.0632 54.5266 68.0682 53.9378 68.0393C53.4151 67.9724 53.2142 67.8247 52.9993 67.3543C52.5986 67.1354 52.2931 67.1066 51.7576 67.0745C51.3877 66.9716 51.2478 66.8719 50.8825 66.6549C50.5283 66.5064 50.3994 66.4752 50.0809 66.3811C49.5326 65.9708 49.4798 65.4938 49.376 64.7791C48.5672 63.9018 47.8365 63.2507 47.002 62.3575C47.1026 61.699 47.3071 61.2826 47.5862 60.644C49.1803 60.6533 50.3517 61.5323 51.0301 63.0526C51.7846 64.7431 53.1386 64.7016 54.7525 64.8563C55.0328 64.8857 55.0845 64.8604 55.1076 64.8422C55.5142 65.0391 55.9432 65.0536 56.5252 65.303C56.9367 65.5255 57.1186 65.6927 57.3189 66.1172C57.3899 66.3019 57.0876 66.4198 56.9357 66.4762C56.2319 66.7532 55.8628 67.2426 55.3298 67.869Z" fill="#8AF5F7"/>
<path d="M50.3293 77.1916C49.9953 76.1991 49.1119 75.4346 49.7135 74.1607C51.0828 74.1685 52.4511 76.9904 54.0594 74.4954C54.5368 73.755 55.8572 73.3719 56.2834 74.3486C56.8964 75.7535 55.4183 76.0031 54.5032 76.8001C53.0884 77.0756 51.8601 77.1652 50.3293 77.1916Z" fill="#8AF5F7"/>
<path d="M41.8235 77.761C41.1417 77.9453 40.6507 77.9363 39.9209 77.8672C39.4241 77.2455 39.166 76.6838 38.915 75.8837C40.9964 75.3371 41.3267 71.7501 44.1032 72.3645C45.0782 75.0101 43.9213 76.5054 41.8235 77.761Z" fill="#B6F6F7"/>
<path d="M38.6651 65.8022C41.2667 65.2898 41.659 68.6364 43.7597 69.0203C44.171 69.0954 43.8146 70.2599 43.3148 70.7443C42.773 71.2693 42.2002 71.2649 41.6596 70.7402C40.6473 69.7577 39.6472 68.7593 38.5368 67.4941C38.2752 66.8124 38.2817 66.4076 38.6651 65.8022Z" fill="#ADF7F9"/>
<path d="M32.7332 77.8221C31.8895 78.0912 31.1306 78.1347 30.0889 78.1157C29.9348 76.5934 29.3013 75.4947 28.4092 74.2104C28.7218 73.6742 29.1029 73.4135 29.6692 73.0108C30.1814 72.6956 30.5241 72.648 31.0799 72.9038C31.3332 74.2576 31.3404 75.4487 32.9678 75.7185C33.0755 76.4038 32.9467 77.0001 32.7332 77.8221Z" fill="#ADF7F9"/>
<path d="M31.535 65.8105C31.9919 66.6995 31.9352 67.403 31.3929 67.8305C30.5952 68.4595 31.546 70.3276 30.0507 70.2893C29.0648 70.2639 28.9264 69.3598 29.2933 68.5246C29.7855 67.4042 28.5532 64.6585 31.535 65.8105Z" fill="#8AF5F7"/>
<path d="M53.4033 68.6869C52.7866 71.1485 52.0005 73.5553 49.2061 70.9153C50.1148 70.5837 50.6223 69.8924 51.2171 68.874C51.9783 68.3843 52.5697 68.3934 53.4033 68.6869Z" fill="#8AF5F7"/>
<path d="M37.3624 66.8397C35.4563 67.1085 34.0016 66.8818 34.8906 64.0565C35.7731 63.0323 36.3603 63.4784 37.1054 64.3373C37.3088 64.7215 37.3376 64.863 37.4249 65.2122C37.6391 65.8104 37.6588 66.2122 37.3624 66.8397Z" fill="#ADF7F9"/>
<path d="M44.6903 67.7472C43.7842 67.0387 42.9196 66.5524 43.5738 65.3398C43.9129 64.7113 44.4906 64.8845 44.8026 65.3139C45.3778 66.1055 46.9109 66.0574 46.6058 67.5348C46.3798 68.6296 45.5796 68.4581 44.6903 67.7472Z" fill="#8AF5F7"/>
<path d="M40.2333 59.5898C41.3644 59.9445 42.6983 59.9422 43.2453 61.8462C43.1316 62.3611 42.9624 62.5884 42.6324 62.9451C42.1583 63.2822 41.8194 63.3598 41.2255 63.1821C40.713 62.6338 40.4338 62.2294 40.0745 61.5807C39.8266 60.9282 39.7961 60.5075 40.0743 59.8128C40.2457 59.5515 40.2503 59.5899 40.2333 59.5898Z" fill="#ADF7F9"/>
<path d="M26.7688 72.6899C25.9415 73.0445 25.1225 73.1675 24.2754 72.2855C24.1318 70.876 24.7933 70.4367 25.7685 70.5729C26.6865 70.701 26.8429 71.4937 26.7688 72.6899Z" fill="#ADF7F9"/>
<path d="M24.1825 77.7384C24.193 78.0269 24.1738 78.1442 24.1515 78.1968C22.9457 79.2521 21.6779 79.749 20.742 78.0542C20.2568 77.1756 20.7088 76.0636 21.6 75.7158C22.9342 75.1951 24.0046 75.5721 24.1825 77.7384Z" fill="#D2F6FC"/>
<path d="M52.6805 154.149C57.5279 154.149 66.4472 147.751 63.3449 122.156C49.7725 126.034 43.9546 137.668 52.6805 154.149Z" fill="#1F4891"/>
<path d="M63.3449 122.156C64.6238 132.707 63.8598 139.996 62.1802 144.919C61.4893 144.118 60.1074 141.158 60.1074 135.729C60.1074 128.943 60.1074 139.607 55.26 142.515C51.382 144.842 49.6475 145.424 49.265 145.424C46.404 133.585 52.3127 125.308 63.3449 122.156Z" fill="#3A70BB"/>
<path d="M54.9514 155.415C58.0005 157.175 65.9344 156.39 73.2778 139.164C63.3324 136.674 55.4481 141.879 54.9514 155.415Z" fill="#1F4891"/>
<path d="M73.2778 139.164C70.2506 146.265 67.1231 150.572 64.2788 153.059C64.1351 152.304 64.3408 149.94 66.3124 146.526C68.7769 142.257 64.9041 148.965 60.7988 149.034C57.5146 149.089 56.2123 148.825 55.9717 148.686C58.4715 140.2 65.1938 137.14 73.2778 139.164Z" fill="#3A70BB"/>
<path d="M97.216 139.361C101.842 136.69 106.828 125.67 89.7657 102.953C78.9499 114.132 79.8078 128.44 97.216 139.361Z" fill="#1F4891"/>
<path d="M89.7657 102.953C96.7995 112.318 100.086 119.695 101.196 125.318C100.095 124.934 97.1458 122.871 94.1545 117.69C90.4153 111.214 96.2912 121.391 93.2676 126.837C90.8488 131.195 89.514 132.705 89.1489 132.916C79.8956 123.194 80.9742 112.04 89.7657 102.953Z" fill="#3A70BB"/>
<path d="M100.081 139.318C103.961 139.318 111.099 134.197 108.616 113.712C97.7534 116.816 93.097 126.127 100.081 139.318Z" fill="#1F4891"/>
<path d="M108.616 113.712C109.64 122.156 109.028 127.99 107.684 131.931C107.131 131.289 106.025 128.92 106.025 124.575C106.025 119.144 106.025 127.679 102.145 130.007C99.0416 131.869 97.6533 132.335 97.3472 132.335C95.0574 122.859 99.7865 116.235 108.616 113.712Z" fill="#3A70BB"/>
<path d="M149.433 109.278C138.659 113.871 132.124 118.616 128.351 122.932C129.497 123.149 133.083 122.838 138.264 119.846C144.74 116.107 134.563 121.983 134.458 128.211C134.374 133.194 134.775 135.17 134.986 135.535C147.86 131.742 152.503 121.543 149.433 109.278Z" fill="#3A70BB"/>
<path d="M122.318 135.614C118.958 133.674 115.336 125.669 127.729 109.17C135.585 117.29 134.962 127.682 122.318 135.614Z" fill="#1F4891"/>
<path d="M127.729 109.17C122.62 115.972 120.233 121.33 119.427 125.414C120.227 125.135 122.369 123.637 124.541 119.874C127.257 115.17 122.99 122.562 125.186 126.518C126.942 129.682 127.912 130.78 128.177 130.933C134.898 123.872 134.114 115.77 127.729 109.17Z" fill="#3A70BB"/>
<defs>
<linearGradient id="paint0_linear_901_655" x1="162.874" y1="32.9626" x2="78.5286" y2="30.0541" gradientUnits="userSpaceOnUse">
<stop stop-color="#098D9C"/>
<stop offset="1" stop-color="#148BBB"/>
</linearGradient>
<linearGradient id="paint1_linear_901_655" x1="7.438" y1="67.6095" x2="61.3635" y2="65.75" gradientUnits="userSpaceOnUse">
<stop stop-color="#098D9C"/>
<stop offset="1" stop-color="#148BBB"/>
</linearGradient>
</defs>
</svg>
